<?xml version="1.0" encoding="utf-8"?>
<!-- Generator: Adobe Illustrator 25.4.1, SVG Export Plug-In . SVG Version: 6.00 Build 0)  -->
<svg version="1.1" id="Layer_1" xmlns="http://www.w3.org/2000/svg" xmlns:xlink="http://www.w3.org/1999/xlink" x="0px" y="0px"
	 viewBox="0 0 200 39.8" style="enable-background:new 0 0 200 39.8;" xml:space="preserve">
<style type="text/css">
	.st0{fill:#DC9779;}
</style>
<g>
	<path class="st0" d="M2.4,28.4c-0.2-1.3-0.3-2.8-0.2-4c0.1-1,0.2-1.9,0.6-2.5c0.4-0.8,1-1.3,1.8-1.3c0.7,0,1.2,0.3,1.8,1.1
		c0.6,0.7,1.5,1.8,2.3,2.7c1,1,2.5,1.8,4.1,1.8c1.2,0,2-0.7,2.1-1.7c0.2-1.5-0.9-2.1-3.2-2.9L10.4,21c-4.2-1.6-6.8-4.3-6.2-8.6
		c0.6-4.3,4.2-7.1,9.5-7.1c2.7,0,3.9,0.5,5,0.9c0.3,0.1,0.7,0.2,1,0.2c0.5,0,0.9-0.3,1.3-0.7C21.2,5.3,21.7,5,22.4,5
		c0.9,0,1.5,0.6,1.8,1.3c0.4,0.8,0.6,2,0.7,3.2c0.1,1.4,0.1,2.8-0.2,3.8c-0.3,0.9-0.9,1.5-1.8,1.5c-0.9,0-1.7-0.7-2.5-1.4
		c-0.8-0.7-1.6-1.7-2.5-2.3c-0.8-0.5-1.8-0.9-2.9-0.9c-1.2,0-2,0.6-2.2,1.5c-0.2,1.4,0.9,1.8,3.7,2.8l1.4,0.5c5.4,2,6.6,5.3,6.1,9
		c-0.6,4.2-3.8,7.5-9.4,7.5c-2.9,0-4.7-0.8-5.9-1.3c-0.4-0.2-0.7-0.2-1.1-0.2c-0.5,0-0.8,0.3-1.2,0.8c-0.4,0.5-0.8,0.7-1.7,0.7
		C3.4,31.3,2.8,30,2.4,28.4z"/>
	<path class="st0" d="M26.7,21.5c0.9-6.4,6.4-10.6,12.4-10.6c4.1,0,7.1,2,6.4,6.3C45.1,21.1,41.4,23,36,23c-0.1,0-0.3,0-0.4,0
		c-0.9,0-1,0.4-0.7,1.1c0.5,1.2,1.7,1.7,3.4,1.7c1.6,0,3-1,4-2c0.2-0.2,0.6-0.4,1-0.4c0.9,0,1.7,1,1.2,2.3c-1.1,3-4.4,5.8-9.3,5.8
		C29,31.4,25.9,27.3,26.7,21.5z M35.5,20.3c0.9,0,2.9-1,3.2-2.8c0.2-1.2-0.4-1.8-1.3-1.8c-1.2,0-2.4,1.7-2.7,3.4
		c-0.1,0.9,0.2,1.3,0.7,1.3C35.5,20.3,35.5,20.3,35.5,20.3z"/>
	<path class="st0" d="M57.7,19.3c-0.3,1.5-0.5,3.2-0.7,4.7c-0.2,1.6-0.5,3.5-0.6,4.2c-0.3,2.1-2.8,3.3-5.7,3.3c-1.9,0-2.6-0.8-2.6-2
		c0-1.6,1-5.6,1.3-7.8c0.2-1.4,0.3-2.2,0.3-2.9c0-0.5,0-0.7-0.2-1c-0.2-0.2-0.5-0.4-1-0.6c-0.7-0.2-1-0.7-0.9-1.5
		c0.1-0.8,0.5-1.4,1.3-2.1c0.9-0.8,2.2-1.5,3.4-1.9c0.9-0.3,1.9-0.6,2.8-0.6c2.1,0,3,1.1,3,3.1c0,0.2,0,0.4-0.1,0.6
		c-0.1,0.5,0.3,0.7,0.6,0.1c1.4-2.5,3.2-3.8,5.9-3.8c2.6,0,4.4,1.5,4.7,3.8c0.1,0.5,0.3,0.6,0.7,0c1.4-2.5,3.2-3.8,5.9-3.8
		c4,0,5.1,3.3,4.5,7.4c-0.3,2.2-0.8,4.5-1,6.1c-0.1,0.5,0,0.9,0.1,1.1c0.1,0.3,0.3,0.4,0.7,0.5c0.3,0.1,0.5,0.2,0.7,0.3
		c0.4,0.3,0.6,0.6,0.4,1.3c-0.3,1.9-2.9,3.4-6.4,3.4c-3.5,0-4.1-1.6-3.7-4.2c0.3-2.1,1-5.3,1.2-6.5c0.2-1.8-0.1-3.4-1.6-3.4
		c-0.9,0-1.6,0.7-1.8,2.1c-0.3,1.5-0.5,3.2-0.7,4.7c-0.2,1.6-0.4,3.1-0.5,3.8c-0.3,2.1-1.9,3.6-5.7,3.6c-1.9,0-2.7-1.1-2.3-3.2
		c0.2-1.4,0.5-2.9,0.7-4.2c0.2-1.4,0.5-2.6,0.6-3.5c0.3-1.8,0-3.4-1.7-3.4C58.5,17.2,58,17.9,57.7,19.3z"/>
	<path class="st0" d="M83.9,27c0.3-2,0.6-3.1,0.9-4.7c0.4-2,0.5-2.8,0.5-3.5c0-0.5,0-0.8-0.2-1c-0.2-0.2-0.5-0.4-0.8-0.5
		c-0.9-0.2-1.2-0.7-1.1-1.5c0.1-0.8,0.4-1.3,1-1.8c1-1,2.9-2,4.5-2.5c0.7-0.2,1.4-0.3,2-0.3c2.7,0,3.5,1.5,3,4.8
		c-0.1,1.1-0.4,2.5-0.7,4.5c-0.3,1.8-0.6,3.6-0.7,4.2c-0.1,0.5,0,0.9,0.1,1.1c0.1,0.3,0.4,0.4,0.7,0.5c0.3,0.1,0.6,0.2,0.8,0.3
		c0.2,0.2,0.5,0.6,0.4,1.2c-0.3,1.8-2.5,3.4-6.4,3.4C84.3,31.3,83.4,29.6,83.9,27z M84.6,7.3c0.4-2.8,4.3-5.1,7.3-5.1
		c2.3,0,3.6,0.9,3.3,3.2c-0.3,2.9-4.5,4.8-7.8,4.8C85.5,10.2,84.4,9,84.6,7.3z"/>
	<path class="st0" d="M105.3,28.8c-0.1-0.1-0.2-0.2-0.3-0.2c-0.1,0-0.3,0.1-0.3,0.3c-0.2,1-0.5,3-0.6,4.1c-0.1,0.8,0,1.2,0.2,1.5
		c0.2,0.3,0.6,0.4,0.8,0.6c0.3,0.3,0.7,0.7,0.6,1.4c-0.1,0.8-0.5,1.3-1.3,1.7c-1.5,0.8-4.6,1.6-7.5,1.6c-1.1,0-1.9-0.2-2.3-0.6
		c-0.3-0.3-0.5-0.7-0.5-1.1c0-0.5,0.3-1.1,0.5-1.5c0.2-0.3,0.5-0.7,0.6-1c0.3-0.5,0.5-1.2,0.8-2.7c0.5-2.7,1-6.5,1.7-11.3
		c0.2-1.4,0.3-2.4,0.3-3c0-0.4,0-0.7-0.2-0.9c-0.2-0.2-0.5-0.4-0.9-0.5c-0.9-0.2-1.1-0.7-1-1.5c0.1-0.8,0.6-1.5,1.4-2.2
		c0.9-0.8,2.1-1.4,3.3-1.9c0.9-0.3,1.9-0.6,2.8-0.6c2.1,0,3.1,1.1,3.1,2.9c0,0.2,0,0.5-0.1,0.8c0,0.3,0.1,0.5,0.2,0.5
		c0.1,0,0.2-0.1,0.4-0.3c1.1-2.1,2.7-4,5.6-4c4.8,0,6,5.2,5.2,10.9c-0.8,5.9-3.1,9.6-7.6,9.6C107.6,31.4,106.3,30.2,105.3,28.8z
		 M109.9,22.6c0.5-3.6-0.3-5.4-1.9-5.4c-1,0-1.6,0.7-1.8,2c-0.3,1.5-0.5,3.4-0.8,5.3c-0.1,1,0.5,1.8,1.5,1.8
		C108.3,26.4,109.6,25.1,109.9,22.6z"/>
	<path class="st0" d="M120.7,21.5c0.9-6.4,6.4-10.6,12.4-10.6c4.1,0,7.1,2,6.4,6.3c-0.6,3.8-4.3,5.8-9.6,5.8c-0.1,0-0.3,0-0.4,0
		c-0.9,0-1,0.4-0.7,1.1c0.5,1.2,1.7,1.7,3.4,1.7c1.6,0,3-1,4-2c0.2-0.2,0.6-0.4,1-0.4c0.9,0,1.7,1,1.2,2.3c-1.1,3-4.4,5.8-9.3,5.8
		C122.9,31.4,119.9,27.3,120.7,21.5z M129.5,20.3c0.9,0,2.9-1,3.2-2.8c0.2-1.2-0.4-1.8-1.3-1.8c-1.2,0-2.4,1.7-2.7,3.4
		c-0.1,0.9,0.2,1.3,0.7,1.3C129.4,20.3,129.4,20.3,129.5,20.3z"/>
	<path class="st0" d="M141.4,21.4c1-6.8,4.3-10.4,8.6-10.4c2,0,3.4,0.8,4.4,2.5c0.1,0.2,0.2,0.2,0.3,0.2c0.1,0,0.2-0.1,0.3-0.3
		c0.1-0.3,0.3-2,0.5-2.8c0.1-0.8,0.1-1.6-0.2-2.1c-0.1-0.2-0.4-0.4-0.8-0.6c-0.7-0.3-1.2-0.8-1.1-1.7c0.1-0.9,0.9-1.5,2-2
		c0.7-0.3,1.5-0.7,2.4-0.9c1-0.2,1.8-0.4,2.8-0.4c2.7,0,3.7,1.5,3.3,4.8c-0.5,3.9-1.2,7.6-1.8,11.3c-0.6,3.4-0.8,4.8-0.9,5.4
		c-0.1,0.5-0.1,0.9,0.1,1.1c0.1,0.3,0.3,0.4,0.7,0.5c0.3,0.1,0.5,0.2,0.7,0.3c0.4,0.3,0.6,0.6,0.5,1.3c-0.3,1.9-2.8,3.5-6.2,3.5
		c-3,0-3.8-1.1-3.8-2.9c0-0.3,0-0.4-0.2-0.4c-0.1,0-0.2,0.1-0.4,0.3c-1.1,1.6-2.8,3.1-5.2,3.1C142.3,31.3,140.5,27.2,141.4,21.4z
		 M153.3,23.5c0.3-1.5,0.5-3.4,0.8-5.3c0.1-1-0.4-1.7-1.4-1.7c-1.2,0-2.8,1.2-3.3,4.9c-0.3,2.3,0.2,4.2,2.1,4.2
		C152.5,25.5,153.1,24.8,153.3,23.5z"/>
	<path class="st0" d="M165.6,27c0.3-2,0.6-3.1,0.9-4.7c0.4-2,0.5-2.8,0.5-3.5c0-0.5,0-0.8-0.2-1c-0.2-0.2-0.5-0.4-0.8-0.5
		c-0.9-0.2-1.2-0.7-1.1-1.5c0.1-0.8,0.4-1.3,1-1.8c1-1,2.9-2,4.5-2.5c0.7-0.2,1.4-0.3,2-0.3c2.7,0,3.5,1.5,3,4.8
		c-0.1,1.1-0.4,2.5-0.7,4.5c-0.3,1.8-0.6,3.6-0.7,4.2c-0.1,0.5,0,0.9,0.1,1.1c0.1,0.3,0.4,0.4,0.7,0.5c0.3,0.1,0.6,0.2,0.8,0.3
		c0.2,0.2,0.5,0.6,0.4,1.2c-0.3,1.8-2.5,3.4-6.4,3.4C166.1,31.3,165.2,29.6,165.6,27z M166.4,7.3c0.4-2.8,4.3-5.1,7.3-5.1
		c2.3,0,3.6,0.9,3.3,3.2c-0.3,2.9-4.5,4.8-7.8,4.8C167.3,10.2,166.1,9,166.4,7.3z"/>
	<path class="st0" d="M178.2,21.4c1-6.8,4.2-10.3,8.6-10.3c2.1,0,3.8,0.9,4.5,2.5c0.2,0.3,0.3,0.4,0.5,0.4c0.1,0,0.2,0,0.4-0.2
		c0.2-0.2,0.5-0.5,0.7-0.7c1.5-1.3,3-2.1,4.7-2.1c1.3,0,2.4,1,2.1,2.8c-0.1,0.7-0.2,1.6-0.4,2.6c-0.4,2.4-0.9,5.4-1.3,8.2
		c-0.1,0.5,0,0.9,0.1,1.1c0.1,0.3,0.3,0.4,0.7,0.5c0.3,0.1,0.5,0.2,0.7,0.3c0.4,0.3,0.6,0.6,0.5,1.3c-0.3,1.9-2.9,3.4-6.4,3.4
		c-2.9,0-3.9-1.1-3.9-2.9c0-0.3-0.1-0.4-0.2-0.4c-0.1,0-0.3,0.1-0.4,0.3c-1,1.7-2.8,3.1-5.2,3.1C179.1,31.3,177.3,27.2,178.2,21.4z
		 M190.1,23.6c0.3-1.5,0.5-3.4,0.8-5.3c0.1-1-0.4-1.7-1.4-1.7c-1.2,0-2.8,1.2-3.3,4.9c-0.3,2.3,0.2,4.2,2.1,4.2
		C189.3,25.6,189.9,24.8,190.1,23.6z"/>
</g>
<g>
	<g>
		<path d="M12.9,30.1c-2.9,0-4.7-0.8-5.9-1.3l-0.1-0.1c-0.4-0.2-0.6-0.2-0.9-0.2c-0.3,0-0.5,0.2-0.9,0.6c-0.5,0.5-1,0.8-2,0.8
			c-1.4,0-2.3-1.2-2.7-3.3l0,0C-0.1,25,0,23.3,0,22.6c0.1-1.1,0.3-2,0.6-2.7c0.5-1,1.3-1.6,2.2-1.6c0.8,0,1.4,0.4,2.2,1.3
			c0.2,0.2,0.4,0.4,0.6,0.7c0.5,0.6,1.1,1.4,1.7,1.9c1.1,1.1,2.5,1.7,3.7,1.7c0.9,0,1.6-0.5,1.7-1.3c0.1-1-0.5-1.6-2.9-2.5l-1.4-0.5
			c-4.9-1.8-7.1-4.9-6.5-9.1C2.6,6,6.5,3.1,11.9,3.1c2.4,0,3.7,0.4,4.7,0.7c0.1,0,0.3,0.1,0.4,0.1c0.3,0.1,0.6,0.2,0.8,0.2
			c0.3,0,0.6-0.3,1-0.6c0.3-0.3,0.8-0.7,1.7-0.7c0.9,0,1.7,0.6,2.2,1.5c0.4,0.8,0.6,1.9,0.8,3.3c0.1,1.8,0,3-0.3,4
			c-0.5,1.5-1.5,1.8-2.2,1.8c-1.1,0-1.9-0.7-2.8-1.5c-0.2-0.2-0.4-0.4-0.6-0.6c-0.6-0.6-1.2-1.2-1.8-1.6c-0.8-0.5-1.8-0.8-2.6-0.8
			c-1,0-1.6,0.4-1.7,1.1c-0.1,0.9,0.4,1.2,3.2,2.3l1.7,0.6c4.9,1.9,7,5,6.4,9.4C22,27,18.2,30.1,12.9,30.1z M5.9,27.7
			c0.4,0,0.8,0.1,1.2,0.3L7.3,28c1.1,0.5,2.9,1.2,5.6,1.2c4.9,0,8.3-2.7,8.9-7.1c0.6-4.1-1.3-6.8-5.8-8.5L14.3,13
			c-2.7-1-4-1.5-3.7-3.2c0.2-1.2,1.2-1.9,2.6-1.9c1.3,0,2.4,0.5,3.1,1c0.8,0.5,1.4,1.2,2,1.7c0.2,0.2,0.4,0.4,0.6,0.6
			c0.8,0.7,1.4,1.3,2.2,1.3c0.4,0,1-0.1,1.4-1.2c0.3-0.8,0.3-2,0.2-3.6c-0.1-1.3-0.3-2.3-0.7-3c-0.2-0.3-0.6-1-1.4-1
			c-0.6,0-0.9,0.3-1.1,0.5C19,4.6,18.5,5,17.9,5c-0.4,0-0.8-0.1-1.1-0.2c-0.1,0-0.3-0.1-0.4-0.1c-1-0.3-2.1-0.7-4.4-0.7
			C7,4,3.4,6.6,2.9,10.7c-0.5,3.7,1.5,6.5,5.9,8.2l1.4,0.5c2.1,0.8,3.7,1.5,3.4,3.4c-0.2,1.2-1.2,2-2.5,2c-1.5,0-3.1-0.7-4.4-1.9
			c-0.6-0.6-1.2-1.4-1.8-2c-0.2-0.2-0.4-0.5-0.6-0.7c-0.6-0.7-1-1-1.5-1c-0.8,0-1.2,0.6-1.4,1.1c-0.3,0.6-0.4,1.4-0.5,2.4
			c-0.1,1.3,0,2.8,0.2,3.9c0.2,1.2,0.7,2.6,1.9,2.6c0.8,0,1.1-0.2,1.4-0.6C4.9,28.1,5.3,27.7,5.9,27.7z"/>
	</g>
	<g>
		<path d="M33.4,30.1c-3,0-5.4-1-7-2.8c-1.6-1.9-2.3-4.5-1.8-7.6c0.9-6.3,6.3-10.9,12.9-10.9c2.5,0,4.6,0.8,5.7,2.1
			c1,1.2,1.4,2.8,1.1,4.7c-0.6,3.9-4.2,6.2-10.1,6.2h-0.4c-0.3,0-0.4,0.1-0.4,0.1c0,0,0,0.1,0.1,0.4c0.2,0.6,0.8,1.4,3,1.4
			c1.5,0,2.8-1,3.7-1.9c0.4-0.4,0.8-0.6,1.4-0.6c0.5,0,1.1,0.3,1.4,0.7c0.4,0.6,0.5,1.4,0.2,2.2C42.1,26.8,38.9,30.1,33.4,30.1z
			 M37.4,9.6c-6.2,0-11.2,4.3-12,10.2l0,0C25,22.6,25.6,25,27,26.7c1.4,1.6,3.6,2.5,6.3,2.5c5.1,0,8-3,8.9-5.5
			c0.2-0.5,0.2-1-0.1-1.4C42,22.1,41.7,22,41.5,22c-0.3,0-0.5,0.1-0.7,0.3c-1.4,1.4-2.9,2.2-4.3,2.2c-2,0-3.3-0.6-3.8-1.9
			c-0.1-0.3-0.3-0.8,0-1.2c0.3-0.5,1-0.5,1.2-0.5h0.4c5.3,0,8.7-2,9.2-5.4c0.2-1.7-0.1-3-0.9-4C41.5,10.2,39.7,9.6,37.4,9.6z
			 M33.8,18.9h-0.1c-0.4,0-0.7-0.1-0.9-0.4c-0.2-0.2-0.4-0.6-0.3-1.4c0.3-1.8,1.6-3.8,3.1-3.8c0.6,0,1,0.2,1.4,0.6
			c0.3,0.3,0.5,0.8,0.4,1.8C37,17.8,34.9,18.9,33.8,18.9z M35.6,14.3c-1,0-2,1.4-2.3,3c-0.1,0.5,0,0.6,0.1,0.7c0,0,0.1,0.1,0.2,0.1
			h0.1c0.7,0,2.5-0.8,2.7-2.5c0.1-0.5,0-0.8-0.2-1.1C36.1,14.3,35.8,14.3,35.6,14.3z"/>
	</g>
	<g>
		<path d="M60.4,30.1c-1,0-1.8-0.3-2.3-0.9c-0.5-0.6-0.7-1.6-0.5-2.8l0.2-1.1c0.2-1,0.4-2.1,0.5-3.1c0.2-1.4,0.4-2.6,0.6-3.4l0-0.1
			c0.2-1.2,0.1-2.1-0.3-2.5c-0.2-0.2-0.5-0.4-0.9-0.4c-0.5,0-1,0.2-1.3,1.8c-0.3,1.6-0.6,3.4-0.7,4.7c-0.1,0.5-0.1,1.1-0.2,1.7
			c-0.1,1.1-0.3,2-0.3,2.5c-0.3,2.2-2.7,3.6-6.2,3.6c-1.1,0-1.9-0.3-2.4-0.8c-0.4-0.4-0.6-1-0.6-1.7c0-1,0.4-2.8,0.7-4.5
			c0.2-1.2,0.5-2.5,0.6-3.3c0.1-0.4,0.1-0.8,0.1-1.1c0.1-0.8,0.2-1.3,0.2-1.8c0-0.4,0-0.5-0.1-0.7c-0.1-0.1-0.3-0.3-0.8-0.4
			c-0.9-0.3-1.3-1-1.2-2c0.1-0.8,0.6-1.6,1.5-2.4c1.2-1,2.7-1.7,3.5-2c1-0.4,2.1-0.6,3-0.6c2.2,0,3.5,1.2,3.5,3.5c0,0,0,0,0,0.1
			c1.5-2.4,3.5-3.6,6-3.6c2.7,0,4.7,1.5,5.1,3.9c1.5-2.6,3.5-3.9,6.1-3.9c1.6,0,2.9,0.5,3.8,1.5c1.2,1.4,1.6,3.6,1.2,6.4
			c-0.2,1.2-0.4,2.4-0.6,3.5c-0.2,1-0.4,1.9-0.4,2.6c-0.1,0.5,0,0.8,0,0.9c0.1,0.1,0.2,0.2,0.4,0.3c0.3,0.1,0.6,0.2,0.9,0.4
			c0.5,0.4,0.7,0.8,0.6,1.7c-0.3,2.2-3.2,3.7-6.8,3.7c-1.7,0-2.9-0.4-3.6-1.2c-0.8-1-0.8-2.4-0.6-3.5c0.2-1.2,0.5-2.7,0.7-4.1
			c0.2-1,0.4-1.9,0.4-2.4c0.2-1.2,0-2.1-0.4-2.6c-0.2-0.2-0.5-0.3-0.8-0.3c-0.9,0-1.2,1-1.4,1.8c-0.2,1-0.3,2.2-0.5,3.3
			c-0.1,0.5-0.1,0.9-0.2,1.4c-0.2,1.5-0.4,3.1-0.5,3.8C66.1,28.7,64,30.1,60.4,30.1z M57.7,15c0.7,0,1.2,0.2,1.6,0.7
			c0.7,0.8,0.7,2.2,0.5,3.2l0,0.1c-0.1,0.8-0.3,2.1-0.6,3.4c-0.2,1-0.3,2.1-0.5,3.1l-0.2,1.1c-0.2,0.9-0.1,1.6,0.3,2.1
			c0.3,0.4,0.9,0.6,1.6,0.6c3.2,0,4.9-1.1,5.3-3.2c0.1-0.7,0.3-2.3,0.5-3.8c0.1-0.4,0.1-0.9,0.2-1.4c0.1-1.1,0.3-2.3,0.5-3.3
			c0.3-1.6,1.1-2.5,2.2-2.5c0.6,0,1.1,0.2,1.5,0.6c0.7,0.8,0.7,2.2,0.6,3.3c-0.1,0.5-0.2,1.4-0.4,2.5c-0.3,1.3-0.6,2.8-0.7,4.1
			c-0.2,1.4-0.1,2.3,0.4,2.8c0.5,0.6,1.4,0.8,2.9,0.8c3.1,0,5.7-1.3,5.9-3c0.1-0.6,0-0.7-0.3-0.9c-0.1-0.1-0.3-0.2-0.6-0.3
			c-0.3-0.1-0.7-0.3-0.9-0.7c-0.2-0.3-0.2-0.8-0.1-1.4c0.1-0.8,0.3-1.7,0.5-2.7c0.2-1.1,0.4-2.3,0.6-3.4c0.4-2.6,0-4.5-1-5.7
			c-0.7-0.8-1.8-1.2-3.1-1.2c-2.3,0-4.1,1.2-5.5,3.6c-0.3,0.6-0.7,0.6-0.9,0.6c-0.2,0-0.5-0.2-0.6-0.8c-0.3-2.1-1.9-3.4-4.3-3.4
			c-2.3,0-4.1,1.2-5.5,3.6c-0.3,0.5-0.7,0.6-1,0.5c-0.3-0.1-0.5-0.4-0.4-0.9c0-0.3,0.1-0.5,0.1-0.6c0-1.8-0.8-2.6-2.6-2.6
			c-0.8,0-1.8,0.2-2.7,0.5c-1.3,0.5-2.5,1.1-3.3,1.8c-0.7,0.6-1.1,1.2-1.2,1.8c-0.1,0.7,0.2,0.9,0.6,1c0.7,0.2,1,0.4,1.3,0.8
			c0.3,0.4,0.3,0.8,0.3,1.3c0,0.5-0.1,1.1-0.2,1.8c0,0.3-0.1,0.7-0.1,1.1c-0.1,0.9-0.4,2.1-0.6,3.4c-0.3,1.7-0.7,3.4-0.7,4.3
			c0,0.5,0.1,0.8,0.3,1.1c0.3,0.4,1,0.5,1.8,0.5c2.5,0,5.1-0.9,5.3-2.9c0.1-0.5,0.2-1.4,0.3-2.5c0.1-0.6,0.1-1.1,0.2-1.7
			c0.2-1.2,0.4-3.1,0.7-4.7l0,0C55.7,16.8,56,15,57.7,15z M68.1,13.2L68.1,13.2L68.1,13.2z M56.5,13L56.5,13L56.5,13z"/>
	</g>
	<g>
		<path d="M86.1,29.9c-1.8,0-3-0.4-3.8-1.3c-0.7-0.8-0.9-1.9-0.6-3.5c0.2-1.4,0.4-2.4,0.6-3.5c0.1-0.4,0.2-0.8,0.2-1.3
			c0.4-2,0.4-2.8,0.5-3.4c0-0.5,0-0.6-0.1-0.8c-0.1-0.1-0.3-0.3-0.6-0.4c-1.1-0.3-1.5-1-1.4-2c0.1-1,0.6-1.5,1.1-2.1
			c1-1,3-2.1,4.7-2.6c0.7-0.2,1.4-0.3,2.2-0.3c1.3,0,2.2,0.3,2.8,1c0.7,0.8,1,2.2,0.7,4.3c-0.1,1.1-0.4,2.4-0.7,4.2l-0.2,1.1
			c-0.3,1.5-0.5,2.9-0.6,3.4c-0.1,0.4,0,0.7,0.1,0.9c0.1,0.1,0.2,0.2,0.4,0.3c0.4,0.1,0.7,0.2,0.9,0.4c0.2,0.2,0.7,0.7,0.6,1.7
			C92.5,28.7,89.1,29.9,86.1,29.9z M88.9,9.7c-0.7,0-1.3,0.1-1.9,0.3c-1.6,0.4-3.4,1.4-4.4,2.4c-0.5,0.5-0.8,0.9-0.8,1.6
			c-0.1,0.6,0.1,0.9,0.8,1c0.3,0.1,0.8,0.3,1.1,0.7c0.2,0.3,0.3,0.7,0.3,1.3c0,0.6-0.1,1.4-0.5,3.5c-0.1,0.5-0.2,0.9-0.2,1.3
			c-0.2,1-0.4,2-0.6,3.4l0,0c-0.2,1.3-0.1,2.2,0.4,2.8c0.6,0.6,1.6,1,3.1,1c3.8,0,5.7-1.6,6-3.1c0.1-0.5-0.1-0.7-0.3-0.8
			c-0.1-0.1-0.5-0.2-0.6-0.3c-0.3-0.1-0.7-0.3-0.9-0.7c-0.2-0.4-0.2-0.8-0.1-1.4c0.1-0.5,0.3-1.9,0.6-3.4l0.2-1.1
			c0.3-1.8,0.5-3.1,0.7-4.2c0.2-1.8,0.1-3-0.5-3.6C90.6,10,89.9,9.7,88.9,9.7z M85.7,8.9c-1.1,0-2-0.4-2.6-1
			c-0.5-0.6-0.8-1.5-0.6-2.4l0,0c0.4-3,4.5-5.4,7.7-5.5c1.4,0,2.5,0.3,3.1,1c0.6,0.6,0.8,1.5,0.6,2.6C93.5,6.7,89.3,8.9,85.7,8.9z
			 M83.3,5.6c-0.1,0.7,0,1.2,0.4,1.7c0.4,0.5,1.1,0.7,2,0.7c3.2,0,7-1.9,7.4-4.5c0.1-0.8,0-1.5-0.4-1.9c-0.5-0.5-1.3-0.8-2.4-0.7
			C87.4,0.9,83.7,3,83.3,5.6z"/>
	</g>
	<g>
		<path d="M95.2,38.4c-1.2,0-2.1-0.2-2.6-0.8c-0.4-0.4-0.6-0.8-0.6-1.4c0-0.7,0.4-1.4,0.5-1.7c0.3-0.5,0.5-0.8,0.6-1
			c0.3-0.5,0.5-1.3,0.8-2.6c0.4-2.4,0.9-5.7,1.5-9.8l0.2-1.4c0-0.4,0.1-0.7,0.1-1c0.1-0.9,0.2-1.5,0.2-1.9c0-0.4,0-0.5-0.2-0.7
			c-0.1-0.1-0.3-0.2-0.6-0.3c-1-0.3-1.4-0.9-1.4-2c0.1-0.8,0.6-1.6,1.5-2.5c1.1-0.9,2.5-1.6,3.5-1.9c1-0.4,2.1-0.6,3-0.6
			c2.2,0,3.5,1.2,3.5,3.4c0,0.1,0,0.1,0,0.2c1-1.8,2.7-3.7,5.7-3.7c1.7,0,3,0.6,4,1.7c1.7,1.9,2.2,5.4,1.6,9.7
			c-0.9,6.6-3.6,9.9-8,9.9c-2.9,0-4.3-1.3-5.3-2.6c-0.2,1-0.4,2.7-0.5,3.8c-0.1,0.8,0,1,0.1,1.2c0.1,0.1,0.3,0.2,0.4,0.3
			c0.1,0.1,0.2,0.2,0.3,0.3c0.2,0.2,0.9,0.7,0.8,1.8c-0.1,0.9-0.6,1.5-1.5,2C101.5,37.6,98.4,38.4,95.2,38.4z M101.8,9.7
			c-0.8,0-1.8,0.2-2.7,0.5c-1.3,0.5-2.4,1.1-3.2,1.8c-0.8,0.7-1.2,1.3-1.2,1.9c-0.1,0.7,0.1,0.9,0.7,1.1c0.4,0.1,0.8,0.3,1.1,0.7
			c0.3,0.4,0.3,0.7,0.3,1.2c0,0.4-0.1,1.1-0.2,2c0,0.3-0.1,0.7-0.1,1l-0.2,1.4c-0.6,4.1-1,7.4-1.5,9.9c-0.3,1.4-0.5,2.2-0.8,2.9
			c-0.1,0.2-0.3,0.6-0.6,1c-0.2,0.3-0.4,0.8-0.4,1.2c0,0.3,0.1,0.6,0.3,0.8c0.3,0.3,1,0.5,2,0.5c2.9,0,6-0.8,7.3-1.5
			c0.7-0.4,1-0.8,1.1-1.4c0.1-0.4-0.1-0.7-0.5-1c-0.1-0.1-0.2-0.1-0.3-0.2c-0.2-0.1-0.4-0.3-0.6-0.5c-0.5-0.5-0.4-1.2-0.3-1.9
			c0.1-1.2,0.4-3.1,0.6-4.1c0.1-0.4,0.4-0.6,0.7-0.6c0.2,0,0.5,0.1,0.6,0.4c0.9,1.2,2,2.4,4.7,2.4c3.9,0,6.3-3,7.1-9.2
			c0.6-4.1,0.1-7.3-1.4-9c-0.8-0.9-2-1.4-3.4-1.4c-2.2,0-3.8,1.1-5.2,3.7c-0.3,0.5-0.6,0.6-0.8,0.6c-0.2,0-0.4-0.1-0.5-0.2
			c-0.2-0.2-0.2-0.4-0.2-0.7l0-0.1c0-0.2,0.1-0.4,0.1-0.6C104.4,10.6,103.5,9.7,101.8,9.7z M105.2,13.1L105.2,13.1L105.2,13.1z
			 M104.9,13L104.9,13L104.9,13z M105.1,25c-0.6,0-1.1-0.2-1.5-0.6c-0.4-0.4-0.5-1-0.5-1.6c0.2-1.9,0.5-3.8,0.8-5.4
			c0.3-1.6,1.1-2.4,2.3-2.4c0.7,0,1.2,0.3,1.7,0.7c0.8,0.9,1,2.6,0.7,5.1l0,0C108.2,23.4,106.9,25,105.1,25z M106.2,15.9
			c-0.5,0-1.1,0.2-1.4,1.7c-0.3,1.5-0.5,3.5-0.8,5.3c0,0.4,0.1,0.7,0.3,0.9c0.2,0.2,0.5,0.3,0.8,0.3c1.3,0,2.3-1.4,2.6-3.4
			c0.3-2.2,0.1-3.7-0.5-4.4C106.9,16.1,106.6,15.9,106.2,15.9z"/>
	</g>
	<g>
		<path d="M127.3,30.1c-3,0-5.4-1-7-2.8c-1.6-1.9-2.3-4.5-1.8-7.6c0.9-6.3,6.3-10.9,12.9-10.9c2.5,0,4.6,0.8,5.7,2.1
			c1,1.2,1.4,2.8,1.1,4.7c-0.6,3.9-4.2,6.2-10.1,6.2h-0.4c-0.3,0-0.4,0.1-0.4,0.1c0,0,0,0.1,0.1,0.4c0.2,0.6,0.8,1.4,3,1.4
			c1.5,0,2.8-1,3.7-1.9c0.4-0.4,0.8-0.6,1.4-0.6c0.5,0,1.1,0.3,1.4,0.7c0.4,0.6,0.5,1.4,0.2,2.2C136,26.8,132.9,30.1,127.3,30.1z
			 M131.3,9.6c-6.2,0-11.2,4.3-12,10.2l0,0c-0.4,2.9,0.2,5.3,1.6,6.9c1.4,1.6,3.6,2.5,6.3,2.5c5.1,0,8-3,8.9-5.5
			c0.2-0.5,0.2-1-0.1-1.4c-0.2-0.2-0.4-0.4-0.7-0.4c-0.3,0-0.5,0.1-0.7,0.3c-1.4,1.4-2.9,2.2-4.3,2.2c-2,0-3.3-0.6-3.8-1.9
			c-0.1-0.3-0.3-0.8,0-1.2c0.3-0.5,1-0.5,1.2-0.5h0.4c5.3,0,8.7-2,9.2-5.4c0.2-1.7-0.1-3-0.9-4C135.4,10.2,133.6,9.6,131.3,9.6z
			 M127.7,18.9h-0.1c-0.4,0-0.7-0.1-0.9-0.4c-0.2-0.2-0.4-0.6-0.3-1.4c0.3-1.8,1.6-3.8,3.1-3.8c0.6,0,1,0.2,1.4,0.6
			c0.3,0.3,0.5,0.8,0.4,1.8C131,17.8,128.8,18.9,127.7,18.9z M129.5,14.3c-1,0-2,1.4-2.3,3c-0.1,0.5,0,0.6,0.1,0.7
			c0,0,0.1,0.1,0.2,0.1h0.1c0.7,0,2.5-0.8,2.7-2.5c0.1-0.5,0-0.8-0.2-1.1C130,14.3,129.7,14.3,129.5,14.3z"/>
	</g>
	<g>
		<path d="M145.3,30c-1.9,0-3.4-0.6-4.5-1.9c-1.6-1.8-2.1-4.8-1.6-8.6l0,0c1-6.7,4.4-10.8,9.1-10.8c2.1,0,3.6,0.8,4.6,2.4
			c0.1-0.6,0.3-1.8,0.4-2.4c0.1-0.8,0-1.4-0.2-1.8c-0.1-0.1-0.3-0.2-0.6-0.4c-0.6-0.3-1.5-0.8-1.3-2.2c0.1-1.2,1.2-1.8,2.3-2.4
			c0.8-0.4,1.6-0.7,2.5-0.9c0.9-0.2,1.8-0.4,2.9-0.4c1.3,0,2.3,0.4,3,1.1c0.8,0.9,1,2.3,0.7,4.3c-0.3,2.6-0.8,5-1.2,7.4
			c-0.2,1.3-0.5,2.6-0.7,3.9l-0.3,1.6c-0.4,2.2-0.5,3.3-0.6,3.8c-0.1,0.5-0.1,0.7,0,0.9c0.1,0.1,0.1,0.2,0.4,0.3
			c0.3,0.1,0.6,0.2,0.9,0.4c0.5,0.4,0.7,0.8,0.6,1.7c-0.3,2.2-3.2,3.9-6.7,3.9c-2.8,0-4.1-0.9-4.2-3C149.6,28.4,147.9,30,145.3,30z
			 M140,19.6L140,19.6c-0.5,3.6,0,6.3,1.4,7.9c0.9,1.1,2.2,1.6,3.9,1.6c2.3,0,3.9-1.6,4.8-2.9c0.2-0.3,0.4-0.5,0.8-0.5
			c0.2,0,0.6,0.1,0.6,0.9c0,1.6,0.5,2.5,3.3,2.5c3.3,0,5.6-1.6,5.8-3.2c0.1-0.6,0-0.7-0.3-0.9c-0.1-0.1-0.3-0.2-0.6-0.3
			c-0.3-0.1-0.7-0.3-0.9-0.7c-0.2-0.4-0.2-0.8-0.1-1.4c0.1-0.5,0.2-1.5,0.6-3.8l0.3-1.6c0.2-1.3,0.4-2.6,0.7-3.9
			c0.4-2.4,0.8-4.8,1.2-7.3c0.2-1.7,0.1-2.9-0.5-3.6c-0.5-0.5-1.2-0.8-2.3-0.8c-1,0-1.8,0.1-2.7,0.4c-0.8,0.2-1.5,0.5-2.3,0.8
			c-1.1,0.5-1.7,1-1.8,1.7c-0.1,0.7,0.1,1,0.8,1.3c0.5,0.2,0.8,0.5,1,0.7c0.5,0.7,0.4,1.8,0.3,2.4c-0.1,0.8-0.4,2.5-0.5,2.8
			c-0.1,0.4-0.4,0.7-0.7,0.7c-0.4,0-0.5-0.2-0.7-0.4c-0.8-1.5-2.1-2.2-4-2.2C143.9,9.6,140.9,13.3,140,19.6z M149.7,24.2
			c-0.8,0-1.4-0.3-1.8-0.8c-0.7-0.8-0.9-2.1-0.7-3.9c0.7-4.9,3-5.3,3.7-5.3c0.6,0,1.1,0.2,1.4,0.6c0.4,0.4,0.5,1,0.5,1.6
			c-0.2,1.9-0.5,3.8-0.8,5.4l0,0C151.7,23.4,150.9,24.2,149.7,24.2z M150.9,15.1c-0.5,0-2.3,0.3-2.9,4.5c-0.2,1.5,0,2.6,0.5,3.2
			c0.3,0.3,0.7,0.5,1.2,0.5c0.5,0,1.1-0.2,1.4-1.6c0.3-1.5,0.5-3.5,0.8-5.3c0-0.4,0-0.7-0.2-1C151.5,15.2,151.2,15.1,150.9,15.1z"/>
	</g>
	<g>
		<path d="M167.8,29.9c-1.8,0-3-0.4-3.8-1.3c-0.7-0.8-0.9-1.9-0.6-3.5c0.2-1.4,0.4-2.4,0.6-3.5c0.1-0.4,0.2-0.8,0.2-1.3
			c0.4-2,0.4-2.8,0.5-3.4c0-0.5,0-0.6-0.1-0.8c-0.1-0.1-0.3-0.3-0.6-0.4c-1.1-0.3-1.5-1-1.4-2c0.1-1,0.6-1.5,1.1-2.1
			c1-1,3-2.1,4.7-2.6c0.7-0.2,1.4-0.3,2.2-0.3c1.3,0,2.2,0.3,2.8,1c0.7,0.8,1,2.2,0.7,4.3c-0.1,1.1-0.4,2.4-0.7,4.2l-0.2,1.1
			c-0.3,1.5-0.5,2.9-0.6,3.4c-0.1,0.4,0,0.7,0.1,0.9c0.1,0.1,0.2,0.2,0.4,0.3c0.4,0.1,0.7,0.2,0.9,0.4c0.2,0.2,0.7,0.7,0.6,1.7
			C174.3,28.7,170.8,29.9,167.8,29.9z M170.6,9.7c-0.7,0-1.3,0.1-1.9,0.3c-1.6,0.4-3.4,1.4-4.4,2.4c-0.5,0.5-0.8,0.9-0.8,1.6
			c-0.1,0.6,0.1,0.9,0.8,1c0.3,0.1,0.8,0.3,1.1,0.7c0.2,0.3,0.3,0.7,0.3,1.3c0,0.6-0.1,1.4-0.5,3.5c-0.1,0.5-0.2,0.9-0.2,1.3
			c-0.2,1-0.4,2-0.6,3.4l0,0c-0.2,1.3-0.1,2.2,0.4,2.8c0.6,0.6,1.6,1,3.1,1c3.8,0,5.7-1.6,6-3.1c0.1-0.5-0.1-0.7-0.3-0.8
			c-0.1-0.1-0.5-0.2-0.6-0.3c-0.3-0.1-0.7-0.3-0.9-0.7c-0.2-0.4-0.2-0.8-0.1-1.4c0.1-0.5,0.3-1.9,0.6-3.4l0.2-1.1
			c0.3-1.8,0.5-3.1,0.7-4.2c0.2-1.8,0.1-3-0.5-3.6C172.4,10,171.7,9.7,170.6,9.7z M167.4,8.9c-1.1,0-2-0.4-2.6-1
			c-0.5-0.6-0.8-1.5-0.6-2.4l0,0c0.4-3,4.5-5.4,7.7-5.5c1.4,0,2.5,0.3,3.1,1c0.6,0.6,0.8,1.5,0.6,2.6C175.3,6.7,171,8.9,167.4,8.9z
			 M165.1,5.6c-0.1,0.7,0,1.2,0.4,1.7c0.4,0.5,1.1,0.7,2,0.7c3.2,0,7-1.9,7.4-4.5c0.1-0.8,0-1.5-0.4-1.9c-0.5-0.5-1.3-0.8-2.4-0.7
			C169.1,0.9,165.4,3,165.1,5.6z"/>
	</g>
	<g>
		<path d="M182.1,30c-1.9,0-3.5-0.6-4.5-1.9c-1.6-1.8-2.1-4.7-1.6-8.5l0,0c1-6.8,4.3-10.7,9-10.7c2.3,0,4.1,1,4.9,2.7
			c0,0.1,0.1,0.1,0.1,0.2c0,0,0,0,0.1-0.1c0.3-0.3,0.5-0.5,0.7-0.7c1.6-1.5,3.3-2.2,5-2.2c0.8,0,1.5,0.3,2,0.8
			c0.4,0.4,0.8,1.2,0.6,2.5c-0.1,0.7-0.2,1.6-0.4,2.6c-0.1,0.7-0.2,1.5-0.4,2.3c-0.3,1.8-0.7,3.9-0.9,5.8c-0.1,0.5,0,0.8,0.1,0.9
			c0.1,0.1,0.2,0.2,0.4,0.3c0.3,0.1,0.6,0.2,0.9,0.4c0.5,0.4,0.7,0.8,0.6,1.7c-0.3,2.2-3.2,3.7-6.8,3.7c-2.8,0-4.2-1-4.4-3
			C186.2,28.9,184.3,30,182.1,30z M176.8,19.6c-0.5,3.5,0,6.3,1.4,7.8c0.9,1.1,2.2,1.6,3.9,1.6c2.7,0,4.2-1.8,4.8-2.9
			c0.2-0.4,0.5-0.5,0.8-0.5c0.1,0,0.6,0,0.6,0.9c0,1.2,0.4,2.5,3.5,2.5c3.1,0,5.7-1.3,5.9-3c0.1-0.6,0-0.7-0.3-0.9
			c-0.1-0.1-0.3-0.2-0.6-0.3c-0.3-0.1-0.7-0.3-0.9-0.7c-0.2-0.3-0.2-0.8-0.1-1.4c0.3-1.9,0.6-4,0.9-5.8c0.1-0.8,0.3-1.6,0.4-2.3
			c0.2-1,0.3-1.9,0.4-2.6c0.1-0.8,0-1.4-0.4-1.8c-0.3-0.3-0.8-0.5-1.3-0.5c-1.5,0-2.9,0.6-4.4,2c-0.2,0.2-0.4,0.4-0.7,0.6
			c-0.2,0.2-0.5,0.3-0.7,0.3c-0.5,0-0.7-0.4-0.9-0.7c-0.7-1.4-2.2-2.3-4.1-2.3C180.7,9.7,177.7,13.3,176.8,19.6L176.8,19.6z
			 M187.7,26.6L187.7,26.6L187.7,26.6z M186.5,24.2c-0.8,0-1.4-0.3-1.8-0.8c-0.7-0.8-0.9-2.1-0.7-3.9c0.7-4.9,3-5.3,3.7-5.3
			c0.6,0,1.1,0.2,1.4,0.6c0.4,0.4,0.5,1,0.5,1.6c-0.2,1.9-0.5,3.8-0.8,5.4l0,0C188.5,23.4,187.7,24.2,186.5,24.2z M187.7,15.2
			c-0.5,0-2.3,0.3-2.9,4.5c-0.2,1.5,0,2.6,0.5,3.2c0.3,0.3,0.7,0.5,1.2,0.5c0.5,0,1.1-0.2,1.4-1.7c0.3-1.5,0.5-3.5,0.8-5.3
			c0-0.4,0-0.7-0.2-1C188.3,15.3,188,15.2,187.7,15.2z"/>
	</g>
</g>
</svg>
