<?xml version="1.0" encoding="utf-8"?>
<!-- Generator: Adobe Illustrator 24.1.1, SVG Export Plug-In . SVG Version: 6.00 Build 0)  -->
<svg version="1.1" xmlns="http://www.w3.org/2000/svg" xmlns:xlink="http://www.w3.org/1999/xlink" x="0px" y="0px"
	 viewBox="0 0 170 50" style="enable-background:new 0 0 170 50;" xml:space="preserve">
<style type="text/css">
	.st0{display:none;}
	.st1{display:inline;}
	.st2{fill:#634832;}
</style>
<g id="Logos" class="st0">
	<g class="st1">
		<path class="st2" d="M21.33,19.07l0.99,0.58c1.47,0.84,2.57,1.73,3.29,2.66c0.73,0.93,1.09,2.02,1.09,3.29
			c0,0.92-0.19,1.81-0.58,2.69c-0.39,0.87-0.95,1.67-1.68,2.4s-1.7,1.31-2.91,1.76c-1.2,0.45-2.56,0.67-4.06,0.67
			c-1.8,0-3.31-0.28-4.52-0.83c-0.94-0.42-1.74-1.08-2.4-1.97s-0.99-2.01-0.99-3.35c0-0.92,0.2-1.62,0.61-2.12
			c0.4-0.5,0.91-0.74,1.52-0.74c0.44,0,0.82,0.13,1.14,0.39c0.32,0.26,0.55,0.52,0.67,0.79c0.13,0.27,0.28,0.64,0.47,1.12
			c0.33,0.88,0.72,1.58,1.16,2.11c0.44,0.52,1.05,0.78,1.82,0.78c0.55,0,0.97-0.14,1.25-0.43c0.28-0.28,0.43-0.62,0.43-1.01
			c0-0.18-0.04-0.38-0.12-0.58s-0.17-0.37-0.26-0.51s-0.24-0.3-0.44-0.48s-0.35-0.32-0.45-0.4s-0.28-0.22-0.54-0.41
			s-0.4-0.31-0.44-0.34l-0.77-0.58c-2.31-1.73-3.47-3.61-3.47-5.65c0-1.87,0.75-3.43,2.26-4.67s3.33-1.86,5.48-1.86
			c0.5,0,1.08,0.06,1.76,0.19c0.2,0.04,0.4,0.09,0.59,0.17c0.19,0.07,0.34,0.11,0.43,0.11c0.07,0,0.32-0.08,0.74-0.25
			c0.33-0.13,0.64-0.19,0.94-0.19c0.48,0,1.01,0.28,1.6,0.83c0.97,0.94,1.46,2.04,1.46,3.3c0,0.79-0.22,1.39-0.66,1.79
			c-0.44,0.4-0.97,0.61-1.6,0.61c-0.37,0-0.71-0.09-1.02-0.28c-0.31-0.18-0.53-0.34-0.65-0.47c-0.12-0.13-0.34-0.39-0.67-0.8
			c-0.79-0.99-1.54-1.49-2.26-1.49c-0.39,0-0.68,0.12-0.88,0.37c-0.2,0.25-0.3,0.54-0.3,0.87c0,0.11,0.01,0.22,0.04,0.33
			s0.06,0.2,0.11,0.28c0.05,0.07,0.11,0.16,0.21,0.25c0.09,0.09,0.17,0.16,0.22,0.22s0.16,0.13,0.3,0.22
			c0.15,0.09,0.26,0.16,0.33,0.21s0.2,0.12,0.39,0.22C21.13,18.96,21.26,19.03,21.33,19.07z"/>
		<path class="st2" d="M42.41,29.31c0,0.57-0.45,1.17-1.35,1.79c-1.86,1.3-4.02,1.96-6.5,1.96c-2.09,0-3.7-0.48-4.82-1.43
			c-1.12-0.95-1.68-2.3-1.68-4.05c0-1.36,0.36-2.69,1.07-3.99c0.72-1.3,1.7-2.44,2.95-3.42c2.07-1.62,4.41-2.42,7-2.42
			c1.52,0,2.64,0.33,3.35,0.99s1.06,1.48,1.06,2.45c0,1.19-0.44,2.35-1.32,3.47c-0.88,1.12-2.12,1.92-3.72,2.4
			c-0.64,0.2-1.47,0.33-2.48,0.39c-0.26,0.02-0.44,0.03-0.55,0.04s-0.2,0.04-0.26,0.08c-0.06,0.05-0.1,0.12-0.1,0.21
			c0,0.33,0.17,0.65,0.5,0.95c0.33,0.3,0.76,0.45,1.29,0.45c0.83,0,1.85-0.34,3.08-1.02c0.66-0.33,1.07-0.5,1.24-0.5
			c0.37,0,0.67,0.17,0.9,0.5C42.29,28.48,42.41,28.87,42.41,29.31z M35.19,24.22c0,0.33,0.16,0.5,0.47,0.5
			c0.29,0,0.65-0.23,1.07-0.69c0.7-0.79,1.05-1.72,1.05-2.78c0-0.46-0.15-0.69-0.44-0.69c-0.29,0-0.65,0.28-1.07,0.85
			C35.55,22.36,35.19,23.3,35.19,24.22z"/>
		<path class="st2" d="M45.77,26.49l0.43-2.71c0.04-0.18,0.05-0.46,0.05-0.83c0-0.39-0.05-0.62-0.15-0.72
			c-0.1-0.09-0.29-0.14-0.56-0.14c-0.48,0-0.81-0.07-0.99-0.22s-0.28-0.35-0.28-0.61c0-0.31,0.12-0.62,0.37-0.91
			s0.48-0.51,0.69-0.63c0.21-0.13,0.55-0.33,1.03-0.61c1.54-0.88,2.96-1.32,4.24-1.32c0.64,0,1.06,0.19,1.24,0.58
			c0.09,0.18,0.16,0.53,0.19,1.05c0,0.04,0,0.1,0.01,0.18s0.01,0.14,0.01,0.18s0,0.09,0.01,0.17c0.01,0.07,0.02,0.13,0.04,0.17
			s0.04,0.07,0.05,0.11c0.02,0.04,0.05,0.06,0.08,0.08c0.04,0.02,0.08,0.03,0.14,0.03c0.2,0,0.83-0.39,1.9-1.16l0.3-0.22
			c1.03-0.73,2.06-1.1,3.09-1.1c1.16,0,1.96,0.55,2.4,1.65l0.19,0.47c0.11,0.28,0.21,0.41,0.3,0.41c0.04,0,0.24-0.14,0.61-0.41
			l0.58-0.44c1.47-1.1,2.84-1.65,4.1-1.65c1.84,0,2.75,1.12,2.75,3.36c0,0.88-0.17,2.21-0.5,3.99c-0.22,1.19-0.33,2.04-0.33,2.53
			c0,0.29,0.09,0.5,0.28,0.61c0.09,0.05,0.21,0.09,0.36,0.1s0.29,0.03,0.44,0.07c0.26,0.07,0.39,0.28,0.39,0.61
			c0,0.81-0.55,1.6-1.65,2.37c-1.23,0.88-2.49,1.32-3.77,1.32c-1.52,0-2.29-0.69-2.29-2.07c0-0.28,0.1-1.1,0.3-2.48l0.41-2.67
			c0.2-1.51,0.3-2.32,0.3-2.45c0-0.48-0.21-0.72-0.63-0.72c-1.16,0-1.89,1.91-2.2,5.73l-0.11,1.29c-0.04,0.46-0.07,0.78-0.1,0.96
			c-0.03,0.18-0.1,0.42-0.22,0.72c-0.12,0.29-0.3,0.53-0.54,0.72c-0.35,0.29-0.88,0.53-1.58,0.7c-0.7,0.17-1.37,0.26-2,0.26
			c-1.33,0-2-0.49-2-1.46c0-0.22,0.04-0.54,0.11-0.95s0.18-1.01,0.32-1.79s0.26-1.57,0.37-2.35c0.24-1.56,0.36-2.5,0.36-2.81
			c0-0.62-0.21-0.94-0.64-0.94c-1.02,0-1.7,1.59-2.05,4.76c-0.02,0.11-0.04,0.28-0.06,0.5c-0.02,0.09-0.03,0.17-0.03,0.22
			l-0.15,1.24c-0.07,0.55-0.11,0.94-0.14,1.17s-0.09,0.48-0.19,0.76s-0.24,0.5-0.42,0.66c-0.67,0.66-1.97,1-3.88,1
			c-1.18,0-1.78-0.46-1.78-1.38c0-0.2,0.03-0.49,0.09-0.86s0.15-0.94,0.27-1.7C45.5,28.14,45.63,27.34,45.77,26.49z"/>
		<path class="st2" d="M71.35,28.51l0.94-4.57c0.15-0.75,0.22-1.26,0.22-1.52v-0.05c0-0.09-0.02-0.15-0.07-0.18s-0.18-0.06-0.4-0.1
			l-0.47-0.08c-0.18-0.04-0.35-0.14-0.5-0.3c-0.15-0.17-0.22-0.35-0.22-0.55c0-0.79,0.62-1.47,1.85-2.04
			c1.71-0.83,3.4-1.24,5.07-1.24c1.05,0,1.57,0.5,1.57,1.49c0,0.53-0.16,1.55-0.47,3.06l-0.63,3.19c-0.22,1.1-0.33,1.88-0.33,2.34
			v0.11c0,0.22,0.09,0.33,0.28,0.33c0.07,0,0.18-0.01,0.32-0.03s0.23-0.03,0.29-0.03c0.46,0,0.69,0.29,0.69,0.88
			c0,0.68-0.46,1.37-1.38,2.07c-1.47,1.06-2.97,1.6-4.49,1.6c-1.71,0-2.56-0.7-2.56-2.09C71.05,30.38,71.15,29.61,71.35,28.51z
			 M74.49,17.3c-0.88,0-1.52-0.17-1.91-0.51c-0.39-0.34-0.59-0.73-0.59-1.17c0-0.86,0.61-1.63,1.82-2.31
			c1.17-0.66,2.37-0.99,3.58-0.99c0.84,0,1.5,0.16,1.96,0.48s0.69,0.7,0.69,1.14c0,0.81-0.56,1.57-1.67,2.29
			C77.25,16.94,75.96,17.3,74.49,17.3z"/>
		<path class="st2" d="M81.43,33.28l0.33-1.54c0.2-0.94,0.39-2.24,0.58-3.92c0.18-1.68,0.28-3.05,0.28-4.12
			c0-0.57-0.05-0.95-0.17-1.13c-0.11-0.18-0.33-0.28-0.66-0.28h-0.36c-0.28,0-0.5-0.08-0.66-0.25c-0.17-0.17-0.25-0.38-0.25-0.63
			c0-0.61,0.5-1.22,1.49-1.85c1.91-1.19,3.62-1.79,5.12-1.79c0.2,0,0.36,0.01,0.48,0.04s0.25,0.13,0.39,0.3s0.24,0.44,0.32,0.78
			c0.04,0.15,0.06,0.28,0.07,0.4c0.01,0.12,0.02,0.25,0.03,0.4s0.02,0.28,0.04,0.39c0.05,0.18,0.13,0.28,0.22,0.28
			c0.11,0,0.28-0.12,0.52-0.36c0.05-0.05,0.2-0.19,0.44-0.41c0.42-0.37,0.76-0.65,1.01-0.84s0.65-0.4,1.21-0.62
			c0.56-0.22,1.14-0.33,1.75-0.33c0.46,0,0.89,0.07,1.28,0.21c0.4,0.14,0.81,0.38,1.24,0.73s0.77,0.9,1.02,1.67
			c0.25,0.76,0.37,1.69,0.37,2.8c0,2.68-0.8,4.99-2.4,6.94c-1.47,1.78-3.06,2.67-4.76,2.67c-0.7,0-1.52-0.17-2.48-0.5l-0.08,1.73
			v0.11c0,0.42,0.2,0.73,0.61,0.91l0.27,0.14c0.57,0.27,0.85,0.63,0.85,1.07c0,0.18-0.04,0.35-0.12,0.51s-0.24,0.33-0.47,0.52
			s-0.59,0.34-1.09,0.45s-1.1,0.16-1.82,0.16c-1.67,0-3.09-0.23-4.26-0.69s-1.75-1.05-1.75-1.76c0-0.4,0.12-0.73,0.36-0.99
			c0.06-0.05,0.17-0.14,0.33-0.25c0.13-0.07,0.24-0.14,0.33-0.21c0.09-0.07,0.16-0.14,0.21-0.22c0.05-0.08,0.08-0.14,0.1-0.17
			s0.04-0.09,0.05-0.19C81.42,33.36,81.43,33.29,81.43,33.28z M90.36,22.15c-0.48,0-0.91,0.56-1.29,1.68
			c-0.7,1.93-1.05,3.65-1.05,5.18c0,0.53,0.18,0.8,0.55,0.8c0.53,0,1.06-0.54,1.6-1.62c0.7-1.43,1.05-2.9,1.05-4.41
			C91.21,22.69,90.93,22.15,90.36,22.15z"/>
		<path class="st2" d="M112.91,29.31c0,0.57-0.45,1.17-1.35,1.79c-1.86,1.3-4.02,1.96-6.5,1.96c-2.09,0-3.7-0.48-4.82-1.43
			s-1.68-2.3-1.68-4.05c0-1.36,0.36-2.69,1.07-3.99c0.72-1.3,1.7-2.44,2.95-3.42c2.07-1.62,4.41-2.42,7-2.42
			c1.52,0,2.64,0.33,3.35,0.99s1.06,1.48,1.06,2.45c0,1.19-0.44,2.35-1.32,3.47c-0.88,1.12-2.12,1.92-3.72,2.4
			c-0.64,0.2-1.47,0.33-2.48,0.39c-0.26,0.02-0.44,0.03-0.55,0.04s-0.2,0.04-0.26,0.08c-0.07,0.05-0.1,0.12-0.1,0.21
			c0,0.33,0.17,0.65,0.5,0.95c0.33,0.3,0.76,0.45,1.29,0.45c0.83,0,1.85-0.34,3.09-1.02c0.66-0.33,1.07-0.5,1.24-0.5
			c0.37,0,0.67,0.17,0.89,0.5S112.91,28.87,112.91,29.31z M105.7,24.22c0,0.33,0.16,0.5,0.47,0.5c0.29,0,0.65-0.23,1.07-0.69
			c0.7-0.79,1.05-1.72,1.05-2.78c0-0.46-0.15-0.69-0.44-0.69s-0.65,0.28-1.07,0.85C106.06,22.36,105.7,23.3,105.7,24.22z"/>
		<path class="st2" d="M123.33,30.63l-0.44,0.41c-0.55,0.51-1.24,0.96-2.07,1.35c-0.83,0.39-1.61,0.58-2.34,0.58
			c-1.05,0-1.88-0.39-2.49-1.17c-0.62-0.78-0.92-1.93-0.92-3.46c0-3.09,0.91-5.71,2.73-7.88c0.77-0.92,1.61-1.6,2.51-2.05
			c0.9-0.45,1.74-0.67,2.53-0.67c0.59,0,1.19,0.18,1.82,0.55c0.33,0.16,0.53,0.25,0.61,0.25c0.16,0,0.31-0.23,0.43-0.7
			c0.12-0.47,0.18-0.94,0.18-1.42c0-0.13-0.01-0.22-0.03-0.28c-0.02-0.06-0.07-0.11-0.15-0.15c-0.08-0.05-0.21-0.07-0.37-0.07
			c-0.05,0-0.13,0-0.22,0.01c-0.09,0.01-0.16,0.01-0.19,0.01c-0.7,0-1.05-0.31-1.05-0.94c0-0.92,0.69-1.62,2.07-2.09
			c1.62-0.57,3.19-0.85,4.74-0.85c0.33,0,0.58,0.01,0.74,0.04s0.33,0.13,0.5,0.32c0.16,0.18,0.25,0.47,0.25,0.85
			c0,0.2-0.01,0.36-0.03,0.47l-1.57,13.14c-0.02,0.13-0.03,0.29-0.03,0.5c0,0.59,0.16,0.88,0.47,0.88c0.05,0,0.15-0.01,0.27-0.03
			c0.13-0.02,0.23-0.03,0.3-0.03c0.42,0,0.63,0.3,0.63,0.91c0,0.53-0.16,0.97-0.5,1.32c-0.33,0.35-0.82,0.71-1.46,1.07
			c-1.8,1.01-3.26,1.51-4.38,1.51c-0.75,0-1.21-0.42-1.38-1.27l-0.17-0.85c0-0.04-0.01-0.11-0.03-0.21
			c-0.02-0.1-0.04-0.18-0.05-0.25c-0.02-0.06-0.05-0.12-0.1-0.18s-0.1-0.08-0.15-0.08c-0.07,0-0.15,0.02-0.24,0.07
			c-0.08,0.05-0.18,0.12-0.29,0.21L123.33,30.63z M124.65,20.77c-0.66,0-1.35,0.86-2.07,2.59c-0.68,1.62-1.02,2.97-1.02,4.05
			c0,0.26,0.06,0.45,0.18,0.56c0.12,0.12,0.24,0.18,0.37,0.18c0.68,0,1.39-0.84,2.12-2.53c0.68-1.49,1.02-2.82,1.02-3.99
			C125.25,21.06,125.05,20.77,124.65,20.77z"/>
		<path class="st2" d="M134.34,28.51l0.94-4.57c0.15-0.75,0.22-1.26,0.22-1.52v-0.05c0-0.09-0.02-0.15-0.07-0.18s-0.18-0.06-0.4-0.1
			l-0.47-0.08c-0.18-0.04-0.35-0.14-0.5-0.3c-0.15-0.17-0.22-0.35-0.22-0.55c0-0.79,0.62-1.47,1.85-2.04
			c1.71-0.83,3.4-1.24,5.07-1.24c1.05,0,1.57,0.5,1.57,1.49c0,0.53-0.16,1.55-0.47,3.06l-0.63,3.19c-0.22,1.1-0.33,1.88-0.33,2.34
			v0.11c0,0.22,0.09,0.33,0.28,0.33c0.07,0,0.18-0.01,0.32-0.03c0.14-0.02,0.23-0.03,0.29-0.03c0.46,0,0.69,0.29,0.69,0.88
			c0,0.68-0.46,1.37-1.38,2.07c-1.47,1.06-2.97,1.6-4.49,1.6c-1.71,0-2.56-0.7-2.56-2.09C134.04,30.38,134.14,29.61,134.34,28.51z
			 M137.48,17.3c-0.88,0-1.52-0.17-1.91-0.51c-0.4-0.34-0.59-0.73-0.59-1.17c0-0.86,0.61-1.63,1.82-2.31
			c1.18-0.66,2.37-0.99,3.58-0.99c0.84,0,1.5,0.16,1.96,0.48s0.69,0.7,0.69,1.14c0,0.81-0.56,1.57-1.67,2.29
			C140.24,16.94,138.95,17.3,137.48,17.3z"/>
		<path class="st2" d="M159.99,19.28l-0.36,2.92c-0.05,0.39-0.14,1.11-0.26,2.16c-0.12,1.06-0.22,1.85-0.29,2.38
			c-0.06,0.22-0.08,0.67-0.08,1.35c0,0.29,0.19,0.46,0.58,0.5c0.33,0.04,0.52,0.07,0.58,0.11c0.18,0.13,0.28,0.34,0.28,0.63
			c0,0.79-0.59,1.57-1.76,2.34c-1.41,0.92-2.75,1.38-4.02,1.38c-0.97,0-1.52-0.4-1.63-1.21l-0.08-0.63
			c-0.06-0.51-0.17-0.77-0.33-0.77c-0.07,0-0.27,0.13-0.58,0.39l-0.33,0.3c-1.42,1.27-2.83,1.9-4.24,1.9c-1.03,0-1.89-0.38-2.6-1.13
			c-0.71-0.75-1.06-1.94-1.06-3.55c0-2.37,0.81-4.63,2.43-6.78c0.97-1.27,1.96-2.2,2.96-2.81c1-0.61,1.92-0.91,2.74-0.91
			c0.84,0,1.61,0.21,2.29,0.63c0.16,0.09,0.33,0.19,0.5,0.3c0.16,0.11,0.28,0.19,0.36,0.23c0.07,0.05,0.15,0.09,0.22,0.12
			c0.07,0.04,0.14,0.05,0.19,0.05c0.06,0,0.13-0.02,0.22-0.07s0.24-0.13,0.46-0.25c0.21-0.12,0.44-0.23,0.67-0.34
			c0.73-0.37,1.45-0.55,2.15-0.55c0.33,0,0.59,0.06,0.77,0.18c0.18,0.12,0.27,0.38,0.27,0.78C160.01,19.1,160,19.21,159.99,19.28z
			 M153.68,21.16c-0.53,0-1.23,0.75-2.09,2.26c-0.84,1.49-1.27,2.85-1.27,4.08c0,0.61,0.18,0.91,0.55,0.91
			c0.5,0,1.12-0.62,1.87-1.87c0.39-0.64,0.73-1.4,1.03-2.27s0.45-1.61,0.45-2.22C154.23,21.45,154.05,21.16,153.68,21.16z"/>
	</g>
</g>
<g id="Layer_2">
	<g>
		<path class="st2" d="M12.89,32.46c-0.2,0.21-0.39,0.36-0.59,0.43C12.1,32.96,11.85,33,11.55,33c-0.45,0-0.82-0.2-1.12-0.59
			c-0.3-0.39-0.53-0.95-0.67-1.69c-0.09-0.45-0.15-0.94-0.17-1.47c-0.03-0.54-0.02-1.07,0.01-1.61c0.04-0.41,0.09-0.78,0.16-1.11
			c0.07-0.33,0.16-0.61,0.27-0.84c0.16-0.32,0.36-0.57,0.6-0.75c0.24-0.18,0.51-0.27,0.82-0.27c0.25,0,0.49,0.07,0.71,0.2
			c0.22,0.13,0.46,0.35,0.71,0.66c0.02,0.02,0.25,0.29,0.68,0.83c0.44,0.54,0.81,0.95,1.11,1.23c0.46,0.45,0.97,0.79,1.51,1.03
			c0.54,0.24,1.09,0.36,1.62,0.36c0.45,0,0.82-0.12,1.11-0.35s0.47-0.54,0.52-0.94c0.07-0.48-0.06-0.88-0.39-1.21
			c-0.33-0.32-1.01-0.68-2.05-1.07l-1.07-0.4c-1.8-0.68-3.11-1.58-3.91-2.69c-0.8-1.12-1.1-2.44-0.88-3.98
			c0.23-1.68,1.01-3.01,2.34-4.01c1.33-0.99,3-1.49,5-1.49c0.59,0,1.12,0.03,1.61,0.09c0.48,0.06,1.23,0.25,2.25,0.58
			c0.12,0.04,0.25,0.07,0.39,0.09s0.25,0.04,0.36,0.04c0.14,0,0.28-0.04,0.41-0.11c0.14-0.07,0.33-0.22,0.58-0.45
			c0.14-0.14,0.31-0.26,0.5-0.33c0.19-0.08,0.39-0.12,0.6-0.12c0.31,0,0.58,0.09,0.82,0.27c0.24,0.18,0.44,0.42,0.6,0.72
			c0.14,0.29,0.26,0.63,0.35,1.03c0.09,0.4,0.16,0.87,0.21,1.41c0.05,0.66,0.06,1.23,0.03,1.71c-0.03,0.48-0.11,0.88-0.21,1.2
			c-0.13,0.39-0.31,0.68-0.54,0.87s-0.52,0.28-0.86,0.28c-0.25,0-0.51-0.07-0.78-0.2c-0.27-0.13-0.65-0.43-1.15-0.9
			c-0.95-0.95-1.6-1.54-1.96-1.77c-0.34-0.23-0.7-0.41-1.08-0.52c-0.39-0.12-0.77-0.17-1.14-0.17c-0.46,0-0.85,0.1-1.15,0.31
			c-0.3,0.21-0.48,0.49-0.54,0.84c-0.05,0.41,0.05,0.74,0.31,0.99c0.26,0.25,1.12,0.65,2.59,1.21l1.07,0.4
			c1.84,0.7,3.15,1.61,3.92,2.75c0.78,1.13,1.05,2.53,0.82,4.19c-0.25,1.75-1.02,3.15-2.31,4.21c-1.29,1.05-2.94,1.58-4.94,1.58
			c-0.73,0-1.43-0.07-2.1-0.2c-0.67-0.13-1.49-0.4-2.45-0.79c-0.16-0.07-0.3-0.12-0.43-0.15c-0.13-0.03-0.26-0.04-0.4-0.04
			c-0.13,0-0.25,0.04-0.37,0.11C13.32,32.05,13.14,32.21,12.89,32.46z"/>
		<path class="st2" d="M41.95,28.58c-0.46,1.32-1.35,2.4-2.65,3.23s-2.82,1.25-4.55,1.25c-2.28,0-4.02-0.7-5.2-2.09
			c-1.18-1.39-1.61-3.25-1.28-5.57c0.32-2.37,1.4-4.33,3.23-5.87c1.83-1.54,3.96-2.3,6.39-2.3c1.75,0,3.08,0.43,3.98,1.3
			c0.9,0.87,1.24,2.06,1,3.58c-0.2,1.43-0.95,2.54-2.25,3.32s-3.03,1.18-5.19,1.18c-0.05,0-0.11,0-0.16,0c-0.05,0-0.11,0-0.16,0
			c-0.32,0-0.53,0.06-0.62,0.19c-0.09,0.13-0.07,0.34,0.05,0.64c0.18,0.43,0.49,0.75,0.92,0.96c0.44,0.21,1,0.32,1.7,0.32
			c0.52,0,1.04-0.13,1.55-0.4c0.52-0.27,1.03-0.66,1.53-1.18c0.13-0.13,0.25-0.21,0.37-0.27c0.13-0.05,0.27-0.08,0.43-0.08
			c0.37,0,0.66,0.18,0.87,0.54C42.11,27.67,42.13,28.09,41.95,28.58z M34.39,23.46c-0.05,0.3-0.03,0.54,0.08,0.72
			c0.11,0.18,0.27,0.27,0.48,0.27c0.02,0,0.03,0,0.05,0c0.02,0,0.04,0,0.05,0c0.48,0,0.99-0.21,1.51-0.64
			c0.53-0.43,0.83-0.95,0.92-1.55c0.07-0.45,0.01-0.79-0.17-1.05c-0.19-0.25-0.47-0.37-0.84-0.37c-0.46,0-0.9,0.26-1.31,0.79
			C34.76,22.15,34.5,22.76,34.39,23.46z"/>
		<path class="st2" d="M54.62,24.67c0.12-0.84,0.08-1.49-0.13-1.94c-0.22-0.46-0.6-0.68-1.15-0.68c-0.34,0-0.62,0.13-0.84,0.4
			c-0.22,0.27-0.39,0.69-0.49,1.26c-0.09,0.48-0.18,1.01-0.27,1.59c-0.09,0.58-0.19,1.25-0.29,2.02c-0.04,0.23-0.11,0.77-0.22,1.61
			c-0.11,0.84-0.18,1.38-0.21,1.61c-0.11,0.77-0.57,1.38-1.38,1.83c-0.81,0.46-1.83,0.68-3.07,0.68c-0.68,0-1.19-0.13-1.53-0.4
			c-0.34-0.27-0.5-0.66-0.48-1.18c0-0.25,0.03-0.61,0.11-1.07c0.07-0.46,0.22-1.25,0.46-2.36c0.14-0.79,0.24-1.35,0.31-1.7
			c0.06-0.35,0.11-0.65,0.15-0.9c0.02-0.16,0.06-0.51,0.13-1.04c0.07-0.54,0.12-0.93,0.13-1.18c0.02-0.2,0.02-0.34-0.01-0.44
			c-0.03-0.1-0.08-0.2-0.15-0.31c-0.07-0.11-0.17-0.19-0.29-0.25c-0.13-0.06-0.3-0.13-0.51-0.2c-0.27-0.09-0.46-0.23-0.56-0.43
			c-0.11-0.2-0.14-0.45-0.11-0.75c0.03-0.29,0.13-0.56,0.29-0.82c0.16-0.26,0.4-0.52,0.72-0.79c0.32-0.27,0.71-0.53,1.16-0.79
			c0.46-0.26,0.94-0.49,1.46-0.68c0.37-0.14,0.75-0.25,1.12-0.32c0.37-0.07,0.73-0.11,1.07-0.11c0.78,0,1.37,0.2,1.77,0.6
			c0.39,0.4,0.59,1,0.59,1.78c0,0.05,0,0.12-0.01,0.2c-0.01,0.08-0.02,0.17-0.04,0.28c-0.03,0.21,0,0.34,0.12,0.36
			c0.12,0.03,0.24-0.07,0.36-0.28c0.57-1,1.23-1.74,1.97-2.24c0.74-0.49,1.59-0.74,2.56-0.74c1,0,1.83,0.27,2.49,0.8
			c0.66,0.54,1.05,1.25,1.18,2.14c0.03,0.21,0.1,0.33,0.2,0.34c0.1,0.01,0.2-0.09,0.31-0.31c0.57-1,1.23-1.74,1.97-2.24
			c0.74-0.49,1.6-0.74,2.56-0.74c1.39,0,2.39,0.5,3,1.51c0.61,1.01,0.78,2.42,0.51,4.25c-0.04,0.32-0.09,0.67-0.16,1.03
			c-0.07,0.37-0.17,0.92-0.29,1.65c-0.11,0.61-0.18,1.05-0.23,1.33c-0.04,0.28-0.09,0.51-0.12,0.71c-0.02,0.2-0.02,0.37-0.01,0.52
			s0.04,0.27,0.09,0.36c0.05,0.11,0.12,0.19,0.2,0.26c0.08,0.06,0.18,0.11,0.31,0.15c0.18,0.05,0.31,0.1,0.37,0.13
			c0.07,0.04,0.14,0.08,0.19,0.13c0.18,0.14,0.29,0.29,0.34,0.43c0.04,0.14,0.05,0.34,0.01,0.59c-0.11,0.73-0.63,1.35-1.57,1.85
			c-0.94,0.5-2.06,0.75-3.36,0.75c-1.2,0-2.02-0.24-2.48-0.72c-0.46-0.48-0.6-1.32-0.42-2.52c0.05-0.32,0.12-0.71,0.19-1.15
			c0.07-0.45,0.2-1.12,0.37-2.01c0.12-0.61,0.21-1.04,0.26-1.29c0.04-0.25,0.08-0.45,0.09-0.59c0.11-0.82,0.05-1.46-0.16-1.93
			c-0.21-0.46-0.57-0.7-1.07-0.7c-0.36,0-0.66,0.14-0.9,0.43c-0.24,0.29-0.41,0.7-0.49,1.23c-0.09,0.52-0.19,1.22-0.31,2.12
			c-0.12,0.89-0.18,1.39-0.2,1.5c-0.12,1-0.21,1.69-0.27,2.08c-0.05,0.38-0.1,0.67-0.13,0.87c-0.16,0.93-0.61,1.63-1.34,2.09
			c-0.73,0.46-1.76,0.7-3.08,0.7c-0.73,0-1.25-0.21-1.55-0.63c-0.31-0.42-0.39-1.02-0.24-1.81c0-0.02,0.08-0.45,0.23-1.28
			c0.15-0.84,0.26-1.5,0.34-1.98c0.07-0.36,0.14-0.74,0.2-1.14C54.42,25.8,54.51,25.29,54.62,24.67z"/>
		<path class="st2" d="M79.98,30.29c-0.13,0.77-0.64,1.4-1.55,1.9c-0.91,0.5-2.04,0.75-3.4,0.75c-1.23,0-2.1-0.26-2.6-0.79
			c-0.5-0.53-0.66-1.36-0.48-2.5c0.11-0.7,0.24-1.46,0.4-2.28c0.16-0.82,0.25-1.29,0.27-1.39c0.11-0.61,0.19-1.12,0.26-1.53
			c0.06-0.41,0.1-0.8,0.12-1.18c0.02-0.2,0.02-0.35-0.01-0.47c-0.03-0.12-0.08-0.23-0.15-0.34c-0.05-0.09-0.14-0.17-0.26-0.24
			c-0.12-0.07-0.25-0.12-0.39-0.16c-0.34-0.09-0.57-0.23-0.7-0.42c-0.12-0.19-0.17-0.44-0.13-0.76c0.03-0.27,0.1-0.5,0.2-0.7
			c0.1-0.2,0.28-0.44,0.55-0.72c0.39-0.39,0.92-0.76,1.57-1.11c0.65-0.35,1.3-0.61,1.94-0.79c0.25-0.07,0.51-0.13,0.78-0.17
			c0.27-0.04,0.54-0.07,0.8-0.07c1,0,1.68,0.29,2.05,0.86c0.37,0.57,0.47,1.53,0.31,2.87c-0.03,0.3-0.09,0.66-0.15,1.06
			c-0.06,0.4-0.2,1.22-0.41,2.45c-0.25,1.43-0.4,2.29-0.44,2.59c-0.04,0.29-0.08,0.5-0.09,0.63c-0.02,0.2-0.02,0.37-0.01,0.51
			c0.01,0.14,0.04,0.27,0.09,0.37c0.05,0.09,0.12,0.17,0.2,0.23c0.08,0.06,0.19,0.12,0.34,0.17c0.16,0.05,0.29,0.1,0.37,0.15
			c0.09,0.04,0.16,0.09,0.21,0.12c0.12,0.11,0.22,0.25,0.28,0.42C80,29.91,80.02,30.09,79.98,30.29z M80.73,12.91
			c-0.13,1.02-0.8,1.9-2.04,2.64c-1.23,0.74-2.56,1.11-3.99,1.11c-0.73,0-1.3-0.21-1.7-0.63c-0.4-0.42-0.56-0.96-0.47-1.62
			c0.14-1.02,0.8-1.92,1.98-2.72c1.18-0.79,2.4-1.2,3.67-1.22c0.93-0.02,1.61,0.18,2.05,0.59C80.67,11.47,80.84,12.09,80.73,12.91z"
			/>
		<path class="st2" d="M98.06,25.66c-0.36,2.46-1.02,4.31-1.99,5.54c-0.97,1.23-2.26,1.85-3.87,1.85c-0.87,0-1.62-0.15-2.25-0.46
			c-0.63-0.3-1.19-0.82-1.69-1.55c-0.04-0.04-0.07-0.07-0.11-0.09c-0.04-0.03-0.07-0.04-0.11-0.04c-0.05,0-0.1,0.02-0.15,0.05
			c-0.05,0.04-0.08,0.09-0.09,0.16c-0.05,0.36-0.13,0.85-0.23,1.49c-0.1,0.63-0.17,1.19-0.23,1.67c-0.03,0.3-0.04,0.54-0.01,0.72
			c0.03,0.18,0.09,0.33,0.2,0.46c0.03,0.05,0.08,0.1,0.13,0.15c0.05,0.04,0.14,0.1,0.24,0.17c0.07,0.03,0.12,0.07,0.16,0.09
			c0.03,0.03,0.06,0.05,0.08,0.07c0.2,0.16,0.33,0.33,0.41,0.5c0.08,0.17,0.1,0.36,0.07,0.58c-0.04,0.29-0.13,0.53-0.28,0.74
			c-0.15,0.2-0.39,0.4-0.71,0.58c-0.61,0.34-1.47,0.63-2.59,0.86c-1.12,0.23-2.19,0.35-3.23,0.35c-0.43,0-0.79-0.04-1.09-0.12
			c-0.29-0.08-0.52-0.2-0.68-0.36c-0.13-0.13-0.22-0.26-0.27-0.39c-0.05-0.13-0.08-0.29-0.08-0.47c0-0.16,0.03-0.34,0.11-0.54
			c0.07-0.2,0.16-0.39,0.27-0.59c0.11-0.18,0.2-0.33,0.28-0.47s0.14-0.24,0.17-0.31c0.12-0.23,0.24-0.51,0.33-0.84
			c0.1-0.33,0.19-0.75,0.28-1.27c0.13-0.66,0.26-1.46,0.39-2.38c0.13-0.93,0.43-3.04,0.9-6.32c0.02-0.09,0.07-0.45,0.15-1.07
			c0.08-0.63,0.12-1.04,0.12-1.23c0-0.2-0.01-0.34-0.04-0.44c-0.03-0.1-0.08-0.19-0.15-0.28c-0.05-0.09-0.13-0.16-0.24-0.21
			c-0.11-0.05-0.25-0.11-0.43-0.16c-0.32-0.09-0.54-0.22-0.67-0.4c-0.13-0.18-0.17-0.44-0.14-0.78c0.02-0.27,0.12-0.54,0.3-0.83
			c0.18-0.28,0.44-0.57,0.78-0.86c0.32-0.27,0.7-0.53,1.14-0.78c0.44-0.25,0.92-0.47,1.43-0.67c0.37-0.14,0.75-0.25,1.12-0.32
			c0.37-0.07,0.73-0.11,1.07-0.11c0.77,0,1.36,0.2,1.77,0.59c0.41,0.39,0.62,0.96,0.62,1.69c0,0.05,0,0.11-0.01,0.17
			c-0.01,0.06-0.02,0.2-0.04,0.42c-0.02,0.11-0.01,0.19,0.03,0.26c0.04,0.06,0.09,0.09,0.16,0.09c0.05,0,0.1-0.02,0.15-0.07
			c0.04-0.04,0.09-0.11,0.15-0.2c0.57-1.09,1.21-1.87,1.9-2.36c0.7-0.48,1.5-0.72,2.41-0.72c1.66,0,2.84,0.76,3.54,2.28
			C98.25,20.99,98.42,23.05,98.06,25.66z M88.29,27.8c-0.03,0.39,0.05,0.72,0.27,0.98c0.21,0.26,0.52,0.39,0.91,0.39
			c0.57,0,1.07-0.26,1.5-0.79c0.43-0.53,0.7-1.23,0.83-2.1c0.18-1.34,0.14-2.37-0.12-3.08c-0.26-0.71-0.72-1.07-1.38-1.07
			c-0.37,0-0.68,0.13-0.91,0.39c-0.23,0.26-0.4,0.65-0.51,1.17c-0.09,0.45-0.17,0.98-0.25,1.59C88.54,25.88,88.43,26.73,88.29,27.8z
			"/>
		<path class="st2" d="M113.54,28.58c-0.46,1.32-1.35,2.4-2.65,3.23s-2.82,1.25-4.55,1.25c-2.28,0-4.02-0.7-5.2-2.09
			c-1.18-1.39-1.61-3.25-1.28-5.57c0.32-2.37,1.4-4.33,3.23-5.87c1.83-1.54,3.96-2.3,6.39-2.3c1.75,0,3.08,0.43,3.98,1.3
			c0.9,0.87,1.24,2.06,1,3.58c-0.2,1.43-0.95,2.54-2.25,3.32s-3.03,1.18-5.19,1.18c-0.05,0-0.11,0-0.16,0c-0.05,0-0.11,0-0.16,0
			c-0.32,0-0.53,0.06-0.62,0.19c-0.09,0.13-0.07,0.34,0.05,0.64c0.18,0.43,0.49,0.75,0.92,0.96c0.44,0.21,1,0.32,1.7,0.32
			c0.52,0,1.04-0.13,1.55-0.4c0.52-0.27,1.03-0.66,1.53-1.18c0.13-0.13,0.25-0.21,0.37-0.27c0.13-0.05,0.27-0.08,0.43-0.08
			c0.37,0,0.66,0.18,0.87,0.54C113.71,27.67,113.72,28.09,113.54,28.58z M105.99,23.46c-0.05,0.3-0.03,0.54,0.08,0.72
			c0.11,0.18,0.27,0.27,0.48,0.27c0.02,0,0.03,0,0.05,0s0.04,0,0.05,0c0.48,0,0.99-0.21,1.51-0.64c0.53-0.43,0.83-0.95,0.92-1.55
			c0.07-0.45,0.01-0.79-0.17-1.05c-0.19-0.25-0.47-0.37-0.84-0.37c-0.46,0-0.9,0.26-1.31,0.79
			C106.35,22.15,106.1,22.76,105.99,23.46z"/>
		<path class="st2" d="M124.02,30.59c-0.54,0.79-1.14,1.38-1.82,1.79c-0.68,0.41-1.41,0.62-2.2,0.62c-1.73,0-2.98-0.68-3.75-2.05
			c-0.77-1.37-0.98-3.25-0.64-5.67c0.37-2.54,1.15-4.51,2.32-5.92c1.17-1.41,2.62-2.12,4.35-2.12c0.79,0,1.46,0.16,2.01,0.47
			c0.55,0.31,1.01,0.79,1.37,1.43c0.03,0.05,0.07,0.09,0.11,0.12c0.03,0.03,0.07,0.04,0.11,0.04c0.05,0,0.1-0.02,0.13-0.07
			c0.04-0.04,0.06-0.1,0.08-0.17c0.04-0.12,0.09-0.44,0.17-0.95c0.08-0.51,0.14-0.91,0.17-1.19c0.05-0.34,0.06-0.65,0.03-0.94
			c-0.03-0.29-0.11-0.51-0.21-0.67c-0.05-0.07-0.13-0.14-0.23-0.21c-0.1-0.07-0.23-0.14-0.39-0.21c-0.32-0.14-0.55-0.32-0.68-0.54
			c-0.13-0.21-0.18-0.48-0.15-0.8c0.04-0.28,0.17-0.55,0.4-0.79c0.23-0.24,0.62-0.5,1.18-0.79c0.31-0.14,0.61-0.27,0.91-0.39
			c0.3-0.12,0.61-0.21,0.91-0.28c0.43-0.11,0.81-0.18,1.14-0.23c0.33-0.04,0.66-0.07,1-0.07c1.04,0,1.76,0.3,2.17,0.91
			c0.41,0.61,0.53,1.55,0.35,2.84c-0.09,0.7-0.2,1.44-0.32,2.22c-0.13,0.79-0.32,1.94-0.59,3.46c-0.14,0.84-0.25,1.46-0.32,1.87
			c-0.07,0.41-0.14,0.79-0.19,1.15c-0.21,1.28-0.37,2.28-0.48,2.97c-0.11,0.7-0.17,1.1-0.19,1.2c-0.04,0.23-0.05,0.42-0.04,0.55
			c0.01,0.13,0.04,0.25,0.09,0.33c0.05,0.11,0.12,0.19,0.2,0.26c0.08,0.06,0.18,0.11,0.31,0.15c0.18,0.05,0.3,0.1,0.37,0.13
			c0.07,0.04,0.13,0.08,0.19,0.13c0.18,0.14,0.29,0.29,0.33,0.43c0.05,0.14,0.05,0.34,0.01,0.59c-0.11,0.77-0.62,1.41-1.54,1.94
			c-0.92,0.53-2.01,0.79-3.28,0.79c-1.02,0-1.76-0.17-2.22-0.52c-0.46-0.35-0.7-0.92-0.7-1.73c0-0.12-0.01-0.21-0.04-0.27
			c-0.03-0.05-0.07-0.08-0.12-0.08c-0.05,0-0.1,0.02-0.15,0.05C124.15,30.43,124.09,30.5,124.02,30.59z M121.82,25.28
			c-0.14,1.02-0.07,1.81,0.22,2.38c0.29,0.57,0.76,0.86,1.42,0.86c0.37,0,0.68-0.13,0.92-0.39c0.24-0.26,0.41-0.65,0.49-1.17
			c0.09-0.45,0.18-0.98,0.27-1.59c0.09-0.62,0.2-1.46,0.32-2.53c0.05-0.39-0.02-0.71-0.23-0.96c-0.2-0.25-0.49-0.37-0.87-0.37
			c-0.63,0-1.16,0.33-1.61,0.99C122.31,23.16,122,24.09,121.82,25.28z"/>
		<path class="st2" d="M142.18,30.29c-0.13,0.77-0.64,1.4-1.55,1.9c-0.91,0.5-2.04,0.75-3.4,0.75c-1.23,0-2.1-0.26-2.6-0.79
			c-0.5-0.53-0.66-1.36-0.48-2.5c0.11-0.7,0.24-1.46,0.4-2.28c0.16-0.82,0.25-1.29,0.27-1.39c0.11-0.61,0.19-1.12,0.26-1.53
			c0.06-0.41,0.1-0.8,0.12-1.18c0.02-0.2,0.02-0.35-0.01-0.47c-0.03-0.12-0.08-0.23-0.15-0.34c-0.05-0.09-0.14-0.17-0.26-0.24
			c-0.12-0.07-0.25-0.12-0.39-0.16c-0.34-0.09-0.57-0.23-0.7-0.42c-0.12-0.19-0.17-0.44-0.13-0.76c0.03-0.27,0.1-0.5,0.2-0.7
			c0.1-0.2,0.28-0.44,0.55-0.72c0.39-0.39,0.92-0.76,1.57-1.11c0.65-0.35,1.3-0.61,1.94-0.79c0.25-0.07,0.51-0.13,0.78-0.17
			c0.27-0.04,0.54-0.07,0.8-0.07c1,0,1.68,0.29,2.05,0.86c0.37,0.57,0.47,1.53,0.31,2.87c-0.03,0.3-0.09,0.66-0.15,1.06
			c-0.06,0.4-0.2,1.22-0.41,2.45c-0.25,1.43-0.4,2.29-0.44,2.59c-0.04,0.29-0.08,0.5-0.09,0.63c-0.02,0.2-0.02,0.37-0.01,0.51
			c0.01,0.14,0.04,0.27,0.09,0.37c0.05,0.09,0.12,0.17,0.2,0.23c0.08,0.06,0.19,0.12,0.34,0.17c0.16,0.05,0.29,0.1,0.37,0.15
			c0.09,0.04,0.16,0.09,0.21,0.12c0.12,0.11,0.22,0.25,0.28,0.42C142.2,29.91,142.21,30.09,142.18,30.29z M142.93,12.91
			c-0.13,1.02-0.8,1.9-2.04,2.64c-1.23,0.74-2.56,1.11-3.99,1.11c-0.73,0-1.3-0.21-1.7-0.63c-0.4-0.42-0.56-0.96-0.47-1.62
			c0.14-1.02,0.8-1.92,1.98-2.72c1.18-0.79,2.4-1.2,3.67-1.22c0.93-0.02,1.61,0.18,2.05,0.59
			C142.87,11.47,143.03,12.09,142.93,12.91z"/>
		<path class="st2" d="M151.95,30.59c-0.45,0.75-1.02,1.34-1.71,1.75c-0.7,0.42-1.46,0.63-2.3,0.63c-1.73,0-2.98-0.68-3.75-2.04
			c-0.77-1.36-0.98-3.24-0.64-5.65c0.37-2.54,1.14-4.5,2.3-5.89c1.16-1.39,2.61-2.09,4.34-2.09c0.84,0,1.56,0.17,2.17,0.51
			c0.61,0.34,1.06,0.81,1.34,1.42c0.05,0.11,0.11,0.19,0.17,0.24c0.06,0.05,0.13,0.08,0.2,0.08c0.07,0,0.13-0.01,0.17-0.04
			c0.04-0.03,0.09-0.07,0.15-0.12c0.14-0.14,0.25-0.25,0.32-0.32c0.07-0.07,0.14-0.13,0.21-0.19c0.61-0.55,1.21-0.96,1.81-1.23
			c0.6-0.27,1.21-0.4,1.84-0.4c0.57,0,1.01,0.2,1.33,0.6c0.31,0.4,0.43,0.93,0.34,1.59c-0.02,0.21-0.05,0.47-0.09,0.76
			c-0.05,0.29-0.11,0.71-0.2,1.24c-0.04,0.18-0.18,1.05-0.44,2.6c-0.26,1.55-0.45,2.8-0.58,3.72c-0.02,0.2-0.02,0.37-0.01,0.52
			c0.01,0.15,0.04,0.27,0.09,0.36c0.05,0.11,0.12,0.19,0.2,0.26c0.08,0.06,0.18,0.11,0.31,0.15c0.18,0.05,0.3,0.1,0.37,0.13
			c0.07,0.04,0.14,0.08,0.19,0.13c0.18,0.14,0.29,0.29,0.34,0.43c0.04,0.14,0.05,0.34,0.01,0.59c-0.11,0.73-0.63,1.35-1.57,1.85
			c-0.94,0.5-2.06,0.75-3.36,0.75c-1.04,0-1.8-0.18-2.3-0.55c-0.5-0.37-0.75-0.93-0.75-1.7c0-0.11-0.01-0.19-0.04-0.25
			c-0.03-0.06-0.07-0.09-0.12-0.09c-0.05,0-0.11,0.02-0.16,0.05C152.06,30.43,152.01,30.5,151.95,30.59z M149.73,25.31
			c-0.14,1.02-0.07,1.81,0.21,2.38c0.29,0.57,0.76,0.86,1.42,0.86c0.37,0,0.68-0.13,0.92-0.39c0.24-0.26,0.41-0.65,0.49-1.17
			c0.09-0.45,0.18-0.98,0.27-1.59c0.09-0.62,0.2-1.46,0.32-2.53c0.05-0.39-0.02-0.71-0.23-0.96c-0.2-0.25-0.49-0.37-0.87-0.37
			c-0.63,0-1.16,0.33-1.61,0.99C150.22,23.18,149.91,24.11,149.73,25.31z"/>
	</g>
</g>
</svg>
