<?xml version="1.0" encoding="utf-8"?>
<!-- Generator: Adobe Illustrator 25.4.1, SVG Export Plug-In . SVG Version: 6.00 Build 0)  -->
<svg version="1.1" id="Layer_1" xmlns="http://www.w3.org/2000/svg" xmlns:xlink="http://www.w3.org/1999/xlink" x="0px" y="0px"
	 viewBox="0 0 170 50" style="enable-background:new 0 0 170 50;" xml:space="preserve">
<style type="text/css">
	.st0{display:none;}
	.st1{display:inline;}
	.st2{fill:#634832;}
</style>
<g id="Logos" class="st0">
	<g class="st1">
		<path class="st2" d="M21.3,19.1l1,0.6c1.5,0.8,2.6,1.7,3.3,2.7c0.7,0.9,1.1,2,1.1,3.3c0,0.9-0.2,1.8-0.6,2.7
			c-0.4,0.9-1,1.7-1.7,2.4s-1.7,1.3-2.9,1.8c-1.2,0.5-2.6,0.7-4.1,0.7c-1.8,0-3.3-0.3-4.5-0.8c-0.9-0.4-1.7-1.1-2.4-2s-1-2-1-3.4
			c0-0.9,0.2-1.6,0.6-2.1c0.4-0.5,0.9-0.7,1.5-0.7c0.4,0,0.8,0.1,1.1,0.4c0.3,0.3,0.6,0.5,0.7,0.8c0.1,0.3,0.3,0.6,0.5,1.1
			c0.3,0.9,0.7,1.6,1.2,2.1c0.4,0.5,1,0.8,1.8,0.8c0.5,0,1-0.1,1.2-0.4c0.3-0.3,0.4-0.6,0.4-1c0-0.2,0-0.4-0.1-0.6s-0.2-0.4-0.3-0.5
			s-0.2-0.3-0.4-0.5s-0.4-0.3-0.5-0.4s-0.3-0.2-0.5-0.4s-0.4-0.3-0.4-0.3l-0.8-0.6c-2.3-1.7-3.5-3.6-3.5-5.6c0-1.9,0.8-3.4,2.3-4.7
			s3.3-1.9,5.5-1.9c0.5,0,1.1,0.1,1.8,0.2c0.2,0,0.4,0.1,0.6,0.2c0.2,0.1,0.3,0.1,0.4,0.1c0.1,0,0.3-0.1,0.7-0.2
			c0.3-0.1,0.6-0.2,0.9-0.2c0.5,0,1,0.3,1.6,0.8c1,0.9,1.5,2,1.5,3.3c0,0.8-0.2,1.4-0.7,1.8c-0.4,0.4-1,0.6-1.6,0.6
			c-0.4,0-0.7-0.1-1-0.3c-0.3-0.2-0.5-0.3-0.6-0.5c-0.1-0.1-0.3-0.4-0.7-0.8c-0.8-1-1.5-1.5-2.3-1.5c-0.4,0-0.7,0.1-0.9,0.4
			c-0.2,0.2-0.3,0.5-0.3,0.9c0,0.1,0,0.2,0,0.3s0.1,0.2,0.1,0.3c0,0.1,0.1,0.2,0.2,0.2c0.1,0.1,0.2,0.2,0.2,0.2s0.2,0.1,0.3,0.2
			c0.1,0.1,0.3,0.2,0.3,0.2s0.2,0.1,0.4,0.2C21.1,19,21.3,19,21.3,19.1z"/>
		<path class="st2" d="M42.4,29.3c0,0.6-0.5,1.2-1.3,1.8c-1.9,1.3-4,2-6.5,2c-2.1,0-3.7-0.5-4.8-1.4c-1.1-1-1.7-2.3-1.7-4
			c0-1.4,0.4-2.7,1.1-4c0.7-1.3,1.7-2.4,3-3.4c2.1-1.6,4.4-2.4,7-2.4c1.5,0,2.6,0.3,3.3,1s1.1,1.5,1.1,2.5c0,1.2-0.4,2.4-1.3,3.5
			c-0.9,1.1-2.1,1.9-3.7,2.4c-0.6,0.2-1.5,0.3-2.5,0.4c-0.3,0-0.4,0-0.5,0s-0.2,0-0.3,0.1c-0.1,0-0.1,0.1-0.1,0.2
			c0,0.3,0.2,0.6,0.5,1c0.3,0.3,0.8,0.5,1.3,0.5c0.8,0,1.8-0.3,3.1-1c0.7-0.3,1.1-0.5,1.2-0.5c0.4,0,0.7,0.2,0.9,0.5
			C42.3,28.5,42.4,28.9,42.4,29.3z M35.2,24.2c0,0.3,0.2,0.5,0.5,0.5c0.3,0,0.7-0.2,1.1-0.7c0.7-0.8,1-1.7,1-2.8
			c0-0.5-0.2-0.7-0.4-0.7c-0.3,0-0.7,0.3-1.1,0.9C35.5,22.4,35.2,23.3,35.2,24.2z"/>
		<path class="st2" d="M45.8,26.5l0.4-2.7c0-0.2,0-0.5,0-0.8c0-0.4,0-0.6-0.2-0.7c-0.1-0.1-0.3-0.1-0.6-0.1c-0.5,0-0.8-0.1-1-0.2
			s-0.3-0.4-0.3-0.6c0-0.3,0.1-0.6,0.4-0.9s0.5-0.5,0.7-0.6c0.2-0.1,0.5-0.3,1-0.6c1.5-0.9,3-1.3,4.2-1.3c0.6,0,1.1,0.2,1.2,0.6
			c0.1,0.2,0.2,0.5,0.2,1c0,0,0,0.1,0,0.2s0,0.1,0,0.2s0,0.1,0,0.2c0,0.1,0,0.1,0,0.2s0,0.1,0,0.1c0,0,0,0.1,0.1,0.1
			c0,0,0.1,0,0.1,0c0.2,0,0.8-0.4,1.9-1.2l0.3-0.2c1-0.7,2.1-1.1,3.1-1.1c1.2,0,2,0.5,2.4,1.6l0.2,0.5c0.1,0.3,0.2,0.4,0.3,0.4
			c0,0,0.2-0.1,0.6-0.4l0.6-0.4c1.5-1.1,2.8-1.6,4.1-1.6c1.8,0,2.8,1.1,2.8,3.4c0,0.9-0.2,2.2-0.5,4c-0.2,1.2-0.3,2-0.3,2.5
			c0,0.3,0.1,0.5,0.3,0.6c0.1,0,0.2,0.1,0.4,0.1s0.3,0,0.4,0.1c0.3,0.1,0.4,0.3,0.4,0.6c0,0.8-0.6,1.6-1.7,2.4
			c-1.2,0.9-2.5,1.3-3.8,1.3c-1.5,0-2.3-0.7-2.3-2.1c0-0.3,0.1-1.1,0.3-2.5l0.4-2.7c0.2-1.5,0.3-2.3,0.3-2.5c0-0.5-0.2-0.7-0.6-0.7
			c-1.2,0-1.9,1.9-2.2,5.7l-0.1,1.3c0,0.5-0.1,0.8-0.1,1c0,0.2-0.1,0.4-0.2,0.7c-0.1,0.3-0.3,0.5-0.5,0.7c-0.3,0.3-0.9,0.5-1.6,0.7
			c-0.7,0.2-1.4,0.3-2,0.3c-1.3,0-2-0.5-2-1.5c0-0.2,0-0.5,0.1-1s0.2-1,0.3-1.8s0.3-1.6,0.4-2.4c0.2-1.6,0.4-2.5,0.4-2.8
			c0-0.6-0.2-0.9-0.6-0.9c-1,0-1.7,1.6-2,4.8c0,0.1,0,0.3-0.1,0.5c0,0.1,0,0.2,0,0.2l-0.2,1.2c-0.1,0.5-0.1,0.9-0.1,1.2
			s-0.1,0.5-0.2,0.8s-0.2,0.5-0.4,0.7c-0.7,0.7-2,1-3.9,1c-1.2,0-1.8-0.5-1.8-1.4c0-0.2,0-0.5,0.1-0.9s0.2-0.9,0.3-1.7
			C45.5,28.1,45.6,27.3,45.8,26.5z"/>
		<path class="st2" d="M71.3,28.5l0.9-4.6c0.2-0.8,0.2-1.3,0.2-1.5v0c0-0.1,0-0.1-0.1-0.2s-0.2-0.1-0.4-0.1L71.6,22
			c-0.2,0-0.3-0.1-0.5-0.3c-0.2-0.2-0.2-0.4-0.2-0.5c0-0.8,0.6-1.5,1.8-2c1.7-0.8,3.4-1.2,5.1-1.2c1.1,0,1.6,0.5,1.6,1.5
			c0,0.5-0.2,1.5-0.5,3.1l-0.6,3.2c-0.2,1.1-0.3,1.9-0.3,2.3v0.1c0,0.2,0.1,0.3,0.3,0.3c0.1,0,0.2,0,0.3,0s0.2,0,0.3,0
			c0.5,0,0.7,0.3,0.7,0.9c0,0.7-0.5,1.4-1.4,2.1c-1.5,1.1-3,1.6-4.5,1.6c-1.7,0-2.6-0.7-2.6-2.1C71.1,30.4,71.2,29.6,71.3,28.5z
			 M74.5,17.3c-0.9,0-1.5-0.2-1.9-0.5c-0.4-0.3-0.6-0.7-0.6-1.2c0-0.9,0.6-1.6,1.8-2.3c1.2-0.7,2.4-1,3.6-1c0.8,0,1.5,0.2,2,0.5
			s0.7,0.7,0.7,1.1c0,0.8-0.6,1.6-1.7,2.3C77.2,16.9,76,17.3,74.5,17.3z"/>
		<path class="st2" d="M81.4,33.3l0.3-1.5c0.2-0.9,0.4-2.2,0.6-3.9c0.2-1.7,0.3-3,0.3-4.1c0-0.6-0.1-1-0.2-1.1
			c-0.1-0.2-0.3-0.3-0.7-0.3h-0.4c-0.3,0-0.5-0.1-0.7-0.2c-0.2-0.2-0.2-0.4-0.2-0.6c0-0.6,0.5-1.2,1.5-1.9c1.9-1.2,3.6-1.8,5.1-1.8
			c0.2,0,0.4,0,0.5,0s0.2,0.1,0.4,0.3s0.2,0.4,0.3,0.8c0,0.1,0.1,0.3,0.1,0.4c0,0.1,0,0.2,0,0.4s0,0.3,0,0.4
			c0.1,0.2,0.1,0.3,0.2,0.3c0.1,0,0.3-0.1,0.5-0.4c0.1,0,0.2-0.2,0.4-0.4c0.4-0.4,0.8-0.6,1-0.8s0.7-0.4,1.2-0.6
			c0.6-0.2,1.1-0.3,1.8-0.3c0.5,0,0.9,0.1,1.3,0.2c0.4,0.1,0.8,0.4,1.2,0.7s0.8,0.9,1,1.7c0.2,0.8,0.4,1.7,0.4,2.8
			c0,2.7-0.8,5-2.4,6.9c-1.5,1.8-3.1,2.7-4.8,2.7c-0.7,0-1.5-0.2-2.5-0.5L87.8,34v0.1c0,0.4,0.2,0.7,0.6,0.9l0.3,0.1
			c0.6,0.3,0.8,0.6,0.8,1.1c0,0.2,0,0.3-0.1,0.5s-0.2,0.3-0.5,0.5s-0.6,0.3-1.1,0.5s-1.1,0.2-1.8,0.2c-1.7,0-3.1-0.2-4.3-0.7
			s-1.8-1-1.8-1.8c0-0.4,0.1-0.7,0.4-1c0.1,0,0.2-0.1,0.3-0.2c0.1-0.1,0.2-0.1,0.3-0.2c0.1-0.1,0.2-0.1,0.2-0.2
			c0.1-0.1,0.1-0.1,0.1-0.2s0-0.1,0.1-0.2C81.4,33.4,81.4,33.3,81.4,33.3z M90.4,22.1c-0.5,0-0.9,0.6-1.3,1.7
			C88.4,25.8,88,27.5,88,29c0,0.5,0.2,0.8,0.6,0.8c0.5,0,1.1-0.5,1.6-1.6c0.7-1.4,1.1-2.9,1.1-4.4C91.2,22.7,90.9,22.1,90.4,22.1z"
			/>
		<path class="st2" d="M112.9,29.3c0,0.6-0.4,1.2-1.3,1.8c-1.9,1.3-4,2-6.5,2c-2.1,0-3.7-0.5-4.8-1.4s-1.7-2.3-1.7-4
			c0-1.4,0.4-2.7,1.1-4c0.7-1.3,1.7-2.4,2.9-3.4c2.1-1.6,4.4-2.4,7-2.4c1.5,0,2.6,0.3,3.3,1s1.1,1.5,1.1,2.5c0,1.2-0.4,2.4-1.3,3.5
			c-0.9,1.1-2.1,1.9-3.7,2.4c-0.6,0.2-1.5,0.3-2.5,0.4c-0.3,0-0.4,0-0.6,0s-0.2,0-0.3,0.1c-0.1,0-0.1,0.1-0.1,0.2
			c0,0.3,0.2,0.6,0.5,1c0.3,0.3,0.8,0.5,1.3,0.5c0.8,0,1.8-0.3,3.1-1c0.7-0.3,1.1-0.5,1.2-0.5c0.4,0,0.7,0.2,0.9,0.5
			S112.9,28.9,112.9,29.3z M105.7,24.2c0,0.3,0.2,0.5,0.5,0.5c0.3,0,0.7-0.2,1.1-0.7c0.7-0.8,1.1-1.7,1.1-2.8c0-0.5-0.2-0.7-0.4-0.7
			s-0.7,0.3-1.1,0.9C106.1,22.4,105.7,23.3,105.7,24.2z"/>
		<path class="st2" d="M123.3,30.6l-0.4,0.4c-0.6,0.5-1.2,1-2.1,1.4c-0.8,0.4-1.6,0.6-2.3,0.6c-1.1,0-1.9-0.4-2.5-1.2
			c-0.6-0.8-0.9-1.9-0.9-3.5c0-3.1,0.9-5.7,2.7-7.9c0.8-0.9,1.6-1.6,2.5-2c0.9-0.5,1.7-0.7,2.5-0.7c0.6,0,1.2,0.2,1.8,0.5
			c0.3,0.2,0.5,0.2,0.6,0.2c0.2,0,0.3-0.2,0.4-0.7c0.1-0.5,0.2-0.9,0.2-1.4c0-0.1,0-0.2,0-0.3c0-0.1-0.1-0.1-0.2-0.1
			c-0.1-0.1-0.2-0.1-0.4-0.1c-0.1,0-0.1,0-0.2,0c-0.1,0-0.2,0-0.2,0c-0.7,0-1.1-0.3-1.1-0.9c0-0.9,0.7-1.6,2.1-2.1
			c1.6-0.6,3.2-0.9,4.7-0.9c0.3,0,0.6,0,0.7,0s0.3,0.1,0.5,0.3c0.2,0.2,0.2,0.5,0.2,0.9c0,0.2,0,0.4,0,0.5l-1.6,13.1
			c0,0.1,0,0.3,0,0.5c0,0.6,0.2,0.9,0.5,0.9c0.1,0,0.1,0,0.3,0c0.1,0,0.2,0,0.3,0c0.4,0,0.6,0.3,0.6,0.9c0,0.5-0.2,1-0.5,1.3
			c-0.3,0.4-0.8,0.7-1.5,1.1c-1.8,1-3.3,1.5-4.4,1.5c-0.8,0-1.2-0.4-1.4-1.3l-0.2-0.9c0,0,0-0.1,0-0.2c0-0.1,0-0.2-0.1-0.2
			c0-0.1-0.1-0.1-0.1-0.2s-0.1-0.1-0.2-0.1c-0.1,0-0.2,0-0.2,0.1c-0.1,0-0.2,0.1-0.3,0.2L123.3,30.6z M124.7,20.8
			c-0.7,0-1.3,0.9-2.1,2.6c-0.7,1.6-1,3-1,4c0,0.3,0.1,0.5,0.2,0.6c0.1,0.1,0.2,0.2,0.4,0.2c0.7,0,1.4-0.8,2.1-2.5
			c0.7-1.5,1-2.8,1-4C125.2,21.1,125.1,20.8,124.7,20.8z"/>
		<path class="st2" d="M134.3,28.5l0.9-4.6c0.1-0.8,0.2-1.3,0.2-1.5v0c0-0.1,0-0.1-0.1-0.2s-0.2-0.1-0.4-0.1l-0.5-0.1
			c-0.2,0-0.4-0.1-0.5-0.3c-0.1-0.2-0.2-0.4-0.2-0.5c0-0.8,0.6-1.5,1.9-2c1.7-0.8,3.4-1.2,5.1-1.2c1.1,0,1.6,0.5,1.6,1.5
			c0,0.5-0.2,1.5-0.5,3.1l-0.6,3.2c-0.2,1.1-0.3,1.9-0.3,2.3v0.1c0,0.2,0.1,0.3,0.3,0.3c0.1,0,0.2,0,0.3,0c0.1,0,0.2,0,0.3,0
			c0.5,0,0.7,0.3,0.7,0.9c0,0.7-0.5,1.4-1.4,2.1c-1.5,1.1-3,1.6-4.5,1.6c-1.7,0-2.6-0.7-2.6-2.1C134,30.4,134.1,29.6,134.3,28.5z
			 M137.5,17.3c-0.9,0-1.5-0.2-1.9-0.5c-0.4-0.3-0.6-0.7-0.6-1.2c0-0.9,0.6-1.6,1.8-2.3c1.2-0.7,2.4-1,3.6-1c0.8,0,1.5,0.2,2,0.5
			s0.7,0.7,0.7,1.1c0,0.8-0.6,1.6-1.7,2.3C140.2,16.9,138.9,17.3,137.5,17.3z"/>
		<path class="st2" d="M160,19.3l-0.4,2.9c-0.1,0.4-0.1,1.1-0.3,2.2c-0.1,1.1-0.2,1.9-0.3,2.4c-0.1,0.2-0.1,0.7-0.1,1.4
			c0,0.3,0.2,0.5,0.6,0.5c0.3,0,0.5,0.1,0.6,0.1c0.2,0.1,0.3,0.3,0.3,0.6c0,0.8-0.6,1.6-1.8,2.3c-1.4,0.9-2.8,1.4-4,1.4
			c-1,0-1.5-0.4-1.6-1.2l-0.1-0.6c-0.1-0.5-0.2-0.8-0.3-0.8c-0.1,0-0.3,0.1-0.6,0.4l-0.3,0.3c-1.4,1.3-2.8,1.9-4.2,1.9
			c-1,0-1.9-0.4-2.6-1.1c-0.7-0.8-1.1-1.9-1.1-3.5c0-2.4,0.8-4.6,2.4-6.8c1-1.3,2-2.2,3-2.8c1-0.6,1.9-0.9,2.7-0.9
			c0.8,0,1.6,0.2,2.3,0.6c0.2,0.1,0.3,0.2,0.5,0.3c0.2,0.1,0.3,0.2,0.4,0.2c0.1,0,0.1,0.1,0.2,0.1c0.1,0,0.1,0,0.2,0
			c0.1,0,0.1,0,0.2-0.1s0.2-0.1,0.5-0.2c0.2-0.1,0.4-0.2,0.7-0.3c0.7-0.4,1.4-0.5,2.1-0.5c0.3,0,0.6,0.1,0.8,0.2
			c0.2,0.1,0.3,0.4,0.3,0.8C160,19.1,160,19.2,160,19.3z M153.7,21.2c-0.5,0-1.2,0.8-2.1,2.3c-0.8,1.5-1.3,2.9-1.3,4.1
			c0,0.6,0.2,0.9,0.6,0.9c0.5,0,1.1-0.6,1.9-1.9c0.4-0.6,0.7-1.4,1-2.3s0.4-1.6,0.4-2.2C154.2,21.5,154.1,21.2,153.7,21.2z"/>
	</g>
</g>
<g>
	<path class="st2" d="M18.2,36.2c-0.6-0.3-0.9-0.8-0.8-1.6c0.1-0.6,0.4-1,0.7-1.3c0.4-0.3,1-0.4,1.5-0.7c0.6-0.3,1.1-0.6,1.3-1.4
		c0.1-0.3,0.4-1.7,0.8-5.2c0.4-3.2,0.7-4.9,0.7-5.3c0-0.7-0.3-1.1-0.9-1.2c-0.2,0-0.5,0-0.6,0c-0.2,0-0.4,0.1-0.7,0.3
		c-0.6,0.5-1,1.6-1.7,2.5c-0.5,0.6-1.1,1.2-2,1.2c-1.2,0-2-0.7-1.7-2.5c0.3-2.2,1.1-3.9,2.1-5c0.6-0.7,1.3-1,2-1
		c1.3,0,0.9,0.6,2.1,0.6c1.8,0,2.3,0,5.8,0c3.6,0,4,0.1,5.4,0.1c0.8,0,1.2-0.6,2.5-0.6c0.6,0,1.1,0.3,1.5,0.8c0.7,1,1,2.8,0.7,5
		c-0.3,1.7-1.3,2.7-2.5,2.7c-1,0-1.5-0.5-1.8-1.2c-0.4-0.9-0.5-2-1.1-2.5c-0.2-0.2-0.5-0.2-0.8-0.2c-0.4,0-0.4,0-0.7,0.1
		c-0.3,0.1-0.5,0.3-0.7,1c-0.1,0.4-0.2,1.7-0.8,5.7c-0.5,3.5-0.5,4.5-0.5,4.9c0,0.5,0.2,0.8,0.4,1.1c0.3,0.3,0.8,0.4,1.2,0.6
		c0.6,0.3,1,0.6,0.9,1.7c-0.1,0.5-0.3,1-0.8,1.3c-1,0.6-2.9,0.9-6.8,0.9C20.4,36.9,19,36.7,18.2,36.2z"/>
	<path class="st2" d="M37.5,35.2c0-1,0.9-5.4,1.4-8.4c0.5-3.1,0.8-5.3,1-7c0.1-0.6,0-0.8-0.2-1.1c-0.1-0.3-0.5-0.4-0.9-0.6
		c-0.7-0.2-1-0.7-0.9-1.5c0.1-0.6,0.6-1.1,1.3-1.6c0.6-0.3,1.3-0.6,2-0.9c1-0.3,2-0.5,2.9-0.5c2.2,0,2.7,1.2,2.4,3.9
		c-0.1,0.8-0.3,1.7-0.4,2.6c-0.2,1.1-0.4,2.1-0.6,3.1c-0.1,0.3,0,0.4,0.2,0.4c0.1,0,0.2-0.1,0.3-0.3c1.1-2,2.6-3.1,4.8-3.1
		c3.2,0,4.1,2.7,3.7,6c-0.3,1.8-0.7,3.7-0.8,4.9c-0.1,0.4,0,0.7,0.1,0.9c0.1,0.2,0.3,0.3,0.5,0.4s0.4,0.1,0.6,0.3
		c0.3,0.3,0.4,0.5,0.4,1.1c-0.2,1.5-2.4,2.7-5.2,2.7c-2.9,0-3.3-1.3-3-3.4c0.3-1.7,0.8-4.3,1-5.3c0.2-1.5,0-2.8-1.4-2.8
		c-0.8,0-1.2,0.6-1.4,1.7c-0.2,1.2-0.4,2.6-0.6,3.8c-0.2,1.3-0.4,2.8-0.4,3.3c-0.2,1.5-1.6,2.7-4.7,2.7
		C38.1,36.8,37.5,36.2,37.5,35.2z"/>
	<path class="st2" d="M56.6,28.8c0.7-5.2,5.2-8.6,10.1-8.6c3.3,0,5.7,1.7,5.2,5.1c-0.4,3.1-3.5,4.7-7.8,4.7c-0.1,0-0.2,0-0.3,0
		c-0.8,0-0.8,0.3-0.6,0.9c0.4,1,1.3,1.3,2.8,1.3c1.3,0,2.4-0.8,3.2-1.7c0.2-0.2,0.4-0.4,0.8-0.4c0.7,0,1.3,0.8,1,1.9
		c-0.9,2.4-3.5,4.7-7.6,4.7C58.5,36.8,56,33.5,56.6,28.8z M63.8,27.8c0.7,0,2.3-0.8,2.6-2.3c0.1-1-0.3-1.5-1.1-1.5
		c-1,0-2,1.3-2.2,2.8c-0.1,0.7,0.2,1,0.6,1C63.7,27.8,63.7,27.8,63.8,27.8z"/>
	<path class="st2" d="M78.4,35c0.1-0.8,0.5-1.1,0.9-1.4c0.3-0.2,0.5-0.3,0.8-0.6c0.3-0.3,0.5-0.7,0.6-1.3c0.2-1,0.6-3.9,0.8-5.5
		c0.3-1.8,0.8-5.1,0.8-5.6c0-0.7-0.1-1.2-0.4-1.4c-0.3-0.3-0.6-0.4-0.9-0.7c-0.2-0.2-0.4-0.4-0.3-0.9c0.1-1.2,1.4-1.9,4.7-1.9
		c1.9,0,3.2,0.2,4,0.2c0.6,0,1.5-0.3,4.8-0.3c4.8,0,6.6,2.4,6.2,5.4c-0.3,2.1-2.1,3.4-4.5,4c-0.4,0.1-0.4,0.6,0,0.7
		c3.3,0.8,4.5,2.8,4.1,5.8c-0.5,3.5-3.9,5.4-9.7,5.4c-3.5,0-4.2-0.3-4.9-0.3c-0.9,0-1.6,0.3-3.3,0.3C79.9,36.8,78.2,36.4,78.4,35z
		 M89.3,32.7c1.6,0,2.9-1.2,3.1-2.5c0.3-1.7-0.7-2.8-2.7-2.8c-0.2,0-0.4,0-0.6,0c-0.7,0-0.9,0.3-1,1.3c-0.1,0.8-0.2,1.2-0.2,1.4
		c-0.1,0.6-0.1,1-0.1,1.4c-0.1,0.7,0.3,1.1,0.9,1.1C88.9,32.7,89.1,32.7,89.3,32.7z M90,24.2c1.7,0,2.7-0.9,2.9-2.2
		c0.3-1.8-0.7-2.9-2.2-2.9c-0.2,0-0.3,0-0.4,0c-0.4,0-0.7,0.2-0.9,0.8c-0.1,0.3-0.2,1-0.3,1.7c-0.1,0.3-0.2,1.3-0.3,1.8
		c-0.1,0.6,0,0.9,0.5,0.9C89.4,24.2,89.7,24.2,90,24.2z"/>
	<path class="st2" d="M101.9,33.2c0.3-1.6,0.4-2.5,0.7-3.8c0.3-1.7,0.4-2.3,0.4-2.8c0-0.4,0-0.6-0.2-0.8c-0.1-0.2-0.4-0.3-0.7-0.4
		c-0.7-0.2-1-0.6-0.9-1.2c0.1-0.7,0.4-1,0.8-1.5c0.8-0.8,2.4-1.6,3.7-2c0.5-0.2,1.1-0.3,1.7-0.3c2.2,0,2.8,1.2,2.5,3.9
		c-0.1,0.9-0.3,2.1-0.6,3.7c-0.3,1.5-0.5,2.9-0.6,3.4c-0.1,0.4,0,0.7,0.1,0.9c0.1,0.2,0.3,0.3,0.6,0.4c0.3,0.1,0.5,0.2,0.6,0.3
		c0.2,0.2,0.4,0.5,0.3,1c-0.2,1.4-2,2.8-5.2,2.8C102.3,36.7,101.6,35.4,101.9,33.2z M102.5,17.3c0.3-2.3,3.5-4.1,5.9-4.1
		c1.9,0,2.9,0.8,2.7,2.6c-0.3,2.3-3.7,3.9-6.3,3.9C103.2,19.6,102.3,18.6,102.5,17.3z"/>
	<path class="st2" d="M112.1,30.1c0.5-3.9,1.5-9,1.7-10.9c0.1-0.7-0.1-1-0.4-1.1c-0.2-0.1-0.4-0.1-0.6-0.1c-0.8-0.2-1.2-0.6-1.1-1.3
		c0.1-0.4,0.3-0.8,0.7-1.1c1.1-0.8,2.4-1.4,3.9-1.7c0.6-0.1,1.2-0.2,1.7-0.2c2.2,0,2.9,0.8,2.6,3.2c-0.3,1.7-0.9,4.4-1.2,6
		c0,0.2,0.1,0.4,0.2,0.4c0.1,0,0.2-0.1,0.3-0.2c1.1-2.1,2.6-2.9,4.5-2.9c3.8,0,4.8,4.1,4.2,8.1c-0.8,5.6-4.3,8.4-9.7,8.4
		C113.7,36.8,111.6,34.2,112.1,30.1z M122.1,29.4c0.4-2.7-0.1-4.1-1.5-4.1c-0.8,0-1.3,0.6-1.6,1.7c-0.3,1.2-0.4,2.7-0.6,3.9
		c-0.1,1.1,0.4,1.8,1.2,1.8C120.8,32.7,121.8,31.8,122.1,29.4z"/>
	<path class="st2" d="M137,32.1c0.1,0.2,0.3,0.3,0.5,0.4c0.3,0.1,0.4,0.1,0.6,0.3c0.3,0.3,0.4,0.5,0.4,1.1c-0.2,1.5-2.3,2.9-5.5,2.9
		c-2.6,0-3.2-1.5-2.9-3.7c0.3-2,0.9-5.1,1.3-7.9c0.5-2.8,0.8-4.7,0.8-5.4c0-0.4-0.1-0.8-0.3-1c-0.2-0.3-0.5-0.4-0.9-0.5
		c-0.7-0.2-0.9-0.7-0.8-1.5c0.1-0.5,0.4-1,1-1.4c0.8-0.6,1.8-1,2.9-1.3c0.8-0.2,1.5-0.3,2.2-0.3c2.2,0,3,1.2,2.6,3.9
		c-0.4,3.2-1,6.2-1.5,9.1c-0.4,2.8-0.6,3.9-0.7,4.4C136.9,31.6,136.9,31.8,137,32.1z"/>
	<path class="st2" d="M139.9,28.8c0.7-5.2,5.2-8.6,10.1-8.6c3.3,0,5.7,1.7,5.2,5.1c-0.4,3.1-3.5,4.7-7.8,4.7c-0.1,0-0.2,0-0.3,0
		c-0.8,0-0.8,0.3-0.6,0.9c0.4,1,1.3,1.3,2.8,1.3c1.3,0,2.4-0.8,3.2-1.7c0.2-0.2,0.4-0.4,0.8-0.4c0.7,0,1.3,0.8,1,1.9
		c-0.9,2.4-3.5,4.7-7.6,4.7C141.8,36.8,139.3,33.5,139.9,28.8z M147.1,27.8c0.7,0,2.3-0.8,2.6-2.3c0.1-1-0.3-1.5-1.1-1.5
		c-1,0-2,1.3-2.2,2.8c-0.1,0.7,0.2,1,0.6,1C147,27.8,147,27.8,147.1,27.8z"/>
</g>
</svg>
