<?xml version="1.0" encoding="utf-8"?>
<!-- Generator: Adobe Illustrator 24.1.1, SVG Export Plug-In . SVG Version: 6.00 Build 0)  -->
<svg version="1.1" xmlns="http://www.w3.org/2000/svg" xmlns:xlink="http://www.w3.org/1999/xlink" x="0px" y="0px"
	 viewBox="0 0 500 500" enable-background="new 0 0 500 500" xml:space="preserve">
<g id="Girl" display="none">
	
		<image display="inline" overflow="visible" opacity="0.5" width="336" height="457" xlink:href="47E67A29.jpg"  transform="matrix(1 0 0 1 -475 -250)">
	</image>
</g>
<g id="Me_1_" display="none">
	
		<image display="inline" overflow="visible" opacity="0.75" width="872" height="1378" xlink:href="47E67A2B.jpg"  transform="matrix(-0.3405 0 0 0.3405 -151.5359 -259.6141)">
	</image>
</g>
<g id="Illustration" display="none">
	<g display="inline" opacity="0.5">
		<path fill="#662811" d="M-326.1-233.3c-35,13.1-49.4,37.9-53.6,72.3c-2.8,22.8-30.9,45.9-26.7,79.3c4.2,33.5,27.6,33,39.3,32.5
			c5.9-0.2,78.4-15.7,108.3-19.5c3.1-0.4,54.6,2.3,38.6-54.6c-3.8-13.5-11.2-23-13-41.4c-0.9-8.8,2.5-51.1-31.2-58.1
			C-266.8-223.3-291-244.5-326.1-233.3z"/>
		<g>
			<path d="M-326.1-233.4c-12.2,4.6-23.7,11.3-32.5,20.9c-8.1,8.8-13.6,19.5-17,30.9c-1.9,6.3-3.1,12.7-4,19.2
				c-0.4,2.8-0.9,5.5-1.7,8.2c-0.9,2.8-2,5.5-3.2,8.1c-5.4,11.4-12.6,21.9-17.4,33.7c-2.5,6.2-4.3,12.8-4.9,19.5
				c-0.6,7.2,0.2,14.5,2.4,21.4c1.6,5.1,4.1,10.1,8,13.9c3,3,6.7,5.2,10.7,6.6c3.6,1.2,7.4,1.8,11.2,1.9c2.7,0.1,5.5,0.2,8.1-0.1
				c2.4-0.3,4.7-0.7,7-1.2c4.1-0.7,8.1-1.5,12.2-2.3c11.2-2.2,22.5-4.4,33.7-6.5c12-2.3,23.9-4.5,35.9-6.6c5-0.8,9.9-1.6,14.9-2.3
				c1.9-0.3,3.8-0.5,5.7-0.6c4.7-0.1,9.3-0.7,13.9-1.8c6.2-1.6,12.3-4.4,16.9-8.9c5.9-5.8,8.6-13.9,8.9-22c0.2-6-0.6-12-2-17.8
				c-1.6-6.6-4.1-12.9-6.7-19.2c-2.8-6.7-5.3-13.5-6.5-20.7c-0.7-3.8-0.9-7.5-1-11.4c-0.2-8.2-0.9-16.5-3.2-24.4
				c-2.6-9.2-7.7-18-16-23.2c-2.3-1.4-4.7-2.6-7.2-3.4c-1.4-0.5-2.9-0.8-4.4-1.2c-0.3-0.1-0.6-0.2-0.9-0.3c-2.4-1.3-4.6-2.9-7-4.3
				c-9.7-5.5-20.6-8.8-31.8-9.2C-311.5-236.8-319-235.6-326.1-233.4C-326.2-233.4-326.2-233.3-326.1-233.4
				c13.7-4.2,28.2-4.2,41.8,0.5c4.5,1.5,8.8,3.6,12.9,5.9c2.2,1.3,4.3,2.8,6.5,4c0.4,0.2,0.8,0.3,1.2,0.4c1.4,0.3,2.8,0.7,4.2,1.2
				c2.6,0.9,5.1,2.1,7.4,3.6c4.2,2.8,7.7,6.5,10.3,10.8c4.8,7.9,6.8,17.3,7.7,26.5c0.3,3.6,0.5,7.2,0.6,10.8
				c0.1,3.9,0.4,7.7,1.1,11.5c1.3,7,3.8,13.7,6.6,20.2c2.6,6.2,5.1,12.4,6.6,19c2.4,10.1,3.3,21.4-1.1,31.1
				c-3,6.5-8.3,11.4-14.7,14.5c-5.2,2.5-11,3.8-16.7,4.3c-1.8,0.2-3.6,0.3-5.5,0.3c-2,0.1-4,0.4-6.1,0.7
				c-10.7,1.5-21.4,3.4-32.1,5.4c-12,2.2-23.9,4.5-35.9,6.8c-9.2,1.8-18.5,3.6-27.7,5.3c-2.4,0.4-4.8,0.9-7.3,1.2
				c-2.5,0.3-5.2,0.2-7.7,0.2c-8.2-0.3-16.4-2.5-22.4-8.5c-4-4-6.5-9.1-8.1-14.5c-2.1-6.9-2.8-14.4-2.1-21.6
				c1.3-13.4,7.5-25.5,14-37.1c2.9-5.3,6-10.5,8.5-16c2.2-4.9,3.8-9.8,4.5-15.2c1.6-12.6,4.8-25.1,10.9-36.3
				c5.8-10.7,14.3-19.6,24.6-26.1C-338.5-228.1-332.4-230.9-326.1-233.4C-326.1-233.3-326.1-233.4-326.1-233.4z"/>
		</g>
	</g>
	<g display="inline" opacity="0.5">
		<path fill="#F78C2E" d="M-340.9-108.8c-3.8-0.9-7-0.1-10,2.5c-3.9,3.4-6,9.8-6.1,13.7c-1,26.4,29.7,40.8,56.7,40.8
			c34,0,56.7-20.6,56.7-42.3c0-5.1-1-13-6.7-15.7c-5.7-2.7-21.1,8.5-31,10.5c-6.9,1.4-14-0.1-20.9-1.5
			C-315.9-103.7-327.1-106-340.9-108.8z"/>
		<g>
			<path fill="#662811" d="M-340.9-108.9c-2.6-0.6-5.2-0.4-7.5,0.8c-2.3,1.2-4.1,3-5.5,5.2c-2.5,4-3.5,8.6-3.3,13.3
				c0.4,8.5,4.5,16.2,10.7,22c6.6,6.2,15.1,10.3,23.7,12.8c9.6,2.8,19.7,3.8,29.6,2.8c10.1-0.9,20.2-3.8,28.8-9.2
				c7.2-4.4,13.4-10.6,17.2-18.2c1.7-3.4,2.8-7,3.3-10.7c0.5-4,0.4-8.3-0.8-12.2c-0.6-2-1.5-4-3-5.6c-1.1-1.2-2.6-2.2-4.3-2.3
				c-1.5-0.1-3.1,0.3-4.6,0.7c-2,0.6-3.9,1.4-5.8,2.3c-4.4,2-8.7,4.3-13.2,6c-2,0.8-4.1,1.5-6.2,1.9c-3.4,0.6-6.8,0.6-10.2,0.2
				c-3.5-0.4-7-1.1-10.4-1.8c-3.3-0.7-6.7-1.4-10-2.1c-6.3-1.3-12.7-2.6-19-3.9C-334.5-107.6-337.7-108.2-340.9-108.9
				c-0.1,0-0.2,0.1,0,0.2c12.6,2.6,25.3,5.2,37.9,7.9c6.4,1.3,13,2.8,19.6,2c4.5-0.5,8.7-2.4,12.7-4.3c4.2-1.9,8.2-4.1,12.6-5.7
				c1.6-0.6,3.3-1.1,5-1.3c1.7-0.1,3.2,0.4,4.5,1.5c3.5,2.8,4.5,7.8,4.8,12c0.2,3.8-0.1,7.6-1.2,11.3c-2.2,7.7-7.2,14.5-13.3,19.6
				c-7.4,6.1-16.4,10.1-25.7,12.1c-10,2.2-20.5,2.2-30.5,0.4c-9.1-1.6-18-4.8-25.7-9.9c-7-4.6-12.9-11.2-15.4-19.3
				c-1.2-4-1.8-8.5-1-12.7c0.9-4.9,3.4-10.1,7.9-12.7c2.4-1.4,5.2-1.6,7.9-1C-340.8-108.7-340.8-108.9-340.9-108.9z"/>
		</g>
	</g>
	<g display="inline" opacity="0.5">
		<path fill="#FCCA99" d="M-268.1-192.5c-7.1,23.1-33.9,32.8-44,36.6c-6.3,2.4-25.4,9.9-27.2,13c-1.8,3.1-2.9,7.1-3.1,10.6
			c-0.4,8.3,0.4,16.3,3.9,23.9c7.3,16,24.5,25.3,45.2,24.4c42.4-1.9,47.5-47.7,44.9-76.9c-0.5-6.1-1.5-11.5-4.1-17
			C-255.4-184-261.5-190.6-268.1-192.5z"/>
		<g>
			<path fill="#662811" d="M-268.1-192.5c-1.7,5.4-4.5,10.4-8.2,14.7c-3.5,4.1-7.6,7.5-12.1,10.5c-4,2.7-8.2,4.9-12.6,6.9
				c-3.4,1.5-6.8,2.9-10.3,4.2c-3.9,1.5-7.8,3-11.7,4.6c-4.4,1.9-8.9,3.8-13.1,6.2c-1.1,0.6-2.4,1.4-3.1,2.4c-0.9,1.3-1.5,2.9-2,4.4
				c-0.5,1.7-0.9,3.4-1.1,5.2c-0.4,3.8-0.3,7.7,0.1,11.4c0.4,3.7,1.2,7.4,2.5,11c2,5.5,5.3,10.5,9.5,14.5c4.1,3.9,9,7,14.2,9
				c5.7,2.3,11.9,3.4,18.1,3.6c5.6,0.2,11.3-0.4,16.7-2c4.4-1.3,8.7-3.4,12.4-6.2c3.5-2.6,6.5-5.8,9-9.3c2.6-3.6,4.6-7.6,6.2-11.8
				c1.7-4.3,2.9-8.7,3.8-13.3c0.9-4.5,1.4-9.1,1.7-13.7c0.3-4.5,0.3-9,0.2-13.4c-0.2-5.5-0.6-11.1-1.9-16.4c-0.8-3.5-2-7-3.8-10.1
				c-1.7-3-3.9-5.7-6.5-7.9c-2.3-2-5-3.8-8-4.7c-0.1,0-0.1,0.1,0,0.2c3.3,1,6.2,2.9,8.7,5.3c2.5,2.3,4.6,5.1,6.2,8.1
				c3.3,6.2,4.3,13.3,4.9,20.2c0.3,4.2,0.5,8.5,0.4,12.8c-0.1,4.5-0.4,9.1-1,13.5c-0.6,4.5-1.5,9.1-2.8,13.5
				c-1.3,4.3-2.9,8.5-5,12.5c-2.1,3.9-4.6,7.5-7.7,10.6c-3.1,3.2-6.8,5.8-10.9,7.7c-4.6,2.2-9.5,3.4-14.6,4
				c-6.2,0.7-12.6,0.3-18.6-1c-5.7-1.3-11.2-3.6-16.1-6.9c-4.6-3.2-8.6-7.3-11.6-12c-3.7-6.1-5.6-13.1-6.1-20.3
				c-0.1-1.9-0.1-3.9-0.1-5.8c0-1.9,0.2-3.7,0.5-5.5c0.4-1.8,0.9-3.6,1.7-5.3c0.4-0.9,0.8-1.8,1.5-2.4c1.2-1.1,2.7-1.9,4.2-2.7
				c2.1-1.1,4.3-2.2,6.5-3.1c4.5-2,9-3.9,13.6-5.6c3-1.2,6.1-2.3,9.1-3.5c4-1.7,8-3.5,11.8-5.7c4.4-2.5,8.5-5.3,12.3-8.7
				c4-3.5,7.4-7.6,10-12.3c1.3-2.4,2.3-4.8,3.1-7.4C-267.9-192.5-268.1-192.6-268.1-192.5z"/>
		</g>
	</g>
	<g display="inline" opacity="0.5">
		<g>
			<path fill="#662811" d="M-284-137.3c0,1.1,0.1,2.2,0.3,3.2c0.2,1,0.4,2.1,0.7,3.1c0.3,1,0.7,2,1.1,3c0.5,1,1,2,1.6,3
				c0.7,1,1.4,2,2.2,3c0.1,0.1,0.2,0.2,0.3,0.4c0,0,0-0.1,0-0.1c-1.1,0.5-2.3,1-3.3,1.5c-1.2,0.6-2.3,1.3-3.5,2
				c-0.6,0.4-1.1,0.8-1.7,1.2c-0.1,0.1,0,0.2,0.1,0.1c1-0.8,2-1.4,3.1-2.1c1.1-0.7,2.3-1.3,3.5-1.8c0.6-0.3,1.2-0.5,1.8-0.8
				c0.1,0,0.1-0.1,0-0.1c-0.8-0.9-1.6-1.9-2.3-2.9c-0.6-0.9-1.2-1.9-1.7-2.9c-0.5-1-0.8-2-1.1-3c-0.3-1-0.5-2-0.7-3
				c-0.2-1-0.3-2.1-0.3-3.2c0-0.1,0-0.3,0-0.4C-283.8-137.4-284-137.4-284-137.3L-284-137.3z"/>
		</g>
	</g>
	<g display="inline" opacity="0.5">
		<g>
			<path fill="#662811" d="M-302.5-104.6c1,1,2.1,1.9,3.3,2.7c1.3,0.9,2.8,1.5,4.4,1.8c1.8,0.4,3.7,0.4,5.6,0.1
				c1.6-0.2,3.2-0.6,4.8-1.3c1.4-0.6,2.7-1.4,3.8-2.4c0.1-0.1,0.3-0.3,0.4-0.4c0.1-0.1,0-0.2-0.1-0.1c-1.1,1-2.3,1.9-3.7,2.5
				c-1.4,0.7-3,1.2-4.6,1.4c-0.9,0.1-1.8,0.2-2.7,0.2c-0.9,0-1.9,0-2.8-0.2c-1.6-0.3-3.1-0.8-4.5-1.6c-1.2-0.7-2.3-1.6-3.3-2.6
				c-0.1-0.1-0.2-0.2-0.3-0.3C-302.4-104.8-302.5-104.7-302.5-104.6L-302.5-104.6z"/>
		</g>
	</g>
</g>
<g id="Illustration_2">
	
		<path fill="#FCCA99" stroke="#000000" stroke-width="2.5618" stroke-linecap="round" stroke-linejoin="round" stroke-miterlimit="10" d="
		M194.4,156.6c-7.5-7.9-3.6-24.4-10.9-24.4c-6.6,0-2,12.6-7.1,11.8c-1.2-0.2-11.8-11.9-15.7-7.7c-3.9,4.2,6.1,13,7.6,14.2
		c-3.1-1.7-11.9-10.5-15.9-5.3c-4.3,5.6,9.7,11.7,11.9,13.6c-5.9-4-14.4-5.5-15.2-0.8c-1.7,9.4,22.1,10.7,31,17.4L194.4,156.6z"/>
	
		<path fill="#FCCA99" stroke="#000000" stroke-width="2.5618" stroke-linecap="round" stroke-linejoin="round" stroke-miterlimit="10" d="
		M216.5,53.9c-2.2-10.7,9.8-22.6,3.7-26.5c-5.6-3.5-8.4,9.7-12.3,6.2c-0.9-0.8-3.7-16.1-9.2-14.8c-6.3,1.4-1.7,14.3-1.1,16.1
		c-1.7-3.1-5.1-16.2-11.7-12.9c-6.3,3.1,3.1,15,4,17.8c-2.9-6.5-8.8-14-12.4-8.8c-5,7.1,13.1,20.8,17.1,31.2L216.5,53.9z"/>
	
		<path fill="#FCCA99" stroke="#000000" stroke-width="2.7398" stroke-linecap="round" stroke-linejoin="round" stroke-miterlimit="10" d="
		M151.4,406.8c-5.6,13.5-3.2,25.2-11.8,27.8c-10,3-29.2-6.8-30.9-13.3c-1.8-6.8,6.1-9.7,10.5-7.7c2.6-9.6,5.2-20.9,6.3-24.3
		C129,378.5,155.1,397.9,151.4,406.8z"/>
	
		<path fill="#FCCA99" stroke="#000000" stroke-width="2.7398" stroke-linecap="round" stroke-linejoin="round" stroke-miterlimit="10" d="
		M289.9,459.7c-0.9,13.2,1.2,21.6-5.3,25.2c-7,3.9-23.6,2.8-28.7-1.9c-4.9-4.4,0.7-10.1,5.1-9.7c-0.3-7.1-1.1-20.4-1.1-23.7
		C259.6,439.4,291,443.9,289.9,459.7z"/>
	
		<path fill="#C69C6D" stroke="#000000" stroke-width="2.7398" stroke-linecap="round" stroke-linejoin="round" stroke-miterlimit="10" d="
		M316,123.7c-17.5-2.2-45-7.4-59.9-16.9c-8.5-5.4-32.6-49.4-40-55.5c-5,2.4-15.8,7.8-22.6,9.5c-2.8,13.5,17.5,61.3,30.2,74.4
		c19.8,20.4,40.1,28.6,67.7,35.6"/>
	
		<path fill="#6D2424" stroke="#000000" stroke-width="2.7398" stroke-linecap="round" stroke-linejoin="round" stroke-miterlimit="10" d="
		M246,242.8c-40.3,16.4-76.5,36.2-96.8,65.8s-29.9,63.9-29.9,93.7c4,5.5,23.6,12.9,31.9,11.8c12.8-10.3,22.4-51.3,48.3-75.8
		c23.1-21.8,46.1-27.9,57.9-32.7c-3.8,22.2-14.4,39.9-13.6,78.2c0.5,22,5.4,70.6,14.5,79c8.4,4.6,26,2.1,33.3,0
		c6-4.3,8.1-42.6,11.3-80.3c4.1-48.7,38.1-82.8,32.3-113.2C334.1,264.8,274.8,241.6,246,242.8z"/>
	
		<path fill="#DC9779" stroke="#000000" stroke-width="3.8774" stroke-linecap="round" stroke-linejoin="round" stroke-miterlimit="10" d="
		M-907.4-377.4c-20.4-17.7-92.9-9.3-105.5,57.8c-5.9,31.4-6.6,81.2,3.1,124c6.4,28.4,17.9,56.6,39,76.7c24.5,23.4,53.3,30.7,87.2,29
		c51.4-2.7,108.9-37.5,116.1-57.7c7.2-20.3-37.1-157.6-44.7-171.9"/>
	<polygon fill="#C69C6D" points="-931.6,-355.3 -955.8,-238.4 -864,-238.4 -803.2,-347.9 -905.8,-365.6 	"/>
	
		<path fill="#C69C6D" stroke="#000000" stroke-width="3.8774" stroke-linecap="round" stroke-linejoin="round" stroke-miterlimit="10" d="
		M-807.8-373.1c0,0,70,15.8,46.3,124.7C-785.4-139.5-897.2-213-897.2-213"/>
	
		<path fill="#DC9779" stroke="#000000" stroke-width="3.8774" stroke-linecap="round" stroke-linejoin="round" stroke-miterlimit="10" d="
		M-242.6-376.3c20.4-17.7,92.9-9.3,105.5,57.8c5.9,31.4,6.6,81.2-3.1,124c-6.4,28.4-17.9,56.6-39,76.7c-24.5,23.4-53.3,30.7-87.2,29
		c-51.4-2.7-108.9-37.5-116.1-57.7s37.1-157.6,44.7-171.9"/>
	
		<path fill="none" stroke="#964827" stroke-width="3.8774" stroke-linecap="round" stroke-linejoin="round" stroke-miterlimit="10" d="
		M-191.1-296.5c5.9-11.6,15.1-21.6,26.2-28.4"/>
	
		<path fill="none" stroke="#964827" stroke-width="3.8774" stroke-linecap="round" stroke-linejoin="round" stroke-miterlimit="10" d="
		M-191.1-327c3.5-7.5,7.9-14.6,13.1-21.1"/>
	
		<path fill="none" stroke="#964827" stroke-width="3.8774" stroke-linecap="round" stroke-linejoin="round" stroke-miterlimit="10" d="
		M-251.1-137.5c8.6,0.7,19.7,4.1,28.7,22.9"/>
	
		<path fill="none" stroke="#964827" stroke-width="3.8774" stroke-linecap="round" stroke-linejoin="round" stroke-miterlimit="10" d="
		M-240.3-144.2c8.5-2.3,20.9-4.6,37.8,7.7"/>
	<g>
		<path fill="#42210B" d="M-262.3-383.9c-1.9,0-3.4-1.4-3.5-3.2c-0.4-5-0.8-18.6,2.3-37.4l1.2-31.9l-23.9,1.8c-0.1,0-0.2,0-0.3,0
			l-22.4-0.6c-4,7.4-9.4,15.3-14.1,22.4c-5.8,8.7-11.3,16.9-12.9,21.8c-0.5,1.4-1.8,2.4-3.3,2.4c-1.2,0-2.2-0.6-2.9-1.5
			c-2.6-3.8-6.9-11.4-7.8-20.6c-0.6,0.8-1.6,1.3-2.8,1.3c-1.9,0-3.4-1.4-3.5-3.3c-0.9-14,1.2-26.6,3.2-35c-0.3,0.1-0.5,0.1-0.8,0.1
			c-1,0-2.1-0.5-2.7-1.3c-0.7-0.8-0.9-1.8-0.7-2.9c1.3-6.8,5.1-19.1,16.2-27.3c-0.4,0-0.9,0-1.3,0c-1.4,0-2.7,0.1-3.9,0.4
			c-0.3,0.1-0.6,0.1-0.9,0.1c-1.3,0-2.5-0.8-3.1-2c-0.6-1.2-0.5-2.6,0.3-3.7c5.1-6.7,13-15,21.6-16.5c-0.9-2.6-2.1-7.1-1.8-11.5
			c0.2-1.8,1.7-3.2,3.5-3.2c1,0,2,0.4,2.6,1.2c1.9,2.1,5,4.7,9.5,4.7c0.6,0,1.2,0,1.8-0.1l0.7-0.1c4.1-0.6,10.3-1.5,17-1.5
			c13.7,0,23.4,3.9,28.9,11.5c1.2-0.1,3.5-0.3,6.5-0.3c11.1,0,31.4,2.8,42.2,21.4c0.6,1.1,0.6,2.4,0,3.5c-0.6,1.1-1.8,1.8-3,1.8
			c-0.5,0-1.1-0.1-1.6-0.4c-1.5-0.7-2.9-1.4-4.2-1.8c6.5,5.9,15.7,17,14,32.6c0,0.1,0,0.3-0.1,0.4c-0.1,1.1-0.3,2.2-0.4,2.6
			c-1.2,7.2-3,13.1-4.5,18.3c-2.8,9.4-4.7,15.5-1.3,22.5c0.5,1.1,0.5,2.4-0.2,3.4c-0.6,1-1.8,1.7-3,1.7c-0.5,0-0.9-0.1-1.3-0.3
			c-3.7-1.5-6.6-3.1-8.5-4.8c-1.4,5.5-3.3,15.4-2.4,23.5c0.1,1-0.2,2-0.9,2.7c-0.7,0.8-1.6,1.2-2.6,1.2c-0.7,0-1.4-0.2-2-0.6
			c-1.9-1.3-4.3-3.5-5.7-6.3c-2.6,3.8-7.9,10.2-15.6,14.5C-261.1-384.1-261.7-383.9-262.3-383.9z"/>
		<path d="M-326.5-533.5c0.4,0,0.9,0.2,1.2,0.5c2,2.3,5.7,5.4,10.9,5.4c0.7,0,1.3,0,2.1-0.2c4-0.6,10.5-1.6,17.4-1.6
			c10.1,0,21.3,2.1,27.4,10.8c0.3,0.4,0.8,0.7,1.3,0.7c0.1,0,0.1,0,0.2,0c1.2-0.1,3.5-0.3,6.5-0.3c10.7,0,30.2,2.6,40.5,20.5
			c0.6,1.1-0.2,2.4-1.4,2.4c-0.2,0-0.5-0.1-0.7-0.2c-1.8-0.9-4-1.9-6.3-2.5c-0.2,0-0.3-0.1-0.4-0.1c-1.4,0-2.1,1.8-1,2.8
			c6.2,5.2,16.4,16.3,14.7,32.1c0,0.1,0,0.1-0.1,0.2c-0.1,1.1-0.3,2.3-0.4,2.7c-3.3,20.1-11.4,30.2-5.6,41.9
			c0.5,1.1-0.3,2.3-1.4,2.3c-0.2,0-0.4,0-0.6-0.1c-2.8-1.1-6.3-2.8-8.3-4.9c-0.3-0.3-0.7-0.5-1.1-0.5c-0.7,0-1.3,0.4-1.5,1.2
			c-1.3,5.4-3.6,16.1-2.6,24.8c0.1,1-0.7,1.7-1.6,1.7c-0.3,0-0.6-0.1-0.9-0.3c-1.9-1.3-4.2-3.4-5.3-6c-0.3-0.6-0.9-1-1.5-1
			c-0.5,0-1,0.2-1.3,0.7c-2.6,3.8-7.7,10.2-15.3,14.4c-0.3,0.1-0.5,0.2-0.8,0.2c-0.8,0-1.5-0.6-1.6-1.4c-0.4-5.1-0.8-18.4,2.3-36.9
			c0-0.1,0-0.1,0-0.2l1.3-34.2l-26,1.9c0,0-0.1,0-0.1,0c0,0,0,0,0,0l-23.5-0.6c-8.8,16.5-24.7,36-27.8,45.5
			c-0.2,0.7-0.9,1.1-1.5,1.1c-0.5,0-1-0.2-1.3-0.7c-2.7-4-7-11.7-7.5-20.9c-0.1-1-0.8-1.5-1.6-1.5c-0.6,0-1.2,0.3-1.4,1
			c0,0.1-0.1,0.1-0.1,0.2c-0.3,0.7-0.9,1-1.5,1c-0.8,0-1.5-0.5-1.6-1.5c-1-15.5,1.7-30,4.6-40c-1,0.8-2,1.7-3.1,2.8
			c-0.3,0.3-0.7,0.5-1.1,0.5c-0.9,0-1.8-0.8-1.6-1.9c1.3-7,5.2-19,16.2-26.6c1.2-0.8,0.8-2.7-0.7-2.9c-0.8-0.1-1.6-0.1-2.5-0.1
			c-1.4,0-2.9,0.1-4.3,0.5c-0.1,0-0.3,0.1-0.4,0.1c-1.2,0-2-1.5-1.2-2.5c4.7-6.2,12.5-14.6,20.7-15.8c1-0.1,1.6-1.1,1.3-2.1
			c-0.9-2.5-2.2-6.9-1.8-11.1C-328-533-327.3-533.5-326.5-533.5 M-326.5-537.4c-2.9,0-5.2,2.1-5.4,4.9c-0.3,3.6,0.4,7.3,1.2,10.3
			c-8.3,2.4-15.7,10.3-20.6,16.7c-1.3,1.7-1.5,3.8-0.5,5.7c0.9,1.9,2.8,3,4.8,3c0.1,0,0.2,0,0.2,0c-8.1,8.2-11.2,18.4-12.3,24.4
			c-0.3,1.6,0.1,3.2,1.1,4.5c0.7,0.8,1.6,1.4,2.6,1.8c-1.9,8.4-3.6,20.3-2.7,33.3c0.2,2.9,2.5,5.1,5.5,5.1c0.4,0,0.8,0,1.2-0.1
			c1.4,8.3,5.3,15.1,7.7,18.6c1,1.5,2.7,2.4,4.5,2.4c2.4,0,4.4-1.5,5.2-3.8c1.5-4.6,6.9-12.7,12.7-21.3c4.6-6.8,9.7-14.4,13.6-21.5
			l21.1,0.6c0,0,0.1,0,0.1,0c0.1,0,0.3,0,0.4,0l21.7-1.6l-1.1,29.7c-3.2,18.9-2.7,32.6-2.3,37.7c0.2,2.8,2.6,5,5.4,5
			c0.9,0,1.9-0.2,2.7-0.7c6.5-3.6,11.2-8.5,14.5-12.7c1.2,1.6,2.8,3.1,4.7,4.4c0.9,0.7,2,1,3.1,1c1.6,0,3.1-0.7,4.1-1.8
			c1-1.1,1.5-2.7,1.3-4.2c-0.7-6.5,0.5-14.4,1.7-19.9c1.8,1.2,4,2.3,6.5,3.3c0.7,0.3,1.4,0.4,2.1,0.4c1.9,0,3.6-1,4.6-2.6
			c1-1.6,1.1-3.6,0.3-5.3c-3.1-6.2-1.3-12.1,1.4-21c1.6-5.2,3.4-11.2,4.6-18.6c0.1-0.4,0.2-1.4,0.4-2.6c0-0.1,0.1-0.3,0.1-0.5
			c1.3-12.4-3.8-22.1-9.3-28.7c1.6-0.3,3.1-1.2,3.9-2.7c1-1.7,1-3.7,0-5.4c-11.2-19.5-32.3-22.4-43.9-22.4c-2.3,0-4.2,0.1-5.6,0.2
			c-5.9-7.5-15.9-11.4-29.8-11.4c-6.8,0-13.1,0.9-17.3,1.5l-0.7,0.1c-0.5,0.1-1,0.1-1.5,0.1c-3.7,0-6.4-2.2-8-4
			C-323.5-536.7-325-537.4-326.5-537.4L-326.5-537.4z"/>
	</g>
	<polygon fill="#C69C6D" points="-218.4,-354.3 -194.2,-237.3 -286,-237.3 -346.8,-346.8 -244.2,-364.6 	"/>
	
		<path fill="#C69C6D" stroke="#000000" stroke-width="3.8774" stroke-linecap="round" stroke-linejoin="round" stroke-miterlimit="10" d="
		M-342.2-372.1c0,0-70,15.8-46.3,124.7c23.8,108.9,135.6,35.4,135.6,35.4"/>
	<g>
		<path fill="#EAB48F" d="M-290.7-352.8c-6.7,0-13.6-0.9-20.5-2.8c-0.5-0.1-0.9-0.4-1.1-0.8c-4.5-6.9-6.1-17.2-7.6-27.1
			c-0.8-5.3-1.6-10.3-2.7-14.5c-0.1-0.3-0.1-0.6,0-0.9c1.7-8,31.3-24.2,37.3-27.4c0.7-0.4,19.6-11.4,29.7-11.4c3,0,5.1,0.9,6.3,2.7
			c1.5,2.2,1.6,5.3,0.1,9.6c-10.6,30.5-7.4,61-7.3,61.3c0.1,0.7-0.2,1.3-0.7,1.7C-257.9-361.9-269.8-352.8-290.7-352.8
			C-290.7-352.8-290.7-352.8-290.7-352.8z"/>
		<path d="M-255.7-435.7c4.6,0,7.1,2.5,4.6,9.7c-10.9,31.3-7.4,62.2-7.4,62.2s-11.6,9.1-32.1,9.1c-5.9,0-12.6-0.8-20-2.7
			c-6.7-10.1-6.7-28.8-10-41.1c1.6-7.5,36.3-26,36.3-26S-265.5-435.7-255.7-435.7 M-255.7-439.6c-10.4,0-28.3,10.3-30.7,11.6
			c-0.9,0.5-9.1,4.9-17.7,10.3c-16.9,10.6-19.8,15.2-20.5,18.3c-0.1,0.6-0.1,1.2,0.1,1.8c1.1,4.1,1.9,9,2.7,14.3
			c1.5,10.1,3.1,20.6,7.9,27.9c0.5,0.8,1.3,1.4,2.2,1.6c7.1,1.9,14.2,2.9,21,2.9c21.6,0,34-9.5,34.5-9.9c1.1-0.8,1.6-2.1,1.5-3.5
			c0-0.3-3.2-30.4,7.2-60.5c1.7-5,1.6-8.7-0.3-11.4C-248.9-437.7-251.2-439.6-255.7-439.6L-255.7-439.6z"/>
	</g>
	<path fill="#42210B" d="M-298-457.1c18.6-1,39.5-16.2,39.5-16.2c-3.2,10.8,7.6,22.6,3.6,46.6"/>
	
		<path fill="#FCCA99" stroke="#000000" stroke-width="3.8774" stroke-linecap="round" stroke-linejoin="round" stroke-miterlimit="10" d="
		M-257.3-420.4c0,0-1,3.9-2.8,8.8c-2.7,7.3-8,13.3-15,16.7c-11.1,5.4-27,10-35.4,8.9c-12.4-1.8-16.6-6.8-17.7-8.5
		c-17.9-28-8.1-82.1-4.7-89.2c5.8-12.2,11.8-27.4,32.7-26.3c68.1,3.5,53.4,53.2,52.1,55.2c2.6-2.6,6.6-3.9,9.5-1
		c5.2,6-0.6,20.9-3.2,24.4C-245-427.1-250.5-421.6-257.3-420.4z"/>
	
		<path fill="none" stroke="#000000" stroke-width="3.8774" stroke-linecap="round" stroke-linejoin="round" stroke-miterlimit="10" d="
		M-295.8-449c0,0,7.2-5.7,14.4,1.2"/>
	
		<path fill="none" stroke="#000000" stroke-width="3.8774" stroke-linecap="round" stroke-linejoin="round" stroke-miterlimit="10" d="
		M-330.9-453.1c3.2-3.4,9.7-2.2,12.3,1.1"/>
	
		<path fill="none" stroke="#D87B68" stroke-width="3.8774" stroke-linecap="round" stroke-linejoin="round" stroke-miterlimit="10" d="
		M-295.6-415.3c-10.2,10.2-25.9,5.5-30.6-2"/>
	
		<path fill="none" stroke="#C6896B" stroke-width="3.8774" stroke-linecap="round" stroke-linejoin="round" stroke-miterlimit="10" d="
		M-310.4-449.2c0,0-2.7,10.2-6.7,18.2c-0.8,1.7,0.2,3.7,2,3.9c4.5,0.7,9.9-0.4,9.9-0.4"/>
	
		<path fill="#160600" stroke="#160600" stroke-width="2.5849" stroke-linecap="round" stroke-linejoin="round" stroke-miterlimit="10" d="
		M-297.6-463.4c0,0,15.9-4.6,24.1,7.4c-9.9-7.8-24.1-4.3-24.1-4.3L-297.6-463.4z"/>
	
		<path fill="#160600" stroke="#160600" stroke-width="2.5849" stroke-linecap="round" stroke-linejoin="round" stroke-miterlimit="10" d="
		M-314.4-464.9c0,0-12.2-5.3-20.8,1.8c8.8-3.6,20.1,1.4,20.1,1.4L-314.4-464.9z"/>
	<path fill="#42210B" d="M-268-512.4c-48-15.8-73.2,1.3-72.5,47.6c0,0,0,0,0,0c2.3-6.5,8.3-30.7,32.2-33.2
		c10.6-1.1,26.8,1.1,35.2,5.2c6.8,3.3,16.6,12.6,17.9,24.7c1.3,12.1-0.2,18.2-1.2,23.2c-0.4,1.9,1.9,3.2,3.3,1.9
		c2.9-2.7,6.9-8,10.9-18.5C-236.8-475.6-233.6-501.1-268-512.4z"/>
	<g>
		<path fill="#42210B" d="M353.3,110.5c-0.7,0-1.3-0.3-1.8-0.8c-0.4-0.5-0.6-1.1-0.6-1.8c0.3-3.1,1.5-11.4,5.5-22.4l4.1-19
			l-14.4-1.5c0,0-0.2,0-0.2,0l-13.4-2.8c-3.2,4-7.3,8.2-10.9,11.9c-4.5,4.6-8.7,8.9-10.2,11.7c-0.4,0.8-1.2,1.2-2,1.2
			c-0.9,0-1.8-0.5-2.1-1.4c-1.1-2.5-2.9-7.5-2.5-13c-0.4,0.2-0.8,0.3-1.2,0.3c-0.7,0-1.3-0.3-1.8-0.8c-0.4-0.5-0.6-1.1-0.6-1.8
			c1-8.5,3.5-15.8,5.6-20.6c-0.7,0-1.4-0.4-1.8-1c-0.4-0.6-0.5-1.4-0.2-2.1c1.5-3.9,5.1-10.8,12.4-14.6c-0.7-0.2-1.4-0.2-2.1-0.2
			c-0.2,0-0.4,0-0.5,0c0,0-0.1,0-0.2,0c-1,0-1.8-0.6-2.2-1.5c-0.4-0.9-0.1-1.9,0.6-2.6c3.8-3.5,9.4-7.6,14.8-7.7
			c-0.3-1.9-0.4-4.6,0.2-7c0.3-1,1.2-1.7,2.2-1.7c0.8,0,1.6,0.4,2,1.1c1,1.7,2.9,3.8,6.2,3.9l0.5,0c6.5,0.2,21.8,0.7,26.8,11
			c4.1,0.3,21.6,2.5,27.2,18.2c0.3,0.7,0.2,1.5-0.3,2.1c-0.4,0.6-1.2,1-1.9,1c-0.5,0-1-0.2-1.4-0.5c-0.5-0.4-1-0.8-1.5-1.1
			c3.2,4.4,7,11.9,4.4,20.7c0,0.1,0,0.1-0.1,0.2c-0.2,0.7-0.4,1.3-0.5,1.5c-1.5,4.3-3.2,7.7-4.8,10.6c-2.7,5.3-4.5,8.8-3.2,13.3
			c0.2,0.7,0.1,1.5-0.4,2.1c-0.4,0.6-1.1,0.9-1.9,0.9c-0.4,0-0.9-0.1-1.2-0.4c-2-1.3-3.5-2.5-4.5-3.7c-1.4,3.2-3.6,8.8-3.9,13.6
			c-0.1,1.2-1.1,2.2-2.3,2.2c-0.6,0-1.2-0.2-1.7-0.7c-0.9-1-2.1-2.4-2.7-4.2c-2.1,2-5.9,5.2-10.9,6.9
			C353.9,110.5,353.6,110.5,353.3,110.5z"/>
		<path d="M330.2,12.8c0.3,0,0.6,0.2,0.8,0.5c1.1,1.8,3.3,4.4,7.3,4.6c6.1,0.2,21.5,0.5,26.1,10.5c0.2,0.3,0.5,0.5,0.8,0.6
			c3.4,0.2,20.8,2,26.3,17.3c0.2,0.7-0.3,1.3-0.9,1.3c-0.2,0-0.4-0.1-0.6-0.2c-1-0.8-2.2-1.6-3.5-2.2c-0.1-0.1-0.3-0.1-0.4-0.1
			c-0.7,0-1.3,0.9-0.7,1.6c3.2,3.8,8.1,11.7,5.4,21c0,0,0,0.1-0.1,0.1c-0.2,0.7-0.4,1.4-0.5,1.6c-4.2,11.8-10.2,17-8,24.8
			c0.2,0.7-0.3,1.2-0.9,1.2c-0.2,0-0.3,0-0.5-0.2c-1.6-1-3.5-2.4-4.5-3.9c-0.2-0.3-0.5-0.4-0.8-0.4c-0.4,0-0.7,0.2-0.9,0.6
			c-1.4,3.1-3.9,9.3-4.3,14.7c0,0.5-0.5,0.9-1,0.9c-0.2,0-0.5-0.1-0.7-0.3c-1-1-2.2-2.5-2.6-4.2c-0.1-0.5-0.5-0.8-0.9-0.8
			c-0.2,0-0.5,0.1-0.7,0.3c-2,2-5.8,5.3-10.8,7.1c-0.1,0-0.2,0.1-0.3,0.1c-0.6,0-1-0.5-1-1.1c0.3-3.1,1.5-11.2,5.4-22.1
			c0,0,0-0.1,0-0.1l4.5-20.5l-16-1.7c0,0-0.1,0-0.1,0l-14.2-2.9c-7.1,9-18.9,19.1-21.8,24.5c-0.2,0.3-0.5,0.5-0.8,0.5
			c-0.4,0-0.7-0.2-0.9-0.6c-1.2-2.7-3-7.8-2.3-13.5c0.1-0.7-0.4-1.1-1-1.1c-0.3,0-0.6,0.1-0.8,0.5c0,0,0,0.1-0.1,0.1
			c-0.2,0.3-0.5,0.5-0.8,0.5c-0.5,0-1.1-0.4-1-1.1c1.1-9.5,4.3-18,7.2-23.7c-0.7,0.4-1.4,0.8-2.2,1.3c-0.2,0.1-0.4,0.2-0.6,0.2
			c-0.6,0-1.2-0.6-0.9-1.3c1.6-4.1,5.2-10.9,12.7-14.3c0.8-0.4,0.8-1.6-0.1-1.8c-1-0.3-2.3-0.5-3.5-0.5c-0.2,0-0.4,0-0.6,0
			c0,0,0,0-0.1,0c-0.9,0-1.3-1.1-0.6-1.7c3.4-3.2,8.9-7.3,14-7.3c0.1,0,0.2,0,0.3,0c0,0,0,0,0,0c0.6,0,1.1-0.5,1-1.1
			c-0.3-1.6-0.6-4.4,0.1-6.9C329.4,13,329.8,12.8,330.2,12.8 M330.2,10c-1.7,0-3.1,1.1-3.6,2.7c-0.6,2.1-0.6,4.3-0.4,6.1
			c-5.3,0.7-10.6,4.6-14.2,7.9c-1.1,1-1.5,2.6-0.9,4.1c0.4,1,1.2,1.8,2.2,2.1c-5.5,4.1-8.3,9.7-9.6,13.2c-0.4,1.1-0.3,2.4,0.4,3.4
			c0.3,0.4,0.7,0.8,1.1,1.1c-2,4.9-4.3,11.8-5.2,19.7c-0.1,1.1,0.2,2.1,0.9,2.9c0.7,0.7,1.6,1.2,2.6,1.2c0,5.1,1.6,9.5,2.7,11.9
			c0.6,1.3,1.9,2.2,3.4,2.2c1.4,0,2.6-0.7,3.3-1.9c1.4-2.6,5.5-6.9,9.9-11.4c3.5-3.6,7.3-7.5,10.5-11.4l12.5,2.6
			c0.1,0,0.2,0,0.4,0.1l12.9,1.4l-3.8,17.4c-4,11.1-5.2,19.5-5.5,22.6c-0.1,1,0.2,2.1,0.9,2.9c0.7,0.8,1.7,1.2,2.8,1.2
			c0.4,0,0.8-0.1,1.2-0.2c4.2-1.4,7.5-3.7,10-5.9c0.6,1,1.3,1.9,2.2,2.9c0.7,0.7,1.6,1.1,2.6,1.1c2,0,3.6-1.5,3.7-3.5
			c0.2-3.8,1.8-8.3,3-11.3c0.9,0.8,2,1.6,3.3,2.4c0.6,0.4,1.3,0.6,2,0.6c1.2,0,2.3-0.6,3-1.5c0.7-0.9,0.9-2.1,0.6-3.3
			c-1.1-4,0.6-7.3,3.1-12.3c1.5-3,3.3-6.4,4.8-10.8c0.1-0.2,0.3-0.8,0.5-1.5c0-0.1,0.1-0.2,0.1-0.3c2.1-7.2,0.3-13.5-2.2-18.2
			c1-0.1,1.9-0.7,2.5-1.6c0.7-1,0.9-2.2,0.5-3.4c-5.6-15.6-22.3-18.5-27.6-19c-5.6-10.4-21-10.9-27.6-11.1l-0.5,0
			c-2.1-0.1-3.8-1.2-5-3.2C332.7,10.7,331.5,10,330.2,10L330.2,10z"/>
	</g>
	<g>
		<path fill="#EAB48F" d="M345.5,126.9c-5.9,0-15.5-0.7-27.3-3.8c-0.5-0.1-0.9-0.6-1-1.1c-0.5-4,0.5-9,1.5-14.3
			c1-4.8,1.9-9.9,1.6-13.7c0-0.2,0-0.4,0.1-0.6c2-4.9,21-11.6,24.8-12.8c0.4-0.1,10-3.8,16.3-3.8c2.8,0,4.7,0.8,5.6,2.3
			c1,1.6,0.6,3.8-1,6.7c-10.2,18.2-13.5,39.6-13.5,39.8c-0.1,0.6-0.6,1.1-1.2,1.2C351.3,126.6,349.2,126.9,345.5,126.9L345.5,126.9z
			"/>
		<path d="M361.4,78c4,0,6.4,1.6,3.4,7c-10.5,18.6-13.7,40.3-13.7,40.3s-2,0.3-5.7,0.3c-5.6,0-15.1-0.6-27-3.8
			c-1-7.5,3.9-19.8,3.1-28c1.8-4.6,23.9-12,23.9-12S355.3,78,361.4,78 M361.4,75.2c-6.4,0-15.9,3.5-16.8,3.9
			c-0.6,0.2-5.9,2-11.4,4.4c-11.1,4.7-13.4,7.3-14.1,9.2c-0.2,0.4-0.2,0.8-0.2,1.3c0.3,3.6-0.6,8.6-1.6,13.3
			c-1.1,5.4-2.1,10.6-1.5,14.8c0.1,1.1,0.9,2,2,2.3c12,3.2,21.7,3.9,27.7,3.9c3.8,0,6-0.3,6-0.3c1.2-0.2,2.2-1.1,2.4-2.3
			c0-0.2,3.3-21.4,13.4-39.4c0.7-1.2,2.8-5,1-8.1C367.1,76.2,364.8,75.2,361.4,75.2L361.4,75.2z"/>
	</g>
	<path fill="#42210B" d="M339.3,62.1c11.4,1.4,25.7-5.5,25.7-5.5c-3.1,6.2,2.2,14.5-2.9,28.6"/>
	
		<path fill="#FCCA99" stroke="#000000" stroke-width="2.7398" stroke-linecap="round" stroke-linejoin="round" stroke-miterlimit="10" d="
		M360,88.8c0,0-1.1,2.2-2.7,5c-2.4,4.1-6.3,7.2-10.9,8.5c-7.3,2-17.5,3.1-22.4,1.5c-7.3-2.4-9.3-5.9-9.8-7.1
		c-7.8-18.9,4.1-50.6,6.9-54.5c4.9-6.7,10.1-15.3,22.7-12.4c40.8,9.5,26.5,38,25.5,39.1c1.8-1.3,4.4-1.7,5.9,0.4
		c2.5,4.2-2.7,12.6-4.6,14.4C368.1,86.1,364.2,88.8,360,88.8z"/>
	
		<path fill="#D87B68" stroke="#D87B68" stroke-width="2.0955" stroke-linecap="round" stroke-linejoin="round" stroke-miterlimit="10" d="
		M316.8,85.4c4.8,3.6,12,4.9,16.5,2.8c1.3-0.6,2.6,1.1,2.1,2.4c0,0.1,0,0.1-0.1,0.2c-0.3,0.6-0.9,0.9-1.5,1.1
		C327.6,94.1,318.9,91.1,316.8,85.4"/>
	
		<path fill="none" stroke="#C6896B" stroke-width="2.7398" stroke-linecap="round" stroke-linejoin="round" stroke-miterlimit="10" d="
		M331,65.6c0,0-2.8,5.9-6,10.3c-0.7,0.9-0.3,2.2,0.8,2.6c2.6,0.9,6,0.9,6,0.9"/>
	
		<path fill="#160600" stroke="#160600" stroke-width="1.5899" stroke-linecap="round" stroke-linejoin="round" stroke-miterlimit="10" d="
		M340.6,56.6c0,0,10.2,0,13,8.4c-4.6-6.3-13.5-6.6-13.5-6.6L340.6,56.6z"/>
	
		<path fill="#160600" stroke="#160600" stroke-width="1.5899" stroke-linecap="round" stroke-linejoin="round" stroke-miterlimit="10" d="
		M330.3,53.8c0,0-7.3-3.8-12.9,0.3c5.6-1.9,12.3,1.7,12.3,1.7L330.3,53.8z"/>
	<path fill="#42210B" d="M363.5,31.9c-27.3-14.8-44.4-7.2-49.1,20.9c0,0,0,0,0,0c2.1-3.7,8.4-17.7,23.1-16.6
		c6.5,0.5,16.1,3.6,20.7,7c3.8,2.8,8.6,9.4,8.1,16.9c-0.5,7.4-2.1,11-3.3,13.9c-0.5,1.1,0.8,2.2,1.8,1.5c2-1.3,5-4.1,8.6-10
		C378.4,57.6,383.1,42.5,363.5,31.9z"/>
	
		<path fill="none" stroke="#000000" stroke-width="3.8774" stroke-linecap="round" stroke-linejoin="round" stroke-miterlimit="10" d="
		M-242.6-295c0,0-0.7,19.8,10.7,39.3"/>
	
		<path fill="#C69C6D" stroke="#000000" stroke-width="3.8774" stroke-linecap="round" stroke-linejoin="round" stroke-miterlimit="10" d="
		M-244.2-372.1c34.6-3.3,70.9,45.5,77.3,96.2c4,32.1,2.6,63.5-8.2,76.1c-12.7,14.8-25.4,22.2-37.9,23.1
		c-42.4,3-97.3-37.8-118.3-64.2c8.7-4.7,17.4-21.9,12-48c39.6,4.3,72.6,13.6,101.7,35.8"/>
	
		<path fill="#FFFFFF" stroke="#000000" stroke-width="3.8774" stroke-linecap="round" stroke-linejoin="round" stroke-miterlimit="10" d="
		M-366-313.8c18.4-0.3,33.3,6.4,33.5,15l0.9,55.7l-66.5,1l-0.9-55.7C-399.1-306.3-384.3-313.5-366-313.8z"/>
	
		<path fill="#C69C6D" stroke="#000000" stroke-width="3.8774" stroke-linecap="round" stroke-linejoin="round" stroke-miterlimit="10" d="
		M-310-292.2c12.6,2.4,21.6,17.9,16.2,40.9c-6.1,26-22.6,29-33.5,26.3c-14.8-3.6-14.2-28.1-11.4-40
		C-333.3-287.5-322.6-294.7-310-292.2z"/>
	<polygon fill="#FCCA99" points="-393.3,-277.6 -393.3,-260.6 -411.1,-260.6 -408.5,-279.5 	"/>
	<polygon fill="#FCCA99" points="-334.1,-273 -361.8,-276.1 -366.2,-246.5 -337.2,-241.4 	"/>
	
		<path fill="#FCCA99" stroke="#000000" stroke-width="3.8774" stroke-linecap="round" stroke-linejoin="round" stroke-miterlimit="10" d="
		M-358.1-249.6c-8.9-3.3-17.4-8.8-15.5-14.4c1.9-5.6,12.6,1.9,17.8,3"/>
	
		<path fill="#FCCA99" stroke="#000000" stroke-width="3.8774" stroke-linecap="round" stroke-linejoin="round" stroke-miterlimit="10" d="
		M-355.6-260.8c-8.2-1.6-17.6-6.6-14.1-12.5c3.1-5.3,16,1.1,21.4,3"/>
	
		<path fill="#FCCA99" stroke="#000000" stroke-width="3.8774" stroke-linecap="round" stroke-linejoin="round" stroke-miterlimit="10" d="
		M-337.8-241.4c12.4-2.6,16.9-11.9,18.4-21.3c4.2-27.3-12.1-35.5-13.1-36.1c-3.6-1.9-5.4,0.1-5.2,0.7c0.7,2.4,6,2.9,5.4,14.6
		c0,10.3-28.9-6.4-33.2,2.7c-2.3,4.9,5.6,8.2,12.9,9.8"/>
	
		<path fill="#FFFFFF" stroke="#000000" stroke-width="3.8774" stroke-linecap="round" stroke-linejoin="round" stroke-miterlimit="10" d="
		M-366-313.8c18.4-0.3,33.3,6.4,33.5,15l0.2,14.7"/>
	<g>
		
			<path fill="#C69C6D" stroke="#000000" stroke-width="3.8774" stroke-linecap="round" stroke-linejoin="round" stroke-miterlimit="10" d="
			M-288-337.9c25,0,47-10.5,56-26.6c3.5-6.2,1.3-14.1-5-17.6c-6.2-3.5-14.1-1.3-17.6,5c-3.7,6.7-16.4,13.4-33.4,13.4
			c-17.5,0-30.5-7.2-33.7-14c-3.1-6.4-10.8-9.1-17.3-6c-6.4,3.1-9.1,10.8-6,17.3C-336.6-349.1-314.2-337.9-288-337.9z"/>
	</g>
	<g>
		<path fill="none" stroke="#936D47" stroke-width="3.8774" stroke-miterlimit="10" d="M-255-376.3c0,0,15.8,3,18.5,18.2"/>
		<path fill="none" stroke="#936D47" stroke-width="3.8774" stroke-miterlimit="10" d="M-248.2-348.3c0,0-2-14.2-15-21.2"/>
		<path fill="none" stroke="#936D47" stroke-width="3.8774" stroke-miterlimit="10" d="M-273.4-365.5c0,0,7,7.8,7.5,24.7"/>
		<path fill="none" stroke="#936D47" stroke-width="3.8774" stroke-miterlimit="10" d="M-285.5-337.9c0,0,0.5-12.9-1.3-25.9"/>
		<path fill="none" stroke="#936D47" stroke-width="3.8774" stroke-miterlimit="10" d="M-298.2-364.6c0,0-7,6.5-9.5,24.5"/>
		<path fill="none" stroke="#936D47" stroke-width="3.8774" stroke-miterlimit="10" d="M-312-369c0,0-11.9,5.2-14.2,21.8"/>
		<path fill="none" stroke="#936D47" stroke-width="3.8774" stroke-miterlimit="10" d="M-320.8-376.1c-1.7-1-17.3,0.9-19.4,17.3"/>
	</g>
	<path fill="none" stroke="#936D47" stroke-width="3.8774" stroke-miterlimit="10" d="M-320.1-281.7c0,0,12-4.2,25.9,5"/>
	<path fill="none" stroke="#936D47" stroke-width="3.8774" stroke-miterlimit="10" d="M-318.8-268.7c0,0,12.3,0.7,26.3,9.9"/>
	<path fill="none" stroke="#936D47" stroke-width="3.8774" stroke-miterlimit="10" d="M-321.8-254.2c0.8,2,11.5,8.6,25,12.1"/>
	<g>
		
			<path fill="none" stroke="#000000" stroke-width="3.8774" stroke-linecap="round" stroke-linejoin="round" stroke-miterlimit="10" d="
			M-288-337.9c25,0,47-10.5,56-26.6c3.5-6.2,1.3-14.1-5-17.6c-6.2-3.5-14.1-1.3-17.6,5c-3.7,6.7-16.4,13.4-33.4,13.4
			c-17.5,0-30.5-7.2-33.7-14c-3.1-6.4-10.8-9.1-17.3-6c-6.4,3.1-9.1,10.8-6,17.3C-336.6-349.1-314.2-337.9-288-337.9z"/>
	</g>
	
		<path fill="#FCCA99" stroke="#000000" stroke-width="3.8774" stroke-linecap="round" stroke-linejoin="round" stroke-miterlimit="10" d="
		M-410.5-257.6c7.6,2,25.4,2.8,25.4-4.7c0-5.2-6.9-5.1-10-5.6"/>
	
		<path fill="#FCCA99" stroke="#000000" stroke-width="3.8774" stroke-linecap="round" stroke-linejoin="round" stroke-miterlimit="10" d="
		M-399-265.8c6.9,0.7,13.8-0.7,13.8-5.4c0-5.1-7.7-4.3-12.2-5.4"/>
	
		<path fill="#FCCA99" stroke="#000000" stroke-width="3.8774" stroke-linecap="round" stroke-linejoin="round" stroke-miterlimit="10" d="
		M-398.6-275.4c5.3,1,13.5,1,14-4.1c0.6-6.7-14.2-2.2-14.2-10.5c0-3.3-0.5-5.5,1.9-7.5c-2.5-0.7-15.8,6.6-15.6,23.4
		c0.1,6.2-0.7,13.3,6,18.2"/>
	
		<path fill="#6D2424" stroke="#000000" stroke-width="3.8774" stroke-linecap="round" stroke-linejoin="round" stroke-miterlimit="10" d="
		M-399-155.2c-36.9-14-63.1-37.8-58.1-73.2c5.6-13.4,11.4-21.3,24.5-27.7c14.4-7,33.6-5,57.5,6"/>
	
		<path fill="#FFFFFF" stroke="#000000" stroke-width="3.8774" stroke-linecap="round" stroke-linejoin="round" stroke-miterlimit="10" d="
		M-366-313.8c-18.4,0.3-33.1,7.4-33,16l0.1,7.8"/>
	
		<ellipse transform="matrix(0.9998 -1.766651e-02 1.766651e-02 0.9998 5.2198 -6.5125)" fill="#3F4F03" cx="-366" cy="-298.7" rx="23.8" ry="8.4"/>
	<path fill="none" stroke="#000000" stroke-width="5" stroke-linecap="round" stroke-linejoin="round" stroke-miterlimit="10" d="
		M-353.5-301.9c-1.4-1.5-2.7-3.3-3.4-5.3c-0.7-2-1.1-3.4-0.2-5.3c0.9-2.1,0.5-2.2,3.7-5.1c2.3-2.1,3.6-5.4,1.7-8.8"/>
	<path fill="none" stroke="#000000" stroke-width="5" stroke-linecap="round" stroke-linejoin="round" stroke-miterlimit="10" d="
		M-364.5-333.2c2,1.9,3.1,4,3.1,6.8c0,2.3-1.5,4.3-3.1,5.9c-1.6,1.6-3.4,3.2-4.2,5.3c-0.8,2-0.6,4.2,0.1,6.2c0.8,2,2.1,3.7,3.6,5.2"
		/>
	<path fill="none" stroke="#000000" stroke-width="5" stroke-linecap="round" stroke-linejoin="round" stroke-miterlimit="10" d="
		M-375.4-327.4c1.1,2,1.6,5.3-1.3,8.8c-1.4,1.8-3.1,3.4-3.8,5.6c-0.6,2-0.3,4.2,0.6,6.2c0.9,1.9,2.3,3.5,3.9,4.9"/>
	
		<path fill="none" stroke="#000000" stroke-width="3.8774" stroke-linecap="round" stroke-linejoin="round" stroke-miterlimit="10" d="
		M-337.8-241.4c12.4-2.6,16.9-11.9,18.4-21.3c2-13.3-0.8-22-4.3-27.6c4.1-2.3,8.8-2.9,13.7-1.9c12.6,2.4,21.6,17.9,16.2,40.9
		c-6.1,26-22.6,29-33.5,26.3C-336-227.1-337.8-241.4-337.8-241.4z"/>
	
		<path fill="#FCCA99" stroke="#000000" stroke-width="3.8774" stroke-linecap="round" stroke-linejoin="round" stroke-miterlimit="10" d="
		M-406.2-128.5c-0.1,22.4,10.2,37.6-0.4,46.3c-12.4,10.2-45.2,7.5-51.6-0.8c-6.6-8.6,2.9-17.3,10.3-17c-2-15.1-5-32.6-5.3-38.1
		C-454.4-155.4-406.2-143.3-406.2-128.5z"/>
	
		<path fill="#FCCA99" stroke="#000000" stroke-width="3.8774" stroke-linecap="round" stroke-linejoin="round" stroke-miterlimit="10" d="
		M-354.2-113c-1.6,22.3,2,36.5-8.9,42.5c-11.9,6.6-39.8,4.7-48.5-3.1c-8.4-7.5,1.1-17.1,8.6-16.4c-0.5-12-1.8-34.5-1.9-40
		C-405.3-147.4-352.3-139.8-354.2-113z"/>
	
		<path fill="#6D2424" stroke="#000000" stroke-width="3.8774" stroke-linecap="round" stroke-linejoin="round" stroke-miterlimit="10" d="
		M-271.8-206.4c25.8,20,34.1,31.5,58.6,29.6c5.5,28.7-16.1,53-48.5,53.8s-75.7-22-113.4-47.7c-7.1-4.8,0-45.2,0-45.2"/>
	
		<path fill="#6D2424" stroke="#000000" stroke-width="3.8774" stroke-linecap="round" stroke-linejoin="round" stroke-miterlimit="10" d="
		M-457-228.4c-7.9,18.9-18.4,91.9,0,113.4c10.3,9.9,46.2,12.5,57,4.4c19.9-19.3-2.1-93.2,4.3-108"/>
	
		<path fill="#6D2424" stroke="#000000" stroke-width="3.8774" stroke-linecap="round" stroke-linejoin="round" stroke-miterlimit="10" d="
		M-336.2-189.2c-16.6,20.2,4.6,71.7-8.1,81.7c-19.3,15.2-60.9,9.6-65.4-3.3c-14.6-41.9-6.5-137.9,35.8-142.3
		c44.2-4.7,78.5,31.1,102.1,46.8"/>
	
		<path fill="none" stroke="#964827" stroke-width="3.8774" stroke-linecap="round" stroke-linejoin="round" stroke-miterlimit="10" d="
		M-958.9-297.6c-5.9-11.6-15.1-21.6-26.2-28.4"/>
	
		<path fill="none" stroke="#964827" stroke-width="3.8774" stroke-linecap="round" stroke-linejoin="round" stroke-miterlimit="10" d="
		M-958.9-328.1c-3.5-7.5-7.9-14.6-13.1-21.1"/>
	
		<path fill="none" stroke="#964827" stroke-width="3.8774" stroke-linecap="round" stroke-linejoin="round" stroke-miterlimit="10" d="
		M-898.9-138.5c-8.6,0.7-19.7,4.1-28.7,22.9"/>
	
		<path fill="none" stroke="#964827" stroke-width="3.8774" stroke-linecap="round" stroke-linejoin="round" stroke-miterlimit="10" d="
		M-909.7-145.3c-8.5-2.3-20.9-4.6-37.8,7.7"/>
	<g>
		<path fill="#42210B" d="M-889.3-388.2c-0.7,0-1.4-0.2-2-0.6c-7.3-4.9-11.9-11.8-14.2-15.8c-1.7,2.7-4.3,4.6-6.3,5.7
			c-0.5,0.3-1.1,0.5-1.8,0.5c-1,0-2.1-0.5-2.7-1.3c-0.7-0.8-0.9-1.9-0.7-2.9c1.6-8,0.6-18-0.3-23.6c-2,1.5-5,2.9-8.9,4.1
			c-0.3,0.1-0.7,0.2-1,0.2c-1.2,0-2.4-0.7-3-1.8c-0.6-1.1-0.6-2.5,0.1-3.6c4-6.6,2.7-12.9,0.7-22.5c-1.1-5.3-2.4-11.3-2.9-18.6
			c-0.1-1-0.1-1.9-0.1-2.6c0-0.1,0-0.2,0-0.4c-0.3-15.7,9.8-26,16.8-31.3c-1.4,0.4-2.8,0.8-4.4,1.5c-0.4,0.2-0.9,0.3-1.3,0.3
			c-1.3,0-2.5-0.7-3.1-1.9c-0.6-1.2-0.5-2.5,0.2-3.6c10.4-14.8,26.4-17.9,38-17.9c5.8,0,10.4,0.8,12.3,1.2c5.2-6.1,13.3-9.1,24-9.1
			c8.8,0,17.4,2,22.5,3.3l0.7,0.2c0.9,0.2,1.9,0.3,2.8,0.3c4,0,7-2.1,8.8-3.9c0.7-0.6,1.5-1,2.4-1c0.9,0,1.9,0.4,2.5,1
			c0.6,0.6,1,1.5,1,2.4c0,4.4-1.7,8.8-2.8,11.3c8.4,2.3,15.5,11.2,20,18.4c0.7,1.1,0.7,2.4,0.1,3.6c-0.6,1.1-1.8,1.8-3,1.8
			c-0.4,0-0.8-0.1-1.2-0.2c-1.5-0.5-3.2-0.8-5.1-0.9c10.4,9.1,13.1,21.7,13.8,28.6c0.1,1-0.2,2-0.9,2.7c-0.7,0.7-1.6,1.2-2.6,1.2
			c0,0,0,0,0,0c-0.4,0-0.8-0.1-1.1-0.2c1.3,8.5,2.2,21.2,0.1,35.1c-0.3,1.7-1.7,3-3.5,3c-1.2,0-2.3-0.6-2.9-1.6
			c-1.6,9.2-6.6,16.3-9.6,19.9c-0.7,0.8-1.7,1.3-2.7,1.3c-1.6,0-3.1-1.1-3.4-2.7c-1.1-5-5.9-13.7-11-22.8
			c-4.1-7.5-8.8-15.9-12.1-23.6l-22.3-1.4c-0.1,0-0.2,0-0.4,0l-23.6-3.8l-1.7,32c1.5,18.9-0.2,32.4-1,37.4
			C-886.1-389.4-887.5-388.2-889.3-388.2z"/>
		<path d="M-812.5-531.5c0.8,0,1.6,0.6,1.6,1.5c0,4.2-1.7,8.5-2.8,10.9c-0.4,0.9,0.1,1.9,1.1,2.2c8.1,1.9,15.1,11.1,19.3,17.6
			c0.7,1.1-0.2,2.4-1.3,2.4c-0.2,0-0.3,0-0.5-0.1c-2.2-0.8-4.5-1-6.4-1c-0.1,0-0.3,0-0.4,0c-1.5,0-2.1,1.9-0.9,2.8
			c10.3,8.6,13.1,20.8,13.8,27.9c0.1,1-0.7,1.7-1.6,1.7c-0.4,0-0.9-0.2-1.2-0.6c-1-1.2-1.9-2.2-2.8-3c2.1,10.2,3.5,24.9,1.1,40.2
			c-0.1,0.9-0.9,1.3-1.6,1.3c-0.7,0-1.3-0.4-1.5-1.2c0-0.1,0-0.2-0.1-0.2c-0.2-0.8-0.8-1.2-1.5-1.2c-0.7,0-1.5,0.5-1.6,1.4
			c-1.3,9.2-6.3,16.4-9.3,20.2c-0.3,0.4-0.8,0.6-1.2,0.6c-0.7,0-1.4-0.4-1.5-1.2c-2.2-9.8-16.4-30.6-23.6-47.8l-23.5-1.5
			c-0.1,0-0.1,0-0.2,0l-25.7-4.2l-1.8,34.1c0,0.1,0,0.1,0,0.2c1.5,18.7-0.1,31.9-1,37c-0.1,0.8-0.8,1.3-1.6,1.3
			c-0.3,0-0.6-0.1-0.9-0.3c-7.2-4.9-11.7-11.7-14-15.7c-0.3-0.5-0.8-0.8-1.3-0.8c-0.5,0-1.1,0.3-1.4,0.8c-1.4,2.5-3.8,4.4-5.8,5.5
			c-0.3,0.1-0.5,0.2-0.8,0.2c-0.9,0-1.8-0.8-1.5-1.9c1.8-8.6,0.5-19.5-0.4-24.9c-0.1-0.8-0.8-1.3-1.6-1.3c-0.3,0-0.7,0.1-1,0.4
			c-2.2,1.9-5.9,3.2-8.7,4.1c-0.2,0-0.3,0.1-0.5,0.1c-1.2,0-2-1.3-1.3-2.4c6.8-11.2-0.4-21.9-1.9-42.3c0-0.4-0.1-1.6-0.1-2.7
			c0-0.1,0-0.1,0-0.2c-0.3-15.9,10.8-26,17.4-30.7c1.3-0.9,0.6-2.9-0.9-2.9c-0.1,0-0.2,0-0.3,0c-2.3,0.4-4.6,1.2-6.5,2
			c-0.2,0.1-0.4,0.1-0.6,0.1c-1.2,0-2.1-1.4-1.3-2.5c9.9-14.2,25.4-17.1,36.5-17.1c5.8,0,10.3,0.8,12.2,1.2c0.1,0,0.2,0,0.3,0
			c0.5,0,0.9-0.2,1.2-0.6c5.6-6.6,14.2-8.6,22.7-8.6c9,0,17.9,2.2,22.8,3.4c1.1,0.3,2.2,0.4,3.2,0.4c4.6,0,8.1-2.4,10.2-4.4
			C-813.3-531.4-812.9-531.5-812.5-531.5 M-812.5-535.4C-812.5-535.4-812.5-535.4-812.5-535.4c-1.4,0-2.7,0.5-3.8,1.5
			c-1.6,1.5-4.2,3.3-7.5,3.3c-0.8,0-1.5-0.1-2.3-0.3l-0.7-0.2c-5.2-1.2-14-3.3-23-3.3c-10.8,0-19.2,3-24.7,9c-2.5-0.5-6.6-1-11.6-1
			c-12.1,0-28.8,3.2-39.6,18.7c-1.2,1.7-1.3,3.8-0.4,5.6c0.7,1.4,2,2.4,3.5,2.8c-6.1,6.1-12,15.4-11.8,27.8c0,0.2,0,0.4,0,0.5
			c0,1.2,0.1,2.2,0.1,2.6c0.6,7.4,1.8,13.5,2.9,18.9c1.9,9.1,3.1,15.1-0.5,21.1c-1,1.7-1.1,3.8-0.1,5.5c1,1.7,2.8,2.8,4.7,2.8
			c0.5,0,1.1-0.1,1.6-0.2c2.7-0.8,4.9-1.7,6.8-2.7c0.7,5.6,1.2,13.6-0.1,20c-0.3,1.6,0.1,3.2,1.1,4.5c1,1.3,2.6,2,4.2,2
			c1,0,1.9-0.3,2.7-0.7c2-1.2,3.7-2.5,5.1-4c2.9,4.5,7.2,9.8,13.3,14c0.9,0.6,2,0.9,3.1,0.9c2.7,0,5-1.9,5.4-4.6
			c0.8-5,2.5-18.6,1-37.7l1.5-29.7l21.5,3.5c0.2,0,0.4,0,0.5,0.1l21.1,1.3c3.3,7.5,7.7,15.5,11.7,22.6c5,9,9.7,17.6,10.8,22.3
			c0.6,2.5,2.7,4.2,5.3,4.2c1.6,0,3.2-0.7,4.2-2c2.7-3.3,7.2-9.7,9.3-17.8c0.5,0.2,1.1,0.3,1.7,0.3c2.7,0,5-1.9,5.4-4.6
			c2-12.9,1.4-24.8,0.2-33.4c1.1-0.2,2.2-0.8,2.9-1.7c1-1.1,1.5-2.6,1.4-4.2c-0.6-6.1-2.8-16.6-10.1-25.4c0.2,0,0.5,0,0.7,0
			c2,0,3.8-1.1,4.7-2.8c1-1.7,0.9-3.9-0.2-5.5c-4.3-6.9-11-15.3-19.1-18.5c1.1-2.9,2.1-6.5,2.1-10.1c0-1.4-0.6-2.8-1.6-3.8
			C-809.7-534.8-811.1-535.4-812.5-535.4L-812.5-535.4z"/>
	</g>
	<g>
		<path fill="#EAB48F" d="M-855.5-355.4c-25,0-38.3-12.2-38.9-12.7c-0.5-0.5-0.7-1.1-0.6-1.8c0.1-0.3,6-30.4-1.9-61.7
			c-1.1-4.3-0.8-7.4,0.8-9.4c1.2-1.6,3.1-2.3,5.6-2.3c9.9,0,29,13.4,29.8,14c5.6,3.6,33.7,22.4,34.6,30.5c0,0.3,0,0.6-0.1,0.9
			c-1.5,4.1-2.7,9-4,14.2c-2.4,9.8-4.8,19.9-9.9,26.3c-0.3,0.4-0.7,0.6-1.2,0.7C-846.1-355.9-850.9-355.4-855.5-355.4z"/>
		<path d="M-890.5-441.4c9.4,0,28.7,13.7,28.7,13.7s32.9,21.5,33.8,29.1c-4.4,11.9-6.1,30.5-13.6,40c-4.9,0.9-9.6,1.2-13.8,1.2
			c-24.6,0-37.6-12.2-37.6-12.2s6.2-30.4-1.9-62.6C-896.7-439-894.5-441.4-890.5-441.4 M-890.5-445.3
			C-890.5-445.3-890.5-445.3-890.5-445.3c-3.9,0-6,1.7-7.1,3.1c-2,2.5-2.3,6.2-1.1,11.1c7.8,30.9,1.9,60.6,1.9,60.9
			c-0.3,1.3,0.2,2.7,1.2,3.6c0.6,0.5,14.4,13.2,40.2,13.2c4.7,0,9.6-0.4,14.5-1.3c0.9-0.2,1.8-0.7,2.4-1.4
			c5.4-6.8,7.9-17.1,10.3-27.1c1.2-5.1,2.4-10,3.9-14c0.2-0.6,0.3-1.2,0.2-1.8c-0.4-3.2-2.9-8-18.8-20.1
			c-8.1-6.1-15.9-11.3-16.7-11.8C-862-432.6-880.3-445.3-890.5-445.3L-890.5-445.3z"/>
	</g>
	<path fill="#42210B" d="M-847.6-458c-18.4-2.6-38-19.6-38-19.6c2.3,11-9.6,21.8-7.7,46.1"/>
	
		<path fill="#FCCA99" stroke="#000000" stroke-width="3.8774" stroke-linecap="round" stroke-linejoin="round" stroke-miterlimit="10" d="
		M-891.4-425c0,0,1.1,6.4,3.3,13.2c1.4,4.5,4.2,8.3,8.1,11c10.2,7.2,29,15.2,38.7,14.7c12.5-0.7,17.2-5.3,18.4-6.9
		c20.3-26.3,15.3-81.1,12.5-88.4c-4.7-12.7-9.3-28.3-30.3-29.1c-68.1-2.5-57.9,48.3-56.8,50.4c-2.3-2.8-6.2-4.5-9.4-1.9
		c-5.7,5.5-1.2,20.9,1,24.6C-903-432.8-898-426.8-891.4-425z"/>
	
		<path fill="none" stroke="#C6896B" stroke-width="3.8774" stroke-linecap="round" stroke-linejoin="round" stroke-miterlimit="10" d="
		M-835.9-449c0,0,1.8,10.4,5.1,18.7c0.7,1.7-0.5,3.6-2.3,3.7c-4.5,0.3-9.8-1.2-9.8-1.2"/>
	
		<path fill="#160600" stroke="#160600" stroke-width="2.5849" stroke-linecap="round" stroke-linejoin="round" stroke-miterlimit="10" d="
		M-848.3-469.8c0,0-16-4.1-23.9,8.1c9.7-8.1,24-5,24-5L-848.3-469.8z"/>
	
		<path fill="#160600" stroke="#160600" stroke-width="2.5849" stroke-linecap="round" stroke-linejoin="round" stroke-miterlimit="10" d="
		M-830.3-465.1c0,0,12.9-3.1,20.2,5.4c-8.1-5.1-20-2.1-20-2.1L-830.3-465.1z"/>
	<path fill="#42210B" d="M-872.6-515.7c49.2-11.5,72.8,7.7,68,53.8c0,0,0,0,0,0c-1.7-6.7-5.5-31.3-29.1-35.9
		c-10.4-2-26.8-1.3-35.5,2.1c-7.1,2.7-17.6,11.1-20,23c-2.4,11.9-1.5,18.1-0.8,23.2c0.2,2-2.2,3.1-3.5,1.6
		c-2.6-2.9-6.1-8.6-9.2-19.4C-906.9-481.8-907.8-507.5-872.6-515.7z"/>
	
		<path fill="none" stroke="#000000" stroke-width="3.8774" stroke-linecap="round" stroke-linejoin="round" stroke-miterlimit="10" d="
		M-911.5-295.5c0,0,2.7,19.6-6.6,40.2"/>
	
		<path fill="#C69C6D" stroke="#000000" stroke-width="3.8774" stroke-linecap="round" stroke-linejoin="round" stroke-miterlimit="10" d="
		M-905.8-373.1c-34.6-3.3-75.1,51.4-81.5,102c-4,32.1-3.9,62.3,7,74.9c12.7,14.8,30.9,19.4,43.4,18.5c44.9-3.3,70-31.5,90.9-58
		c-8.7-4.7-17.4-21.9-12-48c-39.3,11.5-48.3,14.6-79.8,33.2"/>
	
		<polygon fill="#333333" stroke="#000000" stroke-width="3.8774" stroke-linecap="round" stroke-linejoin="round" stroke-miterlimit="10" points="
		-826.4,-298.9 -760.7,-305.8 -749.4,-295 -825.2,-286.4 	"/>
	
		<polyline fill="#11CCF7" stroke="#000000" stroke-width="3.8774" stroke-linecap="round" stroke-linejoin="round" stroke-miterlimit="10" points="
		-840.7,-278.7 -844.3,-229.4 -820.4,-233 	"/>
	
		<polyline fill="#F4545C" stroke="#000000" stroke-width="3.8774" stroke-linecap="round" stroke-linejoin="round" stroke-miterlimit="10" points="
		-760.1,-289.9 -761.5,-246.5 -746.8,-242.3 -745.3,-289.3 	"/>
	
		<path fill="#11CCF7" stroke="#000000" stroke-width="3.8774" stroke-linecap="round" stroke-linejoin="round" stroke-miterlimit="10" d="
		M-811.1-236.9l-14,2.6c-5.1,0.9-9.7-3.1-9.4-8.3l2-36.1"/>
	
		<polyline fill="#F4545C" stroke="#000000" stroke-width="3.8774" stroke-linecap="round" stroke-linejoin="round" stroke-miterlimit="10" points="
		-745.3,-287.4 -746.6,-248.7 -761.5,-246 	"/>
	
		<polygon fill="#1A1A1A" stroke="#000000" stroke-width="3.8774" stroke-linecap="round" stroke-linejoin="round" stroke-miterlimit="10" points="
		-761.5,-246 -759.8,-298.8 -817.5,-292.7 -819.3,-235.6 	"/>
	
		<path fill="#FCCA99" stroke="#000000" stroke-width="3.8774" stroke-linecap="round" stroke-linejoin="round" stroke-miterlimit="10" d="
		M-822.1-243.2c9.3-2.2,18.4-6.5,17.2-12.4c-1.1-5.7-12.7,0.2-18.1,0.7"/>
	<g>
		
			<path fill="#C69C6D" stroke="#000000" stroke-width="3.8774" stroke-linecap="round" stroke-linejoin="round" stroke-miterlimit="10" d="
			M-862-338.9c-25,0-47-10.5-56-26.6c-3.5-6.2-1.3-14.1,5-17.6c6.2-3.5,14.1-1.3,17.6,5c3.7,6.7,16.4,13.4,33.4,13.4
			c17.5,0,30.5-7.2,33.7-14c3.1-6.4,10.8-9.1,17.3-6c6.4,3.1,9.1,10.8,6,17.3C-813.4-350.2-835.8-338.9-862-338.9z"/>
	</g>
	<g>
		<path fill="none" stroke="#936D47" stroke-width="3.8774" stroke-miterlimit="10" d="M-895-377.4c0,0-15.8,3-18.5,18.2"/>
		<path fill="none" stroke="#936D47" stroke-width="3.8774" stroke-miterlimit="10" d="M-901.8-349.4c0,0,2-14.2,15-21.2"/>
		<path fill="none" stroke="#936D47" stroke-width="3.8774" stroke-miterlimit="10" d="M-876.6-366.6c0,0-7,7.8-7.5,24.7"/>
		<path fill="none" stroke="#936D47" stroke-width="3.8774" stroke-miterlimit="10" d="M-864.5-338.9c0,0-0.5-12.9,1.3-25.9"/>
		<path fill="none" stroke="#936D47" stroke-width="3.8774" stroke-miterlimit="10" d="M-851.8-365.6c0,0,7,6.5,9.5,24.5"/>
		<path fill="none" stroke="#936D47" stroke-width="3.8774" stroke-miterlimit="10" d="M-838-370.1c0,0,11.9,5.2,14.2,21.8"/>
		<path fill="none" stroke="#936D47" stroke-width="3.8774" stroke-miterlimit="10" d="M-829.2-377.2c1.7-1,17.3,0.9,19.4,17.3"/>
	</g>
	<g>
		
			<path fill="none" stroke="#000000" stroke-width="3.8774" stroke-linecap="round" stroke-linejoin="round" stroke-miterlimit="10" d="
			M-862-338.9c-25,0-47-10.5-56-26.6c-3.5-6.2-1.3-14.1,5-17.6c6.2-3.5,14.1-1.3,17.6,5c3.7,6.7,16.4,13.4,33.4,13.4
			c17.5,0,30.5-7.2,33.7-14c3.1-6.4,10.8-9.1,17.3-6c6.4,3.1,9.1,10.8,6,17.3C-813.4-350.2-835.8-338.9-862-338.9z"/>
	</g>
	
		<path fill="#FCCA99" stroke="#000000" stroke-width="3.8774" stroke-linecap="round" stroke-linejoin="round" stroke-miterlimit="10" d="
		M-743.8-129.6c0.1,22.4-10.2,37.6,0.4,46.3c12.4,10.2,45.2,7.5,51.6-0.8c6.6-8.6-2.9-17.3-10.3-17c2-15.1,5-32.6,5.3-38.1
		C-695.6-156.4-743.8-144.4-743.8-129.6z"/>
	
		<path fill="#FCCA99" stroke="#000000" stroke-width="3.8774" stroke-linecap="round" stroke-linejoin="round" stroke-miterlimit="10" d="
		M-795.8-114.1c1.6,22.3-2,36.5,8.9,42.5c11.9,6.6,39.8,4.7,48.5-3.1c8.4-7.5-1.1-17.1-8.6-16.4c0.5-12,1.8-34.5,1.9-40
		C-744.7-148.4-797.7-140.9-795.8-114.1z"/>
	
		<path fill="#6D2424" stroke="#000000" stroke-width="3.8774" stroke-linecap="round" stroke-linejoin="round" stroke-miterlimit="10" d="
		M-878.2-207.4c-25.8,20-34.1,31.5-58.6,29.6c-5.5,28.7,16.1,53,48.5,53.8c32.4,0.8,75.7-22,113.4-47.7c7.1-4.8,0-45.2,0-45.2"/>
	
		<path fill="none" stroke="#D87B68" stroke-width="3.3956" stroke-linecap="round" stroke-linejoin="round" stroke-miterlimit="10" d="
		M-850-412.8c7.4,4.4,21.8,3.9,26.3-0.1"/>
	
		<path fill="none" stroke="#D87B68" stroke-width="3.3956" stroke-linecap="round" stroke-linejoin="round" stroke-miterlimit="10" d="
		M-850.5-417.9c0,0,1.7,4.2-3.3,8.6"/>
	<g>
		<circle fill="#603813" cx="-855.9" cy="-448.6" r="3.4"/>
	</g>
	<g>
		<circle fill="#603813" cx="-822.6" cy="-449.3" r="3.4"/>
	</g>
	
		<path fill="#C69C6D" stroke="#000000" stroke-width="3.8774" stroke-linecap="round" stroke-linejoin="round" stroke-miterlimit="10" d="
		M-866.8-284.6c-12.4,3.1-20.6,19.1-13.9,41.8c7.5,25.7,24.2,27.7,34.9,24.4c14.6-4.4,12.7-28.9,9.2-40.5
		C-843.4-281.2-854.4-287.7-866.8-284.6z"/>
	<path fill="none" stroke="#936D47" stroke-width="3.8774" stroke-miterlimit="10" d="M-858-271.7c0,0-13-3-24.2,5.2"/>
	<path fill="none" stroke="#936D47" stroke-width="3.8774" stroke-miterlimit="10" d="M-858.5-258.7c0,0-14.1,0.7-23.7,9.5"/>
	<path fill="none" stroke="#936D47" stroke-width="3.8774" stroke-miterlimit="10" d="M-854.7-245.7c-0.8,2-9.1,8-22.7,11.5"/>
	
		<path fill="none" stroke="#000000" stroke-width="3.8774" stroke-linecap="round" stroke-linejoin="round" stroke-miterlimit="10" d="
		M-866.8-284.6c-12.4,3.1-20.6,19.1-13.9,41.8c7.5,25.7,24.2,27.7,34.9,24.4c14.6-4.4,12.7-28.9,9.2-40.5
		C-843.4-281.2-854.4-287.7-866.8-284.6z"/>
	<polygon fill="#FCCA99" points="-843.3,-267.8 -815.5,-270.9 -811.1,-241.4 -840.2,-236.3 	"/>
	
		<path fill="#FCCA99" stroke="#000000" stroke-width="3.8774" stroke-linecap="round" stroke-linejoin="round" stroke-miterlimit="10" d="
		M-823-254.5c8.3-0.5,18.3-4.3,15.6-10.6c-2.4-5.6-16-1-21.6,0.3"/>
	
		<path fill="#FCCA99" stroke="#000000" stroke-width="3.8774" stroke-linecap="round" stroke-linejoin="round" stroke-miterlimit="10" d="
		M-840-235.3c-14.7-3.1-18.4-16.3-18.7-25.8c-0.7-27.6,15.4-30.7,16.4-31c7.2-2.3,11.8,3.2,11.5,3.7c-1,2.3-10.2-0.3-12.6,8.3
		c-1.3,10.2,29.5-2.7,32.6,6.9c1.6,5.1-6.6,7.5-14,8"/>
	
		<path fill="none" stroke="#000000" stroke-width="3.8774" stroke-linecap="round" stroke-linejoin="round" stroke-miterlimit="10" d="
		M-849.4-450.8c0,0-7.2-5.7-14.4,1.2"/>
	
		<path fill="none" stroke="#000000" stroke-width="3.8774" stroke-linecap="round" stroke-linejoin="round" stroke-miterlimit="10" d="
		M-814.5-450.2c0,0-6-7-14.4-1.6"/>
	<polygon fill="#FCCA99" points="-754.3,-277.6 -755.7,-259.6 -737,-258.2 -738.2,-278.3 	"/>
	
		<path fill="#FCCA99" stroke="#000000" stroke-width="3.8774" stroke-linecap="round" stroke-linejoin="round" stroke-miterlimit="10" d="
		M-733.9-256.5c-8.2,1.5-27,1-26.4-7c0.4-5.4,7.7-4.9,11-5.1"/>
	
		<path fill="#FCCA99" stroke="#000000" stroke-width="3.8774" stroke-linecap="round" stroke-linejoin="round" stroke-miterlimit="10" d="
		M-745.4-266.1c-7.3,0.1-14.5-1.9-14.1-6.8c0.4-5.4,8.5-3.9,13.3-4.7"/>
	
		<path fill="#FCCA99" stroke="#000000" stroke-width="3.8774" stroke-linecap="round" stroke-linejoin="round" stroke-miterlimit="10" d="
		M-745-276.2c-5.7,0.6-14.3,0-14.4-5.4c-0.1-7.1,14.6-1.2,15.8-9.9c-1.3-2.7-3.6-2.5-5.9-4.8c7.6-1.5,21.7,3.8,20.1,22.8
		c-0.7,7.6-2.9,17.5-12.8,19"/>
	
		<path fill="#6D2424" stroke="#000000" stroke-width="3.8774" stroke-linecap="round" stroke-linejoin="round" stroke-miterlimit="10" d="
		M-751-156.2c36.9-14,63.1-37.8,58.1-73.2c-5.6-13.4-11.4-21.3-24.5-27.7c-14.4-7-33.6-5-57.5,6"/>
	
		<path fill="#6D2424" stroke="#000000" stroke-width="3.8774" stroke-linecap="round" stroke-linejoin="round" stroke-miterlimit="10" d="
		M-693-229.4c7.9,18.9,18.4,91.9,0,113.4c-10.3,9.9-46.2,12.5-57,4.4c-19.9-19.3,2.1-93.2-4.3-108"/>
	
		<path fill="#6D2424" stroke="#000000" stroke-width="3.8774" stroke-linecap="round" stroke-linejoin="round" stroke-miterlimit="10" d="
		M-813.8-190.3c16.6,20.2-4.6,71.7,8.1,81.7c19.3,15.2,60.9,9.6,65.4-3.3c14.6-41.9,6.5-137.9-35.8-142.3
		c-44.2-4.7-78.5,31.1-102.1,46.8"/>
	
		<path fill="#11CCF7" stroke="#000000" stroke-width="3.8774" stroke-linecap="round" stroke-linejoin="round" stroke-miterlimit="10" d="
		M-833.9-277.4l16.4-15.2l-7.5-6.4l-7,0.7c-5.4,0.6-9.7,5-10,10.4l-0.7,9.8"/>
	
		<path fill="#11CCF7" stroke="#000000" stroke-width="3.8774" stroke-linecap="round" stroke-linejoin="round" stroke-miterlimit="10" d="
		M-833.8-278.1l0.4-6.2c0.2-3.9,3.2-7.1,7.1-7.5l8.7-0.9l-0.3,13.6"/>
	
		<path fill="#F4545C" stroke="#000000" stroke-width="3.8774" stroke-linecap="round" stroke-linejoin="round" stroke-miterlimit="10" d="
		M-745.3-289.3l-2-7.2c-0.6-2.3-2-4.3-3.9-5.8l-1.6-1.2c-2.3-1.8-5.2-2.6-8.1-2.3l-6.5,0.7l7.5,5.8l-0.3,9.4"/>
	
		<path fill="#F4545C" stroke="#000000" stroke-width="3.8774" stroke-linecap="round" stroke-linejoin="round" stroke-miterlimit="10" d="
		M-760.2-288.4l0.4-10.4l6.9-0.7c4.2-0.4,7.8,2.9,7.7,7.1l0,3.1"/>
	
		<line fill="none" stroke="#999999" stroke-width="3.8774" stroke-linecap="round" stroke-linejoin="round" stroke-miterlimit="10" x1="-774.1" y1="-267.3" x2="-801.2" y2="-264.5"/>
	
		<line fill="none" stroke="#999999" stroke-width="3.8774" stroke-linecap="round" stroke-linejoin="round" stroke-miterlimit="10" x1="-774.1" y1="-274.3" x2="-801.2" y2="-271.5"/>
	
		<line fill="none" stroke="#999999" stroke-width="3.8774" stroke-linecap="round" stroke-linejoin="round" stroke-miterlimit="10" x1="-774.1" y1="-281.3" x2="-801.2" y2="-278.5"/>
	
		<path fill="#C69C6D" stroke="#000000" stroke-width="2.7398" stroke-linecap="round" stroke-linejoin="round" stroke-miterlimit="10" d="
		M335.7,282.5c16.5-18.1,22.8-32.8,31-64.8c9.2-35.9,8.7-83.1-6.2-98c-10.3,6.5-37.5,15.5-49.2-8.8c-17.1,7.2-31.3,20.5-44.1,65.1
		c-12.8,44.6-26.3,35.8-26.3,68.5C271.8,245.1,325.3,266.1,335.7,282.5z"/>
	
		<path fill="#C69C6D" stroke="#000000" stroke-width="2.7398" stroke-linecap="round" stroke-linejoin="round" stroke-miterlimit="10" d="
		M337.4,144.1c-15.7,12.7-39.9,28.5-60.2,28.1c-9.8-0.2-67.9-13.8-78.5-16.7c-8.4,10.2-10.9,15.5-15.2,25.9
		c9,13,81.5,42.9,102.4,41.7c28.9-1.7,47.2-10.6,74.8-27.8"/>
	<g>
		
			<path fill="#C69C6D" stroke="#000000" stroke-width="2.7398" stroke-linecap="round" stroke-linejoin="round" stroke-miterlimit="10" d="
			M332.2,131.4c21.8,4,36.8-8,31-16.1c-4.9-6.8-9.2,3.8-28.6,2c-15.6-1.5-22.7-16-28.2-9.2C300.6,115.1,313.1,128,332.2,131.4z"/>
	</g>
	<g>
		
			<path fill="#C69C6D" stroke="#000000" stroke-width="2.7398" stroke-linecap="round" stroke-linejoin="round" stroke-miterlimit="10" d="
			M209.1,64.7c12.5-4.6,16.1-11.4,11.7-15.5c-4.6-4.3-6.7,2.1-15.4,5.2c-10.3,3.6-16.8,0.3-17.5,6.3C187,68.2,197.4,69,209.1,64.7z"
			/>
	</g>
	<g>
		
			<path fill="#C69C6D" stroke="#000000" stroke-width="2.7398" stroke-linecap="round" stroke-linejoin="round" stroke-miterlimit="10" d="
			M195.4,169.2c7.3-11.2,7.2-17.9,1.1-19.4c-5.3-1.3-5.1,5.3-10.3,13.4c-4.3,6.8-13.9,9.3-10.2,15.5
			C180.3,185.9,188.6,179.6,195.4,169.2z"/>
	</g>
	<g>
		<circle fill="#603813" cx="320.6" cy="62.7" r="2.2"/>
	</g>
	<g>
		<circle fill="#603813" cx="342.3" cy="69" r="2.2"/>
	</g>
	
		<path fill="none" stroke="#000000" stroke-width="2.7398" stroke-linecap="round" stroke-linejoin="round" stroke-miterlimit="10" d="
		M340.2,66.2c0,0,5.2-0.7,8.5,2.8"/>
	
		<path fill="none" stroke="#000000" stroke-width="2.7398" stroke-linecap="round" stroke-linejoin="round" stroke-miterlimit="10" d="
		M318.9,60c2.9-0.5,6.6,0.6,8.2,2.2"/>
	<path fill="none" stroke="#936D47" stroke-width="2.7398" stroke-miterlimit="10" d="M315.2,108.5c0,0-5.5,3-6.4,11.4"/>
	<path fill="none" stroke="#936D47" stroke-width="2.7398" stroke-miterlimit="10" d="M319.8,111.6c0,0-5,4.8-5,13.6"/>
	<path fill="none" stroke="#936D47" stroke-width="2.7398" stroke-miterlimit="10" d="M325.5,114.8c0,0-4.2,6.5-3.5,13.7"/>
	<path fill="none" stroke="#936D47" stroke-width="2.7398" stroke-miterlimit="10" d="M332.5,117c0,0-2.3,7.2-1.8,14.2"/>
	<path fill="none" stroke="#936D47" stroke-width="2.7398" stroke-miterlimit="10" d="M339.2,117.5c0,0,3.1,8,0.5,14.7"/>
	<path fill="none" stroke="#936D47" stroke-width="2.7398" stroke-miterlimit="10" d="M347.6,116.6c0,0,3.3,6.6,1.8,14.7"/>
	<path fill="none" stroke="#936D47" stroke-width="2.7398" stroke-miterlimit="10" d="M354.6,114.4c0,0,4.6,6.8,3.2,13.7"/>
	<g>
		
			<path fill="none" stroke="#000000" stroke-width="2.7398" stroke-linecap="round" stroke-linejoin="round" stroke-miterlimit="10" d="
			M332.2,131.4c21.8,4,36.8-8,31-16.1c-4.9-6.8-9.2,3.8-28.6,2c-15.6-1.5-22.7-16-28.2-9.2C300.6,115.1,313.1,128,332.2,131.4z"/>
	</g>
	<path fill="none" stroke="#936D47" stroke-width="2.7398" stroke-miterlimit="10" d="M201.8,55.5c0,0,0.2,5.4,3.3,10.5"/>
	<path fill="none" stroke="#936D47" stroke-width="2.7398" stroke-miterlimit="10" d="M207.6,53.5c0,0,4,3.1,4.4,10"/>
	<path fill="none" stroke="#936D47" stroke-width="2.7398" stroke-miterlimit="10" d="M213.9,49.5c0,0,4.7,3.4,4.2,10.5"/>
	<path fill="none" stroke="#936D47" stroke-width="2.7398" stroke-miterlimit="10" d="M194.5,56.5c0,0-0.1,5.7,3.4,10.7"/>
	<g>
		
			<path fill="none" stroke="#000000" stroke-width="2.7398" stroke-linecap="round" stroke-linejoin="round" stroke-miterlimit="10" d="
			M209.1,64.7c12.5-4.6,16.1-11.4,11.7-15.5c-4.6-4.3-6.7,2.1-15.4,5.2c-10.3,3.6-16.8,0.3-17.5,6.3C187,68.2,197.4,69,209.1,64.7z"
			/>
	</g>
	<path fill="none" stroke="#936D47" stroke-width="2.7398" stroke-miterlimit="10" d="M183.4,166.6c0,0,4.2,5.5,9.5,6.1"/>
	<path fill="none" stroke="#936D47" stroke-width="2.7398" stroke-miterlimit="10" d="M187.4,161.2c0,0,4.3,1,9.3,5.8"/>
	<path fill="none" stroke="#936D47" stroke-width="2.7398" stroke-miterlimit="10" d="M190.6,154.8c0,0,6.1,0.5,9.2,5.8"/>
	<path fill="none" stroke="#936D47" stroke-width="2.7398" stroke-miterlimit="10" d="M178.8,170.6c0,0,3.2,6.1,9.3,7.5"/>
	<g>
		
			<path fill="none" stroke="#000000" stroke-width="2.7398" stroke-linecap="round" stroke-linejoin="round" stroke-miterlimit="10" d="
			M195.4,169.2c7.3-11.2,7.2-17.9,1.1-19.4c-5.3-1.3-5.1,5.3-10.3,13.4c-4.3,6.8-13.9,9.3-10.2,15.5
			C180.3,185.9,188.6,179.6,195.4,169.2z"/>
	</g>
</g>
</svg>
