<?xml version="1.0" encoding="utf-8"?>
<!-- Generator: Adobe Illustrator 24.1.1, SVG Export Plug-In . SVG Version: 6.00 Build 0)  -->
<svg version="1.1" xmlns="http://www.w3.org/2000/svg" xmlns:xlink="http://www.w3.org/1999/xlink" x="0px" y="0px"
	 viewBox="0 0 500 500" enable-background="new 0 0 500 500" xml:space="preserve">
<g id="Girl" display="none">
	
		<image display="inline" overflow="visible" opacity="0.5" width="336" height="457" xlink:href="BBBEFCE4.jpg"  transform="matrix(1 0 0 1 -475 300)">
	</image>
</g>
<g id="Me_1_" display="none">
	
		<image display="inline" overflow="visible" opacity="0.75" width="872" height="1378" xlink:href="BBBEFCE5.jpg"  transform="matrix(-0.3405 0 0 0.3405 -151.5359 290.3859)">
	</image>
</g>
<g id="Illustration" display="none">
	<g display="inline" opacity="0.5">
		<path fill="#662811" d="M-326.1,316.7c-35,13.1-49.4,37.9-53.6,72.3c-2.8,22.8-30.9,45.9-26.7,79.3c4.2,33.5,27.6,33,39.3,32.5
			c5.9-0.2,78.4-15.7,108.3-19.5c3.1-0.4,54.6,2.3,38.6-54.6c-3.8-13.5-11.2-23-13-41.4c-0.9-8.8,2.5-51.1-31.2-58.1
			C-266.8,326.7-291,305.5-326.1,316.7z"/>
		<g>
			<path d="M-326.1,316.6c-12.2,4.6-23.7,11.3-32.5,20.9c-8.1,8.8-13.6,19.5-17,30.9c-1.9,6.3-3.1,12.7-4,19.2
				c-0.4,2.8-0.9,5.5-1.7,8.2c-0.9,2.8-2,5.5-3.2,8.1c-5.4,11.4-12.6,21.9-17.4,33.7c-2.5,6.2-4.3,12.8-4.9,19.5
				c-0.6,7.2,0.2,14.5,2.4,21.4c1.6,5.1,4.1,10.1,8,13.9c3,3,6.7,5.2,10.7,6.6c3.6,1.2,7.4,1.8,11.2,1.9c2.7,0.1,5.5,0.2,8.1-0.1
				c2.4-0.3,4.7-0.7,7-1.2c4.1-0.7,8.1-1.5,12.2-2.3c11.2-2.2,22.5-4.4,33.7-6.5c12-2.3,23.9-4.5,35.9-6.6c5-0.8,9.9-1.6,14.9-2.3
				c1.9-0.3,3.8-0.5,5.7-0.6c4.7-0.1,9.3-0.7,13.9-1.8c6.2-1.6,12.3-4.4,16.9-8.9c5.9-5.8,8.6-13.9,8.9-22c0.2-6-0.6-12-2-17.8
				c-1.6-6.6-4.1-12.9-6.7-19.2c-2.8-6.7-5.3-13.5-6.5-20.7c-0.7-3.8-0.9-7.5-1-11.4c-0.2-8.2-0.9-16.5-3.2-24.4
				c-2.6-9.2-7.7-18-16-23.2c-2.3-1.4-4.7-2.6-7.2-3.4c-1.4-0.5-2.9-0.8-4.4-1.2c-0.3-0.1-0.6-0.2-0.9-0.3c-2.4-1.3-4.6-2.9-7-4.3
				c-9.7-5.5-20.6-8.8-31.8-9.2C-311.5,313.2-319,314.4-326.1,316.6C-326.2,316.6-326.2,316.7-326.1,316.6
				c13.7-4.2,28.2-4.2,41.8,0.5c4.5,1.5,8.8,3.6,12.9,5.9c2.2,1.3,4.3,2.8,6.5,4c0.4,0.2,0.8,0.3,1.2,0.4c1.4,0.3,2.8,0.7,4.2,1.2
				c2.6,0.9,5.1,2.1,7.4,3.6c4.2,2.8,7.7,6.5,10.3,10.8c4.8,7.9,6.8,17.3,7.7,26.5c0.3,3.6,0.5,7.2,0.6,10.8
				c0.1,3.9,0.4,7.7,1.1,11.5c1.3,7,3.8,13.7,6.6,20.2c2.6,6.2,5.1,12.4,6.6,19c2.4,10.1,3.3,21.4-1.1,31.1
				c-3,6.5-8.3,11.4-14.7,14.5c-5.2,2.5-11,3.8-16.7,4.3c-1.8,0.2-3.6,0.3-5.5,0.3c-2,0.1-4,0.4-6.1,0.7
				c-10.7,1.5-21.4,3.4-32.1,5.4c-12,2.2-23.9,4.5-35.9,6.8c-9.2,1.8-18.5,3.6-27.7,5.3c-2.4,0.4-4.8,0.9-7.3,1.2
				c-2.5,0.3-5.2,0.2-7.7,0.2c-8.2-0.3-16.4-2.5-22.4-8.5c-4-4-6.5-9.1-8.1-14.5c-2.1-6.9-2.8-14.4-2.1-21.6
				c1.3-13.4,7.5-25.5,14-37.1c2.9-5.3,6-10.5,8.5-16c2.2-4.9,3.8-9.8,4.5-15.2c1.6-12.6,4.8-25.1,10.9-36.3
				c5.8-10.7,14.3-19.6,24.6-26.1C-338.5,321.9-332.4,319.1-326.1,316.6C-326.1,316.7-326.1,316.6-326.1,316.6z"/>
		</g>
	</g>
	<g display="inline" opacity="0.5">
		<path fill="#F78C2E" d="M-340.9,441.2c-3.8-0.9-7-0.1-10,2.5c-3.9,3.4-6,9.8-6.1,13.7c-1,26.4,29.7,40.8,56.7,40.8
			c34,0,56.7-20.6,56.7-42.3c0-5.1-1-13-6.7-15.7c-5.7-2.7-21.1,8.5-31,10.5c-6.9,1.4-14-0.1-20.9-1.5
			C-315.9,446.3-327.1,444-340.9,441.2z"/>
		<g>
			<path fill="#662811" d="M-340.9,441.1c-2.6-0.6-5.2-0.4-7.5,0.8c-2.3,1.2-4.1,3-5.5,5.2c-2.5,4-3.5,8.6-3.3,13.3
				c0.4,8.5,4.5,16.2,10.7,22c6.6,6.2,15.1,10.3,23.7,12.8c9.6,2.8,19.7,3.8,29.6,2.8c10.1-0.9,20.2-3.8,28.8-9.2
				c7.2-4.4,13.4-10.6,17.2-18.2c1.7-3.4,2.8-7,3.3-10.7c0.5-4,0.4-8.3-0.8-12.2c-0.6-2-1.5-4-3-5.6c-1.1-1.2-2.6-2.2-4.3-2.3
				c-1.5-0.1-3.1,0.3-4.6,0.7c-2,0.6-3.9,1.4-5.8,2.3c-4.4,2-8.7,4.3-13.2,6c-2,0.8-4.1,1.5-6.2,1.9c-3.4,0.6-6.8,0.6-10.2,0.2
				c-3.5-0.4-7-1.1-10.4-1.8c-3.3-0.7-6.7-1.4-10-2.1c-6.3-1.3-12.7-2.6-19-3.9C-334.5,442.4-337.7,441.8-340.9,441.1
				c-0.1,0-0.2,0.1,0,0.2c12.6,2.6,25.3,5.2,37.9,7.9c6.4,1.3,13,2.8,19.6,2c4.5-0.5,8.7-2.4,12.7-4.3c4.2-1.9,8.2-4.1,12.6-5.7
				c1.6-0.6,3.3-1.1,5-1.3c1.7-0.1,3.2,0.4,4.5,1.5c3.5,2.8,4.5,7.8,4.8,12c0.2,3.8-0.1,7.6-1.2,11.3c-2.2,7.7-7.2,14.5-13.3,19.6
				c-7.4,6.1-16.4,10.1-25.7,12.1c-10,2.2-20.5,2.2-30.5,0.4c-9.1-1.6-18-4.8-25.7-9.9c-7-4.6-12.9-11.2-15.4-19.3
				c-1.2-4-1.8-8.5-1-12.7c0.9-4.9,3.4-10.1,7.9-12.7c2.4-1.4,5.2-1.6,7.9-1C-340.8,441.3-340.8,441.1-340.9,441.1z"/>
		</g>
	</g>
	<g display="inline" opacity="0.5">
		<path fill="#FCCA99" d="M-268.1,357.5c-7.1,23.1-33.9,32.8-44,36.6c-6.3,2.4-25.4,9.9-27.2,13c-1.8,3.1-2.9,7.1-3.1,10.6
			c-0.4,8.3,0.4,16.3,3.9,23.9c7.3,16,24.5,25.3,45.2,24.4c42.4-1.9,47.5-47.7,44.9-76.9c-0.5-6.1-1.5-11.5-4.1-17
			C-255.4,366-261.5,359.4-268.1,357.5z"/>
		<g>
			<path fill="#662811" d="M-268.1,357.5c-1.7,5.4-4.5,10.4-8.2,14.7c-3.5,4.1-7.6,7.5-12.1,10.5c-4,2.7-8.2,4.9-12.6,6.9
				c-3.4,1.5-6.8,2.9-10.3,4.2c-3.9,1.5-7.8,3-11.7,4.6c-4.4,1.9-8.9,3.8-13.1,6.2c-1.1,0.6-2.4,1.4-3.1,2.4c-0.9,1.3-1.5,2.9-2,4.4
				c-0.5,1.7-0.9,3.4-1.1,5.2c-0.4,3.8-0.3,7.7,0.1,11.4c0.4,3.7,1.2,7.4,2.5,11c2,5.5,5.3,10.5,9.5,14.5c4.1,3.9,9,7,14.2,9
				c5.7,2.3,11.9,3.4,18.1,3.6c5.6,0.2,11.3-0.4,16.7-2c4.4-1.3,8.7-3.4,12.4-6.2c3.5-2.6,6.5-5.8,9-9.3c2.6-3.6,4.6-7.6,6.2-11.8
				c1.7-4.3,2.9-8.7,3.8-13.3c0.9-4.5,1.4-9.1,1.7-13.7c0.3-4.5,0.3-9,0.2-13.4c-0.2-5.5-0.6-11.1-1.9-16.4c-0.8-3.5-2-7-3.8-10.1
				c-1.7-3-3.9-5.7-6.5-7.9c-2.3-2-5-3.8-8-4.7c-0.1,0-0.1,0.1,0,0.2c3.3,1,6.2,2.9,8.7,5.3c2.5,2.3,4.6,5.1,6.2,8.1
				c3.3,6.2,4.3,13.3,4.9,20.2c0.3,4.2,0.5,8.5,0.4,12.8c-0.1,4.5-0.4,9.1-1,13.5c-0.6,4.5-1.5,9.1-2.8,13.5
				c-1.3,4.3-2.9,8.5-5,12.5c-2.1,3.9-4.6,7.5-7.7,10.6c-3.1,3.2-6.8,5.8-10.9,7.7c-4.6,2.2-9.5,3.4-14.6,4
				c-6.2,0.7-12.6,0.3-18.6-1c-5.7-1.3-11.2-3.6-16.1-6.9c-4.6-3.2-8.6-7.3-11.6-12c-3.7-6.1-5.6-13.1-6.1-20.3
				c-0.1-1.9-0.1-3.9-0.1-5.8c0-1.9,0.2-3.7,0.5-5.5c0.4-1.8,0.9-3.6,1.7-5.3c0.4-0.9,0.8-1.8,1.5-2.4c1.2-1.1,2.7-1.9,4.2-2.7
				c2.1-1.1,4.3-2.2,6.5-3.1c4.5-2,9-3.9,13.6-5.6c3-1.2,6.1-2.3,9.1-3.5c4-1.7,8-3.5,11.8-5.7c4.4-2.5,8.5-5.3,12.3-8.7
				c4-3.5,7.4-7.6,10-12.3c1.3-2.4,2.3-4.8,3.1-7.4C-267.9,357.5-268.1,357.4-268.1,357.5z"/>
		</g>
	</g>
	<g display="inline" opacity="0.5">
		<g>
			<path fill="#662811" d="M-284,412.7c0,1.1,0.1,2.2,0.3,3.2c0.2,1,0.4,2.1,0.7,3.1c0.3,1,0.7,2,1.1,3c0.5,1,1,2,1.6,3
				c0.7,1,1.4,2,2.2,3c0.1,0.1,0.2,0.2,0.3,0.4c0,0,0-0.1,0-0.1c-1.1,0.5-2.3,1-3.3,1.5c-1.2,0.6-2.3,1.3-3.5,2
				c-0.6,0.4-1.1,0.8-1.7,1.2c-0.1,0.1,0,0.2,0.1,0.1c1-0.8,2-1.4,3.1-2.1c1.1-0.7,2.3-1.3,3.5-1.8c0.6-0.3,1.2-0.5,1.8-0.8
				c0.1,0,0.1-0.1,0-0.1c-0.8-0.9-1.6-1.9-2.3-2.9c-0.6-0.9-1.2-1.9-1.7-2.9c-0.5-1-0.8-2-1.1-3c-0.3-1-0.5-2-0.7-3
				c-0.2-1-0.3-2.1-0.3-3.2c0-0.1,0-0.3,0-0.4C-283.8,412.6-284,412.6-284,412.7L-284,412.7z"/>
		</g>
	</g>
	<g display="inline" opacity="0.5">
		<g>
			<path fill="#662811" d="M-302.5,445.4c1,1,2.1,1.9,3.3,2.7c1.3,0.9,2.8,1.5,4.4,1.8c1.8,0.4,3.7,0.4,5.6,0.1
				c1.6-0.2,3.2-0.6,4.8-1.3c1.4-0.6,2.7-1.4,3.8-2.4c0.1-0.1,0.3-0.3,0.4-0.4c0.1-0.1,0-0.2-0.1-0.1c-1.1,1-2.3,1.9-3.7,2.5
				c-1.4,0.7-3,1.2-4.6,1.4c-0.9,0.1-1.8,0.2-2.7,0.2c-0.9,0-1.9,0-2.8-0.2c-1.6-0.3-3.1-0.8-4.5-1.6c-1.2-0.7-2.3-1.6-3.3-2.6
				c-0.1-0.1-0.2-0.2-0.3-0.3C-302.4,445.2-302.5,445.3-302.5,445.4L-302.5,445.4z"/>
		</g>
	</g>
</g>
<g id="Illustration_2">
	
		<path fill="#DC9779" stroke="#000000" stroke-width="3.8774" stroke-linecap="round" stroke-linejoin="round" stroke-miterlimit="10" d="
		M-351.3,722.2c-20.4-17.7-92.9-9.3-105.5,57.8c-5.9,31.4-6.6,81.2,3.1,124c6.4,28.4,17.9,56.6,39,76.7c24.5,23.4,53.3,30.7,87.2,29
		c51.4-2.7,108.9-37.5,116.1-57.7c7.2-20.3-37.1-157.6-44.7-171.9"/>
	<polygon fill="#C69C6D" points="-375.5,744.2 -399.6,861.2 -307.8,861.2 -247.1,751.7 -349.6,733.9 	"/>
	
		<path fill="#C69C6D" stroke="#000000" stroke-width="3.8774" stroke-linecap="round" stroke-linejoin="round" stroke-miterlimit="10" d="
		M-251.7,726.4c0,0,70,15.8,46.3,124.7s-135.6,35.4-135.6,35.4"/>
	
		<path fill="#DC9779" stroke="#000000" stroke-width="3.8774" stroke-linecap="round" stroke-linejoin="round" stroke-miterlimit="10" d="
		M-907.4,173.7c-20.4-17.7-92.9-9.3-105.5,57.8c-5.9,31.4-6.6,81.2,3.1,124c6.4,28.4,17.9,56.6,39,76.7c24.5,23.4,53.3,30.7,87.2,29
		c51.4-2.7,108.9-37.5,116.1-57.7c7.2-20.3-37.1-157.6-44.7-171.9"/>
	
		<path fill="none" stroke="#964827" stroke-width="3.8774" stroke-linecap="round" stroke-linejoin="round" stroke-miterlimit="10" d="
		M-958.9,253.5c-5.9-11.6-15.1-21.6-26.2-28.4"/>
	
		<path fill="none" stroke="#964827" stroke-width="3.8774" stroke-linecap="round" stroke-linejoin="round" stroke-miterlimit="10" d="
		M-958.9,223c-3.5-7.5-7.9-14.6-13.1-21.1"/>
	
		<path fill="none" stroke="#964827" stroke-width="3.8774" stroke-linecap="round" stroke-linejoin="round" stroke-miterlimit="10" d="
		M-898.9,412.5c-8.6,0.7-19.7,4.1-28.7,22.9"/>
	
		<path fill="none" stroke="#964827" stroke-width="3.8774" stroke-linecap="round" stroke-linejoin="round" stroke-miterlimit="10" d="
		M-909.7,405.8c-8.5-2.3-20.9-4.6-37.8,7.7"/>
	<g>
		<path fill="#42210B" d="M-887.7,166.1c-0.6,0-1.2-0.2-1.7-0.5c-7.7-4.3-12.9-10.7-15.6-14.5c-1.4,2.8-3.9,5-5.7,6.3
			c-0.6,0.4-1.3,0.6-2,0.6c-1,0-2-0.4-2.6-1.2c-0.7-0.7-1-1.7-0.9-2.7c0.9-8.1-1-17.9-2.4-23.5c-1.9,1.7-4.7,3.3-8.5,4.8
			c-0.4,0.2-0.9,0.3-1.3,0.3c-1.2,0-2.3-0.6-3-1.7c-0.6-1-0.7-2.3-0.2-3.4c3.4-6.9,1.5-13.1-1.3-22.5c-1.6-5.2-3.3-11.1-4.5-18.3
			c-0.1-0.4-0.2-1.5-0.4-2.6c0-0.1-0.1-0.2-0.1-0.4c-1.7-15.6,7.5-26.8,14-32.6c-1.3,0.5-2.7,1.1-4.2,1.8c-0.5,0.3-1,0.4-1.6,0.4
			c-1.2,0-2.4-0.7-3.1-1.8c-0.6-1.1-0.6-2.4,0-3.5c10.7-18.7,31-21.4,42.2-21.4c3,0,5.3,0.2,6.5,0.3c5.4-7.6,15.1-11.5,28.9-11.5
			c6.7,0,12.9,0.9,17,1.5l0.7,0.1c0.6,0.1,1.2,0.1,1.8,0.1c4.5,0,7.6-2.6,9.5-4.7c0.7-0.8,1.6-1.2,2.6-1.2c1.8,0,3.3,1.4,3.5,3.2
			c0.4,4.4-0.9,8.9-1.8,11.5c8.6,1.5,16.4,9.8,21.6,16.5c0.8,1.1,0.9,2.5,0.3,3.7c-0.6,1.2-1.8,2-3.1,2c-0.3,0-0.6,0-0.9-0.1
			c-1.2-0.3-2.4-0.4-3.9-0.4c-0.4,0-0.9,0-1.3,0c11.1,8.1,14.9,20.5,16.2,27.3c0.2,1-0.1,2.1-0.7,2.9c-0.7,0.8-1.7,1.3-2.7,1.3l0,0
			c-0.3,0-0.5,0-0.8-0.1c2,8.4,4.1,21,3.2,35c-0.1,1.9-1.6,3.3-3.5,3.3c-1.1,0-2.1-0.5-2.8-1.3c-0.8,9.3-5.2,16.9-7.8,20.6
			c-0.7,1-1.7,1.5-2.9,1.5c-1.5,0-2.9-1-3.3-2.4c-1.6-4.9-7.1-13.1-12.9-21.8c-4.8-7.1-10.1-15-14.1-22.4c0,0-22.4,0.6-22.4,0.6
			c-0.1,0-0.2,0-0.3,0l-23.8-1.7l1.2,32c3.2,18.7,2.7,32.3,2.3,37.3C-884.3,164.7-885.8,166.1-887.7,166.1z"/>
		<path d="M-823.5,16.5c0.8,0,1.5,0.5,1.6,1.4c0.4,4.2-0.9,8.7-1.8,11.1c-0.3,0.9,0.3,1.9,1.3,2.1c8.3,1.2,16.1,9.7,20.7,15.8
			c0.8,1.1,0,2.5-1.2,2.5c-0.1,0-0.3,0-0.4-0.1c-1.4-0.4-2.9-0.5-4.3-0.5c-0.9,0-1.7,0.1-2.5,0.1c-1.5,0.2-1.9,2-0.7,2.9
			c11,7.6,14.9,19.6,16.2,26.6c0.2,1.1-0.7,1.9-1.6,1.9c-0.4,0-0.8-0.1-1.1-0.5c-1.1-1.1-2.1-2-3.1-2.8c3,9.9,5.6,24.5,4.6,40
			c-0.1,0.9-0.8,1.5-1.6,1.5c-0.6,0-1.2-0.3-1.5-1c0-0.1-0.1-0.1-0.1-0.2c-0.3-0.7-0.8-1-1.4-1c-0.8,0-1.6,0.5-1.6,1.5
			c-0.5,9.3-4.8,16.9-7.5,20.9c-0.3,0.5-0.8,0.7-1.3,0.7c-0.6,0-1.3-0.4-1.5-1.1c-3.1-9.5-19-29-27.8-45.5l-23.5,0.6c0,0,0,0,0,0
			c0,0-0.1,0-0.1,0l-26-1.9l1.3,34.2c0,0.1,0,0.1,0,0.2c3.1,18.5,2.7,31.8,2.3,36.9c-0.1,0.9-0.8,1.4-1.6,1.4
			c-0.3,0-0.5-0.1-0.8-0.2c-7.6-4.2-12.7-10.6-15.3-14.4c-0.3-0.5-0.8-0.7-1.3-0.7c-0.6,0-1.2,0.3-1.5,1c-1.2,2.6-3.4,4.7-5.3,6
			c-0.3,0.2-0.6,0.3-0.9,0.3c-0.9,0-1.7-0.7-1.6-1.7c1-8.7-1.2-19.4-2.6-24.8c-0.2-0.8-0.8-1.2-1.5-1.2c-0.4,0-0.8,0.1-1.1,0.5
			c-2.1,2.1-5.6,3.8-8.3,4.9c-0.2,0.1-0.4,0.1-0.6,0.1c-1.1,0-1.9-1.2-1.4-2.3c5.8-11.8-2.3-21.8-5.6-41.9c-0.1-0.4-0.3-1.5-0.4-2.7
			c0-0.1,0-0.1-0.1-0.2c-1.7-15.8,8.5-26.9,14.7-32.1c1.2-1,0.4-2.8-1-2.8c-0.1,0-0.3,0-0.4,0.1c-2.2,0.6-4.4,1.6-6.3,2.5
			c-0.2,0.1-0.5,0.2-0.7,0.2c-1.1,0-2-1.3-1.4-2.4c10.3-17.8,29.8-20.5,40.5-20.5c3,0,5.3,0.2,6.5,0.3c0.1,0,0.1,0,0.2,0
			c0.5,0,1-0.3,1.3-0.7c6.1-8.7,17.3-10.8,27.4-10.8c7,0,13.5,1,17.4,1.6c0.7,0.1,1.4,0.2,2.1,0.2c5.3,0,8.9-3,10.9-5.4
			C-824.3,16.7-823.9,16.5-823.5,16.5 M-823.5,12.6c-1.6,0-3.1,0.7-4.1,1.9c-1.6,1.8-4.3,4-8,4c-0.5,0-1,0-1.5-0.1l-0.7-0.1
			c-4.2-0.6-10.4-1.5-17.3-1.5c-13.8,0-23.9,3.8-29.8,11.4c-1.4-0.1-3.3-0.2-5.6-0.2c-11.6,0-32.6,2.9-43.9,22.4c-1,1.7-1,3.7,0,5.4
			c0.8,1.5,2.3,2.4,3.9,2.7c-5.5,6.7-10.6,16.4-9.3,28.7c0,0.2,0.1,0.4,0.1,0.5c0.1,1.2,0.3,2.2,0.4,2.6c1.2,7.4,3,13.3,4.6,18.6
			c2.7,8.9,4.5,14.8,1.4,21c-0.8,1.7-0.7,3.7,0.3,5.3c1,1.6,2.7,2.6,4.6,2.6c0.7,0,1.4-0.1,2.1-0.4c2.6-1,4.8-2.1,6.5-3.3
			c1.2,5.5,2.4,13.4,1.7,19.9c-0.2,1.5,0.3,3.1,1.3,4.2c1,1.2,2.5,1.8,4.1,1.8c1.1,0,2.2-0.3,3.1-1c1.9-1.4,3.5-2.8,4.7-4.4
			c3.3,4.2,8.1,9.2,14.5,12.7c0.8,0.5,1.7,0.7,2.7,0.7c2.8,0,5.2-2.2,5.4-5c0.4-5,0.8-18.7-2.3-37.7l-1.1-29.7l21.7,1.6
			c0.1,0,0.3,0,0.4,0c0,0,0.1,0,0.1,0l21.1-0.6c4,7.1,9.1,14.7,13.6,21.5c5.8,8.6,11.2,16.6,12.7,21.3c0.7,2.2,2.8,3.8,5.2,3.8
			c1.8,0,3.5-0.9,4.5-2.4c2.4-3.5,6.3-10.3,7.7-18.6c0.4,0.1,0.8,0.1,1.2,0.1c2.9,0,5.3-2.2,5.5-5.1c0.9-13.1-0.8-24.9-2.7-33.3
			c1-0.3,1.9-0.9,2.6-1.8c1-1.2,1.4-2.9,1.1-4.5c-1.1-6-4.2-16.3-12.3-24.4c0.1,0,0.2,0,0.2,0c2.1,0,3.9-1.2,4.8-3
			c0.9-1.9,0.7-4.1-0.5-5.7c-4.9-6.5-12.3-14.3-20.6-16.7c0.9-3,1.5-6.6,1.2-10.3C-818.3,14.8-820.6,12.6-823.5,12.6L-823.5,12.6z"
			/>
	</g>
	<polygon fill="#C69C6D" points="-931.6,195.7 -955.8,312.7 -864,312.7 -803.2,203.2 -905.8,185.4 	"/>
	
		<path fill="#C69C6D" stroke="#000000" stroke-width="3.8774" stroke-linecap="round" stroke-linejoin="round" stroke-miterlimit="10" d="
		M-807.8,177.9c0,0,70,15.8,46.3,124.7c-23.8,108.9-135.6,35.4-135.6,35.4"/>
	<g>
		<path fill="#EAB48F" d="M-859.3,197.2c-20.9,0-32.8-9.1-33.3-9.5c-0.5-0.4-0.8-1.1-0.7-1.7c0-0.3,3.3-30.8-7.3-61.3
			c-1.5-4.3-1.5-7.5,0.1-9.6c1.3-1.8,3.4-2.7,6.3-2.7c10.1,0,29,10.9,29.8,11.4c5.9,3.1,35.5,19.3,37.2,27.3c0.1,0.3,0.1,0.6,0,0.9
			c-1.2,4.2-1.9,9.2-2.7,14.5c-1.5,9.9-3,20.2-7.6,27.1c-0.3,0.4-0.7,0.7-1.1,0.8C-845.7,196.3-852.6,197.2-859.3,197.2z"/>
		<path d="M-894.3,114.3c9.7,0,28.8,11.1,28.8,11.1s34.7,18.5,36.3,26c-3.4,12.2-3.4,31-10,41.1c-7.4,2-14.1,2.7-20,2.7
			c-20.5,0-32.1-9.1-32.1-9.1s3.5-30.9-7.4-62.2C-901.4,116.8-898.8,114.3-894.3,114.3 M-894.3,110.4v3.9V110.4
			C-894.3,110.4-894.3,110.4-894.3,110.4c-4.5,0-6.8,1.9-7.9,3.5c-1.9,2.7-2,6.4-0.3,11.4c10.4,30,7.3,60.2,7.2,60.5
			c-0.1,1.3,0.4,2.7,1.5,3.5c0.5,0.4,12.9,9.9,34.5,9.9c6.8,0,13.9-1,21-2.9c0.9-0.2,1.7-0.8,2.2-1.6c4.8-7.3,6.4-17.7,7.9-27.9
			c0.8-5.2,1.5-10.2,2.7-14.3c0.2-0.6,0.2-1.2,0.1-1.8c-0.6-3.1-3.6-7.7-20.5-18.3c-8.6-5.4-16.8-9.8-17.7-10.3
			C-865.9,120.7-883.9,110.4-894.3,110.4L-894.3,110.4z"/>
	</g>
	<path fill="#42210B" d="M-852,92.9c-18.6-1-39.5-16.2-39.5-16.2c3.2,10.8-7.6,22.6-3.6,46.6"/>
	
		<path fill="#FCCA99" stroke="#000000" stroke-width="3.8774" stroke-linecap="round" stroke-linejoin="round" stroke-miterlimit="10" d="
		M-892.7,129.6c0,0,1,3.9,2.8,8.8c2.7,7.3,8,13.3,15,16.7c11.1,5.4,27,10,35.4,8.9c12.4-1.8,16.6-6.8,17.7-8.5
		c17.9-28,8.1-82.1,4.7-89.2c-5.8-12.2-11.8-27.4-32.7-26.3c-68.1,3.5-53.4,53.2-52.1,55.2c-2.6-2.6-6.6-3.9-9.5-1
		c-5.2,6,0.6,20.9,3.2,24.4C-905,122.9-899.5,128.4-892.7,129.6z"/>
	
		<path fill="none" stroke="#000000" stroke-width="3.8774" stroke-linecap="round" stroke-linejoin="round" stroke-miterlimit="10" d="
		M-854.2,101c0,0-7.2-5.7-14.4,1.2"/>
	
		<path fill="none" stroke="#000000" stroke-width="3.8774" stroke-linecap="round" stroke-linejoin="round" stroke-miterlimit="10" d="
		M-819.1,96.9c-3.2-3.4-9.7-2.2-12.3,1.1"/>
	
		<path fill="none" stroke="#D87B68" stroke-width="3.8774" stroke-linecap="round" stroke-linejoin="round" stroke-miterlimit="10" d="
		M-854.4,134.7c10.2,10.2,25.9,5.5,30.6-2"/>
	
		<path fill="none" stroke="#C6896B" stroke-width="3.8774" stroke-linecap="round" stroke-linejoin="round" stroke-miterlimit="10" d="
		M-839.6,100.8c0,0,2.7,10.2,6.7,18.2c0.8,1.7-0.2,3.7-2,3.9c-4.5,0.7-9.9-0.4-9.9-0.4"/>
	
		<path fill="#160600" stroke="#160600" stroke-width="2.5849" stroke-linecap="round" stroke-linejoin="round" stroke-miterlimit="10" d="
		M-852.4,86.6c0,0-15.9-4.6-24.1,7.4c9.9-7.8,24.1-4.3,24.1-4.3L-852.4,86.6z"/>
	
		<path fill="#160600" stroke="#160600" stroke-width="2.5849" stroke-linecap="round" stroke-linejoin="round" stroke-miterlimit="10" d="
		M-835.6,85.1c0,0,12.2-5.3,20.8,1.8c-8.8-3.6-20.1,1.4-20.1,1.4L-835.6,85.1z"/>
	<path fill="#42210B" d="M-882,37.6c48-15.8,73.2,1.3,72.5,47.6c0,0,0,0,0,0c-2.3-6.5-8.3-30.7-32.2-33.2
		c-10.6-1.1-26.8,1.1-35.2,5.2c-6.8,3.3-16.6,12.6-17.9,24.7c-1.3,12.1,0.2,18.2,1.2,23.2c0.4,1.9-1.9,3.2-3.3,1.9
		c-2.9-2.7-6.9-8-10.9-18.5C-913.2,74.4-916.4,48.9-882,37.6z"/>
	
		<path fill="none" stroke="#000000" stroke-width="3.8774" stroke-linecap="round" stroke-linejoin="round" stroke-miterlimit="10" d="
		M-907.4,255c0,0,0.7,19.8-10.7,39.3"/>
	
		<path fill="#C69C6D" stroke="#000000" stroke-width="3.8774" stroke-linecap="round" stroke-linejoin="round" stroke-miterlimit="10" d="
		M-905.8,177.9c-34.6-3.3-70.9,45.5-77.3,96.2c-4,32.1-2.6,63.5,8.2,76.1c12.7,14.8,25.4,22.2,37.9,23.1
		c42.4,3,97.3-37.8,118.3-64.2c-8.7-4.7-17.4-21.9-12-48c-39.6,4.3-72.6,13.6-101.7,35.8"/>
	
		<path fill="#FFFFFF" stroke="#000000" stroke-width="3.8774" stroke-linecap="round" stroke-linejoin="round" stroke-miterlimit="10" d="
		M-784,236.2c-18.4-0.3-33.3,6.4-33.5,15l-0.9,55.7l66.5,1l0.9-55.7C-750.9,243.7-765.7,236.5-784,236.2z"/>
	
		<path fill="#C69C6D" stroke="#000000" stroke-width="3.8774" stroke-linecap="round" stroke-linejoin="round" stroke-miterlimit="10" d="
		M-840,257.8c-12.6,2.4-21.6,17.9-16.2,40.9c6.1,26,22.6,29,33.5,26.3c14.8-3.6,14.2-28.1,11.4-40
		C-816.7,262.5-827.4,255.3-840,257.8z"/>
	<polygon fill="#FCCA99" points="-756.7,272.4 -756.7,289.4 -738.9,289.4 -741.5,270.5 	"/>
	<polygon fill="#FCCA99" points="-815.9,277 -788.2,273.9 -783.8,303.5 -812.8,308.6 	"/>
	
		<path fill="#FCCA99" stroke="#000000" stroke-width="3.8774" stroke-linecap="round" stroke-linejoin="round" stroke-miterlimit="10" d="
		M-791.9,300.4c8.9-3.3,17.4-8.8,15.5-14.4c-1.9-5.6-12.6,1.9-17.8,3"/>
	
		<path fill="#FCCA99" stroke="#000000" stroke-width="3.8774" stroke-linecap="round" stroke-linejoin="round" stroke-miterlimit="10" d="
		M-794.4,289.2c8.2-1.6,17.6-6.6,14.1-12.5c-3.1-5.3-16,1.1-21.4,3"/>
	
		<path fill="#FCCA99" stroke="#000000" stroke-width="3.8774" stroke-linecap="round" stroke-linejoin="round" stroke-miterlimit="10" d="
		M-812.2,308.6c-12.4-2.6-16.9-11.9-18.4-21.3c-4.2-27.3,12.1-35.5,13.1-36.1c3.6-1.9,5.4,0.1,5.2,0.7c-0.7,2.4-6,2.9-5.4,14.6
		c0,10.3,28.9-6.4,33.2,2.7c2.3,4.9-5.6,8.2-12.9,9.8"/>
	
		<path fill="#FFFFFF" stroke="#000000" stroke-width="3.8774" stroke-linecap="round" stroke-linejoin="round" stroke-miterlimit="10" d="
		M-784,236.2c-18.4-0.3-33.3,6.4-33.5,15l-0.2,14.7"/>
	<g>
		
			<path fill="#C69C6D" stroke="#000000" stroke-width="3.8774" stroke-linecap="round" stroke-linejoin="round" stroke-miterlimit="10" d="
			M-862,212.1c-25,0-47-10.5-56-26.6c-3.5-6.2-1.3-14.1,5-17.6c6.2-3.5,14.1-1.3,17.6,5c3.7,6.7,16.4,13.4,33.4,13.4
			c17.5,0,30.5-7.2,33.7-14c3.1-6.4,10.8-9.1,17.3-6c6.4,3.1,9.1,10.8,6,17.3C-813.4,200.9-835.8,212.1-862,212.1z"/>
	</g>
	<g>
		<path fill="none" stroke="#936D47" stroke-width="3.8774" stroke-miterlimit="10" d="M-895,173.7c0,0-15.8,3-18.5,18.2"/>
		<path fill="none" stroke="#936D47" stroke-width="3.8774" stroke-miterlimit="10" d="M-901.8,201.7c0,0,2-14.2,15-21.2"/>
		<path fill="none" stroke="#936D47" stroke-width="3.8774" stroke-miterlimit="10" d="M-876.6,184.5c0,0-7,7.8-7.5,24.7"/>
		<path fill="none" stroke="#936D47" stroke-width="3.8774" stroke-miterlimit="10" d="M-864.5,212.1c0,0-0.5-12.9,1.3-25.9"/>
		<path fill="none" stroke="#936D47" stroke-width="3.8774" stroke-miterlimit="10" d="M-851.8,185.4c0,0,7,6.5,9.5,24.5"/>
		<path fill="none" stroke="#936D47" stroke-width="3.8774" stroke-miterlimit="10" d="M-838,181c0,0,11.9,5.2,14.2,21.8"/>
		<path fill="none" stroke="#936D47" stroke-width="3.8774" stroke-miterlimit="10" d="M-829.2,173.9c1.7-1,17.3,0.9,19.4,17.3"/>
	</g>
	<path fill="none" stroke="#936D47" stroke-width="3.8774" stroke-miterlimit="10" d="M-829.9,268.3c0,0-12-4.2-25.9,5"/>
	<path fill="none" stroke="#936D47" stroke-width="3.8774" stroke-miterlimit="10" d="M-831.2,281.3c0,0-12.3,0.7-26.3,9.9"/>
	<path fill="none" stroke="#936D47" stroke-width="3.8774" stroke-miterlimit="10" d="M-828.2,295.8c-0.8,2-11.5,8.6-25,12.1"/>
	<g>
		
			<path fill="none" stroke="#000000" stroke-width="3.8774" stroke-linecap="round" stroke-linejoin="round" stroke-miterlimit="10" d="
			M-862,212.1c-25,0-47-10.5-56-26.6c-3.5-6.2-1.3-14.1,5-17.6c6.2-3.5,14.1-1.3,17.6,5c3.7,6.7,16.4,13.4,33.4,13.4
			c17.5,0,30.5-7.2,33.7-14c3.1-6.4,10.8-9.1,17.3-6c6.4,3.1,9.1,10.8,6,17.3C-813.4,200.9-835.8,212.1-862,212.1z"/>
	</g>
	
		<path fill="#FCCA99" stroke="#000000" stroke-width="3.8774" stroke-linecap="round" stroke-linejoin="round" stroke-miterlimit="10" d="
		M-739.5,292.4c-7.6,2-25.4,2.8-25.4-4.7c0-5.2,6.9-5.1,10-5.6"/>
	
		<path fill="#FCCA99" stroke="#000000" stroke-width="3.8774" stroke-linecap="round" stroke-linejoin="round" stroke-miterlimit="10" d="
		M-751,284.2c-6.9,0.7-13.8-0.7-13.8-5.4c0-5.1,7.7-4.3,12.2-5.4"/>
	
		<path fill="#FCCA99" stroke="#000000" stroke-width="3.8774" stroke-linecap="round" stroke-linejoin="round" stroke-miterlimit="10" d="
		M-751.4,274.6c-5.3,1-13.5,1-14-4.1c-0.6-6.7,14.2-2.2,14.2-10.5c0-3.3,0.5-5.5-1.9-7.5c2.5-0.7,15.8,6.6,15.6,23.4
		c-0.1,6.2,0.7,13.3-6,18.2"/>
	
		<path fill="#6D2424" stroke="#000000" stroke-width="3.8774" stroke-linecap="round" stroke-linejoin="round" stroke-miterlimit="10" d="
		M-751,394.8c36.9-14,63.1-37.8,58.1-73.2c-5.6-13.4-11.4-21.3-24.5-27.7c-14.4-7-33.6-5-57.5,6"/>
	
		<path fill="#FFFFFF" stroke="#000000" stroke-width="3.8774" stroke-linecap="round" stroke-linejoin="round" stroke-miterlimit="10" d="
		M-784,236.2c18.4,0.3,33.1,7.4,33,16l-0.1,7.8"/>
	
		<ellipse transform="matrix(1.766651e-02 -0.9998 0.9998 1.766651e-02 -1021.4125 -537.0162)" fill="#3F4F03" cx="-784" cy="251.3" rx="8.4" ry="23.8"/>
	<path fill="none" stroke="#000000" stroke-width="5" stroke-linecap="round" stroke-linejoin="round" stroke-miterlimit="10" d="
		M-796.5,248.1c1.4-1.5,2.7-3.3,3.4-5.3c0.7-2,1.1-3.4,0.2-5.3c-0.9-2.1-0.5-2.2-3.7-5.1c-2.3-2.1-3.6-5.4-1.7-8.8"/>
	<path fill="none" stroke="#000000" stroke-width="5" stroke-linecap="round" stroke-linejoin="round" stroke-miterlimit="10" d="
		M-785.5,216.8c-2,1.9-3.1,4-3.1,6.8c0,2.3,1.5,4.3,3.1,5.9c1.6,1.6,3.4,3.2,4.2,5.3c0.8,2,0.6,4.2-0.1,6.2c-0.8,2-2.1,3.7-3.6,5.2"
		/>
	<path fill="none" stroke="#000000" stroke-width="5" stroke-linecap="round" stroke-linejoin="round" stroke-miterlimit="10" d="
		M-774.6,222.6c-1.1,2-1.6,5.3,1.3,8.8c1.4,1.8,3.1,3.4,3.8,5.6c0.6,2,0.3,4.2-0.6,6.2c-0.9,1.9-2.3,3.5-3.9,4.9"/>
	
		<path fill="none" stroke="#000000" stroke-width="3.8774" stroke-linecap="round" stroke-linejoin="round" stroke-miterlimit="10" d="
		M-812.2,308.6c-12.4-2.6-16.9-11.9-18.4-21.3c-2-13.3,0.8-22,4.3-27.6c-4.1-2.3-8.8-2.9-13.7-1.9c-12.6,2.4-21.6,17.9-16.2,40.9
		c6.1,26,22.6,29,33.5,26.3C-814,322.9-812.2,308.6-812.2,308.6z"/>
	
		<path fill="#FCCA99" stroke="#000000" stroke-width="3.8774" stroke-linecap="round" stroke-linejoin="round" stroke-miterlimit="10" d="
		M-743.8,421.5c0.1,22.4-10.2,37.6,0.4,46.3c12.4,10.2,45.2,7.5,51.6-0.8c6.6-8.6-2.9-17.3-10.3-17c2-15.1,5-32.6,5.3-38.1
		C-695.6,394.6-743.8,406.7-743.8,421.5z"/>
	
		<path fill="#FCCA99" stroke="#000000" stroke-width="3.8774" stroke-linecap="round" stroke-linejoin="round" stroke-miterlimit="10" d="
		M-795.8,437c1.6,22.3-2,36.5,8.9,42.5c11.9,6.6,39.8,4.7,48.5-3.1c8.4-7.5-1.1-17.1-8.6-16.4c0.5-12,1.8-34.5,1.9-40
		C-744.7,402.6-797.7,410.2-795.8,437z"/>
	
		<path fill="#6D2424" stroke="#000000" stroke-width="3.8774" stroke-linecap="round" stroke-linejoin="round" stroke-miterlimit="10" d="
		M-878.2,343.6c-25.8,20-34.1,31.5-58.6,29.6c-5.5,28.7,16.1,53,48.5,53.8c32.4,0.8,75.7-22,113.4-47.7c7.1-4.8,0-45.2,0-45.2"/>
	
		<path fill="#6D2424" stroke="#000000" stroke-width="3.8774" stroke-linecap="round" stroke-linejoin="round" stroke-miterlimit="10" d="
		M-693,321.6c7.9,18.9,18.4,91.9,0,113.4c-10.3,9.9-46.2,12.5-57,4.4c-19.9-19.3,2.1-93.2-4.3-108"/>
	
		<path fill="#6D2424" stroke="#000000" stroke-width="3.8774" stroke-linecap="round" stroke-linejoin="round" stroke-miterlimit="10" d="
		M-813.8,360.8c16.6,20.2-4.6,71.7,8.1,81.7c19.3,15.2,60.9,9.6,65.4-3.3c14.6-41.9,6.5-137.9-35.8-142.3
		c-44.2-4.7-78.5,31.1-102.1,46.8"/>
	
		<path fill="#DC9779" stroke="#000000" stroke-width="3.8774" stroke-linecap="round" stroke-linejoin="round" stroke-miterlimit="10" d="
		M307.4,174.2c20.4-17.7,92.9-9.3,105.5,57.8c5.9,31.4,6.6,81.2-3.1,124c-6.4,28.4-17.9,56.6-39,76.7c-24.5,23.4-53.3,30.7-87.2,29
		c-51.4-2.7-108.9-37.5-116.1-57.7c-7.2-20.3,37.1-157.6,44.7-171.9"/>
	
		<path fill="none" stroke="#964827" stroke-width="3.8774" stroke-linecap="round" stroke-linejoin="round" stroke-miterlimit="10" d="
		M358.9,254c5.9-11.6,15.1-21.6,26.2-28.4"/>
	
		<path fill="none" stroke="#964827" stroke-width="3.8774" stroke-linecap="round" stroke-linejoin="round" stroke-miterlimit="10" d="
		M358.9,223.5c3.5-7.5,7.9-14.6,13.1-21.1"/>
	
		<path fill="none" stroke="#964827" stroke-width="3.8774" stroke-linecap="round" stroke-linejoin="round" stroke-miterlimit="10" d="
		M298.9,413c8.6,0.7,19.7,4.1,28.7,22.9"/>
	
		<path fill="none" stroke="#964827" stroke-width="3.8774" stroke-linecap="round" stroke-linejoin="round" stroke-miterlimit="10" d="
		M309.7,406.2c8.5-2.3,20.9-4.6,37.8,7.7"/>
	<g>
		<path fill="#42210B" d="M287.7,166.6c-1.9,0-3.4-1.4-3.5-3.2c-0.4-5-0.8-18.6,2.3-37.4l1.2-31.9l-23.9,1.8c-0.1,0-0.2,0-0.3,0
			l-22.4-0.6c-4,7.4-9.4,15.3-14.1,22.4c-5.8,8.7-11.3,16.9-12.9,21.8c-0.5,1.4-1.8,2.4-3.3,2.4c-1.2,0-2.2-0.6-2.9-1.5
			c-2.6-3.8-6.9-11.4-7.8-20.6c-0.6,0.8-1.6,1.3-2.8,1.3c-1.9,0-3.4-1.4-3.5-3.3c-0.9-14,1.2-26.6,3.2-35c-0.3,0.1-0.5,0.1-0.8,0.1
			c-1,0-2.1-0.5-2.7-1.3c-0.7-0.8-0.9-1.8-0.7-2.9c1.3-6.8,5.1-19.1,16.2-27.3c-0.4,0-0.9,0-1.3,0c-1.4,0-2.7,0.1-3.9,0.4
			c-0.3,0.1-0.6,0.1-0.9,0.1c-1.3,0-2.5-0.8-3.1-2c-0.6-1.2-0.5-2.6,0.3-3.7c5.1-6.7,13-15,21.6-16.5c-0.9-2.6-2.1-7.1-1.8-11.5
			c0.2-1.8,1.7-3.2,3.5-3.2c1,0,2,0.4,2.6,1.2c1.9,2.1,5,4.7,9.5,4.7c0.6,0,1.2,0,1.8-0.1l0.7-0.1c4.1-0.6,10.3-1.5,17-1.5
			c13.7,0,23.4,3.9,28.9,11.5c1.2-0.1,3.5-0.3,6.5-0.3c11.1,0,31.4,2.8,42.2,21.4c0.6,1.1,0.6,2.4,0,3.5c-0.6,1.1-1.8,1.8-3,1.8
			c-0.5,0-1.1-0.1-1.6-0.4c-1.5-0.7-2.9-1.4-4.2-1.8c6.5,5.9,15.7,17,14,32.6c0,0.1,0,0.3-0.1,0.4c-0.1,1.1-0.3,2.2-0.4,2.6
			c-1.2,7.2-3,13.1-4.5,18.3c-2.8,9.4-4.7,15.5-1.3,22.5c0.5,1.1,0.5,2.4-0.2,3.4c-0.6,1-1.8,1.7-3,1.7c-0.5,0-0.9-0.1-1.3-0.3
			c-3.7-1.5-6.6-3.1-8.5-4.8c-1.4,5.5-3.3,15.4-2.4,23.5c0.1,1-0.2,2-0.9,2.7c-0.7,0.8-1.6,1.2-2.6,1.2c-0.7,0-1.4-0.2-2-0.6
			c-1.9-1.3-4.3-3.5-5.7-6.3c-2.6,3.8-7.9,10.2-15.6,14.5C288.9,166.4,288.3,166.6,287.7,166.6z"/>
		<path d="M223.5,17c0.4,0,0.9,0.2,1.2,0.5c2,2.3,5.7,5.4,10.9,5.4c0.7,0,1.3,0,2.1-0.2c4-0.6,10.5-1.6,17.4-1.6
			c10.1,0,21.3,2.1,27.4,10.8c0.3,0.4,0.8,0.7,1.3,0.7c0.1,0,0.1,0,0.2,0c1.2-0.1,3.5-0.3,6.5-0.3c10.7,0,30.2,2.6,40.5,20.5
			c0.6,1.1-0.2,2.4-1.4,2.4c-0.2,0-0.5-0.1-0.7-0.2c-1.8-0.9-4-1.9-6.3-2.5c-0.2,0-0.3-0.1-0.4-0.1c-1.4,0-2.1,1.8-1,2.8
			c6.2,5.2,16.4,16.3,14.7,32.1c0,0.1,0,0.1-0.1,0.2c-0.1,1.1-0.3,2.3-0.4,2.7c-3.3,20.1-11.4,30.2-5.6,41.9
			c0.5,1.1-0.3,2.3-1.4,2.3c-0.2,0-0.4,0-0.6-0.1c-2.8-1.1-6.3-2.8-8.3-4.9c-0.3-0.3-0.7-0.5-1.1-0.5c-0.7,0-1.3,0.4-1.5,1.2
			c-1.3,5.4-3.6,16.1-2.6,24.8c0.1,1-0.7,1.7-1.6,1.7c-0.3,0-0.6-0.1-0.9-0.3c-1.9-1.3-4.2-3.4-5.3-6c-0.3-0.6-0.9-1-1.5-1
			c-0.5,0-1,0.2-1.3,0.7c-2.6,3.8-7.7,10.2-15.3,14.4c-0.3,0.1-0.5,0.2-0.8,0.2c-0.8,0-1.5-0.6-1.6-1.4c-0.4-5.1-0.8-18.4,2.3-36.9
			c0-0.1,0-0.1,0-0.2l1.3-34.2l-26,1.9c0,0-0.1,0-0.1,0c0,0,0,0,0,0L240,93.2c-8.8,16.5-24.7,36-27.8,45.5c-0.2,0.7-0.9,1.1-1.5,1.1
			c-0.5,0-1-0.2-1.3-0.7c-2.7-4-7-11.7-7.5-20.9c-0.1-1-0.8-1.5-1.6-1.5c-0.6,0-1.2,0.3-1.4,1c0,0.1-0.1,0.1-0.1,0.2
			c-0.3,0.7-0.9,1-1.5,1c-0.8,0-1.5-0.5-1.6-1.5c-1-15.5,1.7-30,4.6-40c-1,0.8-2,1.7-3.1,2.8c-0.3,0.3-0.7,0.5-1.1,0.5
			c-0.9,0-1.8-0.8-1.6-1.9c1.3-7,5.2-19,16.2-26.6c1.2-0.8,0.8-2.7-0.7-2.9c-0.8-0.1-1.6-0.1-2.5-0.1c-1.4,0-2.9,0.1-4.3,0.5
			c-0.1,0-0.3,0.1-0.4,0.1c-1.2,0-2-1.5-1.2-2.5c4.7-6.2,12.5-14.6,20.7-15.8c1-0.1,1.6-1.1,1.3-2.1c-0.9-2.5-2.2-6.9-1.8-11.1
			C222,17.5,222.7,17,223.5,17 M223.5,13.1c-2.9,0-5.2,2.1-5.4,4.9c-0.3,3.6,0.4,7.3,1.2,10.3c-8.3,2.4-15.7,10.3-20.6,16.7
			c-1.3,1.7-1.5,3.8-0.5,5.7c0.9,1.9,2.8,3,4.8,3c0.1,0,0.2,0,0.2,0C195,62,192,72.3,190.8,78.3c-0.3,1.6,0.1,3.2,1.1,4.5
			c0.7,0.8,1.6,1.4,2.6,1.8c-1.9,8.4-3.6,20.3-2.7,33.3c0.2,2.9,2.5,5.1,5.5,5.1c0.4,0,0.8,0,1.2-0.1c1.4,8.3,5.3,15.1,7.7,18.6
			c1,1.5,2.7,2.4,4.5,2.4c2.4,0,4.4-1.5,5.2-3.8c1.5-4.6,6.9-12.7,12.7-21.3c4.6-6.8,9.7-14.4,13.6-21.5l21.1,0.6c0,0,0.1,0,0.1,0
			c0.1,0,0.3,0,0.4,0l21.7-1.6l-1.1,29.7c-3.2,18.9-2.7,32.6-2.3,37.7c0.2,2.8,2.6,5,5.4,5c0.9,0,1.9-0.2,2.7-0.7
			c6.5-3.6,11.2-8.5,14.5-12.7c1.2,1.6,2.8,3.1,4.7,4.4c0.9,0.7,2,1,3.1,1c1.6,0,3-0.7,4.1-1.8c1-1.1,1.5-2.7,1.3-4.2
			c-0.7-6.5,0.5-14.4,1.7-19.9c1.8,1.2,4,2.3,6.5,3.3c0.7,0.3,1.4,0.4,2.1,0.4c1.9,0,3.6-1,4.6-2.6c1-1.6,1.1-3.6,0.3-5.3
			c-3.1-6.2-1.3-12.1,1.4-21c1.6-5.2,3.4-11.2,4.6-18.6c0.1-0.4,0.2-1.4,0.4-2.6c0-0.1,0.1-0.3,0.1-0.5c1.3-12.4-3.8-22.1-9.3-28.7
			c1.6-0.3,3.1-1.2,3.9-2.7c1-1.7,1-3.7,0-5.4c-11.2-19.5-32.3-22.4-43.9-22.4c-2.3,0-4.2,0.1-5.6,0.2c-5.9-7.5-15.9-11.4-29.8-11.4
			c-6.8,0-13.1,0.9-17.3,1.5l-0.7,0.1c-0.5,0.1-1,0.1-1.5,0.1c-3.7,0-6.4-2.2-8-4C226.5,13.8,225,13.1,223.5,13.1L223.5,13.1z"/>
	</g>
	<polygon fill="#C69C6D" points="331.6,196.2 355.8,313.2 264,313.2 203.2,203.6 305.8,185.9 	"/>
	
		<path fill="#C69C6D" stroke="#000000" stroke-width="3.8774" stroke-linecap="round" stroke-linejoin="round" stroke-miterlimit="10" d="
		M207.8,178.4c0,0-70,15.8-46.3,124.7s135.6,35.4,135.6,35.4"/>
	<g>
		<path fill="#EAB48F" d="M259.3,197.7c-6.7,0-13.6-0.9-20.5-2.8c-0.5-0.1-0.9-0.4-1.1-0.8c-4.5-6.9-6.1-17.2-7.6-27.1
			c-0.8-5.3-1.6-10.3-2.7-14.5c-0.1-0.3-0.1-0.6,0-0.9c1.7-8,31.3-24.2,37.3-27.4c0.7-0.4,19.6-11.4,29.7-11.4c3,0,5.1,0.9,6.3,2.7
			c1.5,2.2,1.6,5.3,0.1,9.6c-10.6,30.5-7.4,61-7.3,61.3c0.1,0.7-0.2,1.3-0.7,1.7C292.1,188.6,280.2,197.7,259.3,197.7
			C259.3,197.7,259.3,197.7,259.3,197.7z"/>
		<path d="M294.3,114.8c4.6,0,7.1,2.5,4.6,9.7c-10.9,31.3-7.4,62.2-7.4,62.2s-11.6,9.1-32.1,9.1c-5.9,0-12.6-0.8-20-2.7
			c-6.7-10.1-6.7-28.8-10-41.1c1.6-7.5,36.3-26,36.3-26S284.5,114.8,294.3,114.8 M294.3,110.9c-10.4,0-28.3,10.3-30.7,11.6
			c-0.9,0.5-9.1,4.9-17.7,10.3c-16.9,10.6-19.8,15.2-20.5,18.3c-0.1,0.6-0.1,1.2,0.1,1.8c1.1,4.1,1.9,9,2.7,14.3
			c1.5,10.1,3.1,20.6,7.9,27.9c0.5,0.8,1.3,1.4,2.2,1.6c7.1,1.9,14.2,2.9,21,2.9c21.6,0,34-9.5,34.5-9.9c1.1-0.8,1.6-2.1,1.5-3.5
			c0-0.3-3.2-30.4,7.2-60.5c1.7-5,1.6-8.7-0.3-11.4C301.1,112.8,298.8,110.9,294.3,110.9L294.3,110.9z"/>
	</g>
	<path fill="#42210B" d="M252,93.3c18.6-1,39.5-16.2,39.5-16.2c-3.2,10.8,7.6,22.6,3.6,46.6"/>
	
		<path fill="#FCCA99" stroke="#000000" stroke-width="3.8774" stroke-linecap="round" stroke-linejoin="round" stroke-miterlimit="10" d="
		M292.7,130.1c0,0-1,3.9-2.8,8.8c-2.7,7.3-8,13.3-15,16.7c-11.1,5.4-27,10-35.4,8.9c-12.4-1.8-16.6-6.8-17.7-8.5
		c-17.9-28-8.1-82.1-4.7-89.2c5.8-12.2,11.8-27.4,32.7-26.3c68.1,3.5,53.4,53.2,52.1,55.2c2.6-2.6,6.6-3.9,9.5-1
		c5.2,6-0.6,20.9-3.2,24.4C305,123.4,299.5,128.9,292.7,130.1z"/>
	
		<path fill="none" stroke="#000000" stroke-width="3.8774" stroke-linecap="round" stroke-linejoin="round" stroke-miterlimit="10" d="
		M254.2,101.5c0,0,7.2-5.7,14.4,1.2"/>
	
		<path fill="none" stroke="#000000" stroke-width="3.8774" stroke-linecap="round" stroke-linejoin="round" stroke-miterlimit="10" d="
		M219.1,97.3c3.2-3.4,9.7-2.2,12.3,1.1"/>
	
		<path fill="none" stroke="#D87B68" stroke-width="3.8774" stroke-linecap="round" stroke-linejoin="round" stroke-miterlimit="10" d="
		M254.4,135.2c-10.2,10.2-25.9,5.5-30.6-2"/>
	
		<path fill="none" stroke="#C6896B" stroke-width="3.8774" stroke-linecap="round" stroke-linejoin="round" stroke-miterlimit="10" d="
		M239.6,101.3c0,0-2.7,10.2-6.7,18.2c-0.8,1.7,0.2,3.7,2,3.9c4.5,0.7,9.9-0.4,9.9-0.4"/>
	
		<path fill="#160600" stroke="#160600" stroke-width="2.5849" stroke-linecap="round" stroke-linejoin="round" stroke-miterlimit="10" d="
		M252.4,87.1c0,0,15.9-4.6,24.1,7.4c-9.9-7.8-24.1-4.3-24.1-4.3L252.4,87.1z"/>
	
		<path fill="#160600" stroke="#160600" stroke-width="2.5849" stroke-linecap="round" stroke-linejoin="round" stroke-miterlimit="10" d="
		M235.6,85.6c0,0-12.2-5.3-20.8,1.8c8.8-3.6,20.1,1.4,20.1,1.4L235.6,85.6z"/>
	<path fill="#42210B" d="M282,38.1c-48-15.8-73.2,1.3-72.5,47.6c0,0,0,0,0,0c2.3-6.5,8.3-30.7,32.2-33.2c10.6-1.1,26.8,1.1,35.2,5.2
		c6.8,3.3,16.6,12.6,17.9,24.7s-0.2,18.2-1.2,23.2c-0.4,1.9,1.9,3.2,3.3,1.9c2.9-2.7,6.9-8,10.9-18.5
		C313.2,74.9,316.4,49.4,282,38.1z"/>
	
		<path fill="none" stroke="#000000" stroke-width="3.8774" stroke-linecap="round" stroke-linejoin="round" stroke-miterlimit="10" d="
		M307.4,255.5c0,0-0.7,19.8,10.7,39.3"/>
	
		<path fill="#C69C6D" stroke="#000000" stroke-width="3.8774" stroke-linecap="round" stroke-linejoin="round" stroke-miterlimit="10" d="
		M305.8,178.4c34.6-3.3,70.9,45.5,77.3,96.2c4,32.1,2.6,63.5-8.2,76.1c-12.7,14.8-25.4,22.2-37.9,23.1c-42.4,3-97.3-37.8-118.3-64.2
		c8.7-4.7,17.4-21.9,12-48c39.6,4.3,72.6,13.6,101.7,35.8"/>
	
		<path fill="#FFFFFF" stroke="#000000" stroke-width="3.8774" stroke-linecap="round" stroke-linejoin="round" stroke-miterlimit="10" d="
		M184,236.7c18.4-0.3,33.3,6.4,33.5,15l0.9,55.7l-66.5,1l-0.9-55.7C150.9,244.1,165.7,237,184,236.7z"/>
	
		<path fill="#C69C6D" stroke="#000000" stroke-width="3.8774" stroke-linecap="round" stroke-linejoin="round" stroke-miterlimit="10" d="
		M240,258.2c12.6,2.4,21.6,17.9,16.2,40.9c-6.1,26-22.6,29-33.5,26.3c-14.8-3.6-14.2-28.1-11.4-40
		C216.7,262.9,227.4,255.8,240,258.2z"/>
	<polygon fill="#FCCA99" points="156.7,272.9 156.7,289.9 138.9,289.9 141.5,271 	"/>
	<polygon fill="#FCCA99" points="215.9,277.5 188.2,274.4 183.8,304 212.8,309 	"/>
	
		<path fill="#FCCA99" stroke="#000000" stroke-width="3.8774" stroke-linecap="round" stroke-linejoin="round" stroke-miterlimit="10" d="
		M191.9,300.9c-8.9-3.3-17.4-8.8-15.5-14.4c1.9-5.6,12.6,1.9,17.8,3"/>
	
		<path fill="#FCCA99" stroke="#000000" stroke-width="3.8774" stroke-linecap="round" stroke-linejoin="round" stroke-miterlimit="10" d="
		M194.4,289.7c-8.2-1.6-17.6-6.6-14.1-12.5c3.1-5.3,16,1.1,21.4,3"/>
	
		<path fill="#FCCA99" stroke="#000000" stroke-width="3.8774" stroke-linecap="round" stroke-linejoin="round" stroke-miterlimit="10" d="
		M212.2,309c12.4-2.6,16.9-11.9,18.4-21.3c4.2-27.3-12.1-35.5-13.1-36.1c-3.6-1.9-5.4,0.1-5.2,0.7c0.7,2.4,6,2.9,5.4,14.6
		c0,10.3-28.9-6.4-33.2,2.7c-2.3,4.9,5.6,8.2,12.9,9.8"/>
	
		<path fill="#FFFFFF" stroke="#000000" stroke-width="3.8774" stroke-linecap="round" stroke-linejoin="round" stroke-miterlimit="10" d="
		M184,236.7c18.4-0.3,33.3,6.4,33.5,15l0.2,14.7"/>
	<g>
		
			<path fill="#C69C6D" stroke="#000000" stroke-width="3.8774" stroke-linecap="round" stroke-linejoin="round" stroke-miterlimit="10" d="
			M262,212.6c25,0,47-10.5,56-26.6c3.5-6.2,1.3-14.1-5-17.6c-6.2-3.5-14.1-1.3-17.6,5c-3.7,6.7-16.4,13.4-33.4,13.4
			c-17.5,0-30.5-7.2-33.7-14c-3.1-6.4-10.8-9.1-17.3-6c-6.4,3.1-9.1,10.8-6,17.3C213.4,201.4,235.8,212.6,262,212.6z"/>
	</g>
	<g>
		<path fill="none" stroke="#936D47" stroke-width="3.8774" stroke-miterlimit="10" d="M295,174.2c0,0,15.8,3,18.5,18.2"/>
		<path fill="none" stroke="#936D47" stroke-width="3.8774" stroke-miterlimit="10" d="M301.8,202.2c0,0-2-14.2-15-21.2"/>
		<path fill="none" stroke="#936D47" stroke-width="3.8774" stroke-miterlimit="10" d="M276.6,185c0,0,7,7.8,7.5,24.7"/>
		<path fill="none" stroke="#936D47" stroke-width="3.8774" stroke-miterlimit="10" d="M264.5,212.6c0,0,0.5-12.9-1.3-25.9"/>
		<path fill="none" stroke="#936D47" stroke-width="3.8774" stroke-miterlimit="10" d="M251.8,185.9c0,0-7,6.5-9.5,24.5"/>
		<path fill="none" stroke="#936D47" stroke-width="3.8774" stroke-miterlimit="10" d="M238,181.4c0,0-11.9,5.2-14.2,21.8"/>
		<path fill="none" stroke="#936D47" stroke-width="3.8774" stroke-miterlimit="10" d="M229.2,174.3c-1.7-1-17.3,0.9-19.4,17.3"/>
	</g>
	<path fill="none" stroke="#936D47" stroke-width="3.8774" stroke-miterlimit="10" d="M229.9,268.7c0,0,12-4.2,25.9,5"/>
	<path fill="none" stroke="#936D47" stroke-width="3.8774" stroke-miterlimit="10" d="M231.2,281.8c0,0,12.3,0.7,26.3,9.9"/>
	<path fill="none" stroke="#936D47" stroke-width="3.8774" stroke-miterlimit="10" d="M228.2,296.2c0.8,2,11.5,8.6,25,12.1"/>
	<g>
		
			<path fill="none" stroke="#000000" stroke-width="3.8774" stroke-linecap="round" stroke-linejoin="round" stroke-miterlimit="10" d="
			M262,212.6c25,0,47-10.5,56-26.6c3.5-6.2,1.3-14.1-5-17.6c-6.2-3.5-14.1-1.3-17.6,5c-3.7,6.7-16.4,13.4-33.4,13.4
			c-17.5,0-30.5-7.2-33.7-14c-3.1-6.4-10.8-9.1-17.3-6c-6.4,3.1-9.1,10.8-6,17.3C213.4,201.4,235.8,212.6,262,212.6z"/>
	</g>
	
		<path fill="#FCCA99" stroke="#000000" stroke-width="3.8774" stroke-linecap="round" stroke-linejoin="round" stroke-miterlimit="10" d="
		M139.5,292.9c7.6,2,25.4,2.8,25.4-4.7c0-5.2-6.9-5.1-10-5.6"/>
	
		<path fill="#FCCA99" stroke="#000000" stroke-width="3.8774" stroke-linecap="round" stroke-linejoin="round" stroke-miterlimit="10" d="
		M151,284.7c6.9,0.7,13.8-0.7,13.8-5.4c0-5.1-7.7-4.3-12.2-5.4"/>
	
		<path fill="#FCCA99" stroke="#000000" stroke-width="3.8774" stroke-linecap="round" stroke-linejoin="round" stroke-miterlimit="10" d="
		M151.4,275.1c5.3,1,13.5,1,14-4.1c0.6-6.7-14.2-2.2-14.2-10.5c0-3.3-0.5-5.5,1.9-7.5c-2.5-0.7-15.8,6.6-15.6,23.4
		c0.1,6.2-0.7,13.3,6,18.2"/>
	
		<path fill="#6D2424" stroke="#000000" stroke-width="3.8774" stroke-linecap="round" stroke-linejoin="round" stroke-miterlimit="10" d="
		M151,395.3c-36.9-14-63.1-37.8-58.1-73.2c5.6-13.4,11.4-21.3,24.5-27.7c14.4-7,33.6-5,57.5,6"/>
	
		<path fill="#FFFFFF" stroke="#000000" stroke-width="3.8774" stroke-linecap="round" stroke-linejoin="round" stroke-miterlimit="10" d="
		M184,236.7c-18.4,0.3-33.1,7.4-33,16l0.1,7.8"/>
	
		<ellipse transform="matrix(0.9998 -1.766651e-02 1.766651e-02 0.9998 -4.4194 3.2899)" fill="#3F4F03" cx="184" cy="251.8" rx="23.8" ry="8.4"/>
	<path fill="none" stroke="#000000" stroke-width="5" stroke-linecap="round" stroke-linejoin="round" stroke-miterlimit="10" d="
		M196.5,248.6c-1.4-1.5-2.7-3.3-3.4-5.3c-0.7-2-1.1-3.4-0.2-5.3c0.9-2.1,0.5-2.2,3.7-5.1c2.3-2.1,3.6-5.4,1.7-8.8"/>
	<path fill="none" stroke="#000000" stroke-width="5" stroke-linecap="round" stroke-linejoin="round" stroke-miterlimit="10" d="
		M185.5,217.3c2,1.9,3.1,4,3.1,6.8c0,2.3-1.5,4.3-3.1,5.9s-3.4,3.2-4.2,5.3c-0.8,2-0.6,4.2,0.1,6.2c0.8,2,2.1,3.7,3.6,5.2"/>
	<path fill="none" stroke="#000000" stroke-width="5" stroke-linecap="round" stroke-linejoin="round" stroke-miterlimit="10" d="
		M174.6,223.1c1.1,2,1.6,5.3-1.3,8.8c-1.4,1.8-3.1,3.4-3.8,5.6c-0.6,2-0.3,4.2,0.6,6.2c0.9,1.9,2.3,3.5,3.9,4.9"/>
	
		<path fill="none" stroke="#000000" stroke-width="3.8774" stroke-linecap="round" stroke-linejoin="round" stroke-miterlimit="10" d="
		M212.2,309c12.4-2.6,16.9-11.9,18.4-21.3c2-13.3-0.8-22-4.3-27.6c4.1-2.3,8.8-2.9,13.7-1.9c12.6,2.4,21.6,17.9,16.2,40.9
		c-6.1,26-22.6,29-33.5,26.3C214,323.4,212.2,309,212.2,309z"/>
	
		<path fill="#FCCA99" stroke="#000000" stroke-width="3.8774" stroke-linecap="round" stroke-linejoin="round" stroke-miterlimit="10" d="
		M143.8,422c-0.1,22.4,10.2,37.6-0.4,46.3c-12.4,10.2-45.2,7.5-51.6-0.8c-6.6-8.6,2.9-17.3,10.3-17c-2-15.1-5-32.6-5.3-38.1
		C95.6,395.1,143.8,407.2,143.8,422z"/>
	
		<path fill="#FCCA99" stroke="#000000" stroke-width="3.8774" stroke-linecap="round" stroke-linejoin="round" stroke-miterlimit="10" d="
		M195.8,437.5c-1.6,22.3,2,36.5-8.9,42.5c-11.9,6.6-39.8,4.7-48.5-3.1c-8.4-7.5,1.1-17.1,8.6-16.4c-0.5-12-1.8-34.5-1.9-40
		C144.7,403.1,197.7,410.7,195.8,437.5z"/>
	
		<path fill="#6D2424" stroke="#000000" stroke-width="3.8774" stroke-linecap="round" stroke-linejoin="round" stroke-miterlimit="10" d="
		M278.2,344.1c25.8,20,34.1,31.5,58.6,29.6c5.5,28.7-16.1,53-48.5,53.8c-32.4,0.8-75.7-22-113.4-47.7c-7.1-4.8,0-45.2,0-45.2"/>
	
		<path fill="#6D2424" stroke="#000000" stroke-width="3.8774" stroke-linecap="round" stroke-linejoin="round" stroke-miterlimit="10" d="
		M93,322.1c-7.9,18.9-18.4,91.9,0,113.4c10.3,9.9,46.2,12.5,57,4.4c19.9-19.3-2.1-93.2,4.3-108"/>
	
		<path fill="#6D2424" stroke="#000000" stroke-width="3.8774" stroke-linecap="round" stroke-linejoin="round" stroke-miterlimit="10" d="
		M213.8,361.3c-16.6,20.2,4.6,71.7-8.1,81.7c-19.3,15.2-60.9,9.6-65.4-3.3c-14.6-41.9-6.5-137.9,35.8-142.3
		c44.2-4.7,78.5,31.1,102.1,46.8"/>
	
		<path fill="none" stroke="#964827" stroke-width="3.8774" stroke-linecap="round" stroke-linejoin="round" stroke-miterlimit="10" d="
		M-402.7,802c-5.9-11.6-15.1-21.6-26.2-28.4"/>
	
		<path fill="none" stroke="#964827" stroke-width="3.8774" stroke-linecap="round" stroke-linejoin="round" stroke-miterlimit="10" d="
		M-402.7,771.5c-3.5-7.5-7.9-14.6-13.1-21.1"/>
	
		<path fill="none" stroke="#964827" stroke-width="3.8774" stroke-linecap="round" stroke-linejoin="round" stroke-miterlimit="10" d="
		M-342.8,961c-8.6,0.7-19.7,4.1-28.7,22.9"/>
	
		<path fill="none" stroke="#964827" stroke-width="3.8774" stroke-linecap="round" stroke-linejoin="round" stroke-miterlimit="10" d="
		M-353.5,954.3c-8.5-2.3-20.9-4.6-37.8,7.7"/>
	<g>
		<path fill="#42210B" d="M-333.1,711.4c-0.7,0-1.4-0.2-2-0.6c-7.3-4.9-11.9-11.8-14.2-15.8c-1.7,2.7-4.3,4.6-6.3,5.7
			c-0.5,0.3-1.1,0.5-1.8,0.5c-1,0-2.1-0.5-2.7-1.3c-0.7-0.8-0.9-1.9-0.7-2.9c1.6-8,0.6-18-0.3-23.6c-2,1.5-5,2.9-8.9,4.1
			c-0.3,0.1-0.7,0.2-1,0.2c-1.2,0-2.4-0.7-3-1.8c-0.6-1.1-0.6-2.5,0.1-3.6c4-6.6,2.7-12.9,0.7-22.5c-1.1-5.3-2.4-11.3-2.9-18.6
			c-0.1-1-0.1-1.9-0.1-2.6c0-0.1,0-0.2,0-0.4c-0.3-15.7,9.8-26,16.8-31.3c-1.4,0.4-2.8,0.8-4.4,1.5c-0.4,0.2-0.9,0.3-1.3,0.3
			c-1.3,0-2.5-0.7-3.1-1.9c-0.6-1.2-0.5-2.5,0.2-3.6c10.4-14.8,26.4-17.9,38-17.9c5.8,0,10.4,0.8,12.3,1.2c5.2-6.1,13.3-9.1,24-9.1
			c8.8,0,17.4,2,22.5,3.3l0.7,0.2c0.9,0.2,1.9,0.3,2.8,0.3c4,0,7-2.1,8.8-3.9c0.7-0.6,1.5-1,2.4-1c0.9,0,1.9,0.4,2.5,1
			c0.6,0.6,1,1.5,1,2.4c0,4.4-1.7,8.8-2.8,11.3c8.4,2.3,15.5,11.2,20,18.4c0.7,1.1,0.7,2.4,0.1,3.6c-0.6,1.1-1.8,1.8-3,1.8
			c-0.4,0-0.8-0.1-1.2-0.2c-1.5-0.5-3.2-0.8-5.1-0.9c10.4,9.1,13.1,21.7,13.8,28.6c0.1,1-0.2,2-0.9,2.7c-0.7,0.7-1.6,1.2-2.6,1.2
			c0,0,0,0,0,0c-0.4,0-0.8-0.1-1.1-0.2c1.3,8.5,2.2,21.2,0.1,35.1c-0.3,1.7-1.7,3-3.5,3c-1.2,0-2.3-0.6-2.9-1.6
			c-1.6,9.2-6.6,16.3-9.6,19.9c-0.7,0.8-1.7,1.3-2.7,1.3c-1.6,0-3.1-1.1-3.4-2.7c-1.1-5-5.9-13.7-11-22.8
			c-4.1-7.5-8.8-15.9-12.1-23.6l-22.3-1.4c-0.1,0-0.2,0-0.4,0l-23.6-3.8l-1.7,32c1.5,18.9-0.2,32.4-1,37.4
			C-329.9,710.1-331.4,711.4-333.1,711.4z"/>
		<path d="M-256.4,568c0.8,0,1.6,0.6,1.6,1.5c0,4.2-1.7,8.5-2.8,10.9c-0.4,0.9,0.1,1.9,1.1,2.2c8.1,1.9,15.1,11.1,19.3,17.6
			c0.7,1.1-0.2,2.4-1.3,2.4c-0.2,0-0.3,0-0.5-0.1c-2.2-0.8-4.5-1-6.4-1c-0.1,0-0.3,0-0.4,0c-1.5,0-2.1,1.9-0.9,2.8
			c10.3,8.6,13.1,20.8,13.8,27.9c0.1,1-0.7,1.7-1.6,1.7c-0.4,0-0.9-0.2-1.2-0.6c-1-1.2-1.9-2.2-2.8-3c2.1,10.2,3.5,24.9,1.1,40.2
			c-0.1,0.9-0.9,1.3-1.6,1.3c-0.7,0-1.3-0.4-1.5-1.2c0-0.1,0-0.2-0.1-0.2c-0.2-0.8-0.8-1.2-1.5-1.2c-0.7,0-1.5,0.5-1.6,1.4
			c-1.3,9.2-6.3,16.4-9.3,20.2c-0.3,0.4-0.8,0.6-1.2,0.6c-0.7,0-1.4-0.4-1.5-1.2c-2.2-9.8-16.4-30.6-23.6-47.8l-23.5-1.5
			c-0.1,0-0.1,0-0.2,0l-25.7-4.2l-1.8,34.1c0,0.1,0,0.1,0,0.2c1.5,18.7-0.1,31.9-1,37c-0.1,0.8-0.8,1.3-1.6,1.3
			c-0.3,0-0.6-0.1-0.9-0.3c-7.2-4.9-11.7-11.7-14-15.7c-0.3-0.5-0.8-0.8-1.3-0.8c-0.5,0-1.1,0.3-1.4,0.8c-1.4,2.5-3.8,4.4-5.8,5.5
			c-0.3,0.1-0.5,0.2-0.8,0.2c-0.9,0-1.8-0.8-1.5-1.9c1.8-8.6,0.5-19.5-0.4-24.9c-0.1-0.8-0.8-1.3-1.6-1.3c-0.3,0-0.7,0.1-1,0.4
			c-2.2,1.9-5.9,3.2-8.7,4.1c-0.2,0-0.3,0.1-0.5,0.1c-1.2,0-2-1.3-1.3-2.4c6.8-11.2-0.4-21.9-1.9-42.3c0-0.4-0.1-1.6-0.1-2.7
			c0-0.1,0-0.1,0-0.2c-0.3-15.9,10.8-26,17.4-30.7c1.3-0.9,0.6-2.9-0.9-2.9c-0.1,0-0.2,0-0.3,0c-2.3,0.4-4.6,1.2-6.5,2
			c-0.2,0.1-0.4,0.1-0.6,0.1c-1.2,0-2.1-1.4-1.3-2.5c9.9-14.2,25.4-17.1,36.5-17.1c5.8,0,10.3,0.8,12.2,1.2c0.1,0,0.2,0,0.3,0
			c0.5,0,0.9-0.2,1.2-0.6c5.6-6.6,14.2-8.6,22.7-8.6c9,0,17.9,2.2,22.8,3.4c1.1,0.3,2.2,0.4,3.2,0.4c4.6,0,8.1-2.4,10.2-4.4
			C-257.1,568.2-256.8,568-256.4,568 M-256.4,564.1C-256.4,564.1-256.4,564.1-256.4,564.1c-1.4,0-2.7,0.5-3.8,1.5
			c-1.6,1.5-4.2,3.3-7.5,3.3c-0.8,0-1.5-0.1-2.3-0.3l-0.7-0.2c-5.2-1.2-14-3.3-23-3.3c-10.8,0-19.2,3-24.7,9c-2.5-0.5-6.6-1-11.6-1
			c-12.1,0-28.8,3.2-39.6,18.7c-1.2,1.7-1.3,3.8-0.4,5.6c0.7,1.4,2,2.4,3.5,2.8c-6.1,6.1-12,15.4-11.8,27.8c0,0.2,0,0.4,0,0.5
			c0,1.2,0.1,2.2,0.1,2.6c0.6,7.4,1.8,13.5,2.9,18.9c1.9,9.1,3.1,15.1-0.5,21.1c-1,1.7-1.1,3.8-0.1,5.5c1,1.7,2.8,2.8,4.7,2.8
			c0.5,0,1.1-0.1,1.6-0.2c2.7-0.8,4.9-1.7,6.8-2.7c0.7,5.6,1.2,13.6-0.1,20c-0.3,1.6,0.1,3.2,1.1,4.5c1,1.3,2.6,2,4.2,2
			c1,0,1.9-0.3,2.7-0.7c2-1.2,3.7-2.5,5.1-4c2.9,4.5,7.2,9.8,13.3,14c0.9,0.6,2,0.9,3.1,0.9c2.7,0,5-1.9,5.4-4.6
			c0.8-5,2.5-18.6,1-37.7l1.5-29.7l21.5,3.5c0.2,0,0.4,0,0.5,0.1l21.1,1.3c3.3,7.5,7.7,15.5,11.7,22.6c5,9,9.7,17.6,10.8,22.3
			c0.6,2.5,2.7,4.2,5.3,4.2c1.6,0,3.2-0.7,4.2-2c2.7-3.3,7.2-9.7,9.3-17.8c0.5,0.2,1.1,0.3,1.7,0.3c2.7,0,5-1.9,5.4-4.6
			c2-12.9,1.4-24.8,0.2-33.4c1.1-0.2,2.2-0.8,2.9-1.7c1-1.1,1.5-2.6,1.4-4.2c-0.6-6.1-2.8-16.6-10.1-25.4c0.2,0,0.5,0,0.7,0
			c2,0,3.8-1.1,4.7-2.8c1-1.7,0.9-3.9-0.2-5.5c-4.3-6.9-11-15.3-19.1-18.5c1.1-2.9,2.1-6.5,2.1-10.1c0-1.4-0.6-2.8-1.6-3.8
			C-253.5,564.7-254.9,564.1-256.4,564.1L-256.4,564.1z"/>
	</g>
	<g>
		<path fill="#EAB48F" d="M-299.3,744.1c-25,0-38.3-12.2-38.9-12.7c-0.5-0.5-0.7-1.1-0.6-1.8c0.1-0.3,6-30.4-1.9-61.7
			c-1.1-4.3-0.8-7.4,0.8-9.4c1.2-1.6,3.1-2.3,5.6-2.3c9.9,0,29,13.4,29.8,14c5.6,3.6,33.7,22.4,34.6,30.5c0,0.3,0,0.6-0.1,0.9
			c-1.5,4.1-2.7,9-4,14.2c-2.4,9.8-4.8,19.9-9.9,26.3c-0.3,0.4-0.7,0.6-1.2,0.7C-290,743.7-294.7,744.1-299.3,744.1z"/>
		<path d="M-334.4,658.1c9.4,0,28.7,13.7,28.7,13.7s32.9,21.5,33.8,29.1c-4.4,11.9-6.1,30.5-13.6,40c-4.9,0.9-9.6,1.2-13.8,1.2
			c-24.6,0-37.6-12.2-37.6-12.2s6.2-30.4-1.9-62.6C-340.5,660.6-338.3,658.1-334.4,658.1 M-334.4,654.3
			C-334.4,654.3-334.4,654.3-334.4,654.3c-3.9,0-6,1.7-7.1,3.1c-2,2.5-2.3,6.2-1.1,11.1c7.8,30.9,1.9,60.6,1.9,60.9
			c-0.3,1.3,0.2,2.7,1.2,3.6c0.6,0.5,14.4,13.2,40.2,13.2c4.7,0,9.6-0.4,14.5-1.3c0.9-0.2,1.8-0.7,2.4-1.4
			c5.4-6.8,7.9-17.1,10.3-27.1c1.2-5.1,2.4-10,3.9-14c0.2-0.6,0.3-1.2,0.2-1.8c-0.4-3.2-2.9-8-18.8-20.1
			c-8.1-6.1-15.9-11.3-16.7-11.8C-305.9,666.9-324.1,654.3-334.4,654.3L-334.4,654.3z"/>
	</g>
	<path fill="#42210B" d="M-291.4,641.5c-18.4-2.6-38-19.6-38-19.6c2.3,11-9.6,21.8-7.7,46.1"/>
	
		<path fill="#FCCA99" stroke="#000000" stroke-width="3.8774" stroke-linecap="round" stroke-linejoin="round" stroke-miterlimit="10" d="
		M-335.2,674.6c0,0,1.1,6.4,3.3,13.2c1.4,4.5,4.2,8.3,8.1,11c10.2,7.2,29,15.2,38.7,14.7c12.5-0.7,17.2-5.3,18.4-6.9
		c20.3-26.3,15.3-81.1,12.5-88.4c-4.7-12.7-9.3-28.3-30.3-29.1c-68.1-2.5-57.9,48.3-56.8,50.4c-2.3-2.8-6.2-4.5-9.4-1.9
		c-5.7,5.5-1.2,20.9,1,24.6C-346.8,666.8-341.9,672.8-335.2,674.6z"/>
	
		<path fill="none" stroke="#C6896B" stroke-width="3.8774" stroke-linecap="round" stroke-linejoin="round" stroke-miterlimit="10" d="
		M-279.7,650.6c0,0,1.8,10.4,5.1,18.7c0.7,1.7-0.5,3.6-2.3,3.7c-4.5,0.3-9.8-1.2-9.8-1.2"/>
	
		<path fill="#160600" stroke="#160600" stroke-width="2.5849" stroke-linecap="round" stroke-linejoin="round" stroke-miterlimit="10" d="
		M-292.2,629.7c0,0-16-4.1-23.9,8.1c9.7-8.1,24-5,24-5L-292.2,629.7z"/>
	
		<path fill="#160600" stroke="#160600" stroke-width="2.5849" stroke-linecap="round" stroke-linejoin="round" stroke-miterlimit="10" d="
		M-274.2,634.5c0,0,12.9-3.1,20.2,5.4c-8.1-5.1-20-2.1-20-2.1L-274.2,634.5z"/>
	<path fill="#42210B" d="M-316.4,583.8c49.2-11.5,72.8,7.7,68,53.8c0,0,0,0,0,0c-1.7-6.7-5.5-31.3-29.1-35.9
		c-10.4-2-26.8-1.3-35.5,2.1c-7.1,2.7-17.6,11.1-20,23s-1.5,18.1-0.8,23.2c0.2,2-2.2,3.1-3.5,1.6c-2.6-2.9-6.1-8.6-9.2-19.4
		C-350.8,617.8-351.7,592.1-316.4,583.8z"/>
	
		<path fill="none" stroke="#000000" stroke-width="3.8774" stroke-linecap="round" stroke-linejoin="round" stroke-miterlimit="10" d="
		M-355.3,804c0,0,2.7,19.6-6.6,40.2"/>
	
		<path fill="#C69C6D" stroke="#000000" stroke-width="3.8774" stroke-linecap="round" stroke-linejoin="round" stroke-miterlimit="10" d="
		M-349.6,726.4c-34.6-3.3-75.1,51.4-81.5,102c-4,32.1-3.9,62.3,7,74.9c12.7,14.8,30.9,19.4,43.4,18.5c44.9-3.3,70-31.5,90.9-58
		c-8.7-4.7-17.4-21.9-12-48c-39.3,11.5-48.3,14.6-79.8,33.2"/>
	
		<polygon fill="#333333" stroke="#000000" stroke-width="3.8774" stroke-linecap="round" stroke-linejoin="round" stroke-miterlimit="10" points="
		-270.3,800.7 -204.6,793.7 -193.3,804.6 -269,813.2 	"/>
	
		<polyline fill="#11CCF7" stroke="#000000" stroke-width="3.8774" stroke-linecap="round" stroke-linejoin="round" stroke-miterlimit="10" points="
		-284.6,820.9 -288.1,870.1 -264.3,866.5 	"/>
	
		<polyline fill="#F4545C" stroke="#000000" stroke-width="3.8774" stroke-linecap="round" stroke-linejoin="round" stroke-miterlimit="10" points="
		-203.9,809.6 -205.3,853.1 -190.7,857.3 -189.1,810.2 	"/>
	
		<path fill="#11CCF7" stroke="#000000" stroke-width="3.8774" stroke-linecap="round" stroke-linejoin="round" stroke-miterlimit="10" d="
		M-255,862.6l-14,2.6c-5.1,0.9-9.7-3.1-9.4-8.3l2-36.1"/>
	
		<polyline fill="#F4545C" stroke="#000000" stroke-width="3.8774" stroke-linecap="round" stroke-linejoin="round" stroke-miterlimit="10" points="
		-189.2,812.2 -190.4,850.8 -205.3,853.6 	"/>
	
		<polygon fill="#1A1A1A" stroke="#000000" stroke-width="3.8774" stroke-linecap="round" stroke-linejoin="round" stroke-miterlimit="10" points="
		-205.3,853.6 -203.6,800.8 -261.3,806.9 -263.2,864 	"/>
	
		<path fill="#FCCA99" stroke="#000000" stroke-width="3.8774" stroke-linecap="round" stroke-linejoin="round" stroke-miterlimit="10" d="
		M-265.9,856.4c9.3-2.2,18.4-6.5,17.2-12.4c-1.1-5.7-12.7,0.2-18.1,0.7"/>
	<g>
		
			<path fill="#C69C6D" stroke="#000000" stroke-width="3.8774" stroke-linecap="round" stroke-linejoin="round" stroke-miterlimit="10" d="
			M-305.9,760.6c-25,0-47-10.5-56-26.6c-3.5-6.2-1.3-14.1,5-17.6c6.2-3.5,14.1-1.3,17.6,5c3.7,6.7,16.4,13.4,33.4,13.4
			c17.5,0,30.5-7.2,33.7-14c3.1-6.4,10.8-9.1,17.3-6c6.4,3.1,9.1,10.8,6,17.3C-257.2,749.4-279.6,760.6-305.9,760.6z"/>
	</g>
	<g>
		<path fill="none" stroke="#936D47" stroke-width="3.8774" stroke-miterlimit="10" d="M-338.8,722.2c0,0-15.8,3-18.5,18.2"/>
		<path fill="none" stroke="#936D47" stroke-width="3.8774" stroke-miterlimit="10" d="M-345.7,750.2c0,0,2-14.2,15-21.2"/>
		<path fill="none" stroke="#936D47" stroke-width="3.8774" stroke-miterlimit="10" d="M-320.5,733c0,0-7,7.8-7.5,24.7"/>
		<path fill="none" stroke="#936D47" stroke-width="3.8774" stroke-miterlimit="10" d="M-308.4,760.6c0,0-0.5-12.9,1.3-25.9"/>
		<path fill="none" stroke="#936D47" stroke-width="3.8774" stroke-miterlimit="10" d="M-295.6,733.9c0,0,7,6.5,9.5,24.5"/>
		<path fill="none" stroke="#936D47" stroke-width="3.8774" stroke-miterlimit="10" d="M-281.8,729.4c0,0,11.9,5.2,14.2,21.8"/>
		<path fill="none" stroke="#936D47" stroke-width="3.8774" stroke-miterlimit="10" d="M-273.1,722.4c1.7-1,17.3,0.9,19.4,17.3"/>
	</g>
	<g>
		
			<path fill="none" stroke="#000000" stroke-width="3.8774" stroke-linecap="round" stroke-linejoin="round" stroke-miterlimit="10" d="
			M-305.9,760.6c-25,0-47-10.5-56-26.6c-3.5-6.2-1.3-14.1,5-17.6c6.2-3.5,14.1-1.3,17.6,5c3.7,6.7,16.4,13.4,33.4,13.4
			c17.5,0,30.5-7.2,33.7-14c3.1-6.4,10.8-9.1,17.3-6c6.4,3.1,9.1,10.8,6,17.3C-257.2,749.4-279.6,760.6-305.9,760.6z"/>
	</g>
	
		<path fill="#FCCA99" stroke="#000000" stroke-width="3.8774" stroke-linecap="round" stroke-linejoin="round" stroke-miterlimit="10" d="
		M-187.6,970c0.1,22.4-10.2,37.6,0.4,46.3c12.4,10.2,45.2,7.5,51.6-0.8c6.6-8.6-2.9-17.3-10.3-17c2-15.1,5-32.6,5.3-38.1
		C-139.4,943.1-187.6,955.2-187.6,970z"/>
	
		<path fill="#FCCA99" stroke="#000000" stroke-width="3.8774" stroke-linecap="round" stroke-linejoin="round" stroke-miterlimit="10" d="
		M-239.7,985.5c1.6,22.3-2,36.5,8.9,42.5c11.9,6.6,39.8,4.7,48.5-3.1c8.4-7.5-1.1-17.1-8.6-16.4c0.5-12,1.8-34.5,1.9-40
		C-188.5,951.1-241.6,958.7-239.7,985.5z"/>
	
		<path fill="#6D2424" stroke="#000000" stroke-width="3.8774" stroke-linecap="round" stroke-linejoin="round" stroke-miterlimit="10" d="
		M-322.1,892.1c-25.8,20-34.1,31.5-58.6,29.6c-5.5,28.7,16.1,53,48.5,53.8c32.4,0.8,75.7-22,113.4-47.7c7.1-4.8,0-45.2,0-45.2"/>
	
		<path fill="none" stroke="#D87B68" stroke-width="3.3956" stroke-linecap="round" stroke-linejoin="round" stroke-miterlimit="10" d="
		M-293.8,686.8c7.4,4.4,21.8,3.9,26.3-0.1"/>
	
		<path fill="none" stroke="#D87B68" stroke-width="3.3956" stroke-linecap="round" stroke-linejoin="round" stroke-miterlimit="10" d="
		M-294.3,681.6c0,0,1.7,4.2-3.3,8.6"/>
	<g>
		<circle fill="#603813" cx="-299.8" cy="651" r="3.4"/>
	</g>
	<g>
		<circle fill="#603813" cx="-266.5" cy="650.3" r="3.4"/>
	</g>
	
		<path fill="#C69C6D" stroke="#000000" stroke-width="3.8774" stroke-linecap="round" stroke-linejoin="round" stroke-miterlimit="10" d="
		M-310.6,815c-12.4,3.1-20.6,19.1-13.9,41.8c7.5,25.7,24.2,27.7,34.9,24.4c14.6-4.4,12.7-28.9,9.2-40.5
		C-287.2,818.4-298.2,811.8-310.6,815z"/>
	<polygon fill="#FCCA99" points="-287.1,831.7 -259.4,828.6 -255,858.2 -284,863.3 	"/>
	
		<path fill="#FCCA99" stroke="#000000" stroke-width="3.8774" stroke-linecap="round" stroke-linejoin="round" stroke-miterlimit="10" d="
		M-266.9,845c8.3-0.5,18.3-4.3,15.6-10.6c-2.4-5.6-16-1-21.6,0.3"/>
	
		<path fill="#FCCA99" stroke="#000000" stroke-width="3.8774" stroke-linecap="round" stroke-linejoin="round" stroke-miterlimit="10" d="
		M-283.8,864.3c-14.7-3.1-18.4-16.3-18.7-25.8c-0.7-27.6,15.4-30.7,16.4-31c7.2-2.3,11.8,3.2,11.5,3.7c-1,2.3-10.2-0.3-12.6,8.3
		c-1.3,10.2,29.5-2.7,32.6,6.9c1.6,5.1-6.6,7.5-14,8"/>
	
		<path fill="none" stroke="#000000" stroke-width="3.8774" stroke-linecap="round" stroke-linejoin="round" stroke-miterlimit="10" d="
		M-293.3,648.8c0,0-7.2-5.7-14.4,1.2"/>
	
		<path fill="none" stroke="#000000" stroke-width="3.8774" stroke-linecap="round" stroke-linejoin="round" stroke-miterlimit="10" d="
		M-258.4,649.4c0,0-6-7-14.4-1.6"/>
	<polygon fill="#FCCA99" points="-198.2,822 -199.5,840 -180.8,841.4 -182,821.2 	"/>
	
		<path fill="#FCCA99" stroke="#000000" stroke-width="3.8774" stroke-linecap="round" stroke-linejoin="round" stroke-miterlimit="10" d="
		M-177.8,843.1c-8.2,1.5-27,1-26.4-7c0.4-5.4,7.7-4.9,11-5.1"/>
	
		<path fill="#FCCA99" stroke="#000000" stroke-width="3.8774" stroke-linecap="round" stroke-linejoin="round" stroke-miterlimit="10" d="
		M-189.2,833.4c-7.3,0.1-14.5-1.9-14.1-6.8c0.4-5.4,8.5-3.9,13.3-4.7"/>
	
		<path fill="#FCCA99" stroke="#000000" stroke-width="3.8774" stroke-linecap="round" stroke-linejoin="round" stroke-miterlimit="10" d="
		M-188.8,823.4c-5.7,0.6-14.3,0-14.4-5.4c-0.1-7.1,14.6-1.2,15.8-9.9c-1.3-2.7-3.6-2.5-5.9-4.8c7.6-1.5,21.7,3.8,20.1,22.8
		c-0.7,7.6-2.9,17.5-12.8,19"/>
	
		<path fill="#6D2424" stroke="#000000" stroke-width="3.8774" stroke-linecap="round" stroke-linejoin="round" stroke-miterlimit="10" d="
		M-194.9,943.3c36.9-14,63.1-37.8,58.1-73.2c-5.6-13.4-11.4-21.3-24.5-27.7c-14.4-7-33.6-5-57.5,6"/>
	
		<path fill="#6D2424" stroke="#000000" stroke-width="3.8774" stroke-linecap="round" stroke-linejoin="round" stroke-miterlimit="10" d="
		M-136.8,870.1c7.9,18.9,18.4,91.9,0,113.4c-10.3,9.9-46.2,12.5-57,4.4c-19.9-19.3,2.1-93.2-4.3-108"/>
	
		<path fill="#6D2424" stroke="#000000" stroke-width="3.8774" stroke-linecap="round" stroke-linejoin="round" stroke-miterlimit="10" d="
		M-257.6,909.3c16.6,20.2-4.6,71.7,8.1,81.7c19.3,15.2,60.9,9.6,65.4-3.3c14.6-41.9,6.5-137.9-35.8-142.3
		c-44.2-4.7-78.5,31.1-102.1,46.8"/>
	
		<path fill="#11CCF7" stroke="#000000" stroke-width="3.8774" stroke-linecap="round" stroke-linejoin="round" stroke-miterlimit="10" d="
		M-277.7,822.1l16.4-15.2l-7.5-6.4l-7,0.7c-5.4,0.6-9.7,5-10,10.4l-0.7,9.8"/>
	
		<path fill="#11CCF7" stroke="#000000" stroke-width="3.8774" stroke-linecap="round" stroke-linejoin="round" stroke-miterlimit="10" d="
		M-277.6,821.5l0.4-6.2c0.2-3.9,3.2-7.1,7.1-7.5l8.7-0.9l-0.3,13.6"/>
	
		<path fill="#F4545C" stroke="#000000" stroke-width="3.8774" stroke-linecap="round" stroke-linejoin="round" stroke-miterlimit="10" d="
		M-189.1,810.2l-2-7.2c-0.6-2.3-2-4.3-3.9-5.8l-1.6-1.2c-2.3-1.8-5.2-2.6-8.1-2.3l-6.5,0.7l7.5,5.8l-0.3,9.4"/>
	
		<path fill="#F4545C" stroke="#000000" stroke-width="3.8774" stroke-linecap="round" stroke-linejoin="round" stroke-miterlimit="10" d="
		M-204,811.2l0.4-10.4l6.9-0.7c4.2-0.4,7.8,2.9,7.7,7.1l0,3.1"/>
	
		<line fill="none" stroke="#999999" stroke-width="3.8774" stroke-linecap="round" stroke-linejoin="round" stroke-miterlimit="10" x1="-218" y1="832.3" x2="-245.1" y2="835.1"/>
	
		<line fill="none" stroke="#999999" stroke-width="3.8774" stroke-linecap="round" stroke-linejoin="round" stroke-miterlimit="10" x1="-218" y1="825.3" x2="-245.1" y2="828.1"/>
	
		<line fill="none" stroke="#999999" stroke-width="3.8774" stroke-linecap="round" stroke-linejoin="round" stroke-miterlimit="10" x1="-218" y1="818.3" x2="-245.1" y2="821.1"/>
	
		<path fill="#DC9779" stroke="#000000" stroke-width="3.8774" stroke-linecap="round" stroke-linejoin="round" stroke-miterlimit="10" d="
		M-240.8,168.6c20.4-17.7,92.9-9.3,105.5,57.8c5.9,31.4,6.6,81.2-3.1,124c-6.4,28.4-17.9,56.6-39,76.7c-24.5,23.4-53.3,30.7-87.2,29
		c-51.4-2.7-108.9-37.5-116.1-57.7s37.1-157.6,44.7-171.9"/>
	<polygon fill="#C69C6D" points="-216.6,190.7 -192.5,307.6 -284.3,307.6 -345,198.1 -242.5,180.4 	"/>
	
		<path fill="#C69C6D" stroke="#000000" stroke-width="3.8774" stroke-linecap="round" stroke-linejoin="round" stroke-miterlimit="10" d="
		M-340.4,172.9c0,0-70,15.8-46.3,124.7S-251,333-251,333"/>
	
		<path fill="none" stroke="#964827" stroke-width="3.8774" stroke-linecap="round" stroke-linejoin="round" stroke-miterlimit="10" d="
		M-189.4,248.5c5.9-11.6,15.1-21.6,26.2-28.4"/>
	
		<path fill="none" stroke="#964827" stroke-width="3.8774" stroke-linecap="round" stroke-linejoin="round" stroke-miterlimit="10" d="
		M-189.4,217.9c3.5-7.5,7.9-14.6,13.1-21.1"/>
	
		<path fill="none" stroke="#964827" stroke-width="3.8774" stroke-linecap="round" stroke-linejoin="round" stroke-miterlimit="10" d="
		M-249.3,407.5c8.6,0.7,19.7,4.1,28.7,22.9"/>
	
		<path fill="none" stroke="#964827" stroke-width="3.8774" stroke-linecap="round" stroke-linejoin="round" stroke-miterlimit="10" d="
		M-238.6,400.7c8.5-2.3,20.9-4.6,37.8,7.7"/>
	<g>
		<path fill="#42210B" d="M-259,157.8c-1.7,0-3.2-1.2-3.5-2.9c-0.8-4.9-2.5-18.4-1-37.4l-1.7-31.9l-23.6,3.8c-0.1,0-0.2,0-0.4,0
			l-22.3,1.4c-3.3,7.7-8,16.1-12.1,23.6c-5,9.1-9.8,17.8-11,22.8c-0.4,1.6-1.8,2.7-3.4,2.7c-1,0-2-0.5-2.7-1.3
			c-2.9-3.5-7.9-10.7-9.6-19.9c-0.6,1-1.7,1.6-2.9,1.6c-1.8,0-3.2-1.3-3.5-3c-2.2-13.9-1.2-26.6,0.1-35.1c-0.4,0.1-0.7,0.2-1.1,0.2
			c-1,0-2-0.4-2.6-1.2c-0.7-0.7-1-1.7-0.9-2.7c0.7-6.8,3.4-19.5,13.8-28.6c-1.9,0.1-3.6,0.3-5.1,0.9c-0.4,0.1-0.8,0.2-1.2,0.2
			c-1.3,0-2.4-0.7-3-1.8c-0.6-1.1-0.6-2.5,0.1-3.6c4.5-7.2,11.6-16.1,20-18.4c-1.1-2.5-2.8-6.9-2.8-11.3c0-0.9,0.4-1.8,1-2.4
			c0.7-0.7,1.6-1,2.5-1c0.9,0,1.8,0.3,2.4,1c1.8,1.8,4.9,3.9,8.8,3.9c0.9,0,1.8-0.1,2.8-0.3l0.7-0.2c5.1-1.2,13.7-3.3,22.5-3.3
			c10.8,0,18.8,3.1,24,9.1c1.8-0.4,6.5-1.2,12.3-1.2c11.6,0,27.7,3.1,38,17.9c0.8,1.1,0.8,2.5,0.2,3.6c-0.6,1.2-1.8,1.9-3.1,1.9
			c-0.4,0-0.9-0.1-1.3-0.3c-1.5-0.6-3-1.1-4.4-1.5c7,5.3,17.1,15.6,16.8,31.3c0,0.1,0,0.3,0,0.4c0,1.1-0.1,2.2-0.1,2.6
			c-0.5,7.3-1.8,13.3-2.9,18.6c-2,9.6-3.3,15.9,0.7,22.5c0.7,1.1,0.7,2.4,0.1,3.6c-0.6,1.1-1.8,1.8-3,1.8c-0.3,0-0.7-0.1-1-0.2
			c-3.9-1.2-6.8-2.6-8.9-4.1c-0.9,5.6-1.9,15.7-0.3,23.6c0.2,1,0,2.1-0.7,2.9c-0.7,0.8-1.7,1.3-2.7,1.3c-0.6,0-1.2-0.2-1.8-0.5
			c-2-1.2-4.6-3.1-6.3-5.7c-2.3,4-7,10.9-14.2,15.8C-257.6,157.6-258.3,157.8-259,157.8z"/>
		<path d="M-335.7,14.5c0.4,0,0.8,0.1,1.1,0.4c2.1,2,5.6,4.4,10.2,4.4c1,0,2.1-0.1,3.2-0.4c5-1.2,13.8-3.4,22.8-3.4
			c8.5,0,17.1,2,22.7,8.6c0.3,0.4,0.7,0.6,1.2,0.6c0.1,0,0.2,0,0.3,0c1.9-0.4,6.4-1.2,12.2-1.2c11,0,26.5,2.9,36.5,17.1
			c0.8,1.1-0.1,2.5-1.3,2.5c-0.2,0-0.4,0-0.6-0.1c-1.9-0.8-4.2-1.5-6.5-2c-0.1,0-0.2,0-0.3,0c-1.4,0-2.1,2-0.9,2.9
			c6.6,4.6,17.7,14.8,17.4,30.7c0,0.1,0,0.1,0,0.2c0,1.1-0.1,2.3-0.1,2.7c-1.5,20.3-8.7,31.1-1.9,42.3c0.7,1.1-0.2,2.4-1.3,2.4
			c-0.2,0-0.3,0-0.5-0.1c-2.9-0.9-6.5-2.3-8.7-4.1c-0.3-0.2-0.6-0.4-1-0.4c-0.7,0-1.4,0.5-1.6,1.3c-0.9,5.5-2.1,16.3-0.4,24.9
			c0.2,1-0.6,1.9-1.5,1.9c-0.3,0-0.5-0.1-0.8-0.2c-2-1.2-4.5-3-5.8-5.5c-0.3-0.6-0.9-0.8-1.4-0.8c-0.5,0-1,0.3-1.3,0.8
			c-2.2,4.1-6.8,10.8-14,15.7c-0.3,0.2-0.6,0.3-0.9,0.3c-0.7,0-1.4-0.5-1.6-1.3c-0.8-5.1-2.4-18.3-1-37c0-0.1,0-0.1,0-0.2l-1.8-34.1
			l-25.7,4.2c-0.1,0-0.1,0-0.2,0l-23.5,1.5c-7.3,17.2-21.4,38.1-23.6,47.8c-0.2,0.8-0.8,1.2-1.5,1.2c-0.4,0-0.9-0.2-1.2-0.6
			c-3.1-3.8-8-11-9.3-20.2c-0.1-0.9-0.9-1.4-1.6-1.4c-0.6,0-1.3,0.4-1.5,1.2c0,0.1,0,0.2-0.1,0.2c-0.2,0.8-0.9,1.2-1.5,1.2
			c-0.7,0-1.4-0.5-1.6-1.3c-2.4-15.3-1-30,1.1-40.2c-0.9,0.8-1.9,1.8-2.8,3c-0.3,0.4-0.8,0.6-1.2,0.6c-0.9,0-1.7-0.7-1.6-1.7
			c0.7-7.1,3.5-19.3,13.8-27.9c1.1-0.9,0.5-2.8-0.9-2.8c-0.1,0-0.3,0-0.4,0c-1.9,0-4.3,0.2-6.4,1c-0.2,0.1-0.4,0.1-0.5,0.1
			c-1.1,0-2-1.3-1.3-2.4c4.1-6.5,11.1-15.7,19.3-17.6c1-0.2,1.5-1.3,1.1-2.2c-1.1-2.4-2.8-6.7-2.8-10.9
			C-337.3,15.1-336.5,14.5-335.7,14.5 M-335.7,10.6c-1.5,0-2.9,0.6-3.9,1.6c-1,1-1.6,2.4-1.6,3.8c0,3.6,1,7.2,2.1,10.1
			c-8.1,3.2-14.7,11.6-19.1,18.5c-1.1,1.7-1.1,3.8-0.2,5.5c1,1.7,2.8,2.8,4.7,2.8c0.2,0,0.5,0,0.7,0c-7.4,8.9-9.5,19.4-10.1,25.4
			c-0.2,1.6,0.3,3,1.4,4.2c0.8,0.9,1.8,1.5,2.9,1.7c-1.1,8.6-1.8,20.5,0.2,33.4c0.4,2.7,2.7,4.6,5.4,4.6c0.6,0,1.2-0.1,1.7-0.3
			c2.1,8.2,6.6,14.5,9.3,17.8c1,1.3,2.6,2,4.2,2c2.6,0,4.7-1.7,5.3-4.2c1.1-4.8,5.8-13.3,10.8-22.3c3.9-7.2,8.4-15.2,11.7-22.6
			l21.1-1.3c0.2,0,0.4,0,0.5-0.1l21.5-3.5l1.5,29.7c-1.5,19.1,0.2,32.7,1,37.7c0.4,2.6,2.7,4.6,5.4,4.6c1.1,0,2.2-0.3,3.1-0.9
			c6.1-4.1,10.5-9.5,13.3-14c1.4,1.5,3.1,2.8,5.1,4c0.8,0.5,1.8,0.7,2.7,0.7c1.6,0,3.2-0.7,4.2-2c1-1.3,1.4-2.9,1.1-4.5
			c-1.3-6.5-0.8-14.4-0.1-20c1.9,1,4.1,1.9,6.8,2.7c0.5,0.2,1.1,0.2,1.6,0.2c1.9,0,3.8-1.1,4.7-2.8c1-1.7,0.9-3.8-0.1-5.5
			c-3.6-5.9-2.4-12-0.5-21.1c1.1-5.4,2.4-11.5,2.9-18.9c0-0.4,0.1-1.4,0.1-2.6c0-0.2,0-0.3,0-0.5c0.2-12.4-5.7-21.7-11.8-27.8
			c1.5-0.4,2.8-1.4,3.5-2.8c0.9-1.8,0.8-4-0.4-5.6c-10.8-15.5-27.5-18.7-39.6-18.7c-5,0-9.1,0.5-11.6,1c-5.6-5.9-13.9-9-24.7-9
			c-9,0-17.8,2.1-23,3.3l-0.7,0.2c-0.8,0.2-1.6,0.3-2.3,0.3c-3.3,0-5.9-1.8-7.5-3.3C-333,11.1-334.3,10.6-335.7,10.6L-335.7,10.6z"
			/>
	</g>
	<g>
		<path fill="#EAB48F" d="M-292.8,190.6c-4.6,0-9.4-0.4-14.2-1.3c-0.5-0.1-0.9-0.3-1.2-0.7c-5.1-6.5-7.6-16.6-9.9-26.3
			c-1.3-5.2-2.5-10.1-4-14.2c-0.1-0.3-0.1-0.6-0.1-0.9c0.9-8.1,29.1-26.9,34.7-30.5c0.7-0.5,19.8-14,29.7-14c2.5,0,4.3,0.8,5.6,2.3
			c1.6,2,1.8,5.1,0.8,9.4c-7.9,31.3-2,61.4-1.9,61.7c0.1,0.7-0.1,1.3-0.6,1.8C-254.4,178.4-267.7,190.6-292.8,190.6
			C-292.8,190.6-292.8,190.6-292.8,190.6z"/>
		<path d="M-257.7,104.6c4,0,6.2,2.4,4.4,9.3c-8.1,32.1-1.9,62.6-1.9,62.6s-13,12.2-37.6,12.2c-4.3,0-8.9-0.4-13.8-1.2
			c-7.5-9.5-9.2-28.1-13.6-40c0.9-7.6,33.8-29.1,33.8-29.1S-267.1,104.6-257.7,104.6 M-257.7,100.7c-10.2,0-28.5,12.7-30.8,14.3
			c-0.8,0.5-8.7,5.7-16.7,11.8c-15.9,12-18.4,16.9-18.8,20.1c-0.1,0.6,0,1.2,0.2,1.8c1.5,4,2.7,8.8,3.9,14
			c2.4,10,4.9,20.3,10.3,27.1c0.6,0.7,1.4,1.2,2.4,1.4c4.9,0.9,9.8,1.3,14.5,1.3c25.8,0,39.6-12.7,40.2-13.2c1-0.9,1.4-2.3,1.2-3.6
			c-0.1-0.3-5.9-30,1.9-60.9c1.2-4.9,0.9-8.5-1.1-11.1C-251.7,102.4-253.9,100.7-257.7,100.7L-257.7,100.7z"/>
	</g>
	<path fill="#42210B" d="M-300.7,88c18.4-2.6,38-19.6,38-19.6c-2.3,11,9.6,21.8,7.7,46.1"/>
	
		<path fill="#FCCA99" stroke="#000000" stroke-width="3.8774" stroke-linecap="round" stroke-linejoin="round" stroke-miterlimit="10" d="
		M-256.9,121c0,0-1.1,6.4-3.3,13.2c-1.4,4.5-4.2,8.3-8.1,11c-10.2,7.2-29,15.2-38.7,14.7c-12.5-0.7-17.2-5.3-18.4-6.9
		c-20.3-26.3-15.3-81.1-12.5-88.4c4.7-12.7,9.3-28.3,30.3-29.1c68.1-2.5,57.9,48.3,56.8,50.4c2.3-2.8,6.2-4.5,9.4-1.9
		c5.7,5.5,1.2,20.9-1,24.6C-245.3,113.3-250.2,119.2-256.9,121z"/>
	
		<path fill="none" stroke="#C6896B" stroke-width="3.8774" stroke-linecap="round" stroke-linejoin="round" stroke-miterlimit="10" d="
		M-312.4,97c0,0-1.8,10.4-5.1,18.7c-0.7,1.7,0.5,3.6,2.3,3.7c4.5,0.3,9.8-1.2,9.8-1.2"/>
	
		<path fill="#160600" stroke="#160600" stroke-width="2.5849" stroke-linecap="round" stroke-linejoin="round" stroke-miterlimit="10" d="
		M-299.9,76.2c0,0,16-4.1,23.9,8.1c-9.7-8.1-24-5-24-5L-299.9,76.2z"/>
	
		<path fill="#160600" stroke="#160600" stroke-width="2.5849" stroke-linecap="round" stroke-linejoin="round" stroke-miterlimit="10" d="
		M-317.9,80.9c0,0-12.9-3.1-20.2,5.4c8.1-5.1,20-2.1,20-2.1L-317.9,80.9z"/>
	<path fill="#42210B" d="M-275.7,30.3c-49.2-11.5-72.8,7.7-68,53.8c0,0,0,0,0,0c1.7-6.7,5.5-31.3,29.1-35.9
		c10.4-2,26.8-1.3,35.5,2.1c7.1,2.7,17.6,11.1,20,23c2.4,11.9,1.5,18.1,0.8,23.2c-0.2,2,2.2,3.1,3.5,1.6c2.6-2.9,6.1-8.6,9.2-19.4
		C-241.3,64.3-240.4,38.5-275.7,30.3z"/>
	
		<path fill="none" stroke="#000000" stroke-width="3.8774" stroke-linecap="round" stroke-linejoin="round" stroke-miterlimit="10" d="
		M-236.8,250.5c0,0-2.7,19.6,6.6,40.2"/>
	
		<path fill="#C69C6D" stroke="#000000" stroke-width="3.8774" stroke-linecap="round" stroke-linejoin="round" stroke-miterlimit="10" d="
		M-242.5,172.9c34.6-3.3,75.1,51.4,81.5,102c4,32.1,3.9,62.3-7,74.9c-12.7,14.8-30.9,19.4-43.4,18.5c-44.9-3.3-70-31.5-90.9-58
		c8.7-4.7,17.4-21.9,12-48c39.3,11.5,48.3,14.6,79.8,33.2"/>
	
		<polygon fill="#333333" stroke="#000000" stroke-width="3.8774" stroke-linecap="round" stroke-linejoin="round" stroke-miterlimit="10" points="
		-321.8,247.1 -387.5,240.2 -398.8,251 -323.1,259.6 	"/>
	
		<polyline fill="#11CCF7" stroke="#000000" stroke-width="3.8774" stroke-linecap="round" stroke-linejoin="round" stroke-miterlimit="10" points="
		-307.5,267.3 -304,316.6 -327.8,313 	"/>
	
		<polyline fill="#F4545C" stroke="#000000" stroke-width="3.8774" stroke-linecap="round" stroke-linejoin="round" stroke-miterlimit="10" points="
		-388.2,256.1 -386.8,299.5 -401.4,303.7 -403,256.7 	"/>
	
		<path fill="#11CCF7" stroke="#000000" stroke-width="3.8774" stroke-linecap="round" stroke-linejoin="round" stroke-miterlimit="10" d="
		M-337.1,309.1l14,2.6c5.1,0.9,9.7-3.1,9.4-8.3l-2-36.1"/>
	
		<polyline fill="#F4545C" stroke="#000000" stroke-width="3.8774" stroke-linecap="round" stroke-linejoin="round" stroke-miterlimit="10" points="
		-402.9,258.6 -401.7,297.3 -386.8,300.1 	"/>
	
		<polygon fill="#1A1A1A" stroke="#000000" stroke-width="3.8774" stroke-linecap="round" stroke-linejoin="round" stroke-miterlimit="10" points="
		-386.8,300.1 -388.5,247.2 -330.8,253.3 -328.9,310.4 	"/>
	
		<path fill="#FCCA99" stroke="#000000" stroke-width="3.8774" stroke-linecap="round" stroke-linejoin="round" stroke-miterlimit="10" d="
		M-326.2,302.9c-9.3-2.2-18.4-6.5-17.2-12.4c1.1-5.7,12.7,0.2,18.1,0.7"/>
	<g>
		
			<path fill="#C69C6D" stroke="#000000" stroke-width="3.8774" stroke-linecap="round" stroke-linejoin="round" stroke-miterlimit="10" d="
			M-286.2,207.1c25,0,47-10.5,56-26.6c3.5-6.2,1.3-14.1-5-17.6c-6.2-3.5-14.1-1.3-17.6,5c-3.7,6.7-16.4,13.4-33.4,13.4
			c-17.5,0-30.5-7.2-33.7-14c-3.1-6.4-10.8-9.1-17.3-6c-6.4,3.1-9.1,10.8-6,17.3C-334.9,195.8-312.5,207.1-286.2,207.1z"/>
	</g>
	<g>
		<path fill="none" stroke="#936D47" stroke-width="3.8774" stroke-miterlimit="10" d="M-253.3,168.6c0,0,15.8,3,18.5,18.2"/>
		<path fill="none" stroke="#936D47" stroke-width="3.8774" stroke-miterlimit="10" d="M-246.4,196.7c0,0-2-14.2-15-21.2"/>
		<path fill="none" stroke="#936D47" stroke-width="3.8774" stroke-miterlimit="10" d="M-271.6,179.4c0,0,7,7.8,7.5,24.7"/>
		<path fill="none" stroke="#936D47" stroke-width="3.8774" stroke-miterlimit="10" d="M-283.7,207.1c0,0,0.5-12.9-1.3-25.9"/>
		<path fill="none" stroke="#936D47" stroke-width="3.8774" stroke-miterlimit="10" d="M-296.5,180.4c0,0-7,6.5-9.5,24.5"/>
		<path fill="none" stroke="#936D47" stroke-width="3.8774" stroke-miterlimit="10" d="M-310.3,175.9c0,0-11.9,5.2-14.2,21.8"/>
		<path fill="none" stroke="#936D47" stroke-width="3.8774" stroke-miterlimit="10" d="M-319,168.8c-1.7-1-17.3,0.9-19.4,17.3"/>
	</g>
	<g>
		
			<path fill="none" stroke="#000000" stroke-width="3.8774" stroke-linecap="round" stroke-linejoin="round" stroke-miterlimit="10" d="
			M-286.2,207.1c25,0,47-10.5,56-26.6c3.5-6.2,1.3-14.1-5-17.6c-6.2-3.5-14.1-1.3-17.6,5c-3.7,6.7-16.4,13.4-33.4,13.4
			c-17.5,0-30.5-7.2-33.7-14c-3.1-6.4-10.8-9.1-17.3-6c-6.4,3.1-9.1,10.8-6,17.3C-334.9,195.8-312.5,207.1-286.2,207.1z"/>
	</g>
	
		<path fill="#FCCA99" stroke="#000000" stroke-width="3.8774" stroke-linecap="round" stroke-linejoin="round" stroke-miterlimit="10" d="
		M-404.5,416.4c-0.1,22.4,10.2,37.6-0.4,46.3c-12.4,10.2-45.2,7.5-51.6-0.8c-6.6-8.6,2.9-17.3,10.3-17c-2-15.1-5-32.6-5.3-38.1
		C-452.7,389.6-404.5,401.6-404.5,416.4z"/>
	
		<path fill="#FCCA99" stroke="#000000" stroke-width="3.8774" stroke-linecap="round" stroke-linejoin="round" stroke-miterlimit="10" d="
		M-352.4,431.9c-1.6,22.3,2,36.5-8.9,42.5c-11.9,6.6-39.8,4.7-48.5-3.1c-8.4-7.5,1.1-17.1,8.6-16.4c-0.5-12-1.8-34.5-1.9-40
		C-403.6,397.6-350.5,405.1-352.4,431.9z"/>
	
		<path fill="#6D2424" stroke="#000000" stroke-width="3.8774" stroke-linecap="round" stroke-linejoin="round" stroke-miterlimit="10" d="
		M-270,338.6c25.8,20,34.1,31.5,58.6,29.6c5.5,28.7-16.1,53-48.5,53.8s-75.7-22-113.4-47.7c-7.1-4.8,0-45.2,0-45.2"/>
	
		<path fill="none" stroke="#D87B68" stroke-width="3.3956" stroke-linecap="round" stroke-linejoin="round" stroke-miterlimit="10" d="
		M-298.3,133.2c-7.4,4.4-21.8,3.9-26.3-0.1"/>
	
		<path fill="none" stroke="#D87B68" stroke-width="3.3956" stroke-linecap="round" stroke-linejoin="round" stroke-miterlimit="10" d="
		M-297.8,128.1c0,0-1.7,4.2,3.3,8.6"/>
	<g>
		<circle fill="#603813" cx="-292.3" cy="97.4" r="3.4"/>
	</g>
	<g>
		<circle fill="#603813" cx="-325.6" cy="96.7" r="3.4"/>
	</g>
	
		<path fill="#C69C6D" stroke="#000000" stroke-width="3.8774" stroke-linecap="round" stroke-linejoin="round" stroke-miterlimit="10" d="
		M-281.5,261.4c12.4,3.1,20.6,19.1,13.9,41.8c-7.5,25.7-24.2,27.7-34.9,24.4c-14.6-4.4-12.7-28.9-9.2-40.5
		C-304.9,264.8-293.9,258.3-281.5,261.4z"/>
	<polygon fill="#FCCA99" points="-305,278.2 -332.7,275.1 -337.1,304.6 -308.1,309.7 	"/>
	
		<path fill="#FCCA99" stroke="#000000" stroke-width="3.8774" stroke-linecap="round" stroke-linejoin="round" stroke-miterlimit="10" d="
		M-325.2,291.5c-8.3-0.5-18.3-4.3-15.6-10.6c2.4-5.6,16-1,21.6,0.3"/>
	
		<path fill="#FCCA99" stroke="#000000" stroke-width="3.8774" stroke-linecap="round" stroke-linejoin="round" stroke-miterlimit="10" d="
		M-308.3,310.7c14.7-3.1,18.4-16.3,18.7-25.8c0.7-27.6-15.4-30.7-16.4-31c-7.2-2.3-11.8,3.2-11.5,3.7c1,2.3,10.2-0.3,12.6,8.3
		c1.3,10.2-29.5-2.7-32.6,6.9c-1.6,5.1,6.6,7.5,14,8"/>
	
		<path fill="none" stroke="#000000" stroke-width="3.8774" stroke-linecap="round" stroke-linejoin="round" stroke-miterlimit="10" d="
		M-298.8,95.3c0,0,7.2-5.7,14.4,1.2"/>
	
		<path fill="none" stroke="#000000" stroke-width="3.8774" stroke-linecap="round" stroke-linejoin="round" stroke-miterlimit="10" d="
		M-333.7,95.9c0,0,6-7,14.4-1.6"/>
	<polygon fill="#FCCA99" points="-393.9,268.4 -392.6,286.4 -411.3,287.8 -410.1,267.7 	"/>
	
		<path fill="#FCCA99" stroke="#000000" stroke-width="3.8774" stroke-linecap="round" stroke-linejoin="round" stroke-miterlimit="10" d="
		M-414.3,289.5c8.2,1.5,27,1,26.4-7c-0.4-5.4-7.7-4.9-11-5.1"/>
	
		<path fill="#FCCA99" stroke="#000000" stroke-width="3.8774" stroke-linecap="round" stroke-linejoin="round" stroke-miterlimit="10" d="
		M-402.9,279.9c7.3,0.1,14.5-1.9,14.1-6.8c-0.4-5.4-8.5-3.9-13.3-4.7"/>
	
		<path fill="#FCCA99" stroke="#000000" stroke-width="3.8774" stroke-linecap="round" stroke-linejoin="round" stroke-miterlimit="10" d="
		M-403.3,269.8c5.7,0.6,14.3,0,14.4-5.4c0.1-7.1-14.6-1.2-15.8-9.9c1.3-2.7,3.6-2.5,5.9-4.8c-7.6-1.5-21.7,3.8-20.1,22.8
		c0.7,7.6,2.9,17.5,12.8,19"/>
	
		<path fill="#6D2424" stroke="#000000" stroke-width="3.8774" stroke-linecap="round" stroke-linejoin="round" stroke-miterlimit="10" d="
		M-397.2,389.8c-36.9-14-63.1-37.8-58.1-73.2c5.6-13.4,11.4-21.3,24.5-27.7c14.4-7,33.6-5,57.5,6"/>
	
		<path fill="#6D2424" stroke="#000000" stroke-width="3.8774" stroke-linecap="round" stroke-linejoin="round" stroke-miterlimit="10" d="
		M-455.3,316.6c-7.9,18.9-18.4,91.9,0,113.4c10.3,9.9,46.2,12.5,57,4.4c19.9-19.3-2.1-93.2,4.3-108"/>
	
		<path fill="#6D2424" stroke="#000000" stroke-width="3.8774" stroke-linecap="round" stroke-linejoin="round" stroke-miterlimit="10" d="
		M-334.5,355.7c-16.6,20.2,4.6,71.7-8.1,81.7c-19.3,15.2-60.9,9.6-65.4-3.3c-14.6-41.9-6.5-137.9,35.8-142.3
		c44.2-4.7,78.5,31.1,102.1,46.8"/>
	
		<path fill="#11CCF7" stroke="#000000" stroke-width="3.8774" stroke-linecap="round" stroke-linejoin="round" stroke-miterlimit="10" d="
		M-314.4,268.6l-16.4-15.2l7.5-6.4l7,0.7c5.4,0.6,9.7,5,10,10.4l0.7,9.8"/>
	
		<path fill="#11CCF7" stroke="#000000" stroke-width="3.8774" stroke-linecap="round" stroke-linejoin="round" stroke-miterlimit="10" d="
		M-314.5,267.9l-0.4-6.2c-0.2-3.9-3.2-7.1-7.1-7.5l-8.7-0.9l0.3,13.6"/>
	
		<path fill="#F4545C" stroke="#000000" stroke-width="3.8774" stroke-linecap="round" stroke-linejoin="round" stroke-miterlimit="10" d="
		M-403,256.7l2-7.2c0.6-2.3,2-4.3,3.9-5.8l1.6-1.2c2.3-1.8,5.2-2.6,8.1-2.3l6.5,0.7l-7.5,5.8l0.3,9.4"/>
	
		<path fill="#F4545C" stroke="#000000" stroke-width="3.8774" stroke-linecap="round" stroke-linejoin="round" stroke-miterlimit="10" d="
		M-388.1,257.6l-0.4-10.4l-6.9-0.7c-4.2-0.4-7.8,2.9-7.7,7.1l0,3.1"/>
	
		<line fill="none" stroke="#999999" stroke-width="3.8774" stroke-linecap="round" stroke-linejoin="round" stroke-miterlimit="10" x1="-374.1" y1="278.7" x2="-347" y2="281.5"/>
	
		<line fill="none" stroke="#999999" stroke-width="3.8774" stroke-linecap="round" stroke-linejoin="round" stroke-miterlimit="10" x1="-374.1" y1="271.7" x2="-347" y2="274.5"/>
	
		<line fill="none" stroke="#999999" stroke-width="3.8774" stroke-linecap="round" stroke-linejoin="round" stroke-miterlimit="10" x1="-374.1" y1="264.7" x2="-347" y2="267.5"/>
</g>
</svg>
