<?xml version="1.0" encoding="utf-8"?>
<!-- Generator: Adobe Illustrator 24.1.1, SVG Export Plug-In . SVG Version: 6.00 Build 0)  -->
<svg version="1.1" xmlns="http://www.w3.org/2000/svg" xmlns:xlink="http://www.w3.org/1999/xlink" x="0px" y="0px"
	 viewBox="0 0 500 500" enable-background="new 0 0 500 500" xml:space="preserve">
<g id="Girl" display="none">
	
		<image display="inline" overflow="visible" opacity="0.5" width="336" height="457" xlink:href="5CEAD909.jpg"  transform="matrix(1 0 0 1 625 300)">
	</image>
</g>
<g id="Me_1_" display="none">
	
		<image display="inline" overflow="visible" opacity="0.75" width="872" height="1378" xlink:href="5CEAD90F.jpg"  transform="matrix(-0.3405 0 0 0.3405 948.4641 290.3859)">
	</image>
</g>
<g id="Illustration" display="none">
	<g display="inline" opacity="0.5">
		<path fill="#662811" d="M773.9,316.7c-35,13.1-49.4,37.9-53.6,72.3c-2.8,22.8-30.9,45.9-26.7,79.3c4.2,33.5,27.6,33,39.3,32.5
			c5.9-0.2,78.4-15.7,108.3-19.5c3.1-0.4,54.6,2.3,38.6-54.6c-3.8-13.5-11.2-23-13-41.4c-0.9-8.8,2.5-51.1-31.2-58.1
			C833.2,326.7,809,305.5,773.9,316.7z"/>
		<g>
			<path d="M773.9,316.6c-12.2,4.6-23.7,11.3-32.5,20.9c-8.1,8.8-13.6,19.5-17,30.9c-1.9,6.3-3.1,12.7-4,19.2
				c-0.4,2.8-0.9,5.5-1.7,8.2c-0.9,2.8-2,5.5-3.2,8.1c-5.4,11.4-12.6,21.9-17.4,33.7c-2.5,6.2-4.3,12.8-4.9,19.5
				c-0.6,7.2,0.2,14.5,2.4,21.4c1.6,5.1,4.1,10.1,8,13.9c3,3,6.7,5.2,10.7,6.6c3.6,1.2,7.4,1.8,11.2,1.9c2.7,0.1,5.5,0.2,8.1-0.1
				c2.4-0.3,4.7-0.7,7-1.2c4.1-0.7,8.1-1.5,12.2-2.3c11.2-2.2,22.5-4.4,33.7-6.5c12-2.3,23.9-4.5,35.9-6.6c5-0.8,9.9-1.6,14.9-2.3
				c1.9-0.3,3.8-0.5,5.7-0.6c4.7-0.1,9.3-0.7,13.9-1.8c6.2-1.6,12.3-4.4,16.9-8.9c5.9-5.8,8.6-13.9,8.9-22c0.2-6-0.6-12-2-17.8
				c-1.6-6.6-4.1-12.9-6.7-19.2c-2.8-6.7-5.3-13.5-6.5-20.7c-0.7-3.8-0.9-7.5-1-11.4c-0.2-8.2-0.9-16.5-3.2-24.4
				c-2.6-9.2-7.7-18-16-23.2c-2.3-1.4-4.7-2.6-7.2-3.4c-1.4-0.5-2.9-0.8-4.4-1.2c-0.3-0.1-0.6-0.2-0.9-0.3c-2.4-1.3-4.6-2.9-7-4.3
				c-9.7-5.5-20.6-8.8-31.8-9.2C788.5,313.2,781,314.4,773.9,316.6C773.8,316.6,773.8,316.7,773.9,316.6c13.7-4.2,28.2-4.2,41.8,0.5
				c4.5,1.5,8.8,3.6,12.9,5.9c2.2,1.3,4.3,2.8,6.5,4c0.4,0.2,0.8,0.3,1.2,0.4c1.4,0.3,2.8,0.7,4.2,1.2c2.6,0.9,5.1,2.1,7.4,3.6
				c4.2,2.8,7.7,6.5,10.3,10.8c4.8,7.9,6.8,17.3,7.7,26.5c0.3,3.6,0.5,7.2,0.6,10.8c0.1,3.9,0.4,7.7,1.1,11.5
				c1.3,7,3.8,13.7,6.6,20.2c2.6,6.2,5.1,12.4,6.6,19c2.4,10.1,3.3,21.4-1.1,31.1c-3,6.5-8.3,11.4-14.7,14.5
				c-5.2,2.5-11,3.8-16.7,4.3c-1.8,0.2-3.6,0.3-5.5,0.3c-2,0.1-4,0.4-6.1,0.7c-10.7,1.5-21.4,3.4-32.1,5.4
				c-12,2.2-23.9,4.5-35.9,6.8c-9.2,1.8-18.5,3.6-27.7,5.3c-2.4,0.4-4.8,0.9-7.3,1.2c-2.5,0.3-5.2,0.2-7.7,0.2
				c-8.2-0.3-16.4-2.5-22.4-8.5c-4-4-6.5-9.1-8.1-14.5c-2.1-6.9-2.8-14.4-2.1-21.6c1.3-13.4,7.5-25.5,14-37.1c2.9-5.3,6-10.5,8.5-16
				c2.2-4.9,3.8-9.8,4.5-15.2c1.6-12.6,4.8-25.1,10.9-36.3c5.8-10.7,14.3-19.6,24.6-26.1C761.5,321.9,767.6,319.1,773.9,316.6
				C773.9,316.7,773.9,316.6,773.9,316.6z"/>
		</g>
	</g>
	<g display="inline" opacity="0.5">
		<path fill="#F78C2E" d="M759.1,441.2c-3.8-0.9-7-0.1-10,2.5c-3.9,3.4-6,9.8-6.1,13.7c-1,26.4,29.7,40.8,56.7,40.8
			c34,0,56.7-20.6,56.7-42.3c0-5.1-1-13-6.7-15.7c-5.7-2.7-21.1,8.5-31,10.5c-6.9,1.4-14-0.1-20.9-1.5
			C784.1,446.3,772.9,444,759.1,441.2z"/>
		<g>
			<path fill="#662811" d="M759.1,441.1c-2.6-0.6-5.2-0.4-7.5,0.8c-2.3,1.2-4.1,3-5.5,5.2c-2.5,4-3.5,8.6-3.3,13.3
				c0.4,8.5,4.5,16.2,10.7,22c6.6,6.2,15.1,10.3,23.7,12.8c9.6,2.8,19.7,3.8,29.6,2.8c10.1-0.9,20.2-3.8,28.8-9.2
				c7.2-4.4,13.4-10.6,17.2-18.2c1.7-3.4,2.8-7,3.3-10.7c0.5-4,0.4-8.3-0.8-12.2c-0.6-2-1.5-4-3-5.6c-1.1-1.2-2.6-2.2-4.3-2.3
				c-1.5-0.1-3.1,0.3-4.6,0.7c-2,0.6-3.9,1.4-5.8,2.3c-4.4,2-8.7,4.3-13.2,6c-2,0.8-4.1,1.5-6.2,1.9c-3.4,0.6-6.8,0.6-10.2,0.2
				c-3.5-0.4-7-1.1-10.4-1.8c-3.3-0.7-6.7-1.4-10-2.1c-6.3-1.3-12.7-2.6-19-3.9C765.5,442.4,762.3,441.8,759.1,441.1
				c-0.1,0-0.2,0.1,0,0.2c12.6,2.6,25.3,5.2,37.9,7.9c6.4,1.3,13,2.8,19.6,2c4.5-0.5,8.7-2.4,12.7-4.3c4.2-1.9,8.2-4.1,12.6-5.7
				c1.6-0.6,3.3-1.1,5-1.3c1.7-0.1,3.2,0.4,4.5,1.5c3.5,2.8,4.5,7.8,4.8,12c0.2,3.8-0.1,7.6-1.2,11.3c-2.2,7.7-7.2,14.5-13.3,19.6
				c-7.4,6.1-16.4,10.1-25.7,12.1c-10,2.2-20.5,2.2-30.5,0.4c-9.1-1.6-18-4.8-25.7-9.9c-7-4.6-12.9-11.2-15.4-19.3
				c-1.2-4-1.8-8.5-1-12.7c0.9-4.9,3.4-10.1,7.9-12.7c2.4-1.4,5.2-1.6,7.9-1C759.2,441.3,759.2,441.1,759.1,441.1z"/>
		</g>
	</g>
	<g display="inline" opacity="0.5">
		<path fill="#FCCA99" d="M831.9,357.5c-7.1,23.1-33.9,32.8-44,36.6c-6.3,2.4-25.4,9.9-27.2,13c-1.8,3.1-2.9,7.1-3.1,10.6
			c-0.4,8.3,0.4,16.3,3.9,23.9c7.3,16,24.5,25.3,45.2,24.4c42.4-1.9,47.5-47.7,44.9-76.9c-0.5-6.1-1.5-11.5-4.1-17
			C844.6,366,838.5,359.4,831.9,357.5z"/>
		<g>
			<path fill="#662811" d="M831.9,357.5c-1.7,5.4-4.5,10.4-8.2,14.7c-3.5,4.1-7.6,7.5-12.1,10.5c-4,2.7-8.2,4.9-12.6,6.9
				c-3.4,1.5-6.8,2.9-10.3,4.2c-3.9,1.5-7.8,3-11.7,4.6c-4.4,1.9-8.9,3.8-13.1,6.2c-1.1,0.6-2.4,1.4-3.1,2.4c-0.9,1.3-1.5,2.9-2,4.4
				c-0.5,1.7-0.9,3.4-1.1,5.2c-0.4,3.8-0.3,7.7,0.1,11.4c0.4,3.7,1.2,7.4,2.5,11c2,5.5,5.3,10.5,9.5,14.5c4.1,3.9,9,7,14.2,9
				c5.7,2.3,11.9,3.4,18.1,3.6c5.6,0.2,11.3-0.4,16.7-2c4.4-1.3,8.7-3.4,12.4-6.2c3.5-2.6,6.5-5.8,9-9.3c2.6-3.6,4.6-7.6,6.2-11.8
				c1.7-4.3,2.9-8.7,3.8-13.3c0.9-4.5,1.4-9.1,1.7-13.7c0.3-4.5,0.3-9,0.2-13.4c-0.2-5.5-0.6-11.1-1.9-16.4c-0.8-3.5-2-7-3.8-10.1
				c-1.7-3-3.9-5.7-6.5-7.9c-2.3-2-5-3.8-8-4.7c-0.1,0-0.1,0.1,0,0.2c3.3,1,6.2,2.9,8.7,5.3c2.5,2.3,4.6,5.1,6.2,8.1
				c3.3,6.2,4.3,13.3,4.9,20.2c0.3,4.2,0.5,8.5,0.4,12.8c-0.1,4.5-0.4,9.1-1,13.5c-0.6,4.5-1.5,9.1-2.8,13.5
				c-1.3,4.3-2.9,8.5-5,12.5c-2.1,3.9-4.6,7.5-7.7,10.6c-3.1,3.2-6.8,5.8-10.9,7.7c-4.6,2.2-9.5,3.4-14.6,4
				c-6.2,0.7-12.6,0.3-18.6-1c-5.7-1.3-11.2-3.6-16.1-6.9c-4.6-3.2-8.6-7.3-11.6-12c-3.7-6.1-5.6-13.1-6.1-20.3
				c-0.1-1.9-0.1-3.9-0.1-5.8c0-1.9,0.2-3.7,0.5-5.5c0.4-1.8,0.9-3.6,1.7-5.3c0.4-0.9,0.8-1.8,1.5-2.4c1.2-1.1,2.7-1.9,4.2-2.7
				c2.1-1.1,4.3-2.2,6.5-3.1c4.5-2,9-3.9,13.6-5.6c3-1.2,6.1-2.3,9.1-3.5c4-1.7,8-3.5,11.8-5.7c4.4-2.5,8.5-5.3,12.3-8.7
				c4-3.5,7.4-7.6,10-12.3c1.3-2.4,2.3-4.8,3.1-7.4C832.1,357.5,831.9,357.4,831.9,357.5z"/>
		</g>
	</g>
	<g display="inline" opacity="0.5">
		<g>
			<path fill="#662811" d="M816,412.7c0,1.1,0.1,2.2,0.3,3.2c0.2,1,0.4,2.1,0.7,3.1c0.3,1,0.7,2,1.1,3c0.5,1,1,2,1.6,3
				c0.7,1,1.4,2,2.2,3c0.1,0.1,0.2,0.2,0.3,0.4c0,0,0-0.1,0-0.1c-1.1,0.5-2.3,1-3.3,1.5c-1.2,0.6-2.3,1.3-3.5,2
				c-0.6,0.4-1.1,0.8-1.7,1.2c-0.1,0.1,0,0.2,0.1,0.1c1-0.8,2-1.4,3.1-2.1c1.1-0.7,2.3-1.3,3.5-1.8c0.6-0.3,1.2-0.5,1.8-0.8
				c0.1,0,0.1-0.1,0-0.1c-0.8-0.9-1.6-1.9-2.3-2.9c-0.6-0.9-1.2-1.9-1.7-2.9c-0.5-1-0.8-2-1.1-3c-0.3-1-0.5-2-0.7-3
				c-0.2-1-0.3-2.1-0.3-3.2c0-0.1,0-0.3,0-0.4C816.2,412.6,816,412.6,816,412.7L816,412.7z"/>
		</g>
	</g>
	<g display="inline" opacity="0.5">
		<g>
			<path fill="#662811" d="M797.5,445.4c1,1,2.1,1.9,3.3,2.7c1.3,0.9,2.8,1.5,4.4,1.8c1.8,0.4,3.7,0.4,5.6,0.1
				c1.6-0.2,3.2-0.6,4.8-1.3c1.4-0.6,2.7-1.4,3.8-2.4c0.1-0.1,0.3-0.3,0.4-0.4c0.1-0.1,0-0.2-0.1-0.1c-1.1,1-2.3,1.9-3.7,2.5
				c-1.4,0.7-3,1.2-4.6,1.4c-0.9,0.1-1.8,0.2-2.7,0.2c-0.9,0-1.9,0-2.8-0.2c-1.6-0.3-3.1-0.8-4.5-1.6c-1.2-0.7-2.3-1.6-3.3-2.6
				c-0.1-0.1-0.2-0.2-0.3-0.3C797.6,445.2,797.5,445.3,797.5,445.4L797.5,445.4z"/>
		</g>
	</g>
</g>
<g id="Illustration_2">
	
		<path fill="#FCCA99" stroke="#000000" stroke-width="2.5618" stroke-linecap="round" stroke-linejoin="round" stroke-miterlimit="10" d="
		M1294.4,706.6c-7.5-7.9-3.6-24.4-10.9-24.4c-6.6,0-2,12.6-7.1,11.8c-1.2-0.2-11.8-11.9-15.7-7.7c-3.9,4.2,6.1,13,7.6,14.2
		c-3.1-1.7-11.9-10.5-15.9-5.3c-4.3,5.6,9.7,11.7,11.9,13.6c-5.9-4-14.4-5.5-15.2-0.8c-1.7,9.4,22.1,10.7,31,17.4L1294.4,706.6z"/>
	
		<path fill="#FCCA99" stroke="#000000" stroke-width="2.5618" stroke-linecap="round" stroke-linejoin="round" stroke-miterlimit="10" d="
		M1316.5,603.9c-2.2-10.7,9.8-22.6,3.7-26.5c-5.6-3.5-8.4,9.7-12.3,6.2c-0.9-0.8-3.7-16.1-9.2-14.8c-6.3,1.4-1.7,14.3-1.1,16.1
		c-1.7-3.1-5.1-16.2-11.7-12.9c-6.3,3.1,3.1,15,4,17.8c-2.9-6.5-8.8-14-12.4-8.8c-5,7.1,13.1,20.8,17.1,31.2L1316.5,603.9z"/>
	
		<path fill="#FCCA99" stroke="#000000" stroke-width="2.7398" stroke-linecap="round" stroke-linejoin="round" stroke-miterlimit="10" d="
		M1251.4,956.8c-5.6,13.5-3.2,25.2-11.8,27.8c-10,3-29.2-6.8-30.9-13.3c-1.8-6.8,6.1-9.7,10.5-7.7c2.6-9.6,5.2-20.9,6.3-24.3
		C1229,928.5,1255.1,947.9,1251.4,956.8z"/>
	
		<path fill="#FCCA99" stroke="#000000" stroke-width="2.7398" stroke-linecap="round" stroke-linejoin="round" stroke-miterlimit="10" d="
		M1389.9,1009.7c-0.9,13.2,1.2,21.6-5.3,25.2c-7,3.9-23.6,2.8-28.7-1.9c-4.9-4.4,0.7-10.1,5.1-9.7c-0.3-7.1-1.1-20.4-1.1-23.7
		C1359.6,989.4,1391,993.9,1389.9,1009.7z"/>
	
		<path fill="#C69C6D" stroke="#000000" stroke-width="2.7398" stroke-linecap="round" stroke-linejoin="round" stroke-miterlimit="10" d="
		M1416,673.7c-17.5-2.2-45-7.4-59.9-16.9c-8.5-5.4-32.6-49.4-40-55.5c-5,2.4-15.8,7.8-22.6,9.5c-2.8,13.5,17.5,61.3,30.2,74.4
		c19.8,20.4,40.1,28.6,67.7,35.6"/>
	
		<path fill="#6D2424" stroke="#000000" stroke-width="2.7398" stroke-linecap="round" stroke-linejoin="round" stroke-miterlimit="10" d="
		M1346,792.8c-40.3,16.4-76.5,36.2-96.8,65.8s-29.9,63.9-29.9,93.7c4,5.5,23.6,12.9,31.9,11.8c12.8-10.3,22.4-51.3,48.3-75.8
		c23.1-21.8,46.1-27.9,57.9-32.7c-3.8,22.2-14.4,39.9-13.6,78.2c0.5,22,5.4,70.6,14.5,79c8.4,4.6,26,2.1,33.3,0
		c6-4.3,8.1-42.6,11.3-80.3c4.1-48.7,38.1-82.8,32.3-113.2C1434.1,814.8,1374.8,791.6,1346,792.8z"/>
	
		<path fill="#DC9779" stroke="#000000" stroke-width="3.8774" stroke-linecap="round" stroke-linejoin="round" stroke-miterlimit="10" d="
		M192.6,172.6c-20.4-17.7-92.9-9.3-105.5,57.8c-5.9,31.4-6.6,81.2,3.1,124c6.4,28.4,17.9,56.6,39,76.7c24.5,23.4,53.3,30.7,87.2,29
		c51.4-2.7,108.9-37.5,116.1-57.7s-37.1-157.6-44.7-171.9"/>
	<polygon fill="#C69C6D" points="168.4,194.7 144.2,311.6 236,311.6 296.8,202.1 194.2,184.4 	"/>
	
		<path fill="#C69C6D" stroke="#000000" stroke-width="3.8774" stroke-linecap="round" stroke-linejoin="round" stroke-miterlimit="10" d="
		M292.2,176.9c0,0,70,15.8,46.3,124.7C314.6,410.5,202.8,337,202.8,337"/>
	
		<path fill="#DC9779" stroke="#000000" stroke-width="3.8774" stroke-linecap="round" stroke-linejoin="round" stroke-miterlimit="10" d="
		M857.4,173.7c20.4-17.7,92.9-9.3,105.5,57.8c5.9,31.4,6.6,81.2-3.1,124c-6.4,28.4-17.9,56.6-39,76.7c-24.5,23.4-53.3,30.7-87.2,29
		c-51.4-2.7-108.9-37.5-116.1-57.7c-7.2-20.3,37.1-157.6,44.7-171.9"/>
	
		<path fill="none" stroke="#964827" stroke-width="3.8774" stroke-linecap="round" stroke-linejoin="round" stroke-miterlimit="10" d="
		M908.9,253.5c5.9-11.6,15.1-21.6,26.2-28.4"/>
	
		<path fill="none" stroke="#964827" stroke-width="3.8774" stroke-linecap="round" stroke-linejoin="round" stroke-miterlimit="10" d="
		M908.9,223c3.5-7.5,7.9-14.6,13.1-21.1"/>
	
		<path fill="none" stroke="#964827" stroke-width="3.8774" stroke-linecap="round" stroke-linejoin="round" stroke-miterlimit="10" d="
		M848.9,412.5c8.6,0.7,19.7,4.1,28.7,22.9"/>
	
		<path fill="none" stroke="#964827" stroke-width="3.8774" stroke-linecap="round" stroke-linejoin="round" stroke-miterlimit="10" d="
		M859.7,405.8c8.5-2.3,20.9-4.6,37.8,7.7"/>
	<g>
		<path fill="#42210B" d="M837.7,166.1c-1.9,0-3.4-1.4-3.5-3.2c-0.4-5-0.8-18.6,2.3-37.4l1.2-31.9l-23.9,1.8c-0.1,0-0.2,0-0.3,0
			l-22.4-0.6c-4,7.4-9.4,15.3-14.1,22.4c-5.8,8.7-11.3,16.9-12.9,21.8c-0.5,1.4-1.8,2.4-3.3,2.4c-1.2,0-2.2-0.6-2.9-1.5
			c-2.6-3.8-6.9-11.4-7.8-20.6c-0.6,0.8-1.6,1.3-2.8,1.3c-1.9,0-3.4-1.4-3.5-3.3c-0.9-14,1.2-26.6,3.2-35c-0.3,0.1-0.5,0.1-0.8,0.1
			c-1,0-2.1-0.5-2.7-1.3c-0.7-0.8-0.9-1.8-0.7-2.9c1.3-6.8,5.1-19.1,16.2-27.3c-0.4,0-0.9,0-1.3,0c-1.4,0-2.7,0.1-3.9,0.4
			c-0.3,0.1-0.6,0.1-0.9,0.1c-1.3,0-2.5-0.8-3.1-2c-0.6-1.2-0.5-2.6,0.3-3.7c5.1-6.7,13-15,21.6-16.5c-0.9-2.6-2.1-7.1-1.8-11.5
			c0.2-1.8,1.7-3.2,3.5-3.2c1,0,2,0.4,2.6,1.2c1.9,2.1,5,4.7,9.5,4.7c0.6,0,1.2,0,1.8-0.1l0.7-0.1c4.1-0.6,10.3-1.5,17-1.5
			c13.7,0,23.4,3.9,28.9,11.5c1.2-0.1,3.5-0.3,6.5-0.3c11.1,0,31.4,2.8,42.2,21.4c0.6,1.1,0.6,2.4,0,3.5c-0.6,1.1-1.8,1.8-3,1.8
			c-0.5,0-1.1-0.1-1.6-0.4c-1.5-0.7-2.9-1.4-4.2-1.8c6.5,5.9,15.7,17,14,32.6c0,0.1,0,0.3-0.1,0.4c-0.1,1.1-0.3,2.2-0.4,2.6
			c-1.2,7.2-3,13.1-4.5,18.3c-2.8,9.4-4.7,15.5-1.3,22.5c0.5,1.1,0.5,2.4-0.2,3.4c-0.6,1-1.8,1.7-3,1.7c-0.5,0-0.9-0.1-1.3-0.3
			c-3.7-1.5-6.6-3.1-8.5-4.8c-1.4,5.5-3.3,15.4-2.4,23.5c0.1,1-0.2,2-0.9,2.7c-0.7,0.8-1.6,1.2-2.6,1.2c-0.7,0-1.4-0.2-2-0.6
			c-1.9-1.3-4.3-3.5-5.7-6.3c-2.6,3.8-7.9,10.2-15.6,14.5C838.9,165.9,838.3,166.1,837.7,166.1z"/>
		<path d="M773.5,16.5c0.4,0,0.9,0.2,1.2,0.5c2,2.3,5.7,5.4,10.9,5.4c0.7,0,1.3,0,2.1-0.2c4-0.6,10.5-1.6,17.4-1.6
			c10.1,0,21.3,2.1,27.4,10.8c0.3,0.4,0.8,0.7,1.3,0.7c0.1,0,0.1,0,0.2,0c1.2-0.1,3.5-0.3,6.5-0.3c10.7,0,30.2,2.6,40.5,20.5
			c0.6,1.1-0.2,2.4-1.4,2.4c-0.2,0-0.5-0.1-0.7-0.2c-1.8-0.9-4-1.9-6.3-2.5c-0.2,0-0.3-0.1-0.4-0.1c-1.4,0-2.1,1.8-1,2.8
			c6.2,5.2,16.4,16.3,14.7,32.1c0,0.1,0,0.1-0.1,0.2c-0.1,1.1-0.3,2.3-0.4,2.7c-3.3,20.1-11.4,30.2-5.6,41.9
			c0.5,1.1-0.3,2.3-1.4,2.3c-0.2,0-0.4,0-0.6-0.1c-2.8-1.1-6.3-2.8-8.3-4.9c-0.3-0.3-0.7-0.5-1.1-0.5c-0.7,0-1.3,0.4-1.5,1.2
			c-1.3,5.4-3.6,16.1-2.6,24.8c0.1,1-0.7,1.7-1.6,1.7c-0.3,0-0.6-0.1-0.9-0.3c-1.9-1.3-4.2-3.4-5.3-6c-0.3-0.6-0.9-1-1.5-1
			c-0.5,0-1,0.2-1.3,0.7c-2.6,3.8-7.7,10.2-15.3,14.4c-0.3,0.1-0.5,0.2-0.8,0.2c-0.8,0-1.5-0.6-1.6-1.4c-0.4-5.1-0.8-18.4,2.3-36.9
			c0-0.1,0-0.1,0-0.2l1.3-34.2l-26,1.9c0,0-0.1,0-0.1,0c0,0,0,0,0,0L790,92.8c-8.8,16.5-24.7,36-27.8,45.5c-0.2,0.7-0.9,1.1-1.5,1.1
			c-0.5,0-1-0.2-1.3-0.7c-2.7-4-7-11.7-7.5-20.9c-0.1-1-0.8-1.5-1.6-1.5c-0.6,0-1.2,0.3-1.4,1c0,0.1-0.1,0.1-0.1,0.2
			c-0.3,0.7-0.9,1-1.5,1c-0.8,0-1.5-0.5-1.6-1.5c-1-15.5,1.7-30,4.6-40c-1,0.8-2,1.7-3.1,2.8c-0.3,0.3-0.7,0.5-1.1,0.5
			c-0.9,0-1.8-0.8-1.6-1.9c1.3-7,5.2-19,16.2-26.6c1.2-0.8,0.8-2.7-0.7-2.9c-0.8-0.1-1.6-0.1-2.5-0.1c-1.4,0-2.9,0.1-4.3,0.5
			c-0.1,0-0.3,0.1-0.4,0.1c-1.2,0-2-1.5-1.2-2.5c4.7-6.2,12.5-14.6,20.7-15.8c1-0.1,1.6-1.1,1.3-2.1c-0.9-2.5-2.2-6.9-1.8-11.1
			C772,17,772.7,16.5,773.5,16.5 M773.5,12.6c-2.9,0-5.2,2.1-5.4,4.9c-0.3,3.6,0.4,7.3,1.2,10.3c-8.3,2.4-15.7,10.3-20.6,16.7
			c-1.3,1.7-1.5,3.8-0.5,5.7c0.9,1.9,2.8,3,4.8,3c0.1,0,0.2,0,0.2,0c-8.1,8.2-11.2,18.4-12.3,24.4c-0.3,1.6,0.1,3.2,1.1,4.5
			c0.7,0.8,1.6,1.4,2.6,1.8c-1.9,8.4-3.6,20.3-2.7,33.3c0.2,2.9,2.5,5.1,5.5,5.1c0.4,0,0.8,0,1.2-0.1c1.4,8.3,5.3,15.1,7.7,18.6
			c1,1.5,2.7,2.4,4.5,2.4c2.4,0,4.4-1.5,5.2-3.8c1.5-4.6,6.9-12.7,12.7-21.3c4.6-6.8,9.7-14.4,13.6-21.5l21.1,0.6c0,0,0.1,0,0.1,0
			c0.1,0,0.3,0,0.4,0l21.7-1.6l-1.1,29.7c-3.2,18.9-2.7,32.6-2.3,37.7c0.2,2.8,2.6,5,5.4,5c0.9,0,1.9-0.2,2.7-0.7
			c6.5-3.6,11.2-8.5,14.5-12.7c1.2,1.6,2.8,3.1,4.7,4.4c0.9,0.7,2,1,3.1,1c1.6,0,3-0.7,4.1-1.8c1-1.1,1.5-2.7,1.3-4.2
			c-0.7-6.5,0.5-14.4,1.7-19.9c1.8,1.2,4,2.3,6.5,3.3c0.7,0.3,1.4,0.4,2.1,0.4c1.9,0,3.6-1,4.6-2.6c1-1.6,1.1-3.6,0.3-5.3
			c-3.1-6.2-1.3-12.1,1.4-21c1.6-5.2,3.4-11.2,4.6-18.6c0.1-0.4,0.2-1.4,0.4-2.6c0-0.1,0.1-0.3,0.1-0.5c1.3-12.4-3.8-22.1-9.3-28.7
			c1.6-0.3,3.1-1.2,3.9-2.7c1-1.7,1-3.7,0-5.4c-11.2-19.5-32.3-22.4-43.9-22.4c-2.3,0-4.2,0.1-5.6,0.2c-5.9-7.5-15.9-11.4-29.8-11.4
			c-6.8,0-13.1,0.9-17.3,1.5l-0.7,0.1c-0.5,0.1-1,0.1-1.5,0.1c-3.7,0-6.4-2.2-8-4C776.5,13.3,775,12.6,773.5,12.6L773.5,12.6z"/>
	</g>
	<polygon fill="#C69C6D" points="881.6,195.7 905.8,312.7 814,312.7 753.2,203.2 855.8,185.4 	"/>
	
		<path fill="#C69C6D" stroke="#000000" stroke-width="3.8774" stroke-linecap="round" stroke-linejoin="round" stroke-miterlimit="10" d="
		M757.8,177.9c0,0-70,15.8-46.3,124.7c23.8,108.9,135.6,35.4,135.6,35.4"/>
	<g>
		<path fill="#EAB48F" d="M809.3,197.2c-6.7,0-13.6-0.9-20.5-2.8c-0.5-0.1-0.9-0.4-1.1-0.8c-4.5-6.9-6.1-17.2-7.6-27.1
			c-0.8-5.3-1.6-10.3-2.7-14.5c-0.1-0.3-0.1-0.6,0-0.9c1.7-8,31.3-24.2,37.3-27.4c0.7-0.4,19.6-11.4,29.7-11.4c3,0,5.1,0.9,6.3,2.7
			c1.5,2.2,1.6,5.3,0.1,9.6c-10.6,30.5-7.4,61-7.3,61.3c0.1,0.7-0.2,1.3-0.7,1.7C842.1,188.1,830.2,197.2,809.3,197.2
			C809.3,197.2,809.3,197.2,809.3,197.2z"/>
		<path d="M844.3,114.3c4.6,0,7.1,2.5,4.6,9.7c-10.9,31.3-7.4,62.2-7.4,62.2s-11.6,9.1-32.1,9.1c-5.9,0-12.6-0.8-20-2.7
			c-6.7-10.1-6.7-28.8-10-41.1c1.6-7.5,36.3-26,36.3-26S834.5,114.3,844.3,114.3 M844.3,110.4c-10.4,0-28.3,10.3-30.7,11.6
			c-0.9,0.5-9.1,4.9-17.7,10.3c-16.9,10.6-19.8,15.2-20.5,18.3c-0.1,0.6-0.1,1.2,0.1,1.8c1.1,4.1,1.9,9,2.7,14.3
			c1.5,10.1,3.1,20.6,7.9,27.9c0.5,0.8,1.3,1.4,2.2,1.6c7.1,1.9,14.2,2.9,21,2.9c21.6,0,34-9.5,34.5-9.9c1.1-0.8,1.6-2.1,1.5-3.5
			c0-0.3-3.2-30.4,7.2-60.5c1.7-5,1.6-8.7-0.3-11.4C851.1,112.3,848.8,110.4,844.3,110.4L844.3,110.4z"/>
	</g>
	<path fill="#42210B" d="M802,92.9c18.6-1,39.5-16.2,39.5-16.2c-3.2,10.8,7.6,22.6,3.6,46.6"/>
	
		<path fill="#FCCA99" stroke="#000000" stroke-width="3.8774" stroke-linecap="round" stroke-linejoin="round" stroke-miterlimit="10" d="
		M842.7,129.6c0,0-1,3.9-2.8,8.8c-2.7,7.3-8,13.3-15,16.7c-11.1,5.4-27,10-35.4,8.9c-12.4-1.8-16.6-6.8-17.7-8.5
		c-17.9-28-8.1-82.1-4.7-89.2c5.8-12.2,11.8-27.4,32.7-26.3c68.1,3.5,53.4,53.2,52.1,55.2c2.6-2.6,6.6-3.9,9.5-1
		c5.2,6-0.6,20.9-3.2,24.4C855,122.9,849.5,128.4,842.7,129.6z"/>
	
		<path fill="none" stroke="#000000" stroke-width="3.8774" stroke-linecap="round" stroke-linejoin="round" stroke-miterlimit="10" d="
		M804.2,101c0,0,7.2-5.7,14.4,1.2"/>
	
		<path fill="none" stroke="#000000" stroke-width="3.8774" stroke-linecap="round" stroke-linejoin="round" stroke-miterlimit="10" d="
		M769.1,96.9c3.2-3.4,9.7-2.2,12.3,1.1"/>
	
		<path fill="none" stroke="#D87B68" stroke-width="3.8774" stroke-linecap="round" stroke-linejoin="round" stroke-miterlimit="10" d="
		M804.4,134.7c-10.2,10.2-25.9,5.5-30.6-2"/>
	
		<path fill="none" stroke="#C6896B" stroke-width="3.8774" stroke-linecap="round" stroke-linejoin="round" stroke-miterlimit="10" d="
		M789.6,100.8c0,0-2.7,10.2-6.7,18.2c-0.8,1.7,0.2,3.7,2,3.9c4.5,0.7,9.9-0.4,9.9-0.4"/>
	
		<path fill="#160600" stroke="#160600" stroke-width="2.5849" stroke-linecap="round" stroke-linejoin="round" stroke-miterlimit="10" d="
		M802.4,86.6c0,0,15.9-4.6,24.1,7.4c-9.9-7.8-24.1-4.3-24.1-4.3L802.4,86.6z"/>
	
		<path fill="#160600" stroke="#160600" stroke-width="2.5849" stroke-linecap="round" stroke-linejoin="round" stroke-miterlimit="10" d="
		M785.6,85.1c0,0-12.2-5.3-20.8,1.8c8.8-3.6,20.1,1.4,20.1,1.4L785.6,85.1z"/>
	<path fill="#42210B" d="M832,37.6c-48-15.8-73.2,1.3-72.5,47.6c0,0,0,0,0,0c2.3-6.5,8.3-30.7,32.2-33.2c10.6-1.1,26.8,1.1,35.2,5.2
		c6.8,3.3,16.6,12.6,17.9,24.7c1.3,12.1-0.2,18.2-1.2,23.2c-0.4,1.9,1.9,3.2,3.3,1.9c2.9-2.7,6.9-8,10.9-18.5
		C863.2,74.4,866.4,48.9,832,37.6z"/>
	<g>
		<path fill="#42210B" d="M1453.3,660.5c-0.7,0-1.3-0.3-1.8-0.8c-0.4-0.5-0.6-1.1-0.6-1.8c0.3-3.1,1.5-11.4,5.5-22.4l4.1-19
			l-14.4-1.5c0,0-0.2,0-0.2,0l-13.4-2.8c-3.2,4-7.3,8.2-10.9,11.9c-4.5,4.6-8.7,8.9-10.2,11.7c-0.4,0.8-1.2,1.2-2,1.2
			c-0.9,0-1.8-0.5-2.1-1.4c-1.1-2.5-2.9-7.5-2.5-13c-0.4,0.2-0.8,0.3-1.2,0.3c-0.7,0-1.3-0.3-1.8-0.8c-0.4-0.5-0.6-1.1-0.6-1.8
			c1-8.5,3.5-15.8,5.6-20.6c-0.7,0-1.4-0.4-1.8-1c-0.4-0.6-0.5-1.4-0.2-2.1c1.5-3.9,5.1-10.8,12.4-14.6c-0.7-0.2-1.4-0.2-2.1-0.2
			c-0.2,0-0.4,0-0.5,0c0,0-0.1,0-0.2,0c-1,0-1.8-0.6-2.2-1.5c-0.4-0.9-0.1-1.9,0.6-2.6c3.8-3.5,9.4-7.6,14.8-7.7
			c-0.3-1.9-0.4-4.6,0.2-7c0.3-1,1.2-1.7,2.2-1.7c0.8,0,1.6,0.4,2,1.1c1,1.7,2.9,3.8,6.2,3.9l0.5,0c6.5,0.2,21.8,0.7,26.8,11
			c4.1,0.3,21.6,2.5,27.2,18.2c0.3,0.7,0.2,1.5-0.3,2.1c-0.4,0.6-1.2,1-1.9,1c-0.5,0-1-0.2-1.4-0.5c-0.5-0.4-1-0.8-1.5-1.1
			c3.2,4.4,7,11.9,4.4,20.7c0,0.1,0,0.1-0.1,0.2c-0.2,0.7-0.4,1.3-0.5,1.5c-1.5,4.3-3.2,7.7-4.8,10.6c-2.7,5.3-4.5,8.8-3.2,13.3
			c0.2,0.7,0.1,1.5-0.4,2.1c-0.4,0.6-1.1,0.9-1.9,0.9c-0.4,0-0.9-0.1-1.2-0.4c-2-1.3-3.5-2.5-4.5-3.7c-1.4,3.2-3.6,8.8-3.9,13.6
			c-0.1,1.2-1.1,2.2-2.3,2.2c-0.6,0-1.2-0.2-1.7-0.7c-0.9-1-2.1-2.4-2.7-4.2c-2.1,2-5.9,5.2-10.9,6.9
			C1453.9,660.5,1453.6,660.5,1453.3,660.5z"/>
		<path d="M1430.2,562.8c0.3,0,0.6,0.2,0.8,0.5c1.1,1.8,3.3,4.4,7.3,4.6c6.1,0.2,21.5,0.5,26.1,10.5c0.2,0.3,0.5,0.5,0.8,0.6
			c3.4,0.2,20.8,2,26.3,17.3c0.2,0.7-0.3,1.3-0.9,1.3c-0.2,0-0.4-0.1-0.6-0.2c-1-0.8-2.2-1.6-3.5-2.2c-0.1-0.1-0.3-0.1-0.4-0.1
			c-0.7,0-1.3,0.9-0.7,1.6c3.2,3.8,8.1,11.7,5.4,21c0,0,0,0.1-0.1,0.1c-0.2,0.7-0.4,1.4-0.5,1.6c-4.2,11.8-10.2,17-8,24.8
			c0.2,0.7-0.3,1.2-0.9,1.2c-0.2,0-0.3,0-0.5-0.2c-1.6-1-3.5-2.4-4.5-3.9c-0.2-0.3-0.5-0.4-0.8-0.4c-0.4,0-0.7,0.2-0.9,0.6
			c-1.4,3.1-3.9,9.3-4.3,14.7c0,0.5-0.5,0.9-1,0.9c-0.2,0-0.5-0.1-0.7-0.3c-1-1-2.2-2.5-2.6-4.2c-0.1-0.5-0.5-0.8-0.9-0.8
			c-0.2,0-0.5,0.1-0.7,0.3c-2,2-5.8,5.3-10.8,7.1c-0.1,0-0.2,0.1-0.3,0.1c-0.6,0-1-0.5-1-1.1c0.3-3.1,1.5-11.2,5.4-22.1
			c0,0,0-0.1,0-0.1l4.5-20.5l-16-1.7c0,0-0.1,0-0.1,0l-14.2-2.9c-7.1,9-18.9,19.1-21.8,24.5c-0.2,0.3-0.5,0.5-0.8,0.5
			c-0.4,0-0.7-0.2-0.9-0.6c-1.2-2.7-3-7.8-2.3-13.5c0.1-0.7-0.4-1.1-1-1.1c-0.3,0-0.6,0.1-0.8,0.5c0,0,0,0.1-0.1,0.1
			c-0.2,0.3-0.5,0.5-0.8,0.5c-0.5,0-1.1-0.4-1-1.1c1.1-9.5,4.3-18,7.2-23.7c-0.7,0.4-1.4,0.8-2.2,1.3c-0.2,0.1-0.4,0.2-0.6,0.2
			c-0.6,0-1.2-0.6-0.9-1.3c1.6-4.1,5.2-10.9,12.7-14.3c0.8-0.4,0.8-1.6-0.1-1.8c-1-0.3-2.3-0.5-3.5-0.5c-0.2,0-0.4,0-0.6,0
			c0,0,0,0-0.1,0c-0.9,0-1.3-1.1-0.6-1.7c3.4-3.2,8.9-7.3,14-7.3c0.1,0,0.2,0,0.3,0c0,0,0,0,0,0c0.6,0,1.1-0.5,1-1.1
			c-0.3-1.6-0.6-4.4,0.1-6.9C1429.4,563,1429.8,562.8,1430.2,562.8 M1430.2,560c-1.7,0-3.1,1.1-3.6,2.7c-0.6,2.1-0.6,4.3-0.4,6.1
			c-5.3,0.7-10.6,4.6-14.2,7.9c-1.1,1-1.5,2.6-0.9,4.1c0.4,1,1.2,1.8,2.2,2.1c-5.5,4.1-8.3,9.7-9.6,13.2c-0.4,1.1-0.3,2.4,0.4,3.4
			c0.3,0.4,0.7,0.8,1.1,1.1c-2,4.9-4.3,11.8-5.2,19.7c-0.1,1.1,0.2,2.1,0.9,2.9c0.7,0.7,1.6,1.2,2.6,1.2c0,5.1,1.6,9.5,2.7,11.9
			c0.6,1.3,1.9,2.2,3.4,2.2c1.4,0,2.6-0.7,3.3-1.9c1.4-2.6,5.5-6.9,9.9-11.4c3.5-3.6,7.3-7.5,10.5-11.4l12.5,2.6
			c0.1,0,0.2,0,0.4,0.1l12.9,1.4l-3.8,17.4c-4,11.1-5.2,19.5-5.5,22.6c-0.1,1,0.2,2.1,0.9,2.9c0.7,0.8,1.7,1.2,2.8,1.2
			c0.4,0,0.8-0.1,1.2-0.2c4.2-1.4,7.5-3.7,10-5.9c0.6,1,1.3,1.9,2.2,2.9c0.7,0.7,1.6,1.1,2.6,1.1c2,0,3.6-1.5,3.7-3.5
			c0.2-3.8,1.8-8.3,3-11.3c0.9,0.8,2,1.6,3.3,2.4c0.6,0.4,1.3,0.6,2,0.6c1.2,0,2.3-0.6,3-1.5c0.7-0.9,0.9-2.1,0.6-3.3
			c-1.1-4,0.6-7.3,3.1-12.3c1.5-3,3.3-6.4,4.8-10.8c0.1-0.2,0.3-0.8,0.5-1.5c0-0.1,0.1-0.2,0.1-0.3c2.1-7.2,0.3-13.5-2.2-18.2
			c1-0.1,1.9-0.7,2.5-1.6c0.7-1,0.9-2.2,0.5-3.4c-5.6-15.6-22.3-18.5-27.6-19c-5.6-10.4-21-10.9-27.6-11.1l-0.5,0
			c-2.1-0.1-3.8-1.2-5-3.2C1432.7,560.7,1431.5,560,1430.2,560L1430.2,560z"/>
	</g>
	<g>
		<path fill="#EAB48F" d="M1445.5,676.9c-5.9,0-15.5-0.7-27.3-3.8c-0.5-0.1-0.9-0.6-1-1.1c-0.5-4,0.5-9,1.5-14.3
			c1-4.8,1.9-9.9,1.6-13.7c0-0.2,0-0.4,0.1-0.6c2-4.9,21-11.6,24.8-12.8c0.4-0.1,10-3.8,16.3-3.8c2.8,0,4.7,0.8,5.6,2.3
			c1,1.6,0.6,3.8-1,6.7c-10.2,18.2-13.5,39.6-13.5,39.8c-0.1,0.6-0.6,1.1-1.2,1.2C1451.3,676.6,1449.2,676.9,1445.5,676.9
			L1445.5,676.9z"/>
		<path d="M1461.4,628c4,0,6.4,1.6,3.4,7c-10.5,18.6-13.7,40.3-13.7,40.3s-2,0.3-5.7,0.3c-5.6,0-15.1-0.6-27-3.8
			c-1-7.5,3.9-19.8,3.1-28c1.8-4.6,23.9-12,23.9-12S1455.3,628,1461.4,628 M1461.4,625.2c-6.4,0-15.9,3.5-16.8,3.9
			c-0.6,0.2-5.9,2-11.4,4.4c-11.1,4.7-13.4,7.3-14.1,9.2c-0.2,0.4-0.2,0.8-0.2,1.3c0.3,3.6-0.6,8.6-1.6,13.3
			c-1.1,5.4-2.1,10.6-1.5,14.8c0.1,1.1,0.9,2,2,2.3c12,3.2,21.7,3.9,27.7,3.9c3.8,0,6-0.3,6-0.3c1.2-0.2,2.2-1.1,2.4-2.3
			c0-0.2,3.3-21.4,13.4-39.4c0.7-1.2,2.8-5,1-8.1C1467.1,626.2,1464.8,625.2,1461.4,625.2L1461.4,625.2z"/>
	</g>
	<path fill="#42210B" d="M1439.3,612.1c11.4,1.4,25.7-5.5,25.7-5.5c-3.1,6.2,2.2,14.5-2.9,28.6"/>
	
		<path fill="#FCCA99" stroke="#000000" stroke-width="2.7398" stroke-linecap="round" stroke-linejoin="round" stroke-miterlimit="10" d="
		M1460,638.8c0,0-1.1,2.2-2.7,5c-2.4,4.1-6.3,7.2-10.9,8.5c-7.3,2-17.5,3.1-22.4,1.5c-7.3-2.4-9.3-5.9-9.8-7.1
		c-7.8-18.9,4.1-50.6,6.9-54.5c4.9-6.7,10.1-15.3,22.7-12.4c40.8,9.5,26.5,38,25.5,39.1c1.8-1.3,4.4-1.7,5.9,0.4
		c2.5,4.2-2.7,12.6-4.6,14.4C1468.1,636.1,1464.2,638.8,1460,638.8z"/>
	
		<path fill="#D87B68" stroke="#D87B68" stroke-width="2.0955" stroke-linecap="round" stroke-linejoin="round" stroke-miterlimit="10" d="
		M1416.8,635.4c4.8,3.6,12,4.9,16.5,2.8c1.3-0.6,2.6,1.1,2.1,2.4c0,0.1,0,0.1-0.1,0.2c-0.3,0.6-0.9,0.9-1.5,1.1
		C1427.6,644.1,1418.9,641.1,1416.8,635.4"/>
	
		<path fill="none" stroke="#C6896B" stroke-width="2.7398" stroke-linecap="round" stroke-linejoin="round" stroke-miterlimit="10" d="
		M1431,615.6c0,0-2.8,5.9-6,10.3c-0.7,0.9-0.3,2.2,0.8,2.6c2.6,0.9,6,0.9,6,0.9"/>
	
		<path fill="#160600" stroke="#160600" stroke-width="1.5899" stroke-linecap="round" stroke-linejoin="round" stroke-miterlimit="10" d="
		M1440.6,606.6c0,0,10.2,0,13,8.4c-4.6-6.3-13.5-6.6-13.5-6.6L1440.6,606.6z"/>
	
		<path fill="#160600" stroke="#160600" stroke-width="1.5899" stroke-linecap="round" stroke-linejoin="round" stroke-miterlimit="10" d="
		M1430.3,603.8c0,0-7.3-3.8-12.9,0.3c5.6-1.9,12.3,1.7,12.3,1.7L1430.3,603.8z"/>
	<path fill="#42210B" d="M1463.5,581.9c-27.3-14.8-44.4-7.2-49.1,20.9c0,0,0,0,0,0c2.1-3.7,8.4-17.7,23.1-16.6
		c6.5,0.5,16.1,3.6,20.7,7c3.8,2.8,8.6,9.4,8.1,16.9c-0.5,7.4-2.1,11-3.3,13.9c-0.5,1.1,0.8,2.2,1.8,1.5c2-1.3,5-4.1,8.6-10
		C1478.4,607.6,1483.1,592.5,1463.5,581.9z"/>
	
		<path fill="none" stroke="#000000" stroke-width="3.8774" stroke-linecap="round" stroke-linejoin="round" stroke-miterlimit="10" d="
		M857.4,255c0,0-0.7,19.8,10.7,39.3"/>
	
		<path fill="#C69C6D" stroke="#000000" stroke-width="3.8774" stroke-linecap="round" stroke-linejoin="round" stroke-miterlimit="10" d="
		M855.8,177.9c34.6-3.3,70.9,45.5,77.3,96.2c4,32.1,2.6,63.5-8.2,76.1c-12.7,14.8-25.4,22.2-37.9,23.1c-42.4,3-97.3-37.8-118.3-64.2
		c8.7-4.7,17.4-21.9,12-48c39.6,4.3,72.6,13.6,101.7,35.8"/>
	
		<path fill="#FFFFFF" stroke="#000000" stroke-width="3.8774" stroke-linecap="round" stroke-linejoin="round" stroke-miterlimit="10" d="
		M734,236.2c18.4-0.3,33.3,6.4,33.5,15l0.9,55.7l-66.5,1l-0.9-55.7C700.9,243.7,715.7,236.5,734,236.2z"/>
	
		<path fill="#C69C6D" stroke="#000000" stroke-width="3.8774" stroke-linecap="round" stroke-linejoin="round" stroke-miterlimit="10" d="
		M790,257.8c12.6,2.4,21.6,17.9,16.2,40.9c-6.1,26-22.6,29-33.5,26.3c-14.8-3.6-14.2-28.1-11.4-40
		C766.7,262.5,777.4,255.3,790,257.8z"/>
	<polygon fill="#FCCA99" points="706.7,272.4 706.7,289.4 688.9,289.4 691.5,270.5 	"/>
	<polygon fill="#FCCA99" points="765.9,277 738.2,273.9 733.8,303.5 762.8,308.6 	"/>
	
		<path fill="#FCCA99" stroke="#000000" stroke-width="3.8774" stroke-linecap="round" stroke-linejoin="round" stroke-miterlimit="10" d="
		M741.9,300.4c-8.9-3.3-17.4-8.8-15.5-14.4c1.9-5.6,12.6,1.9,17.8,3"/>
	
		<path fill="#FCCA99" stroke="#000000" stroke-width="3.8774" stroke-linecap="round" stroke-linejoin="round" stroke-miterlimit="10" d="
		M744.4,289.2c-8.2-1.6-17.6-6.6-14.1-12.5c3.1-5.3,16,1.1,21.4,3"/>
	
		<path fill="#FCCA99" stroke="#000000" stroke-width="3.8774" stroke-linecap="round" stroke-linejoin="round" stroke-miterlimit="10" d="
		M762.2,308.6c12.4-2.6,16.9-11.9,18.4-21.3c4.2-27.3-12.1-35.5-13.1-36.1c-3.6-1.9-5.4,0.1-5.2,0.7c0.7,2.4,6,2.9,5.4,14.6
		c0,10.3-28.9-6.4-33.2,2.7c-2.3,4.9,5.6,8.2,12.9,9.8"/>
	
		<path fill="#FFFFFF" stroke="#000000" stroke-width="3.8774" stroke-linecap="round" stroke-linejoin="round" stroke-miterlimit="10" d="
		M734,236.2c18.4-0.3,33.3,6.4,33.5,15l0.2,14.7"/>
	<g>
		
			<path fill="#C69C6D" stroke="#000000" stroke-width="3.8774" stroke-linecap="round" stroke-linejoin="round" stroke-miterlimit="10" d="
			M812,212.1c25,0,47-10.5,56-26.6c3.5-6.2,1.3-14.1-5-17.6c-6.2-3.5-14.1-1.3-17.6,5c-3.7,6.7-16.4,13.4-33.4,13.4
			c-17.5,0-30.5-7.2-33.7-14c-3.1-6.4-10.8-9.1-17.3-6c-6.4,3.1-9.1,10.8-6,17.3C763.4,200.9,785.8,212.1,812,212.1z"/>
	</g>
	<g>
		<path fill="none" stroke="#936D47" stroke-width="3.8774" stroke-miterlimit="10" d="M845,173.7c0,0,15.8,3,18.5,18.2"/>
		<path fill="none" stroke="#936D47" stroke-width="3.8774" stroke-miterlimit="10" d="M851.8,201.7c0,0-2-14.2-15-21.2"/>
		<path fill="none" stroke="#936D47" stroke-width="3.8774" stroke-miterlimit="10" d="M826.6,184.5c0,0,7,7.8,7.5,24.7"/>
		<path fill="none" stroke="#936D47" stroke-width="3.8774" stroke-miterlimit="10" d="M814.5,212.1c0,0,0.5-12.9-1.3-25.9"/>
		<path fill="none" stroke="#936D47" stroke-width="3.8774" stroke-miterlimit="10" d="M801.8,185.4c0,0-7,6.5-9.5,24.5"/>
		<path fill="none" stroke="#936D47" stroke-width="3.8774" stroke-miterlimit="10" d="M788,181c0,0-11.9,5.2-14.2,21.8"/>
		<path fill="none" stroke="#936D47" stroke-width="3.8774" stroke-miterlimit="10" d="M779.2,173.9c-1.7-1-17.3,0.9-19.4,17.3"/>
	</g>
	<path fill="none" stroke="#936D47" stroke-width="3.8774" stroke-miterlimit="10" d="M779.9,268.3c0,0,12-4.2,25.9,5"/>
	<path fill="none" stroke="#936D47" stroke-width="3.8774" stroke-miterlimit="10" d="M781.2,281.3c0,0,12.3,0.7,26.3,9.9"/>
	<path fill="none" stroke="#936D47" stroke-width="3.8774" stroke-miterlimit="10" d="M778.2,295.8c0.8,2,11.5,8.6,25,12.1"/>
	<g>
		
			<path fill="none" stroke="#000000" stroke-width="3.8774" stroke-linecap="round" stroke-linejoin="round" stroke-miterlimit="10" d="
			M812,212.1c25,0,47-10.5,56-26.6c3.5-6.2,1.3-14.1-5-17.6c-6.2-3.5-14.1-1.3-17.6,5c-3.7,6.7-16.4,13.4-33.4,13.4
			c-17.5,0-30.5-7.2-33.7-14c-3.1-6.4-10.8-9.1-17.3-6c-6.4,3.1-9.1,10.8-6,17.3C763.4,200.9,785.8,212.1,812,212.1z"/>
	</g>
	
		<path fill="#FCCA99" stroke="#000000" stroke-width="3.8774" stroke-linecap="round" stroke-linejoin="round" stroke-miterlimit="10" d="
		M689.5,292.4c7.6,2,25.4,2.8,25.4-4.7c0-5.2-6.9-5.1-10-5.6"/>
	
		<path fill="#FCCA99" stroke="#000000" stroke-width="3.8774" stroke-linecap="round" stroke-linejoin="round" stroke-miterlimit="10" d="
		M701,284.2c6.9,0.7,13.8-0.7,13.8-5.4c0-5.1-7.7-4.3-12.2-5.4"/>
	
		<path fill="#FCCA99" stroke="#000000" stroke-width="3.8774" stroke-linecap="round" stroke-linejoin="round" stroke-miterlimit="10" d="
		M701.4,274.6c5.3,1,13.5,1,14-4.1c0.6-6.7-14.2-2.2-14.2-10.5c0-3.3-0.5-5.5,1.9-7.5c-2.5-0.7-15.8,6.6-15.6,23.4
		c0.1,6.2-0.7,13.3,6,18.2"/>
	
		<path fill="#6D2424" stroke="#000000" stroke-width="3.8774" stroke-linecap="round" stroke-linejoin="round" stroke-miterlimit="10" d="
		M701,394.8c-36.9-14-63.1-37.8-58.1-73.2c5.6-13.4,11.4-21.3,24.5-27.7c14.4-7,33.6-5,57.5,6"/>
	
		<path fill="#FFFFFF" stroke="#000000" stroke-width="3.8774" stroke-linecap="round" stroke-linejoin="round" stroke-miterlimit="10" d="
		M734,236.2c-18.4,0.3-33.1,7.4-33,16l0.1,7.8"/>
	
		<ellipse transform="matrix(0.9998 -1.766651e-02 1.766651e-02 0.9998 -4.3251 13.0064)" fill="#3F4F03" cx="734" cy="251.3" rx="23.8" ry="8.4"/>
	<path fill="none" stroke="#000000" stroke-width="5" stroke-linecap="round" stroke-linejoin="round" stroke-miterlimit="10" d="
		M746.5,248.1c-1.4-1.5-2.7-3.3-3.4-5.3c-0.7-2-1.1-3.4-0.2-5.3c0.9-2.1,0.5-2.2,3.7-5.1c2.3-2.1,3.6-5.4,1.7-8.8"/>
	<path fill="none" stroke="#000000" stroke-width="5" stroke-linecap="round" stroke-linejoin="round" stroke-miterlimit="10" d="
		M735.5,216.8c2,1.9,3.1,4,3.1,6.8c0,2.3-1.5,4.3-3.1,5.9c-1.6,1.6-3.4,3.2-4.2,5.3c-0.8,2-0.6,4.2,0.1,6.2c0.8,2,2.1,3.7,3.6,5.2"
		/>
	<path fill="none" stroke="#000000" stroke-width="5" stroke-linecap="round" stroke-linejoin="round" stroke-miterlimit="10" d="
		M724.6,222.6c1.1,2,1.6,5.3-1.3,8.8c-1.4,1.8-3.1,3.4-3.8,5.6c-0.6,2-0.3,4.2,0.6,6.2c0.9,1.9,2.3,3.5,3.9,4.9"/>
	
		<path fill="none" stroke="#000000" stroke-width="3.8774" stroke-linecap="round" stroke-linejoin="round" stroke-miterlimit="10" d="
		M762.2,308.6c12.4-2.6,16.9-11.9,18.4-21.3c2-13.3-0.8-22-4.3-27.6c4.1-2.3,8.8-2.9,13.7-1.9c12.6,2.4,21.6,17.9,16.2,40.9
		c-6.1,26-22.6,29-33.5,26.3C764,322.9,762.2,308.6,762.2,308.6z"/>
	
		<path fill="#FCCA99" stroke="#000000" stroke-width="3.8774" stroke-linecap="round" stroke-linejoin="round" stroke-miterlimit="10" d="
		M693.8,421.5c-0.1,22.4,10.2,37.6-0.4,46.3c-12.4,10.2-45.2,7.5-51.6-0.8c-6.6-8.6,2.9-17.3,10.3-17c-2-15.1-5-32.6-5.3-38.1
		C645.6,394.6,693.8,406.7,693.8,421.5z"/>
	
		<path fill="#FCCA99" stroke="#000000" stroke-width="3.8774" stroke-linecap="round" stroke-linejoin="round" stroke-miterlimit="10" d="
		M745.8,437c-1.6,22.3,2,36.5-8.9,42.5c-11.9,6.6-39.8,4.7-48.5-3.1c-8.4-7.5,1.1-17.1,8.6-16.4c-0.5-12-1.8-34.5-1.9-40
		C694.7,402.6,747.7,410.2,745.8,437z"/>
	
		<path fill="#6D2424" stroke="#000000" stroke-width="3.8774" stroke-linecap="round" stroke-linejoin="round" stroke-miterlimit="10" d="
		M828.2,343.6c25.8,20,34.1,31.5,58.6,29.6c5.5,28.7-16.1,53-48.5,53.8c-32.4,0.8-75.7-22-113.4-47.7c-7.1-4.8,0-45.2,0-45.2"/>
	
		<path fill="#6D2424" stroke="#000000" stroke-width="3.8774" stroke-linecap="round" stroke-linejoin="round" stroke-miterlimit="10" d="
		M643,321.6c-7.9,18.9-18.4,91.9,0,113.4c10.3,9.9,46.2,12.5,57,4.4c19.9-19.3-2.1-93.2,4.3-108"/>
	
		<path fill="#6D2424" stroke="#000000" stroke-width="3.8774" stroke-linecap="round" stroke-linejoin="round" stroke-miterlimit="10" d="
		M763.8,360.8c-16.6,20.2,4.6,71.7-8.1,81.7c-19.3,15.2-60.9,9.6-65.4-3.3c-14.6-41.9-6.5-137.9,35.8-142.3
		c44.2-4.7,78.5,31.1,102.1,46.8"/>
	
		<path fill="none" stroke="#964827" stroke-width="3.8774" stroke-linecap="round" stroke-linejoin="round" stroke-miterlimit="10" d="
		M141.1,252.4c-5.9-11.6-15.1-21.6-26.2-28.4"/>
	
		<path fill="none" stroke="#964827" stroke-width="3.8774" stroke-linecap="round" stroke-linejoin="round" stroke-miterlimit="10" d="
		M141.1,221.9c-3.5-7.5-7.9-14.6-13.1-21.1"/>
	
		<path fill="none" stroke="#964827" stroke-width="3.8774" stroke-linecap="round" stroke-linejoin="round" stroke-miterlimit="10" d="
		M201.1,411.5c-8.6,0.7-19.7,4.1-28.7,22.9"/>
	
		<path fill="none" stroke="#964827" stroke-width="3.8774" stroke-linecap="round" stroke-linejoin="round" stroke-miterlimit="10" d="
		M190.3,404.7c-8.5-2.3-20.9-4.6-37.8,7.7"/>
	<g>
		<path fill="#42210B" d="M210.7,161.8c-0.7,0-1.4-0.2-2-0.6c-7.3-4.9-11.9-11.8-14.2-15.8c-1.7,2.7-4.3,4.6-6.3,5.7
			c-0.5,0.3-1.1,0.5-1.8,0.5c-1,0-2.1-0.5-2.7-1.3c-0.7-0.8-0.9-1.9-0.7-2.9c1.6-8,0.6-18-0.3-23.6c-2,1.5-5,2.9-8.9,4.1
			c-0.3,0.1-0.7,0.2-1,0.2c-1.2,0-2.4-0.7-3-1.8c-0.6-1.1-0.6-2.5,0.1-3.6c4-6.6,2.7-12.9,0.7-22.5c-1.1-5.3-2.4-11.3-2.9-18.6
			c-0.1-1-0.1-1.9-0.1-2.6c0-0.1,0-0.2,0-0.4c-0.3-15.7,9.8-26,16.8-31.3c-1.4,0.4-2.8,0.8-4.4,1.5c-0.4,0.2-0.9,0.3-1.3,0.3
			c-1.3,0-2.5-0.7-3.1-1.9c-0.6-1.2-0.5-2.5,0.2-3.6c10.4-14.8,26.4-17.9,38-17.9c5.8,0,10.4,0.8,12.3,1.2c5.2-6.1,13.3-9.1,24-9.1
			c8.8,0,17.4,2,22.5,3.3l0.7,0.2c0.9,0.2,1.9,0.3,2.8,0.3c4,0,7-2.1,8.8-3.9c0.7-0.6,1.5-1,2.4-1c0.9,0,1.9,0.4,2.5,1
			c0.6,0.6,1,1.5,1,2.4c0,4.4-1.7,8.8-2.8,11.3c8.4,2.3,15.5,11.2,20,18.4c0.7,1.1,0.7,2.4,0.1,3.6c-0.6,1.1-1.8,1.8-3,1.8
			c-0.4,0-0.8-0.1-1.2-0.2c-1.5-0.5-3.2-0.8-5.1-0.9c10.4,9.1,13.1,21.7,13.8,28.6c0.1,1-0.2,2-0.9,2.7c-0.7,0.7-1.6,1.2-2.6,1.2
			c0,0,0,0,0,0c-0.4,0-0.8-0.1-1.1-0.2c1.3,8.5,2.2,21.2,0.1,35.1c-0.3,1.7-1.7,3-3.5,3c-1.2,0-2.3-0.6-2.9-1.6
			c-1.6,9.2-6.6,16.3-9.6,19.9c-0.7,0.8-1.7,1.3-2.7,1.3c-1.6,0-3.1-1.1-3.4-2.7c-1.1-5-5.9-13.7-11-22.8
			c-4.1-7.5-8.8-15.9-12.1-23.6l-22.3-1.4c-0.1,0-0.2,0-0.4,0l-23.6-3.8l-1.7,32c1.5,18.9-0.2,32.4-1,37.4
			C213.9,160.6,212.5,161.8,210.7,161.8z"/>
		<path d="M287.5,18.5c0.8,0,1.6,0.6,1.6,1.5c0,4.2-1.7,8.5-2.8,10.9c-0.4,0.9,0.1,1.9,1.1,2.2c8.1,1.9,15.1,11.1,19.3,17.6
			c0.7,1.1-0.2,2.4-1.3,2.4c-0.2,0-0.3,0-0.5-0.1c-2.2-0.8-4.5-1-6.4-1c-0.1,0-0.3,0-0.4,0c-1.5,0-2.1,1.9-0.9,2.8
			c10.3,8.6,13.1,20.8,13.8,27.9c0.1,1-0.7,1.7-1.6,1.7c-0.4,0-0.9-0.2-1.2-0.6c-1-1.2-1.9-2.2-2.8-3c2.1,10.2,3.5,24.9,1.1,40.2
			c-0.1,0.9-0.9,1.3-1.6,1.3c-0.7,0-1.3-0.4-1.5-1.2c0-0.1,0-0.2-0.1-0.2c-0.2-0.8-0.8-1.2-1.5-1.2c-0.7,0-1.5,0.5-1.6,1.4
			c-1.3,9.2-6.3,16.4-9.3,20.2c-0.3,0.4-0.8,0.6-1.2,0.6c-0.7,0-1.4-0.4-1.5-1.2c-2.2-9.8-16.4-30.6-23.6-47.8l-23.5-1.5
			c-0.1,0-0.1,0-0.2,0L215,87.3l-1.8,34.1c0,0.1,0,0.1,0,0.2c1.5,18.7-0.1,31.9-1,37c-0.1,0.8-0.8,1.3-1.6,1.3
			c-0.3,0-0.6-0.1-0.9-0.3c-7.2-4.9-11.7-11.7-14-15.7c-0.3-0.5-0.8-0.8-1.3-0.8c-0.5,0-1.1,0.3-1.4,0.8c-1.4,2.5-3.8,4.4-5.8,5.5
			c-0.3,0.1-0.5,0.2-0.8,0.2c-0.9,0-1.8-0.8-1.5-1.9c1.8-8.6,0.5-19.5-0.4-24.9c-0.1-0.8-0.8-1.3-1.6-1.3c-0.3,0-0.7,0.1-1,0.4
			c-2.2,1.9-5.9,3.2-8.7,4.1c-0.2,0-0.3,0.1-0.5,0.1c-1.2,0-2-1.3-1.3-2.4c6.8-11.2-0.4-21.9-1.9-42.3c0-0.4-0.1-1.6-0.1-2.7
			c0-0.1,0-0.1,0-0.2c-0.3-15.9,10.8-26,17.4-30.7c1.3-0.9,0.6-2.9-0.9-2.9c-0.1,0-0.2,0-0.3,0c-2.3,0.4-4.6,1.2-6.5,2
			c-0.2,0.1-0.4,0.1-0.6,0.1c-1.2,0-2.1-1.4-1.3-2.5c9.9-14.2,25.4-17.1,36.5-17.1c5.8,0,10.3,0.8,12.2,1.2c0.1,0,0.2,0,0.3,0
			c0.5,0,0.9-0.2,1.2-0.6c5.6-6.6,14.2-8.6,22.7-8.6c9,0,17.9,2.2,22.8,3.4c1.1,0.3,2.2,0.4,3.2,0.4c4.6,0,8.1-2.4,10.2-4.4
			C286.7,18.6,287.1,18.5,287.5,18.5 M287.5,14.6C287.5,14.6,287.5,14.6,287.5,14.6c-1.4,0-2.7,0.5-3.8,1.5
			c-1.6,1.5-4.2,3.3-7.5,3.3c-0.8,0-1.5-0.1-2.3-0.3l-0.7-0.2c-5.2-1.2-14-3.3-23-3.3c-10.8,0-19.2,3-24.7,9c-2.5-0.5-6.6-1-11.6-1
			c-12.1,0-28.8,3.2-39.6,18.7c-1.2,1.7-1.3,3.8-0.4,5.6c0.7,1.4,2,2.4,3.5,2.8c-6.1,6.1-12,15.4-11.8,27.8c0,0.2,0,0.4,0,0.5
			c0,1.2,0.1,2.2,0.1,2.6c0.6,7.4,1.8,13.5,2.9,18.9c1.9,9.1,3.1,15.1-0.5,21.1c-1,1.7-1.1,3.8-0.1,5.5c1,1.7,2.8,2.8,4.7,2.8
			c0.5,0,1.1-0.1,1.6-0.2c2.7-0.8,4.9-1.7,6.8-2.7c0.7,5.6,1.2,13.6-0.1,20c-0.3,1.6,0.1,3.2,1.1,4.5c1,1.3,2.6,2,4.2,2
			c1,0,1.9-0.3,2.7-0.7c2-1.2,3.7-2.5,5.1-4c2.9,4.5,7.2,9.8,13.3,14c0.9,0.6,2,0.9,3.1,0.9c2.7,0,5-1.9,5.4-4.6
			c0.8-5,2.5-18.6,1-37.7l1.5-29.7l21.5,3.5c0.2,0,0.4,0,0.5,0.1l21.1,1.3c3.3,7.5,7.7,15.5,11.7,22.6c5,9,9.7,17.6,10.8,22.3
			c0.6,2.5,2.7,4.2,5.3,4.2c1.6,0,3.2-0.7,4.2-2c2.7-3.3,7.2-9.7,9.3-17.8c0.5,0.2,1.1,0.3,1.7,0.3c2.7,0,5-1.9,5.4-4.6
			c2-12.9,1.4-24.8,0.2-33.4c1.1-0.2,2.2-0.8,2.9-1.7c1-1.1,1.5-2.6,1.4-4.2c-0.6-6.1-2.8-16.6-10.1-25.4c0.2,0,0.5,0,0.7,0
			c2,0,3.8-1.1,4.7-2.8c1-1.7,0.9-3.9-0.2-5.5c-4.3-6.9-11-15.3-19.1-18.5c1.1-2.9,2.1-6.5,2.1-10.1c0-1.4-0.6-2.8-1.6-3.8
			C290.3,15.2,288.9,14.6,287.5,14.6L287.5,14.6z"/>
	</g>
	<g>
		<path fill="#EAB48F" d="M244.5,194.6c-25,0-38.3-12.2-38.9-12.7c-0.5-0.5-0.7-1.1-0.6-1.8c0.1-0.3,6-30.4-1.9-61.7
			c-1.1-4.3-0.8-7.4,0.8-9.4c1.2-1.6,3.1-2.3,5.6-2.3c9.9,0,29,13.4,29.8,14c5.6,3.6,33.7,22.4,34.6,30.5c0,0.3,0,0.6-0.1,0.9
			c-1.5,4.1-2.7,9-4,14.2c-2.4,9.8-4.8,19.9-9.9,26.3c-0.3,0.4-0.7,0.6-1.2,0.7C253.9,194.1,249.1,194.6,244.5,194.6z"/>
		<path d="M209.5,108.6c9.4,0,28.7,13.7,28.7,13.7s32.9,21.5,33.8,29.1c-4.4,11.9-6.1,30.5-13.6,40c-4.9,0.9-9.6,1.2-13.8,1.2
			c-24.6,0-37.6-12.2-37.6-12.2s6.2-30.4-1.9-62.6C203.3,111,205.5,108.6,209.5,108.6 M209.5,104.7
			C209.5,104.7,209.5,104.7,209.5,104.7c-3.9,0-6,1.7-7.1,3.1c-2,2.5-2.3,6.2-1.1,11.1c7.8,30.9,1.9,60.6,1.9,60.9
			c-0.3,1.3,0.2,2.7,1.2,3.6c0.6,0.5,14.4,13.2,40.2,13.2c4.7,0,9.6-0.4,14.5-1.3c0.9-0.2,1.8-0.7,2.4-1.4
			c5.4-6.8,7.9-17.1,10.3-27.1c1.2-5.1,2.4-10,3.9-14c0.2-0.6,0.3-1.2,0.2-1.8c-0.4-3.2-2.9-8-18.8-20.1
			c-8.1-6.1-15.9-11.3-16.7-11.8C238,117.4,219.7,104.7,209.5,104.7L209.5,104.7z"/>
	</g>
	<path fill="#42210B" d="M252.4,92c-18.4-2.6-38-19.6-38-19.6c2.3,11-9.6,21.8-7.7,46.1"/>
	
		<path fill="#FCCA99" stroke="#000000" stroke-width="3.8774" stroke-linecap="round" stroke-linejoin="round" stroke-miterlimit="10" d="
		M208.6,125c0,0,1.1,6.4,3.3,13.2c1.4,4.5,4.2,8.3,8.1,11c10.2,7.2,29,15.2,38.7,14.7c12.5-0.7,17.2-5.3,18.4-6.9
		c20.3-26.3,15.3-81.1,12.5-88.4c-4.7-12.7-9.3-28.3-30.3-29.1c-68.1-2.5-57.9,48.3-56.8,50.4c-2.3-2.8-6.2-4.5-9.4-1.9
		c-5.7,5.5-1.2,20.9,1,24.6C197,117.2,202,123.2,208.6,125z"/>
	
		<path fill="none" stroke="#C6896B" stroke-width="3.8774" stroke-linecap="round" stroke-linejoin="round" stroke-miterlimit="10" d="
		M264.1,101c0,0,1.8,10.4,5.1,18.7c0.7,1.7-0.5,3.6-2.3,3.7c-4.5,0.3-9.8-1.2-9.8-1.2"/>
	
		<path fill="#160600" stroke="#160600" stroke-width="2.5849" stroke-linecap="round" stroke-linejoin="round" stroke-miterlimit="10" d="
		M251.7,80.2c0,0-16-4.1-23.9,8.1c9.7-8.1,24-5,24-5L251.7,80.2z"/>
	
		<path fill="#160600" stroke="#160600" stroke-width="2.5849" stroke-linecap="round" stroke-linejoin="round" stroke-miterlimit="10" d="
		M269.7,84.9c0,0,12.9-3.1,20.2,5.4c-8.1-5.1-20-2.1-20-2.1L269.7,84.9z"/>
	<path fill="#42210B" d="M227.4,34.3c49.2-11.5,72.8,7.7,68,53.8c0,0,0,0,0,0c-1.7-6.7-5.5-31.3-29.1-35.9
		c-10.4-2-26.8-1.3-35.5,2.1c-7.1,2.7-17.6,11.1-20,23c-2.4,11.9-1.5,18.1-0.8,23.2c0.2,2-2.2,3.1-3.5,1.6
		c-2.6-2.9-6.1-8.6-9.2-19.4C193.1,68.2,192.2,42.5,227.4,34.3z"/>
	
		<path fill="none" stroke="#000000" stroke-width="3.8774" stroke-linecap="round" stroke-linejoin="round" stroke-miterlimit="10" d="
		M188.5,254.5c0,0,2.7,19.6-6.6,40.2"/>
	
		<path fill="#C69C6D" stroke="#000000" stroke-width="3.8774" stroke-linecap="round" stroke-linejoin="round" stroke-miterlimit="10" d="
		M194.2,176.9c-34.6-3.3-75.1,51.4-81.5,102c-4,32.1-3.9,62.3,7,74.9c12.7,14.8,30.9,19.4,43.4,18.5c44.9-3.3,70-31.5,90.9-58
		c-8.7-4.7-17.4-21.9-12-48c-39.3,11.5-48.3,14.6-79.8,33.2"/>
	
		<polygon fill="#333333" stroke="#000000" stroke-width="3.8774" stroke-linecap="round" stroke-linejoin="round" stroke-miterlimit="10" points="
		273.6,251.1 339.3,244.2 350.6,255 274.8,263.6 	"/>
	
		<polyline fill="#11CCF7" stroke="#000000" stroke-width="3.8774" stroke-linecap="round" stroke-linejoin="round" stroke-miterlimit="10" points="
		259.3,271.3 255.7,320.6 279.6,317 	"/>
	
		<polyline fill="#F4545C" stroke="#000000" stroke-width="3.8774" stroke-linecap="round" stroke-linejoin="round" stroke-miterlimit="10" points="
		339.9,260.1 338.5,303.5 353.2,307.7 354.7,260.7 	"/>
	
		<path fill="#11CCF7" stroke="#000000" stroke-width="3.8774" stroke-linecap="round" stroke-linejoin="round" stroke-miterlimit="10" d="
		M288.9,313.1l-14,2.6c-5.1,0.9-9.7-3.1-9.4-8.3l2-36.1"/>
	
		<polyline fill="#F4545C" stroke="#000000" stroke-width="3.8774" stroke-linecap="round" stroke-linejoin="round" stroke-miterlimit="10" points="
		354.7,262.6 353.4,301.3 338.5,304 	"/>
	
		<polygon fill="#1A1A1A" stroke="#000000" stroke-width="3.8774" stroke-linecap="round" stroke-linejoin="round" stroke-miterlimit="10" points="
		338.5,304 340.2,251.2 282.5,257.3 280.7,314.4 	"/>
	
		<path fill="#FCCA99" stroke="#000000" stroke-width="3.8774" stroke-linecap="round" stroke-linejoin="round" stroke-miterlimit="10" d="
		M277.9,306.8c9.3-2.2,18.4-6.5,17.2-12.4c-1.1-5.7-12.7,0.2-18.1,0.7"/>
	<g>
		
			<path fill="#C69C6D" stroke="#000000" stroke-width="3.8774" stroke-linecap="round" stroke-linejoin="round" stroke-miterlimit="10" d="
			M238,211.1c-25,0-47-10.5-56-26.6c-3.5-6.2-1.3-14.1,5-17.6c6.2-3.5,14.1-1.3,17.6,5c3.7,6.7,16.4,13.4,33.4,13.4
			c17.5,0,30.5-7.2,33.7-14c3.1-6.4,10.8-9.1,17.3-6c6.4,3.1,9.1,10.8,6,17.3C286.6,199.8,264.2,211.1,238,211.1z"/>
	</g>
	<g>
		<path fill="none" stroke="#936D47" stroke-width="3.8774" stroke-miterlimit="10" d="M205,172.6c0,0-15.8,3-18.5,18.2"/>
		<path fill="none" stroke="#936D47" stroke-width="3.8774" stroke-miterlimit="10" d="M198.2,200.6c0,0,2-14.2,15-21.2"/>
		<path fill="none" stroke="#936D47" stroke-width="3.8774" stroke-miterlimit="10" d="M223.4,183.4c0,0-7,7.8-7.5,24.7"/>
		<path fill="none" stroke="#936D47" stroke-width="3.8774" stroke-miterlimit="10" d="M235.5,211.1c0,0-0.5-12.9,1.3-25.9"/>
		<path fill="none" stroke="#936D47" stroke-width="3.8774" stroke-miterlimit="10" d="M248.2,184.4c0,0,7,6.5,9.5,24.5"/>
		<path fill="none" stroke="#936D47" stroke-width="3.8774" stroke-miterlimit="10" d="M262,179.9c0,0,11.9,5.2,14.2,21.8"/>
		<path fill="none" stroke="#936D47" stroke-width="3.8774" stroke-miterlimit="10" d="M270.8,172.8c1.7-1,17.3,0.9,19.4,17.3"/>
	</g>
	<g>
		
			<path fill="none" stroke="#000000" stroke-width="3.8774" stroke-linecap="round" stroke-linejoin="round" stroke-miterlimit="10" d="
			M238,211.1c-25,0-47-10.5-56-26.6c-3.5-6.2-1.3-14.1,5-17.6c6.2-3.5,14.1-1.3,17.6,5c3.7,6.7,16.4,13.4,33.4,13.4
			c17.5,0,30.5-7.2,33.7-14c3.1-6.4,10.8-9.1,17.3-6c6.4,3.1,9.1,10.8,6,17.3C286.6,199.8,264.2,211.1,238,211.1z"/>
	</g>
	
		<path fill="#FCCA99" stroke="#000000" stroke-width="3.8774" stroke-linecap="round" stroke-linejoin="round" stroke-miterlimit="10" d="
		M356.2,420.4c0.1,22.4-10.2,37.6,0.4,46.3c12.4,10.2,45.2,7.5,51.6-0.8c6.6-8.6-2.9-17.3-10.3-17c2-15.1,5-32.6,5.3-38.1
		C404.4,393.6,356.2,405.6,356.2,420.4z"/>
	
		<path fill="#FCCA99" stroke="#000000" stroke-width="3.8774" stroke-linecap="round" stroke-linejoin="round" stroke-miterlimit="10" d="
		M304.2,435.9c1.6,22.3-2,36.5,8.9,42.5c11.9,6.6,39.8,4.7,48.5-3.1c8.4-7.5-1.1-17.1-8.6-16.4c0.5-12,1.8-34.5,1.9-40
		C355.3,401.6,302.3,409.1,304.2,435.9z"/>
	
		<path fill="#6D2424" stroke="#000000" stroke-width="3.8774" stroke-linecap="round" stroke-linejoin="round" stroke-miterlimit="10" d="
		M221.8,342.6c-25.8,20-34.1,31.5-58.6,29.6c-5.5,28.7,16.1,53,48.5,53.8c32.4,0.8,75.7-22,113.4-47.7c7.1-4.8,0-45.2,0-45.2"/>
	
		<path fill="none" stroke="#D87B68" stroke-width="3.3956" stroke-linecap="round" stroke-linejoin="round" stroke-miterlimit="10" d="
		M250,137.2c7.4,4.4,21.8,3.9,26.3-0.1"/>
	
		<path fill="none" stroke="#D87B68" stroke-width="3.3956" stroke-linecap="round" stroke-linejoin="round" stroke-miterlimit="10" d="
		M249.5,132.1c0,0,1.7,4.2-3.3,8.6"/>
	<g>
		<circle fill="#603813" cx="244.1" cy="101.4" r="3.4"/>
	</g>
	<g>
		<circle fill="#603813" cx="277.4" cy="100.7" r="3.4"/>
	</g>
	
		<path fill="#C69C6D" stroke="#000000" stroke-width="3.8774" stroke-linecap="round" stroke-linejoin="round" stroke-miterlimit="10" d="
		M233.2,265.4c-12.4,3.1-20.6,19.1-13.9,41.8c7.5,25.7,24.2,27.7,34.9,24.4c14.6-4.4,12.7-28.9,9.2-40.5
		C256.6,268.8,245.6,262.3,233.2,265.4z"/>
	<path fill="none" stroke="#936D47" stroke-width="3.8774" stroke-miterlimit="10" d="M242,278.3c0,0-13-3-24.2,5.2"/>
	<path fill="none" stroke="#936D47" stroke-width="3.8774" stroke-miterlimit="10" d="M241.5,291.3c0,0-14.1,0.7-23.7,9.5"/>
	<path fill="none" stroke="#936D47" stroke-width="3.8774" stroke-miterlimit="10" d="M245.3,304.3c-0.8,2-9.1,8-22.7,11.5"/>
	
		<path fill="none" stroke="#000000" stroke-width="3.8774" stroke-linecap="round" stroke-linejoin="round" stroke-miterlimit="10" d="
		M233.2,265.4c-12.4,3.1-20.6,19.1-13.9,41.8c7.5,25.7,24.2,27.7,34.9,24.4c14.6-4.4,12.7-28.9,9.2-40.5
		C256.6,268.8,245.6,262.3,233.2,265.4z"/>
	<polygon fill="#FCCA99" points="256.7,282.2 284.5,279.1 288.9,308.6 259.8,313.7 	"/>
	
		<path fill="#FCCA99" stroke="#000000" stroke-width="3.8774" stroke-linecap="round" stroke-linejoin="round" stroke-miterlimit="10" d="
		M277,295.5c8.3-0.5,18.3-4.3,15.6-10.6c-2.4-5.6-16-1-21.6,0.3"/>
	
		<path fill="#FCCA99" stroke="#000000" stroke-width="3.8774" stroke-linecap="round" stroke-linejoin="round" stroke-miterlimit="10" d="
		M260,314.7c-14.7-3.1-18.4-16.3-18.7-25.8c-0.7-27.6,15.4-30.7,16.4-31c7.2-2.3,11.8,3.2,11.5,3.7c-1,2.3-10.2-0.3-12.6,8.3
		c-1.3,10.2,29.5-2.7,32.6,6.9c1.6,5.1-6.6,7.5-14,8"/>
	
		<path fill="none" stroke="#000000" stroke-width="3.8774" stroke-linecap="round" stroke-linejoin="round" stroke-miterlimit="10" d="
		M250.6,99.2c0,0-7.2-5.7-14.4,1.2"/>
	
		<path fill="none" stroke="#000000" stroke-width="3.8774" stroke-linecap="round" stroke-linejoin="round" stroke-miterlimit="10" d="
		M285.5,99.8c0,0-6-7-14.4-1.6"/>
	<polygon fill="#FCCA99" points="345.7,272.4 344.3,290.4 363,291.8 361.8,271.7 	"/>
	
		<path fill="#FCCA99" stroke="#000000" stroke-width="3.8774" stroke-linecap="round" stroke-linejoin="round" stroke-miterlimit="10" d="
		M366.1,293.5c-8.2,1.5-27,1-26.4-7c0.4-5.4,7.7-4.9,11-5.1"/>
	
		<path fill="#FCCA99" stroke="#000000" stroke-width="3.8774" stroke-linecap="round" stroke-linejoin="round" stroke-miterlimit="10" d="
		M354.6,283.9c-7.3,0.1-14.5-1.9-14.1-6.8c0.4-5.4,8.5-3.9,13.3-4.7"/>
	
		<path fill="#FCCA99" stroke="#000000" stroke-width="3.8774" stroke-linecap="round" stroke-linejoin="round" stroke-miterlimit="10" d="
		M355,273.8c-5.7,0.6-14.3,0-14.4-5.4c-0.1-7.1,14.6-1.2,15.8-9.9c-1.3-2.7-3.6-2.5-5.9-4.8c7.6-1.5,21.7,3.8,20.1,22.8
		c-0.7,7.6-2.9,17.5-12.8,19"/>
	
		<path fill="#6D2424" stroke="#000000" stroke-width="3.8774" stroke-linecap="round" stroke-linejoin="round" stroke-miterlimit="10" d="
		M349,393.8c36.9-14,63.1-37.8,58.1-73.2c-5.6-13.4-11.4-21.3-24.5-27.7c-14.4-7-33.6-5-57.5,6"/>
	
		<path fill="#6D2424" stroke="#000000" stroke-width="3.8774" stroke-linecap="round" stroke-linejoin="round" stroke-miterlimit="10" d="
		M407,320.6c7.9,18.9,18.4,91.9,0,113.4c-10.3,9.9-46.2,12.5-57,4.4c-19.9-19.3,2.1-93.2-4.3-108"/>
	
		<path fill="#6D2424" stroke="#000000" stroke-width="3.8774" stroke-linecap="round" stroke-linejoin="round" stroke-miterlimit="10" d="
		M286.2,359.7c16.6,20.2-4.6,71.7,8.1,81.7c19.3,15.2,60.9,9.6,65.4-3.3c14.6-41.9,6.5-137.9-35.8-142.3
		c-44.2-4.7-78.5,31.1-102.1,46.8"/>
	
		<path fill="#11CCF7" stroke="#000000" stroke-width="3.8774" stroke-linecap="round" stroke-linejoin="round" stroke-miterlimit="10" d="
		M266.1,272.6l16.4-15.2L275,251l-7,0.7c-5.4,0.6-9.7,5-10,10.4l-0.7,9.8"/>
	
		<path fill="#11CCF7" stroke="#000000" stroke-width="3.8774" stroke-linecap="round" stroke-linejoin="round" stroke-miterlimit="10" d="
		M266.2,271.9l0.4-6.2c0.2-3.9,3.2-7.1,7.1-7.5l8.7-0.9l-0.3,13.6"/>
	
		<path fill="#F4545C" stroke="#000000" stroke-width="3.8774" stroke-linecap="round" stroke-linejoin="round" stroke-miterlimit="10" d="
		M354.7,260.7l-2-7.2c-0.6-2.3-2-4.3-3.9-5.8l-1.6-1.2c-2.3-1.8-5.2-2.6-8.1-2.3l-6.5,0.7l7.5,5.8l-0.3,9.4"/>
	
		<path fill="#F4545C" stroke="#000000" stroke-width="3.8774" stroke-linecap="round" stroke-linejoin="round" stroke-miterlimit="10" d="
		M339.8,261.6l0.4-10.4l6.9-0.7c4.2-0.4,7.8,2.9,7.7,7.1l0,3.1"/>
	
		<line fill="none" stroke="#999999" stroke-width="3.8774" stroke-linecap="round" stroke-linejoin="round" stroke-miterlimit="10" x1="325.9" y1="282.7" x2="298.8" y2="285.5"/>
	
		<line fill="none" stroke="#999999" stroke-width="3.8774" stroke-linecap="round" stroke-linejoin="round" stroke-miterlimit="10" x1="325.9" y1="275.7" x2="298.8" y2="278.5"/>
	
		<line fill="none" stroke="#999999" stroke-width="3.8774" stroke-linecap="round" stroke-linejoin="round" stroke-miterlimit="10" x1="325.9" y1="268.7" x2="298.8" y2="271.5"/>
	
		<path fill="#C69C6D" stroke="#000000" stroke-width="2.7398" stroke-linecap="round" stroke-linejoin="round" stroke-miterlimit="10" d="
		M1435.7,832.5c16.5-18.1,22.8-32.8,31-64.8c9.2-35.9,8.7-83.1-6.2-98c-10.3,6.5-37.5,15.5-49.2-8.8c-17.1,7.2-31.3,20.5-44.1,65.1
		c-12.8,44.6-26.3,35.8-26.3,68.5C1371.8,795.1,1425.3,816.1,1435.7,832.5z"/>
	
		<path fill="#C69C6D" stroke="#000000" stroke-width="2.7398" stroke-linecap="round" stroke-linejoin="round" stroke-miterlimit="10" d="
		M1437.4,694.1c-15.7,12.7-39.9,28.5-60.2,28.1c-9.8-0.2-67.9-13.8-78.5-16.7c-8.4,10.2-10.9,15.5-15.2,25.9
		c9,13,81.5,42.9,102.4,41.7c28.9-1.7,47.2-10.6,74.8-27.8"/>
	<g>
		
			<path fill="#C69C6D" stroke="#000000" stroke-width="2.7398" stroke-linecap="round" stroke-linejoin="round" stroke-miterlimit="10" d="
			M1432.2,681.4c21.8,4,36.8-8,31-16.1c-4.9-6.8-9.2,3.8-28.6,2c-15.6-1.5-22.7-16-28.2-9.2C1400.6,665.1,1413.1,678,1432.2,681.4z"
			/>
	</g>
	<g>
		
			<path fill="#C69C6D" stroke="#000000" stroke-width="2.7398" stroke-linecap="round" stroke-linejoin="round" stroke-miterlimit="10" d="
			M1309.1,614.7c12.5-4.6,16.1-11.4,11.7-15.5c-4.6-4.3-6.7,2.1-15.4,5.2c-10.3,3.6-16.8,0.3-17.5,6.3
			C1287,618.2,1297.4,619,1309.1,614.7z"/>
	</g>
	<g>
		
			<path fill="#C69C6D" stroke="#000000" stroke-width="2.7398" stroke-linecap="round" stroke-linejoin="round" stroke-miterlimit="10" d="
			M1295.4,719.2c7.3-11.2,7.2-17.9,1.1-19.4c-5.3-1.3-5.1,5.3-10.3,13.4c-4.3,6.8-13.9,9.3-10.2,15.5
			C1280.3,735.9,1288.6,729.6,1295.4,719.2z"/>
	</g>
	<g>
		<circle fill="#603813" cx="1420.6" cy="612.7" r="2.2"/>
	</g>
	<g>
		<circle fill="#603813" cx="1442.3" cy="619" r="2.2"/>
	</g>
	
		<path fill="none" stroke="#000000" stroke-width="2.7398" stroke-linecap="round" stroke-linejoin="round" stroke-miterlimit="10" d="
		M1440.2,616.2c0,0,5.2-0.7,8.5,2.8"/>
	
		<path fill="none" stroke="#000000" stroke-width="2.7398" stroke-linecap="round" stroke-linejoin="round" stroke-miterlimit="10" d="
		M1418.9,610c2.9-0.5,6.6,0.6,8.2,2.2"/>
	<path fill="none" stroke="#936D47" stroke-width="2.7398" stroke-miterlimit="10" d="M1415.2,658.5c0,0-5.5,3-6.4,11.4"/>
	<path fill="none" stroke="#936D47" stroke-width="2.7398" stroke-miterlimit="10" d="M1419.8,661.6c0,0-5,4.8-5,13.6"/>
	<path fill="none" stroke="#936D47" stroke-width="2.7398" stroke-miterlimit="10" d="M1425.5,664.8c0,0-4.2,6.5-3.5,13.7"/>
	<path fill="none" stroke="#936D47" stroke-width="2.7398" stroke-miterlimit="10" d="M1432.5,667c0,0-2.3,7.2-1.8,14.2"/>
	<path fill="none" stroke="#936D47" stroke-width="2.7398" stroke-miterlimit="10" d="M1439.2,667.5c0,0,3.1,8,0.5,14.7"/>
	<path fill="none" stroke="#936D47" stroke-width="2.7398" stroke-miterlimit="10" d="M1447.6,666.6c0,0,3.3,6.6,1.8,14.7"/>
	<path fill="none" stroke="#936D47" stroke-width="2.7398" stroke-miterlimit="10" d="M1454.6,664.4c0,0,4.6,6.8,3.2,13.7"/>
	<g>
		
			<path fill="none" stroke="#000000" stroke-width="2.7398" stroke-linecap="round" stroke-linejoin="round" stroke-miterlimit="10" d="
			M1432.2,681.4c21.8,4,36.8-8,31-16.1c-4.9-6.8-9.2,3.8-28.6,2c-15.6-1.5-22.7-16-28.2-9.2C1400.6,665.1,1413.1,678,1432.2,681.4z"
			/>
	</g>
	<path fill="none" stroke="#936D47" stroke-width="2.7398" stroke-miterlimit="10" d="M1301.8,605.5c0,0,0.2,5.4,3.3,10.5"/>
	<path fill="none" stroke="#936D47" stroke-width="2.7398" stroke-miterlimit="10" d="M1307.6,603.5c0,0,4,3.1,4.4,10"/>
	<path fill="none" stroke="#936D47" stroke-width="2.7398" stroke-miterlimit="10" d="M1313.9,599.5c0,0,4.7,3.4,4.2,10.5"/>
	<path fill="none" stroke="#936D47" stroke-width="2.7398" stroke-miterlimit="10" d="M1294.5,606.5c0,0-0.1,5.7,3.4,10.7"/>
	<g>
		
			<path fill="none" stroke="#000000" stroke-width="2.7398" stroke-linecap="round" stroke-linejoin="round" stroke-miterlimit="10" d="
			M1309.1,614.7c12.5-4.6,16.1-11.4,11.7-15.5c-4.6-4.3-6.7,2.1-15.4,5.2c-10.3,3.6-16.8,0.3-17.5,6.3
			C1287,618.2,1297.4,619,1309.1,614.7z"/>
	</g>
	<path fill="none" stroke="#936D47" stroke-width="2.7398" stroke-miterlimit="10" d="M1283.4,716.6c0,0,4.2,5.5,9.5,6.1"/>
	<path fill="none" stroke="#936D47" stroke-width="2.7398" stroke-miterlimit="10" d="M1287.4,711.2c0,0,4.3,1,9.3,5.8"/>
	<path fill="none" stroke="#936D47" stroke-width="2.7398" stroke-miterlimit="10" d="M1290.6,704.8c0,0,6.1,0.5,9.2,5.8"/>
	<path fill="none" stroke="#936D47" stroke-width="2.7398" stroke-miterlimit="10" d="M1278.8,720.6c0,0,3.2,6.1,9.3,7.5"/>
	<g>
		
			<path fill="none" stroke="#000000" stroke-width="2.7398" stroke-linecap="round" stroke-linejoin="round" stroke-miterlimit="10" d="
			M1295.4,719.2c7.3-11.2,7.2-17.9,1.1-19.4c-5.3-1.3-5.1,5.3-10.3,13.4c-4.3,6.8-13.9,9.3-10.2,15.5
			C1280.3,735.9,1288.6,729.6,1295.4,719.2z"/>
	</g>
</g>
</svg>
