<svg id="semi" xmlns="http://www.w3.org/2000/svg" viewBox="0 0 100 100"><defs><style>.cls-1,.cls-3{fill:#335666;}.cls-1,.cls-2{stroke:#000;stroke-linecap:round;stroke-linejoin:round;stroke-width:3.09px;}.cls-2{fill:#99e0ff;}.cls-4{fill:#dc9779;}</style></defs><path class="cls-1" d="M37.05,93.89a2.11,2.11,0,0,1-1-.26,28,28,0,0,1-9-8.38,10.62,10.62,0,0,1-3.31,3.63,2.08,2.08,0,0,1-1.17.37A2,2,0,0,1,21,88.56,2,2,0,0,1,20.52,87c.53-4.68-.6-10.4-1.38-13.61a17.21,17.21,0,0,1-4.92,2.81,2.07,2.07,0,0,1-.77.15,2,2,0,0,1-1.81-2.94c2-4,.89-7.59-.75-13a77.76,77.76,0,0,1-2.62-10.6c0-.22-.14-.85-.2-1.51a.65.65,0,0,1,0-.21c-1-9,4.33-15.51,8.11-18.91a22.33,22.33,0,0,0-2.45,1.07,2.14,2.14,0,0,1-.92.22,2.05,2.05,0,0,1-1.77-1,2,2,0,0,1,0-2C17.22,16.58,29,15,35.43,15a34.56,34.56,0,0,1,3.77.2c3.15-4.4,8.78-6.64,16.73-6.64a66.78,66.78,0,0,1,9.84.87l.43.06a6,6,0,0,0,1,.08,7.31,7.31,0,0,0,5.49-2.72A2,2,0,0,1,76.28,8a16.91,16.91,0,0,1-1,6.65c5,.87,9.53,5.67,12.49,9.57a2,2,0,0,1-1.59,3.27,2.22,2.22,0,0,1-.51-.06,9,9,0,0,0-2.23-.26l-.77,0c6.45,4.7,8.66,11.87,9.41,15.78a2,2,0,0,1-.42,1.67,2.08,2.08,0,0,1-1.59.75h0a1.84,1.84,0,0,1-.47-.06,68.2,68.2,0,0,1,1.84,20.26,2,2,0,0,1-2,1.9,2,2,0,0,1-1.6-.78,26.07,26.07,0,0,1-4.5,12,2.06,2.06,0,0,1-1.68.88,2,2,0,0,1-1.93-1.39c-.92-2.85-4.11-7.59-7.49-12.61-2.75-4.1-5.86-8.72-8.17-13l-13,.34h-.17l-13.81-1,.68,18.53A93.9,93.9,0,0,1,39.08,92,2,2,0,0,1,37.05,93.89Z"/><path class="cls-2" d="M34.11,72.76A62.36,62.36,0,0,0,38,83.1c2.94,4.15,19.79,10.59,27,9.57s9.64-4,10.27-5C85.61,71.48,79.91,40.16,78,36.06,74.57,29,71.12,20.19,59,20.81c-39.45,2-31,30.82-30.2,32-1.48-1.5-3.81-2.29-5.5-.61-3,3.48.37,12.14,1.86,14.16C27,68.88,30.21,72.08,34.11,72.76Z"/><path class="cls-3" d="M40.32,19.45c27.81-9.16,42.39.73,42,27.59h0C81,43.27,77.5,29.28,63.66,27.84c-6.12-.64-15.5.63-20.36,3-3.94,1.92-9.59,7.31-10.34,14.3a36.75,36.75,0,0,0,.7,13.43,1.17,1.17,0,0,1-1.94,1.1C30,58.12,27.74,55,25.4,49,22.26,40.8,20.41,26,40.32,19.45Z"/><circle class="cls-4" cx="62.38" cy="62.57" r="11.59"/><path d="M56.59,48.28a8.5,8.5,0,1,1-8.5,8.5,8.51,8.51,0,0,1,8.5-8.5m0-3.09A11.59,11.59,0,1,0,68.18,56.78,11.58,11.58,0,0,0,56.59,45.19Z"/><path class="cls-3" d="M36.73,33.35s1,8.08,8.28,10c0,0-5.69-8.17,1.09-13.64L40.63,28Z"/></svg>