<svg xmlns="http://www.w3.org/2000/svg" viewBox="0 0 7.5 120.1"><path d="M6.05,120.1c0-.07.11-.11.1-.15s-.07-.06-.07-.11v-.15c0-.12-.11-.3-.09-.34l.07-.09a.17.17,0,0,0,0-.18c0-.06,0-.15,0-.18s.12,0,.13-.09-.07-.11-.07-.11a.45.45,0,0,1-.16-.38.26.26,0,0,0-.16-.25c-.09,0-.21-.12-.21-.23a1.87,1.87,0,0,1,.07-.22c0-.11,0-.2-.07-.33s.09-.25.18-.18a.35.35,0,0,0-.18-.29l.13,0c-.08,0,0-.14,0-.14l.44-.33a3.84,3.84,0,0,1-.5-.32,1,1,0,0,1-.13-.16.42.42,0,0,1,.18-.44c.14-.11.3-.22.3-.4a.37.37,0,0,0-.16-.33,1,1,0,0,0-.33-.15.12.12,0,0,0,.06-.08l-.17-.17s0,0,0,0a.18.18,0,0,0,0-.25.11.11,0,0,0,.08-.08l-.18-.13a.23.23,0,0,0,.15-.22v-.29c0-.15.1-.28.11-.42s0-.36-.14-.36a.32.32,0,0,0,.08-.41.36.36,0,0,1,0-.2l.08-.06c.15-.1,0-.36,0-.44s.12,0,.22-.13,0-.28,0-.35.16-.08.17-.14-.05-.15-.1-.15A.58.58,0,0,1,5.6,110a.35.35,0,0,1,0-.33l.09-.12a.44.44,0,0,0-.08-.42.18.18,0,0,0,0-.24.42.42,0,0,0-.16-.19c.18,0,.3-.19.39-.37l.26-.56a3.78,3.78,0,0,1-.63.33,3,3,0,0,0,0-.85l.25,0a.77.77,0,0,0-.1-.25H6v-.22a.2.2,0,0,0,.11,0L6,106.59c.1,0,.16-.13.17-.24a.63.63,0,0,0-.12-.32,1.19,1.19,0,0,0,.42,0,.26.26,0,0,0,.15,0,.28.28,0,0,0,0-.2v-.52a.48.48,0,0,1,.12-.32c.05,0,.13,0,.13-.09v-.07l-.2-.26.17-.39c.09,0,0-.23,0-.35s0-.34,0-.37.1,0,.1-.09a.08.08,0,0,0,0-.07l-.17-.21a.32.32,0,0,0,0-.35L7,102.7a.16.16,0,0,1,0-.19c-.14-.08-.14-.26-.13-.41a2.15,2.15,0,0,1,.31-1.26.35.35,0,0,0,0-.15.08.08,0,0,0-.08-.07,1.18,1.18,0,0,1-.74-.69.55.55,0,0,0,.31,0l-.32-.31a.86.86,0,0,1,.14-.13l-.15-.18c.11-.09,0-.26.06-.4a.84.84,0,0,1,.18-.61,1,1,0,0,1-.43-.14.5.5,0,0,0,.09-.6l-.1-.17c-.1-.25.19-.61.19-.75s0-.27,0-.41.14-.28.26-.23c-.07-.25-.18-.6-.42-.61l.21-.08a.32.32,0,0,0-.12-.18c.08,0,.07-.19,0-.28A1.1,1.1,0,0,0,6,94.68a.25.25,0,0,1-.11-.27c0-.11.2-.13.22-.27s-.2-.3-.15-.38,0,0,.14-.08,0-.27-.14-.31-.26-.06-.33-.18a.69.69,0,0,1,0-.32c0-.11-.09-.27-.19-.27a.36.36,0,0,1,0-.27c0-.08.13-.14.2-.08A4,4,0,0,0,5.67,91a.64.64,0,0,1,0-.41c0-.07.1,0,.13-.18s-.16-.17-.27-.33,0-.4.08-.58a5,5,0,0,0,.52-1.42l.48,0a.58.58,0,0,0-.12-.25.65.65,0,0,1,.14,0,.2.2,0,0,1,0-.13,3.35,3.35,0,0,1,.44-.07c-.19-.17-.37-.35-.55-.54a.41.41,0,0,1-.1-.13c-.07-.14,0-.31,0-.46a.34.34,0,0,0-.25-.25A1.09,1.09,0,0,1,5.84,86a.88.88,0,0,1-.2-.41L5.19,84a.17.17,0,0,1,0-.1c0-.09.12-.15.1-.24s-.09,0-.2-.15,0-.41-.11-.57a.47.47,0,0,0-.25-.38h0a.15.15,0,0,0,0-.2l.15-.14c-.11,0-.22-.14-.2-.22s.12-.14.12-.21a.33.33,0,0,0-.16-.39.7.7,0,0,0-.43,0c-.14-.16,0-.51-.06-.63S4,80.49,4,80.37A.78.78,0,0,1,4,80a.36.36,0,0,0-.13-.33c-.14-.13-.39,0-.45-.14v-.1a.18.18,0,0,0-.22-.11.59.59,0,0,0-.23.13.25.25,0,0,1,0-.35c.1-.07.32-.08.32-.17v-.27a.25.25,0,0,1,.16-.08l.44,0a1.26,1.26,0,0,1-.42-.44c.06-.08.23-.09.24-.14s-.06-.14-.06-.14a.28.28,0,0,1,.08-.29.66.66,0,0,0,.16-.28.58.58,0,0,1,0-.43.69.69,0,0,0,.1-.19v0a.19.19,0,0,0-.21-.18A.59.59,0,0,0,3.55,76a.94.94,0,0,1-.37-.37c-.06-.16,0-.41.18-.4,0,0-.06-.14,0-.22s.17-.12.17-.2a.28.28,0,0,0,0-.28.76.76,0,0,0-.22-.18,1.23,1.23,0,0,0,.1-.73c0-.14-.07-.36,0-.42s.22-.05.22-.14a.25.25,0,0,0,0-.17.87.87,0,0,1,0-.48,1.28,1.28,0,0,0-.39.13,1,1,0,0,1-.09-.81.31.31,0,0,0,0-.19.23.23,0,0,0-.19-.1.14.14,0,0,1,0-.11l-.1-.4a.87.87,0,0,1,0-.28c0-.14-.06-.4,0-.38s.07,0,.07-.06v-.11a1.06,1.06,0,0,1-.12-.2c.11,0,.2-.18.11-.27.1,0,.14-.11.11-.2s-.15-.14-.15-.23a.42.42,0,0,1,0-.38.7.7,0,0,1,.3-.24.23.23,0,0,0,.14-.09c0-.14-.2-.32-.19-.46v-.36a.33.33,0,0,0,.44-.14c0-.06,0-.17.12-.17s.22.07.31,0A.55.55,0,0,0,4,67a.76.76,0,0,1-.09-.18.48.48,0,0,1,0-.17A1.87,1.87,0,0,1,4.14,66a.86.86,0,0,0,.21-.44,1.51,1.51,0,0,0-.13-.29.92.92,0,0,1,0-.33l.09-.73a1,1,0,0,1,.19-.56l.07-.1c0-.11,0-.24-.08-.35a.45.45,0,0,1,0-.34s0,.07.08,0,0-.2,0-.29a.2.2,0,0,0,.15-.05c0-.12-.15-.25-.17-.33s.1-.15.11-.22a.57.57,0,0,0,0-.58.82.82,0,0,0,.35,0c0-.15-.26-.23-.21-.39s.29-.1.38-.22a.2.2,0,0,0,0-.27.28.28,0,0,0-.25,0,.61.61,0,0,0,0-.27c0-.09-.08-.17-.17-.14s-.24.11-.24.08V60a.86.86,0,0,1,.09-.35.28.28,0,0,1-.11-.48c0,.11.19.08.19,0a.36.36,0,0,0,0-.25h.13v-.35h.17l-.21-.37a1,1,0,0,0,.29-.2.44.44,0,0,0,0-.32c0-.13-.15-.29-.11-.37s.21-.08.21-.16a.21.21,0,0,0,0-.24c0-.08-.18-.12-.17-.18A.49.49,0,0,1,5,56.25c0,.11.24,0,.24-.09a.57.57,0,0,0,0-.48.49.49,0,0,1-.08-.18.46.46,0,0,1,.13-.33,1.15,1.15,0,0,1-.25-.12l.1-.39h0a.57.57,0,0,1-.36-.74.51.51,0,0,0-.12-.39l-.46-.63A1.14,1.14,0,0,1,4,52.58a.4.4,0,0,1,.06-.35c.06-.07.2-.11.2-.21a.34.34,0,0,0-.08-.21,1.3,1.3,0,0,0-.39-.31L4,51.21a.17.17,0,0,0,0-.12c0-.11-.25-.07-.25-.18s.11-.27.11-.42l-.08-.71a3.7,3.7,0,0,1,.48-.06,1.42,1.42,0,0,0-.33-.36,2.23,2.23,0,0,1,.33-.55.49.49,0,0,0,0-.6h.17a1.06,1.06,0,0,1-.07-.63c.06-.07.16-.08.17-.18a1.31,1.31,0,0,1,0-.28A.1.1,0,0,1,4.6,47a.26.26,0,0,0,.08-.25.5.5,0,0,1-.07-.29c0-.08.06-.1.08-.23s-.07-.23-.14-.34a1.73,1.73,0,0,1-.21-.83,1.14,1.14,0,0,1,0-.52,2.63,2.63,0,0,0,.15-.35c0-.13,0-.23-.2-.35s-.06-.36,0-.51.2-.36.08-.51l.3,0a.48.48,0,0,1,.1-.46c-.16,0-.31-.14-.31-.32a.67.67,0,0,1,.17-.62.53.53,0,0,0-.33,0,.46.46,0,0,1,.07-.3A.45.45,0,0,0,4.12,41v-.06a.29.29,0,0,1,.3-.24.23.23,0,0,1-.06-.16h.11c-.23-.29-.06-.75,0-1.14a8,8,0,0,1-.09-1.1,2.84,2.84,0,0,0,.09-.42.7.7,0,0,0-.18-.55C4.12,37.19,4,37,4,36.88a.35.35,0,0,0,.43,0,.46.46,0,0,0,.15-.44,1.15,1.15,0,0,0,.41.17c0-.28-.36-.59-.37-.74s0-.41-.06-.41H4.41a.22.22,0,0,1,0-.29A.57.57,0,0,1,4.69,35a4.55,4.55,0,0,1-1-.69.52.52,0,0,0-.16-.55.44.44,0,0,1-.14-.13.54.54,0,0,1,0-.18l0-.76c.09.06.21.08.27,0a.31.31,0,0,0,0-.19q-.08-.71-.21-1.38a.5.5,0,0,0-.12-.29,2.14,2.14,0,0,0,.2-.4l.13-.34a.2.2,0,0,0,0-.11c0-.05,0,0-.11-.11a.44.44,0,0,1-.3-.4.6.6,0,0,0,0-.19c0-.15-.16-.25-.3-.3,0-.25,0-.49,0-.74a2.46,2.46,0,0,1-.67-.06.4.4,0,0,1,.24-.39l.26,0a.18.18,0,0,0,.1-.22.5.5,0,0,0,.32,0A.55.55,0,0,1,3,27.19c.18,0,.4-.05.46-.24a.92.92,0,0,0,0-.37c0-.12.17-.13.17-.27s-.23-.18-.23-.32a.66.66,0,0,1,0-.14l.18-.52a.37.37,0,0,1-.28-.26,1.86,1.86,0,0,1,0-.41,1,1,0,0,1,.15-.49c-.09,0-.15-.27-.08-.36s.16-.22.14-.28-.09,0-.14-.13,0-.16.12-.26.33-.29.33-.29h0v-.06h0A.1.1,0,0,1,4,22.68c.05,0,.16,0,.15-.07S4,22.46,4,22.4v-.06l.19-.15v-.11A.12.12,0,0,0,4.14,22l-.22-.17h0c0-.09.09-.06.21-.17s.11-.37.25-.36l-.22-.18a.76.76,0,0,1,0-.11l-.33-.18A.57.57,0,0,0,4,20.74a.31.31,0,0,0-.25,0,1.71,1.71,0,0,0,0-.32v0h0a.94.94,0,0,1,0-.44.28.28,0,0,1-.2-.13,2.5,2.5,0,0,1-.09-.25l0-.27v-.12c-.06-.06,0-.15,0-.15h0c-.07-.06,0-.06,0-.15s-.1-.05-.1-.1v-.07a1,1,0,0,0,.15-.2l.07-.24V18a2.62,2.62,0,0,1,.6-1.72,3.65,3.65,0,0,1,.41-1.16A1.36,1.36,0,0,1,4.7,15v-.15c.16-.08.24-.29.36-.44s.44-.18.44,0a3.88,3.88,0,0,1,.4-1,.78.78,0,0,0-.39-.08A1.29,1.29,0,0,0,5,12.49l.17-.61c-.23,0-.31-.44-.27-.5s.1-.05.11-.18-.13-.2-.23-.27a.75.75,0,0,1-.32-.73l-.36.2c.14-.33-.25-.65-.31-1a.54.54,0,0,1,.41-.62L4,8.45l.25-.22-.14-.17,0-.05A.33.33,0,0,0,4,7.57c-.09-.05-.21,0-.28-.12a.5.5,0,0,1-.08-.2,1,1,0,0,0-.47-.65l.18-.26c-.27-.09-.27-.41-.26-.68s0-.6-.29-.67a1.57,1.57,0,0,0-.31-1.4c.36-.36-.09-1.16.27-1.51l-.12-.2A1,1,0,0,1,2.94,1L2.68,0H0V120.1Z"/></svg>