<svg xmlns="http://www.w3.org/2000/svg" viewBox="0 0 120.1 7.5"><path d="M0,6.05c.07,0,.11.11.15.1s.06-.07.11-.07H.41C.53,6.08.71,6,.75,6l.09.07A.17.17,0,0,0,1,6c.06,0,.15,0,.18,0s0,.12.09.13.11-.07.11-.07a.45.45,0,0,1,.38-.16A.26.26,0,0,0,2,5.76c.05-.09.12-.21.23-.21l.22.07c.11,0,.2,0,.33-.07s.25.09.18.18a.35.35,0,0,0,.29-.18l.05.13c0-.08.14,0,.14,0l.33.44a3.84,3.84,0,0,1,.32-.5l.16-.13a.42.42,0,0,1,.44.18c.11.14.22.3.4.3a.37.37,0,0,0,.33-.16,1,1,0,0,0,.15-.33.12.12,0,0,0,.08.06l.17-.17,0,0a.18.18,0,0,0,.25,0,.11.11,0,0,0,.08.08l.13-.18a.23.23,0,0,0,.22.15h.29c.15,0,.28.1.42.11s.36,0,.36-.14a.32.32,0,0,0,.41.08.36.36,0,0,1,.2,0l.06.08c.1.15.36,0,.44,0s0,.12.13.22.28,0,.35,0,.08.16.14.17.15-.05.15-.1a.58.58,0,0,1,.61-.24.35.35,0,0,1,.33,0l.12.09A.44.44,0,0,0,11,5.62a.18.18,0,0,0,.24,0,.42.42,0,0,0,.19-.16c0,.18.19.3.37.39l.56.26A3.78,3.78,0,0,1,12,5.48a3,3,0,0,0,.85,0l0,.25a.77.77,0,0,0,.25-.1V6h.22a.2.2,0,0,0,0,.11L13.51,6c0,.1.13.16.24.17a.63.63,0,0,0,.32-.12,1.19,1.19,0,0,0,0,.42.26.26,0,0,0,0,.15.28.28,0,0,0,.2,0h.52a.48.48,0,0,1,.32.12c0,.05,0,.13.09.13h.07l.26-.2.39.17c0,.09.23,0,.35,0s.34,0,.37,0,0,.1.09.1h.07L17,6.82a.32.32,0,0,0,.35,0L17.4,7a.16.16,0,0,1,.19,0c.08-.14.26-.14.41-.13a2.15,2.15,0,0,1,1.26.31.35.35,0,0,0,.15,0,.08.08,0,0,0,.07-.08,1.18,1.18,0,0,1,.69-.74.55.55,0,0,0,0,.31l.31-.32a.86.86,0,0,1,.13.14l.18-.15c.09.11.26,0,.4.06a.84.84,0,0,1,.61.18,1,1,0,0,1,.14-.43.5.5,0,0,0,.6.09l.17-.1c.25-.1.61.19.75.19h.41c.14,0,.28.14.23.26.25-.07.6-.18.61-.42l.08.21A.32.32,0,0,0,25,6.22c0,.08.19.07.28,0A1.1,1.1,0,0,0,25.42,6a.25.25,0,0,1,.27-.11c.11,0,.13.2.27.22s.3-.2.38-.15,0,0,.08.14.27,0,.31-.14.06-.26.18-.33a.69.69,0,0,1,.32,0c.11,0,.27-.09.27-.19a.36.36,0,0,1,.27,0c.08,0,.14.13.08.2a4,4,0,0,0,1.28.11.64.64,0,0,1,.41,0c.07,0,0,.1.18.13s.17-.16.33-.27.4,0,.58.08a5,5,0,0,0,1.42.52l.05.48a.58.58,0,0,0,.25-.12.65.65,0,0,1,0,.14.2.2,0,0,1,.13,0,3.35,3.35,0,0,1,.07.44c.17-.19.35-.37.54-.55a.41.41,0,0,1,.13-.1c.14-.07.31,0,.46,0a.34.34,0,0,0,.25-.25,1.09,1.09,0,0,1,.15-.35.88.88,0,0,1,.41-.2l1.66-.45a.17.17,0,0,1,.1,0c.09,0,.15.12.24.1s0-.09.15-.2.41,0,.57-.11a.47.47,0,0,0,.38-.25h0a.15.15,0,0,0,.2,0l.14.15c0-.11.14-.22.22-.2s.14.12.21.12a.33.33,0,0,0,.39-.16.7.7,0,0,0,0-.43c.16-.14.51,0,.63-.06s.22-.16.34-.16a.78.78,0,0,1,.34,0,.36.36,0,0,0,.33-.13c.13-.14,0-.39.14-.45h.1a.18.18,0,0,0,.11-.22A.59.59,0,0,0,40.62,3,.25.25,0,0,1,41,3c.07.1.08.32.17.32h.27a.25.25,0,0,1,.08.16l0,.44A1.26,1.26,0,0,1,42,3.49c.08.06.09.23.14.24s.14-.06.14-.06a.28.28,0,0,1,.29.08.66.66,0,0,0,.28.16.58.58,0,0,1,.43,0,.69.69,0,0,0,.19.1h0a.19.19,0,0,0,.18-.21.59.59,0,0,0,.45-.26.94.94,0,0,1,.37-.37c.16-.06.41,0,.4.18,0,0,.14-.06.22,0s.12.17.2.17a.28.28,0,0,0,.28,0,.76.76,0,0,0,.18-.22,1.23,1.23,0,0,0,.73.1c.14,0,.36-.07.42,0s0,.22.14.22a.25.25,0,0,0,.17,0,.87.87,0,0,1,.48,0,1.28,1.28,0,0,0-.13-.39,1,1,0,0,1,.81-.09.31.31,0,0,0,.19,0,.23.23,0,0,0,.1-.19.14.14,0,0,1,.11,0l.4-.1a.87.87,0,0,1,.28,0c.14,0,.4-.06.38,0s0,.07.06.07H50a1.06,1.06,0,0,1,.2-.12c0,.11.18.2.27.11,0,.1.11.14.2.11s.14-.15.23-.15a.42.42,0,0,1,.38,0,.7.7,0,0,1,.24.3.23.23,0,0,0,.09.14c.14,0,.32-.2.46-.19h.36a.33.33,0,0,0,.14.44c.06,0,.17,0,.17.12s-.07.22,0,.31A.55.55,0,0,0,53.08,4l.18-.09a.48.48,0,0,1,.17,0,1.87,1.87,0,0,1,.71.27.86.86,0,0,0,.44.21,1.51,1.51,0,0,0,.29-.13.91.91,0,0,1,.33,0l.73.09a1,1,0,0,1,.56.19l.1.07c.11,0,.24,0,.35-.08a.45.45,0,0,1,.34,0s-.07,0,0,.08.2,0,.29,0a.2.2,0,0,0,0,.15c.12,0,.25-.15.33-.17s.15.1.22.11a.57.57,0,0,0,.58,0,.82.82,0,0,0,0,.35c.15,0,.23-.26.39-.21s.1.29.22.38a.2.2,0,0,0,.27,0,.28.28,0,0,0,0-.25.62.62,0,0,0,.27,0c.09,0,.17-.08.14-.17s-.11-.24-.08-.24h.11a.86.86,0,0,1,.35.09.28.28,0,0,1,.48-.11c-.11,0-.08.19,0,.19a.36.36,0,0,0,.25,0v.13h.35v.17l.37-.21a1,1,0,0,0,.2.29.44.44,0,0,0,.32,0c.13,0,.29-.15.37-.11s.08.21.16.21a.21.21,0,0,0,.24,0c.08,0,.12-.18.18-.17A.49.49,0,0,1,63.85,5c-.11,0,0,.24.09.24a.57.57,0,0,0,.48,0,.49.49,0,0,1,.18-.08.46.46,0,0,1,.33.13,1.15,1.15,0,0,1,.12-.25l.39.1h0a.57.57,0,0,1,.74-.36.51.51,0,0,0,.39-.12l.63-.46A1.14,1.14,0,0,1,67.52,4a.4.4,0,0,1,.35.06c.07.06.11.2.21.2a.34.34,0,0,0,.21-.08,1.3,1.3,0,0,0,.31-.39l.29.13A.17.17,0,0,0,69,4c.11,0,.07-.25.18-.25s.27.11.42.11l.71-.08a3.7,3.7,0,0,1,.06.48,1.42,1.42,0,0,0,.36-.33,2.23,2.23,0,0,1,.55.33.49.49,0,0,0,.6,0v.17a1.06,1.06,0,0,1,.63-.07c.07.06.08.16.18.17a1.31,1.31,0,0,1,.28,0,.1.1,0,0,1,.08.09.26.26,0,0,0,.25.08.5.5,0,0,1,.29-.07c.08,0,.1.06.23.08s.23-.07.34-.14A1.73,1.73,0,0,1,75,4.34a1.14,1.14,0,0,1,.52,0,2.63,2.63,0,0,0,.35.15c.13,0,.23,0,.35-.2s.36-.06.51,0,.36.2.51.08l.05.3a.48.48,0,0,1,.46.1c0-.16.14-.31.32-.31a.67.67,0,0,1,.62.17.53.53,0,0,0,0-.33.46.46,0,0,1,.3.07.45.45,0,0,0,.12-.27h.06a.29.29,0,0,1,.24.3.23.23,0,0,1,.16-.06v.11c.29-.23.75-.06,1.14,0a8,8,0,0,1,1.1-.09,2.84,2.84,0,0,0,.42.09.7.7,0,0,0,.55-.18c.12-.12.27-.29.43-.22a.35.35,0,0,0,0,.43.46.46,0,0,0,.44.15,1.15,1.15,0,0,0-.17.41c.28,0,.59-.36.74-.37s.41,0,.41-.06V4.41a.22.22,0,0,1,.29,0,.57.57,0,0,1,.16.27,4.55,4.55,0,0,1,.69-1,.52.52,0,0,0,.55-.16.44.44,0,0,1,.13-.14.54.54,0,0,1,.18,0l.76,0c-.06.09-.08.21,0,.27a.31.31,0,0,0,.19,0q.7-.08,1.38-.21a.5.5,0,0,0,.29-.12,2.14,2.14,0,0,0,.4.2L90,3.7h.11c.05,0,0,0,.11-.11a.44.44,0,0,1,.4-.3h.19c.15,0,.25-.16.3-.3.25,0,.49,0,.74,0a2.46,2.46,0,0,1,.06-.67.4.4,0,0,1,.39.24,2.34,2.34,0,0,0,0,.26.18.18,0,0,0,.22.1.5.5,0,0,0,0,.32A.55.55,0,0,1,92.91,3c0,.18,0,.4.24.46a.92.92,0,0,0,.37,0c.12,0,.13.17.27.17s.18-.23.32-.23h.14l.52.18A.37.37,0,0,1,95,3.36a1.86,1.86,0,0,1,.41,0,1,1,0,0,1,.49.15c0-.09.27-.15.36-.08s.22.16.28.14,0-.09.13-.14.16,0,.26.12.29.33.29.33h.06a.1.1,0,0,1,.11.09c0,.05,0,.16.07.15S97.64,4,97.7,4h.06l.15.19H98a.12.12,0,0,0,.06-.06l.17-.22h0c.09,0,.06.09.17.21s.37.11.36.25L99,4.16l.11,0,.18-.33a.57.57,0,0,0,.11.11.31.31,0,0,0,0-.25,1.71,1.71,0,0,0,.32,0h0a.94.94,0,0,1,.44,0,.28.28,0,0,1,.13-.2,2.5,2.5,0,0,1,.25-.09l.27,0h.12c.06-.06.15,0,.15,0h0c.06-.07.06,0,.15,0s.05-.1.1-.1h.07a1,1,0,0,0,.2.15l.24.07h.24a2.62,2.62,0,0,1,1.72.6,3.65,3.65,0,0,1,1.16.41,1.36,1.36,0,0,1,.1.21h.15c.08.16.29.24.44.36s.18.44,0,.44a3.88,3.88,0,0,1,1,.4.78.78,0,0,0,.08-.39,1.29,1.29,0,0,0,.89-.47l.61.17c0-.23.44-.31.5-.27s0,.1.18.11.2-.13.27-.23a.75.75,0,0,1,.73-.32l-.2-.36c.33.14.65-.25,1-.31a.54.54,0,0,1,.62.41l.32-.28.22.25.17-.14,0,0a.33.33,0,0,0,.44-.09c0-.09,0-.21.12-.28a.5.5,0,0,1,.2-.08,1,1,0,0,0,.65-.47l.26.18c.09-.27.41-.27.68-.26s.6,0,.67-.29a1.57,1.57,0,0,0,1.4-.31c.36.36,1.16-.09,1.51.27l.2-.12a1,1,0,0,1,.89.28l1-.26V0H0Z"/></svg>