<svg id="user" xmlns="http://www.w3.org/2000/svg" width="62.55" height="75.66" viewBox="0 0 62.55 75.66"><defs><style>.cls-1{fill:#ddd;}.cls-1,.cls-2{stroke:#000;stroke-linecap:round;stroke-linejoin:round;stroke-width:3.09px;}.cls-2{fill:none;}</style></defs><path class="cls-1" d="M196.66,59.85c1.49-2,4.88-10.68,1.85-14.16-1.68-1.68-4-.89-5.5.61.76-1.16,6.72-31.14-26.14-32.56-13.56-.58-20.28,8.27-23,15.83S136.2,65,146.57,81.22c.64,1,3.08,3.93,10.27,5s24-5.42,27-9.57a61.83,61.83,0,0,0,3.87-10.34C191.61,65.59,194.79,62.39,196.66,59.85Z" transform="translate(-138.73 -12.17)"/><circle cx="22.85" cy="48.32" r="2.32"/><path class="cls-2" d="M157.11,55.16a7,7,0,0,1,9.79.86" transform="translate(-138.73 -12.17)"/><path class="cls-2" d="M153.13,50.43a13.13,13.13,0,0,1,18.5,1.62" transform="translate(-138.73 -12.17)"/><path class="cls-2" d="M176.37,48.08a19.31,19.31,0,0,0-27.21-2.38" transform="translate(-138.73 -12.17)"/></svg>