<svg id="Layer_1" data-name="Layer 1" xmlns="http://www.w3.org/2000/svg" width="148.45" height="34.07" viewBox="0 0 148.45 34.07"><defs><style>.cls-1{fill:none;stroke:#8aac0f;stroke-miterlimit:10;stroke-width:4px;}.cls-2{fill:#30622f;}</style></defs><path class="cls-1" d="M87.57,48a15,15,0,0,1-15-15A15,15,0,0,0,46.84,22.34" transform="translate(-19.12 -15.93)"/><path class="cls-2" d="M49.32,24.75l-1.06-1.06-2.83-2.83L44.37,19.8a2,2,0,0,0-2.83,0l-1.45,1.45A15,15,0,1,0,47.87,29l1.45-1.44A2,2,0,0,0,49.32,24.75Zm-15.2,2.5A7.76,7.76,0,0,0,26.37,35a1.25,1.25,0,0,1-2.5,0A10.26,10.26,0,0,1,34.12,24.75a1.25,1.25,0,0,1,0,2.5Z" transform="translate(-19.12 -15.93)"/><line class="cls-1" x1="68.45" y1="32.07" x2="148.45" y2="32.07"/></svg>