<?xml version="1.0" encoding="utf-8"?>
<!-- Generator: Adobe Illustrator 24.1.1, SVG Export Plug-In . SVG Version: 6.00 Build 0)  -->
<svg version="1.1" id="Layer_1" xmlns="http://www.w3.org/2000/svg" xmlns:xlink="http://www.w3.org/1999/xlink" x="0px" y="0px"
	 viewBox="540 374.7 200 50.6" enable-background="new 540 374.7 200 50.6" xml:space="preserve">
<g>
	
		<g id="solid" xmlns:cc="http://creativecommons.org/ns#" xmlns:dc="http://purl.org/dc/elements/1.1/" xmlns:inkscape="http://www.inkscape.org/namespaces/inkscape" xmlns:rdf="http://www.w3.org/1999/02/22-rdf-syntax-ns#" xmlns:sodipodi="http://sodipodi.sourceforge.net/DTD/sodipodi-0.dtd" xmlns:svg="http://www.w3.org/2000/svg">
		<path id="bg" fill="#563D7C" d="M590.6,416.9c0,4.6-3.8,8.4-8.4,8.4h-33.8c-4.6,0-8.4-3.8-8.4-8.4v-33.8c0-4.6,3.8-8.4,8.4-8.4
			h33.8c4.6,0,8.4,3.8,8.4,8.4V416.9z"/>
		<g id="B" enable-background="new    ">
			<path fill="#FFFFFF" d="M553.8,385.7h14.4c2.6,0,4.8,0.6,6.4,1.8c1.6,1.2,2.4,3,2.4,5.5c0,1.5-0.4,2.8-1.1,3.8
				c-0.7,1.1-1.8,1.9-3.1,2.5v0.1c1.8,0.4,3.2,1.2,4.1,2.6c0.9,1.3,1.4,3,1.4,5c0,1.2-0.2,2.2-0.6,3.2c-0.4,1-1.1,1.9-1.9,2.6
				s-2,1.3-3.4,1.7c-1.4,0.4-3,0.6-4.9,0.6h-13.6V385.7L553.8,385.7z M558.9,398.1h8.4c1.2,0,2.3-0.3,3.1-1.1c0.8-0.7,1.2-1.7,1.2-3
				c0-1.5-0.4-2.5-1.1-3.1c-0.7-0.6-1.8-0.9-3.2-0.9h-8.4L558.9,398.1L558.9,398.1z M558.9,411h9.1c1.6,0,2.8-0.4,3.7-1.2
				c0.9-0.8,1.3-2,1.3-3.5c0-1.5-0.4-2.6-1.3-3.4c-0.9-0.8-2.1-1.2-3.7-1.2h-9.1V411z"/>
		</g>
	</g>
	<g>
		<path fill="#563D7C" d="M601.7,411.2v-23.8h8.9c1.8,0,3.3,0.2,4.4,0.7c1.1,0.5,2,1.2,2.6,2.2c0.6,1,0.9,2,0.9,3.1
			c0,1-0.3,2-0.8,2.9c-0.6,0.9-1.4,1.6-2.5,2.2c1.4,0.4,2.5,1.1,3.3,2.2c0.8,1,1.2,2.2,1.2,3.6c0,1.1-0.2,2.1-0.7,3.1
			c-0.5,1-1.1,1.7-1.7,2.2c-0.7,0.5-1.6,0.9-2.6,1.2c-1,0.3-2.3,0.4-3.8,0.4H601.7z M604.8,397.4h5.1c1.4,0,2.4-0.1,3-0.3
			c0.8-0.2,1.4-0.6,1.8-1.2c0.4-0.6,0.6-1.2,0.6-2.1c0-0.8-0.2-1.5-0.6-2.1c-0.4-0.6-0.9-1-1.6-1.2c-0.7-0.2-1.9-0.3-3.6-0.3h-4.7
			V397.4z M604.8,408.4h5.9c1,0,1.7,0,2.1-0.1c0.7-0.1,1.3-0.3,1.8-0.6c0.5-0.3,0.9-0.7,1.2-1.3c0.3-0.6,0.5-1.2,0.5-2
			c0-0.9-0.2-1.7-0.7-2.3c-0.5-0.7-1.1-1.1-1.9-1.4c-0.8-0.3-2-0.4-3.5-0.4h-5.5V408.4z"/>
		<path fill="#563D7C" d="M622.5,402.6c0-3.2,0.9-5.5,2.7-7.1c1.5-1.3,3.3-1.9,5.4-1.9c2.4,0,4.3,0.8,5.8,2.3
			c1.5,1.6,2.3,3.7,2.3,6.4c0,2.2-0.3,4-1,5.2c-0.7,1.3-1.6,2.3-2.9,3c-1.3,0.7-2.7,1.1-4.2,1.1c-2.4,0-4.4-0.8-5.8-2.3
			C623.2,407.7,622.5,405.5,622.5,402.6z M625.5,402.6c0,2.2,0.5,3.9,1.4,5c1,1.1,2.2,1.6,3.6,1.6c1.4,0,2.7-0.6,3.6-1.7
			c1-1.1,1.4-2.8,1.4-5c0-2.1-0.5-3.7-1.5-4.8c-1-1.1-2.2-1.6-3.6-1.6c-1.5,0-2.7,0.5-3.6,1.6C626,398.7,625.5,400.4,625.5,402.6z"
			/>
		<path fill="#563D7C" d="M641,402.6c0-3.2,0.9-5.5,2.7-7.1c1.5-1.3,3.3-1.9,5.4-1.9c2.4,0,4.3,0.8,5.8,2.3c1.5,1.6,2.3,3.7,2.3,6.4
			c0,2.2-0.3,4-1,5.2c-0.7,1.3-1.6,2.3-2.9,3c-1.3,0.7-2.7,1.1-4.2,1.1c-2.4,0-4.4-0.8-5.8-2.3C641.7,407.7,641,405.5,641,402.6z
			 M644,402.6c0,2.2,0.5,3.9,1.4,5c1,1.1,2.2,1.6,3.6,1.6c1.4,0,2.7-0.6,3.6-1.7c1-1.1,1.4-2.8,1.4-5c0-2.1-0.5-3.7-1.5-4.8
			c-1-1.1-2.2-1.6-3.6-1.6c-1.5,0-2.7,0.5-3.6,1.6C644.4,398.7,644,400.4,644,402.6z"/>
		<path fill="#563D7C" d="M666.9,408.6l0.4,2.6c-0.8,0.2-1.6,0.3-2.2,0.3c-1.1,0-1.9-0.2-2.5-0.5c-0.6-0.3-1-0.8-1.2-1.3
			c-0.2-0.5-0.4-1.7-0.4-3.4v-9.9h-2.1V394h2.1v-4.3l2.9-1.8v6h2.9v2.3h-2.9v10.1c0,0.8,0.1,1.4,0.2,1.6c0.1,0.2,0.3,0.4,0.5,0.6
			c0.2,0.1,0.6,0.2,1,0.2C665.9,408.7,666.3,408.6,666.9,408.6z"/>
		<path fill="#563D7C" d="M668.6,406l2.9-0.5c0.2,1.2,0.6,2,1.4,2.7c0.7,0.6,1.8,0.9,3.1,0.9c1.3,0,2.3-0.3,3-0.8
			c0.6-0.5,1-1.2,1-1.9c0-0.7-0.3-1.2-0.9-1.6c-0.4-0.3-1.4-0.6-3-1c-2.1-0.5-3.6-1-4.4-1.4c-0.8-0.4-1.5-0.9-1.9-1.6
			c-0.4-0.7-0.6-1.5-0.6-2.3c0-0.8,0.2-1.5,0.5-2.1c0.4-0.7,0.8-1.2,1.4-1.6c0.5-0.3,1.1-0.6,1.9-0.9c0.8-0.2,1.6-0.3,2.5-0.3
			c1.4,0,2.5,0.2,3.6,0.6c1,0.4,1.8,0.9,2.3,1.6c0.5,0.7,0.8,1.6,1,2.7l-2.9,0.4c-0.1-0.9-0.5-1.6-1.1-2.1c-0.6-0.5-1.5-0.7-2.6-0.7
			c-1.3,0-2.3,0.2-2.9,0.7c-0.6,0.4-0.9,1-0.9,1.6c0,0.4,0.1,0.7,0.4,1c0.2,0.3,0.6,0.6,1.1,0.8c0.3,0.1,1.2,0.4,2.6,0.7
			c2.1,0.6,3.5,1,4.3,1.4c0.8,0.4,1.5,0.9,1.9,1.5c0.5,0.7,0.7,1.5,0.7,2.5c0,1-0.3,1.9-0.9,2.7c-0.6,0.9-1.4,1.5-2.5,2
			c-1.1,0.5-2.3,0.7-3.6,0.7c-2.2,0-3.9-0.5-5.1-1.4C669.6,409.2,668.9,407.9,668.6,406z"/>
		<path fill="#563D7C" d="M692.7,408.6l0.4,2.6c-0.8,0.2-1.6,0.3-2.2,0.3c-1.1,0-1.9-0.2-2.5-0.5c-0.6-0.3-1-0.8-1.2-1.3
			c-0.2-0.5-0.4-1.7-0.4-3.4v-9.9h-2.1V394h2.1v-4.3l2.9-1.8v6h2.9v2.3h-2.9v10.1c0,0.8,0.1,1.4,0.2,1.6c0.1,0.2,0.3,0.4,0.5,0.6
			c0.2,0.1,0.6,0.2,1,0.2C691.7,408.7,692.2,408.6,692.7,408.6z"/>
		<path fill="#563D7C" d="M695.5,411.2V394h2.6v2.6c0.7-1.2,1.3-2,1.9-2.4c0.6-0.4,1.2-0.6,1.9-0.6c1,0,2,0.3,3,0.9l-1,2.7
			c-0.7-0.4-1.4-0.6-2.1-0.6c-0.6,0-1.2,0.2-1.7,0.6c-0.5,0.4-0.9,0.9-1.1,1.6c-0.3,1-0.5,2.2-0.5,3.4v9H695.5z"/>
		<path fill="#563D7C" d="M717.8,409.1c-1.1,0.9-2.1,1.6-3.1,1.9s-2.1,0.6-3.2,0.6c-1.9,0-3.3-0.5-4.4-1.4c-1-0.9-1.5-2.1-1.5-3.5
			c0-0.8,0.2-1.6,0.6-2.3c0.4-0.7,0.9-1.3,1.5-1.7c0.6-0.4,1.3-0.7,2.1-1c0.6-0.2,1.4-0.3,2.6-0.4c2.4-0.3,4.1-0.6,5.2-1
			c0-0.4,0-0.7,0-0.8c0-1.2-0.3-2-0.8-2.5c-0.7-0.7-1.9-1-3.3-1c-1.4,0-2.4,0.2-3,0.7c-0.7,0.5-1.1,1.3-1.5,2.6l-2.9-0.4
			c0.3-1.2,0.7-2.2,1.3-3c0.6-0.8,1.5-1.3,2.6-1.7c1.1-0.4,2.4-0.6,3.9-0.6c1.5,0,2.7,0.2,3.6,0.5c0.9,0.3,1.6,0.8,2,1.3
			c0.4,0.5,0.7,1.2,0.9,2c0.1,0.5,0.1,1.4,0.1,2.7v3.9c0,2.7,0.1,4.4,0.2,5.1c0.1,0.7,0.4,1.4,0.7,2.1h-3
			C718.1,410.6,717.9,409.9,717.8,409.1z M717.6,402.5c-1.1,0.4-2.6,0.8-4.8,1.1c-1.2,0.2-2,0.4-2.5,0.6c-0.5,0.2-0.9,0.5-1.2,0.9
			c-0.3,0.4-0.4,0.9-0.4,1.4c0,0.8,0.3,1.4,0.9,1.9c0.6,0.5,1.5,0.8,2.6,0.8c1.1,0,2.1-0.2,3-0.7c0.9-0.5,1.5-1.2,1.9-2
			c0.3-0.7,0.5-1.6,0.5-2.9V402.5z"/>
		<path fill="#563D7C" d="M725.1,417.8V394h2.7v2.2c0.6-0.9,1.3-1.5,2.1-2c0.8-0.4,1.7-0.7,2.9-0.7c1.5,0,2.8,0.4,3.9,1.1
			c1.1,0.8,2,1.8,2.5,3.2c0.6,1.4,0.9,2.9,0.9,4.5c0,1.8-0.3,3.3-0.9,4.8c-0.6,1.4-1.6,2.5-2.8,3.2c-1.2,0.8-2.5,1.1-3.8,1.1
			c-1,0-1.8-0.2-2.6-0.6c-0.8-0.4-1.4-0.9-1.9-1.6v8.4H725.1z M727.7,402.7c0,2.2,0.4,3.9,1.3,4.9c0.9,1.1,2,1.6,3.3,1.6
			c1.3,0,2.4-0.5,3.3-1.6c0.9-1.1,1.4-2.8,1.4-5.1c0-2.2-0.5-3.8-1.4-4.9c-0.9-1.1-2-1.6-3.2-1.6c-1.2,0-2.3,0.6-3.3,1.7
			C728.2,398.8,727.7,400.5,727.7,402.7z"/>
	</g>
</g>
</svg>
