<?xml version="1.0" encoding="utf-8"?>
<!-- Generator: Adobe Illustrator 23.0.0, SVG Export Plug-In . SVG Version: 6.00 Build 0)  -->
<svg version="1.1" id="Layer_1" xmlns="http://www.w3.org/2000/svg" xmlns:xlink="http://www.w3.org/1999/xlink" x="0px" y="0px"
	 viewBox="0 0 571.34 182" style="enable-background:new 0 0 571.34 182;" xml:space="preserve">
<style type="text/css">
	.st0{fill:#100E0F;}
	.st1{fill-rule:evenodd;clip-rule:evenodd;fill:#191717;}
</style>
<g>
	<path class="st0" d="M280.53,83.99h-30.27c-0.78,0-1.41,0.63-1.41,1.42v14.8c0,0.78,0.63,1.42,1.41,1.42h11.81V120
		c0,0-2.65,0.9-9.98,0.9c-8.65,0-20.73-3.16-20.73-29.72c0-26.57,12.58-30.06,24.39-30.06c10.22,0,14.63,1.8,17.43,2.67
		c0.88,0.27,1.69-0.61,1.69-1.39l3.38-14.3c0-0.37-0.12-0.81-0.54-1.1c-1.14-0.81-8.08-4.7-25.62-4.7
		c-20.21,0-40.93,8.6-40.93,49.92c0,41.33,23.73,47.48,43.73,47.48c16.56,0,26.6-7.08,26.6-7.08c0.41-0.23,0.46-0.81,0.46-1.07V85.4
		C281.94,84.62,281.31,83.99,280.53,83.99z"/>
	<path class="st0" d="M436.51,47.25c0-0.79-0.62-1.42-1.4-1.42h-17.04c-0.78,0-1.41,0.64-1.41,1.42c0,0,0,32.93,0,32.93H390.1V47.25
		c0-0.79-0.63-1.42-1.41-1.42h-17.04c-0.78,0-1.41,0.64-1.41,1.42v89.18c0,0.79,0.63,1.43,1.41,1.43h17.04
		c0.78,0,1.41-0.64,1.41-1.43V98.28h26.56c0,0-0.05,38.14-0.05,38.14c0,0.79,0.63,1.43,1.41,1.43h17.08c0.78,0,1.4-0.64,1.41-1.43
		V47.25z"/>
	<g>
		<g>
			<path class="st0" d="M312.69,58.95c0-6.14-4.92-11.1-10.99-11.1c-6.06,0-10.99,4.96-10.99,11.1c0,6.13,4.92,11.1,10.99,11.1
				C307.77,70.05,312.69,65.08,312.69,58.95z"/>
			<path class="st0" d="M311.47,117.61c0-2.29,0-41.16,0-41.16c0-0.78-0.63-1.42-1.41-1.42h-16.99c-0.78,0-1.48,0.8-1.48,1.59
				c0,0,0,49.53,0,58.98c0,1.73,1.08,2.25,2.48,2.25c0,0,7.25,0,15.31,0c1.68,0,2.09-0.82,2.09-2.28
				C311.47,132.4,311.47,120.02,311.47,117.61z"/>
		</g>
	</g>
	<path class="st0" d="M501.28,75.16h-16.91c-0.78,0-1.41,0.64-1.41,1.43v43.73c0,0-4.3,3.14-10.39,3.14c-6.1,0-7.72-2.77-7.72-8.74
		c0-5.98,0-38.13,0-38.13c0-0.79-0.63-1.43-1.41-1.43h-17.16c-0.77,0-1.41,0.64-1.41,1.43c0,0,0,23.29,0,41.02
		c0,17.73,9.88,22.07,23.48,22.07c11.15,0,20.15-6.16,20.15-6.16s0.43,3.25,0.62,3.63c0.19,0.38,0.7,0.77,1.24,0.77l10.92-0.05
		c0.77,0,1.41-0.64,1.41-1.42l-0.01-59.86C502.69,75.8,502.06,75.16,501.28,75.16z"/>
	<path class="st0" d="M547.5,73.16c-9.61,0-16.14,4.29-16.14,4.29v-30.2c0-0.79-0.63-1.42-1.41-1.42h-17.09
		c-0.78,0-1.41,0.64-1.41,1.42v89.18c0,0.79,0.63,1.43,1.41,1.43c0,0,11.85,0,11.86,0c0.53,0,0.94-0.28,1.24-0.76
		c0.29-0.48,0.72-4.11,0.72-4.11s6.99,6.62,20.22,6.62c15.53,0,24.44-7.88,24.44-35.37C571.34,76.75,557.12,73.16,547.5,73.16z
		 M540.83,123.41c-5.87-0.18-9.84-2.84-9.84-2.84V92.32c0,0,3.92-2.41,8.74-2.84c6.09-0.55,11.96,1.29,11.96,15.82
		C551.69,120.63,549.04,123.65,540.83,123.41z"/>
	<path class="st0" d="M360.45,75.02h-12.78c0,0-0.02-16.88-0.02-16.89c0-0.64-0.33-0.96-1.07-0.96h-17.42
		c-0.68,0-1.04,0.3-1.04,0.95v17.45c0,0-8.73,2.11-9.32,2.28c-0.59,0.17-1.02,0.71-1.02,1.36v10.97c0,0.79,0.63,1.42,1.41,1.42h8.93
		c0,0,0,11.47,0,26.38c0,19.6,13.75,21.52,23.02,21.52c4.24,0,9.31-1.36,10.15-1.67c0.51-0.19,0.8-0.71,0.8-1.28l0.01-12.06
		c0-0.79-0.66-1.42-1.41-1.42c-0.74,0-2.65,0.3-4.61,0.3c-6.28,0-8.41-2.92-8.41-6.7c0-3.78,0-25.07,0-25.07h12.78
		c0.78,0,1.41-0.64,1.41-1.42V76.44C361.86,75.66,361.23,75.02,360.45,75.02z"/>
</g>
<g>
	<path class="st1" d="M93.3,0C41.78,0,0,41.77,0,93.3c0,41.22,26.73,76.2,63.81,88.54c4.66,0.86,6.37-2.02,6.37-4.49
		c0-2.22-0.09-9.58-0.13-17.37c-25.96,5.64-31.43-11.01-31.43-11.01c-4.24-10.78-10.36-13.65-10.36-13.65
		c-8.47-5.79,0.64-5.67,0.64-5.67c9.37,0.66,14.3,9.62,14.3,9.62c8.32,14.26,21.83,10.14,27.15,7.76
		c0.84-6.03,3.25-10.15,5.92-12.48c-20.72-2.36-42.51-10.36-42.51-46.11c0-10.19,3.65-18.51,9.61-25.04
		c-0.97-2.35-4.16-11.84,0.9-24.69c0,0,7.84-2.51,25.66,9.57c7.44-2.07,15.43-3.1,23.35-3.14c7.93,0.04,15.92,1.07,23.37,3.14
		c17.81-12.07,25.63-9.57,25.63-9.57c5.08,12.85,1.88,22.34,0.92,24.69c5.98,6.53,9.6,14.86,9.6,25.04
		c0,35.84-21.83,43.73-42.6,46.04c3.35,2.9,6.33,8.57,6.33,17.28c0,12.48-0.11,22.53-0.11,25.61c0,2.48,1.68,5.39,6.41,4.48
		c37.05-12.35,63.75-47.31,63.75-88.52C186.61,41.77,144.83,0,93.3,0z"/>
</g>
</svg>
