<svg id="purple" xmlns="http://www.w3.org/2000/svg" viewBox="0 0 284.8 80"><defs><style>.cls-1{fill:#410099;}</style></defs><path class="cls-1" d="M64.8,0H7.2A7.2,7.2,0,0,0,0,7.2V72.8A7.2,7.2,0,0,0,7.2,80H64.8A7.2,7.2,0,0,0,72,72.8V7.2A7.2,7.2,0,0,0,64.8,0ZM68,72.8A3.21,3.21,0,0,1,64.8,76H7.2A3.21,3.21,0,0,1,4,72.8V7.2A3.21,3.21,0,0,1,7.2,4H64.8A3.21,3.21,0,0,1,68,7.2Z"/><polygon class="cls-1" points="18 68 27 60 18 52 18 68"/><path class="cls-1" d="M50.52,35.58C48.9,33.94,45.94,32,41,32a50.62,50.62,0,0,0-15,2.71V12H18V46.69l5.65-2.56C23.74,44.09,32.87,40,41,40c4.06,0,5,2.24,5,4.11V68h8V44A12.43,12.43,0,0,0,50.52,35.58Z"/><path class="cls-1" d="M40,25h8a23.44,23.44,0,0,0,6-13H46A31.17,31.17,0,0,1,40,25Z"/><path class="cls-1" d="M90,26.05h8V37h9.81v-11h8v29.5h-8V43.63H98V55.55H90Z"/><path class="cls-1" d="M126,26.05h21.06v6.62H134v4.78h9.33v6.22H134v5.46h13.75v6.42H126Z"/><path class="cls-1" d="M156.52,26.05h11.53c7.57,0,12.2,2.51,12.2,9.61,0,4.62-1.95,7.3-5.82,8.61l6.26,11.28h-8.46l-5.7-10.24h-2.19V55.55h-7.82Zm11.25,13.2c3.27,0,4.7-.92,4.7-3.39s-1.43-3.35-4.7-3.35h-3.43v6.74Z"/><path class="cls-1" d="M188.57,40.8c0-10.8,7.38-15.31,14.51-15.31S217.56,30,217.56,40.8s-7.38,15.31-14.48,15.31S188.57,51.61,188.57,40.8Zm21,0c0-5.42-2.35-8.73-6.5-8.73s-6.54,3.31-6.54,8.73,2.36,8.93,6.54,8.93S209.58,46.22,209.58,40.8Z"/><path class="cls-1" d="M226.44,26.05h8V36.73l8.14-10.68h9.25l-9.93,11.64,10.8,17.86h-9l-7-11.8-2.27,2.63v9.17h-8Z"/><path class="cls-1" d="M260,43.71V26.05h8V43.67c0,4.07,1.32,5.9,4.51,5.9s4.46-1.83,4.46-5.9V26.05h7.82V43.71c0,7.82-3.75,12.28-12.36,12.28S260,51.53,260,43.71Z"/></svg>