<?xml version="1.0" encoding="utf-8"?>
<!-- Generator: Adobe Illustrator 15.0.0, SVG Export Plug-In . SVG Version: 6.00 Build 0)  -->
<!DOCTYPE svg PUBLIC "-//W3C//DTD SVG 1.0//EN" "http://www.w3.org/TR/2001/REC-SVG-20010904/DTD/svg10.dtd">
<svg version="1.0" id="Layer_1" xmlns="http://www.w3.org/2000/svg" xmlns:xlink="http://www.w3.org/1999/xlink" x="0px" y="0px"
	 width="100%" height="100%" viewBox="0 0 996 100" enable-background="new 0 0 996 100" xml:space="preserve">
<path fill-rule="evenodd" clip-rule="evenodd" fill="none" stroke="#000000" stroke-width="6" stroke-miterlimit="10" d="M15,5h72
	c5.522,0,10,4.477,10,10v72c0,5.523-4.478,10-10,10H15C9.477,97,5,92.523,5,87V15C5,9.477,9.477,5,15,5z"/>
<path fill-rule="evenodd" clip-rule="evenodd" fill="#FFFFFF" stroke="#000000" stroke-width="4" stroke-miterlimit="10" d="M12,2
	h72c5.522,0,10,4.477,10,10v72c0,5.523-4.478,10-10,10H12C6.477,94,2,89.523,2,84V12C2,6.477,6.477,2,12,2z"/>
<path fill-rule="evenodd" clip-rule="evenodd" fill="none" stroke="#000000" stroke-width="6" stroke-miterlimit="10" d="M127,5h72
	c5.522,0,10,4.477,10,10v72c0,5.523-4.478,10-10,10h-72c-5.523,0-10-4.477-10-10V15C117,9.477,121.477,5,127,5z"/>
<path fill-rule="evenodd" clip-rule="evenodd" fill="#FFFFFF" stroke="#000000" stroke-width="4" stroke-miterlimit="10" d="M124,2
	h72c5.522,0,10,4.477,10,10v72c0,5.523-4.478,10-10,10h-72c-5.523,0-10-4.477-10-10V12C114,6.477,118.477,2,124,2z"/>
<path fill-rule="evenodd" clip-rule="evenodd" fill="none" stroke="#000000" stroke-width="6" stroke-miterlimit="10" d="M239,5h72
	c5.522,0,10,4.477,10,10v72c0,5.523-4.478,10-10,10h-72c-5.523,0-10-4.477-10-10V15C229,9.477,233.477,5,239,5z"/>
<path fill-rule="evenodd" clip-rule="evenodd" fill="#FFFFFF" stroke="#000000" stroke-width="4" stroke-miterlimit="10" d="M236,2
	h72c5.522,0,10,4.477,10,10v72c0,5.523-4.478,10-10,10h-72c-5.523,0-10-4.477-10-10V12C226,6.477,230.477,2,236,2z"/>
<path fill-rule="evenodd" clip-rule="evenodd" fill="none" stroke="#000000" stroke-width="6" stroke-miterlimit="10" d="M351,5h72
	c5.522,0,10,4.477,10,10v72c0,5.523-4.478,10-10,10h-72c-5.523,0-10-4.477-10-10V15C341,9.477,345.477,5,351,5z"/>
<path fill-rule="evenodd" clip-rule="evenodd" fill="#FFFFFF" stroke="#000000" stroke-width="4" stroke-miterlimit="10" d="M348,2
	h72c5.522,0,10,4.477,10,10v72c0,5.523-4.478,10-10,10h-72c-5.523,0-10-4.477-10-10V12C338,6.477,342.477,2,348,2z"/>
<path fill-rule="evenodd" clip-rule="evenodd" fill="none" stroke="#000000" stroke-width="6" stroke-miterlimit="10" d="M463,5h72
	c5.522,0,10,4.477,10,10v72c0,5.523-4.478,10-10,10h-72c-5.523,0-10-4.477-10-10V15C453,9.477,457.477,5,463,5z"/>
<path fill-rule="evenodd" clip-rule="evenodd" fill="#FFFFFF" stroke="#000000" stroke-width="4" stroke-miterlimit="10" d="M460,2
	h72c5.522,0,10,4.477,10,10v72c0,5.523-4.478,10-10,10h-72c-5.523,0-10-4.477-10-10V12C450,6.477,454.477,2,460,2z"/>
<path fill-rule="evenodd" clip-rule="evenodd" fill="none" stroke="#000000" stroke-width="6" stroke-miterlimit="10" d="M575,5h72
	c5.522,0,10,4.477,10,10v72c0,5.523-4.478,10-10,10h-72c-5.523,0-10-4.477-10-10V15C565,9.477,569.477,5,575,5z"/>
<path fill-rule="evenodd" clip-rule="evenodd" fill="#FFFFFF" stroke="#000000" stroke-width="4" stroke-miterlimit="10" d="M572,2
	h72c5.522,0,10,4.477,10,10v72c0,5.523-4.478,10-10,10h-72c-5.523,0-10-4.477-10-10V12C562,6.477,566.477,2,572,2z"/>
<path fill-rule="evenodd" clip-rule="evenodd" fill="none" stroke="#000000" stroke-width="6" stroke-miterlimit="10" d="M687,5h72
	c5.522,0,10,4.477,10,10v72c0,5.523-4.478,10-10,10h-72c-5.523,0-10-4.477-10-10V15C677,9.477,681.477,5,687,5z"/>
<path fill-rule="evenodd" clip-rule="evenodd" fill="#FFFFFF" stroke="#000000" stroke-width="4" stroke-miterlimit="10" d="M684,2
	h72c5.522,0,10,4.477,10,10v72c0,5.523-4.478,10-10,10h-72c-5.523,0-10-4.477-10-10V12C674,6.477,678.477,2,684,2z"/>
<path fill-rule="evenodd" clip-rule="evenodd" fill="none" stroke="#000000" stroke-width="6" stroke-miterlimit="10" d="M799,5h72
	c5.522,0,10,4.477,10,10v72c0,5.523-4.478,10-10,10h-72c-5.523,0-10-4.477-10-10V15C789,9.477,793.477,5,799,5z"/>
<path fill-rule="evenodd" clip-rule="evenodd" fill="#FFFFFF" stroke="#000000" stroke-width="4" stroke-miterlimit="10" d="M796,2
	h72c5.522,0,10,4.477,10,10v72c0,5.523-4.478,10-10,10h-72c-5.523,0-10-4.477-10-10V12C786,6.477,790.477,2,796,2z"/>
<path fill-rule="evenodd" clip-rule="evenodd" fill="none" stroke="#000000" stroke-width="6" stroke-miterlimit="10" d="M911,5h72
	c5.522,0,10,4.477,10,10v72c0,5.523-4.478,10-10,10h-72c-5.523,0-10-4.477-10-10V15C901,9.477,905.477,5,911,5z"/>
<path fill-rule="evenodd" clip-rule="evenodd" fill="#FFFFFF" stroke="#000000" stroke-width="4" stroke-miterlimit="10" d="M908,2
	h72c5.522,0,10,4.477,10,10v72c0,5.523-4.478,10-10,10h-72c-5.523,0-10-4.477-10-10V12C898,6.477,902.477,2,908,2z"/>
<g>
	<path d="M23.641,66.891c0.078-0.312,0.117-0.703,0.117-1.172l6.153-36.211c0.154-1.211,0.606-2.139,1.356-2.783
		s1.598-0.967,2.541-0.967c2.098,0,3.377,0.993,3.839,2.98l9.168,31.31l0.262-0.042l9.141-31.553
		c0.232-0.859,0.699-1.523,1.397-1.992s1.524-0.703,2.475-0.703s1.805,0.303,2.562,0.908c0.756,0.605,1.212,1.475,1.368,2.607
		l6.171,36.68c0,1.211-0.242,2.1-0.724,2.666c-0.483,0.566-1.072,0.85-1.768,0.85s-1.294-0.205-1.796-0.615
		c-0.502-0.41-0.811-0.986-0.927-1.729l-4.893-34.541l-10.44,34.771c-0.352,1.409-1.211,2.113-2.578,2.113
		c-0.586,0-1.137-0.195-1.654-0.585c-0.518-0.39-0.864-0.897-1.04-1.521L34.07,32.584l-5.098,34.775
		c-0.116,0.801-0.444,1.436-0.985,1.904s-1.149,0.703-1.825,0.703s-1.255-0.269-1.738-0.806
		C23.94,68.624,23.68,67.867,23.641,66.891z"/>
</g>
<g>
	<path d="M144.336,58.973c-1.641-3.289-2.461-6.943-2.461-10.964c0-4.02,0.737-7.707,2.212-11.061s3.643-6.038,6.504-8.052
		c2.861-2.015,5.981-3.021,9.36-3.021s6.242,0.576,8.591,1.729c2.349,1.153,4.305,2.744,5.871,4.775
		c3.17,4.043,4.834,9.151,4.991,15.322c0,3.887-0.754,7.49-2.261,10.811c-1.508,3.32-3.69,5.957-6.548,7.91
		c-2.858,1.953-6.108,2.93-9.751,2.93s-6.895-0.907-9.756-2.723S145.977,62.262,144.336,58.973z M149.229,38.32
		c-1.152,2.595-1.729,5.445-1.729,8.547s0.396,5.957,1.187,8.562c0.791,2.604,2.168,4.814,4.131,6.629
		c1.963,1.815,4.565,2.723,7.808,2.723c3.75,0,6.836-1.425,9.258-4.273c2.559-3.045,3.857-7.348,3.896-12.909
		c0-5.542-1.27-9.835-3.809-12.88c-2.383-2.849-5.498-4.273-9.346-4.273c-2.461,0-4.688,0.664-6.68,1.991
		S150.381,35.724,149.229,38.32z"/>
</g>
<g>
	<path d="M256.545,52.623V28.57c0-0.82,0.249-1.475,0.747-1.963c0.498-0.488,1.113-0.732,1.846-0.732s1.353,0.234,1.86,0.703
		s0.762,1.133,0.762,1.992v25.664c0,2.227,0.498,4.141,1.494,5.742c1.992,3.203,5.371,4.805,10.137,4.805
		c4.609-0.156,7.832-1.865,9.668-5.127c0.879-1.582,1.318-3.389,1.318-5.42V28.57c0-0.82,0.242-1.475,0.726-1.963
		c0.484-0.488,1.091-0.732,1.822-0.732s1.358,0.234,1.881,0.703c0.524,0.469,0.786,1.133,0.786,1.992v23.936
		c0,7.168-2.405,12.1-7.217,14.795c-2.435,1.367-5.264,2.051-8.486,2.051s-5.894-0.391-8.013-1.172s-3.872-1.914-5.259-3.398
		C257.902,61.852,256.545,57.799,256.545,52.623z"/>
</g>
<g>
	<path d="M370.23,64.312c0-0.059,0-0.117,0-0.176c0-0.781,0.205-1.406,0.615-1.875c0.43-0.508,0.913-0.762,1.45-0.762
		s1.118,0.156,1.743,0.469c2.773,1.875,5.732,2.812,8.877,2.812c1.445,0,2.778-0.385,3.999-1.157
		c1.221-0.771,2.192-1.797,2.915-3.076c0.723-1.278,1.084-2.655,1.084-4.131c0-1.475-0.42-2.725-1.26-3.75s-1.895-1.86-3.164-2.505
		s-2.9-1.308-4.893-1.992c-1.992-0.684-3.232-1.123-3.721-1.318c-1.543-0.742-2.822-1.504-3.838-2.285
		c-2.188-1.718-3.32-4.199-3.398-7.441c0-2.168,0.615-4.116,1.846-5.845s2.832-3.062,4.805-3.999s4.014-1.406,6.123-1.406
		c3.477,0,6.328,0.743,8.555,2.227c1.172,0.788,1.758,1.733,1.758,2.837c0,0.619-0.234,1.141-0.703,1.566s-1.055,0.676-1.758,0.753
		c-0.781-0.193-1.772-0.58-2.974-1.16c-1.201-0.58-2.144-1-2.827-1.261c-0.684-0.261-1.494-0.392-2.432-0.392
		c-1.914,0-3.481,0.565-4.702,1.696c-1.221,1.131-1.948,2.641-2.183,4.532c0.117,2.417,1.797,4.327,5.039,5.73
		c0.645,0.273,1.812,0.702,3.501,1.287c1.689,0.585,3.13,1.131,4.321,1.639c2.871,1.23,4.883,2.754,6.035,4.57
		c1.074,1.875,1.611,3.916,1.611,6.123s-0.547,4.336-1.641,6.387s-2.734,3.721-4.922,5.01s-4.595,1.934-7.222,1.934
		s-4.932-0.289-6.914-0.864s-3.481-1.265-4.497-2.065C370.68,65.875,370.27,65.172,370.23,64.312z"/>
</g>
<g>
	<path d="M485.545,66.188V29.156c0-0.898,0.22-1.611,0.659-2.139s0.952-0.791,1.538-0.791h16.172c0.684,0,1.226,0.234,1.626,0.703
		s0.601,1.055,0.601,1.758s-0.205,1.289-0.615,1.758s-0.986,0.703-1.729,0.703H490.76V45.24h11.865c0.723,0,1.294,0.234,1.714,0.703
		s0.63,1.05,0.63,1.743c0,0.693-0.215,1.279-0.645,1.758c-0.43,0.479-1.035,0.718-1.816,0.718H490.76v13.916h13.154
		c0.703,0,1.25,0.244,1.641,0.732s0.586,1.08,0.586,1.772c0,0.693-0.225,1.271-0.674,1.729c-0.449,0.459-1.094,0.688-1.934,0.688
		h-15.41C486.404,69,485.545,68.062,485.545,66.188z"/>
</g>
<g>
	<path d="M593.666,28.688c0.059-0.664,0.312-1.24,0.762-1.729c0.449-0.488,1.055-0.732,1.816-0.732h21.445
		c0.859,0,1.51,0.234,1.949,0.703s0.658,1.055,0.658,1.758s-0.205,1.289-0.615,1.758s-0.986,0.703-1.729,0.703h-8.291v35.508
		c0,0.82-0.27,1.475-0.81,1.963s-1.173,0.732-1.9,0.732c-0.727,0-1.345-0.244-1.855-0.732s-0.767-1.143-0.767-1.963V31.148h-8.203
		c-0.723,0-1.299-0.234-1.729-0.703S593.725,29.391,593.666,28.688z"/>
</g>
<g>
	<path d="M707.211,66.656V29.039c0-1.015,0.279-1.738,0.836-2.168c0.557-0.429,1.137-0.645,1.742-0.645h10.254
		c1.992,0,3.979,0.474,5.963,1.421c1.981,0.948,3.617,2.388,4.906,4.321s1.934,4.277,1.934,7.031
		c-0.449,5.859-3.213,9.356-8.291,10.488c-1.621,0.371-3.506,0.557-5.654,0.557l13.682,15c0.723,0.645,1.084,1.323,1.084,2.036
		c0,0.714-0.234,1.25-0.703,1.611s-1.133,0.542-1.992,0.542s-1.602-0.352-2.227-1.055l-16.318-17.959v16.553
		c0,0.84-0.259,1.479-0.775,1.919c-0.519,0.439-1.134,0.659-1.846,0.659c-0.714,0-1.324-0.234-1.832-0.703
		S707.211,67.516,707.211,66.656z M712.426,46.031h7.441c3.73,0,6.055-1.24,6.973-3.721c0.41-1.113,0.635-2.432,0.674-3.955
		c0-0.059,0-0.127,0-0.205c0-1.465-0.352-2.744-1.055-3.838c-1.465-2.344-3.74-3.516-6.826-3.516h-7.207V46.031z"/>
</g>
<g>
	<path d="M814.135,67.248c0.039-0.232,0.098-0.485,0.176-0.758c0.078-0.273,0.137-0.488,0.176-0.644l13.828-36.925
		c0.352-1.015,0.859-1.797,1.523-2.344c0.664-0.546,1.387-0.82,2.168-0.82s1.504,0.264,2.168,0.792s1.172,1.279,1.523,2.256
		l13.975,37.039c0.156,0.626,0.234,1.201,0.234,1.727s-0.229,0.974-0.688,1.344c-0.46,0.369-1.021,0.555-1.686,0.555
		c-1.465,0-2.393-0.652-2.783-1.957l-2.842-7.74h-19.775l-2.842,7.74c-0.352,1.227-1.25,1.84-2.695,1.84
		c-0.664,0-1.221-0.186-1.67-0.555C814.477,68.427,814.213,67.911,814.135,67.248z M823.744,55.201h16.641l-8.32-23.232h-0.117
		L823.744,55.201z"/>
</g>
<g>
	<path d="M930.878,66.656V29.039c0-1.015,0.277-1.738,0.833-2.168c0.556-0.429,1.135-0.645,1.74-0.645h10.611
		c3.819,0,7.025,1.144,9.617,3.432c2.709,2.386,4.103,5.7,4.181,9.942c0,3.695-1.257,6.863-3.77,9.503
		c-2.532,2.639-5.639,3.959-9.32,3.959h-8.678v13.715c0,0.781-0.259,1.404-0.776,1.873c-0.518,0.467-1.133,0.701-1.846,0.701
		s-1.323-0.244-1.831-0.732S930.878,67.477,930.878,66.656z M936.093,48.492h7.5c2.656,0,4.829-0.85,6.519-2.549
		s2.534-3.882,2.534-6.548s-0.84-4.765-2.52-6.299c-1.68-1.533-3.779-2.3-6.299-2.3h-7.734V48.492z"/>
</g>
</svg>
