<svg id="Layer_1" data-name="Layer 1" xmlns="http://www.w3.org/2000/svg" viewBox="0 0 49.9815 45.7107"><defs><style>.cls-1{fill:none;}</style></defs><path class="cls-1" d="M45.7107,4.2893A14.6447,14.6447,0,0,0,25,4.2893,14.6447,14.6447,0,0,0,4.2893,25L25,45.7107,45.7107,25A14.6447,14.6447,0,0,0,45.7107,4.2893Z" transform="translate(-0.0185 0)"/><path d="M35.3553,6.6667A7.978,7.978,0,0,1,40.9967,20.286L25,36.2826,9.0033,20.286A7.9781,7.9781,0,0,1,20.286,9.0033L25,13.7174l4.714-4.7141a7.926,7.926,0,0,1,5.6413-2.3366m0-6.6667A14.5984,14.5984,0,0,0,25,4.2893,14.6447,14.6447,0,0,0,4.2893,25L25,45.7107,45.7107,25A14.6447,14.6447,0,0,0,35.3553,0Z" transform="translate(-0.0185 0)"/></svg>